<?xml version="1.0" encoding="UTF-8" standalone="no"?>
<!DOCTYPE svg PUBLIC "-//W3C//DTD SVG 1.1//EN" "http://www.w3.org/Graphics/SVG/1.1/DTD/svg11.dtd">
<svg width="100%" height="100%" viewBox="0 0 222 259" version="1.1" xmlns="http://www.w3.org/2000/svg" xmlns:xlink="http://www.w3.org/1999/xlink" xml:space="preserve" xmlns:serif="http://www.serif.com/" style="fill-rule:evenodd;clip-rule:evenodd;stroke-linejoin:round;stroke-miterlimit:2;">
    <g transform="matrix(1,0,0,1,-127.341,-888.054)">
        <g transform="matrix(1,0,0,1,0,-596.581)">
            <ellipse cx="238.283" cy="1700.34" rx="56.075" ry="39.538" style="fill:white;"/>
        </g>
        <g transform="matrix(4.16667,0,0,4.16667,130.505,1037.46)">
            <path d="M0,-15.384C0,-15.384 2.231,-4.134 1.5,6.116C1.5,6.116 -1.625,9.241 1.75,14.303L1.47,19.775L50.265,19.775L49.984,14.303C53.359,9.241 50.234,6.116 50.234,6.116C49.503,-4.134 51.734,-15.384 51.734,-15.384L50.297,-16.446C50.609,-17.009 51.395,-20.475 51.395,-20.475L50.443,-32.02C47.59,-30.843 45.75,-35.159 45.75,-35.159L5.984,-35.159C5.984,-35.159 4.145,-30.843 1.291,-32.02L0.34,-20.475C0.34,-20.475 1.125,-17.009 1.437,-16.446L0,-15.384Z" style="fill:white;fill-rule:nonzero;"/>
        </g>
        <g transform="matrix(-4.16667,0,0,4.16667,238.285,1138.09)">
            <path d="M0,-16.478C-6.731,-16.478 -12.208,-12.783 -12.208,-8.24C-12.208,-3.697 -6.731,0 0,0C6.731,0 12.208,-3.697 12.208,-8.24C12.208,-12.783 6.731,-16.478 0,-16.478" style="fill:white;fill-rule:nonzero;"/>
        </g>
        <g transform="matrix(4.16667,0,0,4.16667,238.285,1074.63)">
            <path d="M0,13.978C-5.94,13.978 -10.958,10.778 -10.958,6.989C-10.958,3.201 -5.94,-0 0,-0C5.94,-0 10.958,3.201 10.958,6.989C10.958,10.778 5.94,13.978 0,13.978M0,16.478C7.434,16.478 13.458,12.229 13.458,6.989C13.458,1.749 7.434,-2.5 0,-2.5C-7.433,-2.5 -13.458,1.749 -13.458,6.989C-13.458,12.229 -7.433,16.478 0,16.478" style="fill:rgb(220,221,222);fill-rule:nonzero;"/>
        </g>
        <g transform="matrix(4.16667,0,0,4.16667,282.023,902.121)">
            <path d="M0,55.208C0.83,54.547 1.545,53.808 2.113,53.007L4.355,53.007L5.989,51.717L4.468,51.717C4.812,50.698 4.992,49.787 5.047,48.981C5.588,49.718 6.74,50.826 8.472,50.163C8.078,50.274 6.47,50.509 5.022,47.476L5.019,47.49C4.73,45.087 3.361,43.994 3.361,43.994C4.78,46.785 4.453,49.261 3.991,50.757C3.982,50.768 3.695,51.167 3.115,51.177C3.465,50.29 3.664,49.357 3.664,48.392C3.664,42.771 -2.689,38.2 -10.497,38.2C-18.305,38.2 -24.658,42.771 -24.658,48.392C-24.658,49.357 -24.459,50.29 -24.109,51.177C-24.689,51.167 -24.977,50.768 -24.985,50.757C-25.447,49.261 -25.774,46.785 -24.355,43.994C-24.355,43.994 -25.725,45.087 -26.013,47.49L-26.017,47.476C-27.463,50.509 -29.072,50.274 -29.465,50.163C-27.734,50.826 -26.581,49.718 -26.041,48.981C-25.984,49.787 -25.807,50.698 -25.462,51.717L-26.983,51.717L-25.35,53.007L-23.107,53.007C-22.539,53.806 -21.83,54.541 -21.004,55.201C-21.053,55.229 -25.158,57.607 -28.307,55.567C-28.307,55.567 -27.379,57.46 -24.359,57.345L-24.376,57.349C-24.332,57.345 -24.297,57.347 -24.254,57.343C-24.23,57.343 -24.207,57.341 -24.184,57.339C-20.717,57.001 -19.099,58.473 -19.099,58.473C-19.605,57.283 -20.594,56.86 -21.395,56.719C-21.047,56.595 -20.686,56.453 -20.305,56.286L-20.301,56.28C-19.496,56.479 -18.41,56.913 -17.769,57.881L-12.582,58.473L-12.623,58.456C-11.928,58.531 -11.222,58.584 -10.497,58.584C-9.772,58.584 -9.066,58.531 -8.371,58.456L-8.412,58.473L-3.226,57.881C-2.588,56.922 -1.518,56.488 -0.713,56.286C-0.332,56.453 0.029,56.595 0.377,56.719C-0.424,56.86 -1.412,57.283 -1.92,58.473C-1.92,58.473 -0.301,57.001 3.167,57.339C3.189,57.341 3.213,57.343 3.236,57.343C3.279,57.347 3.314,57.345 3.357,57.349L3.342,57.345C6.359,57.46 7.289,55.567 7.289,55.567C4.198,57.571 0.192,55.32 0,55.208M-21.329,53.007C-21.51,52.806 -21.682,52.599 -21.842,52.388C-21.857,52.366 -21.873,52.342 -21.888,52.319C-22.034,52.124 -22.172,51.925 -22.295,51.719C-22.908,50.69 -23.252,49.569 -23.252,48.392C-23.252,43.549 -17.529,39.607 -10.497,39.607C-3.465,39.607 2.258,43.549 2.258,48.392C2.258,49.569 1.914,50.692 1.301,51.719C1.178,51.925 1.04,52.124 0.895,52.319C0.879,52.342 0.865,52.366 0.848,52.388C0.687,52.599 0.516,52.806 0.335,53.007C-1.917,55.504 -5.924,57.177 -10.497,57.177C-15.07,57.177 -19.077,55.504 -21.329,53.007M11.932,11.628C11.568,13.166 12.098,14.487 12.818,15.495C11.734,21.585 12.789,43.316 12.926,45.841C13.428,45.203 13.885,44.171 14.131,43.558C14.08,42.241 14.045,40.819 14.027,39.345C14.617,40.313 14.877,41.347 14.78,42.436C14.671,43.692 14.119,44.906 13.403,45.991C13.367,46.044 13.336,46.092 13.303,46.141C13.205,46.282 13.105,46.422 13.004,46.562C12.982,46.591 12.969,46.607 12.969,46.607L12.969,46.609C11.392,48.725 9.346,50.22 9.193,50.332C8.415,50.741 7.647,51.218 6.9,51.717L6.889,51.717L6.723,51.836C6.203,52.189 5.699,52.555 5.215,52.923L5.098,53.007C5.098,53.007 3.809,54.159 4.238,54.923C4.668,55.685 7.249,55.509 8.52,53.867C8.52,53.867 7.25,55.02 5.861,54.375C5.247,54.089 5.722,53.535 6.441,53.007L14.784,53.007L14.707,52.292C14.703,52.243 14.607,51.325 14.49,49.804C14.675,49.802 14.861,49.806 15.043,49.821L15.045,49.821C15.133,49.829 15.213,49.844 15.295,49.858C15.409,49.902 15.496,49.994 15.386,50.19C15.165,50.583 14.896,50.753 14.896,50.753C14.896,50.753 15.605,50.68 16.021,49.994C16.437,49.311 15.58,48.768 14.602,48.847L14.604,48.849C14.547,48.849 14.482,48.854 14.421,48.858C14.369,48.125 14.316,47.297 14.266,46.388C15.015,45.22 15.593,43.908 15.715,42.52C15.868,40.796 15.29,39.199 14.018,37.767C14.018,37.513 14.02,37.255 14.021,36.997C14.021,36.997 14.93,20.069 15.762,17.364L15.869,17.018L15.561,16.828C15.545,16.818 14.823,16.36 14.113,15.602C14.113,15.602 13.367,14.935 13.09,14.13C12.784,13.472 12.631,12.727 12.818,11.919C12.85,11.848 13.197,11.028 13.551,9.971L13.72,11.846C13.543,12.365 13.394,12.918 13.252,13.484C13.451,13.886 13.82,14.524 14.281,14.815C14.477,13.866 14.7,12.953 14.984,12.136L15.03,12.006L14.218,2.952C14.229,4.304 13.307,7.245 13.307,7.245C13.001,9.095 11.964,11.535 11.932,11.628M13.058,48.004C13.08,48.343 13.104,48.673 13.125,48.979C12.738,49.024 12.345,49.097 11.941,49.206C12.305,48.847 12.684,48.441 13.058,48.004M8.643,51.717C10.194,50.784 11.787,50.069 13.195,49.901C13.257,50.661 13.313,51.283 13.354,51.717L8.643,51.717ZM13.928,16.739C14.256,17.04 14.557,17.273 14.768,17.424C14.178,19.562 13.707,25.178 13.354,28.899C13.32,25.955 13.414,20.226 13.928,16.739M-34.15,5.577C-34.793,4.028 -35.097,0.739 -35.097,0.739L-35.072,0.461L-34.66,0.332C-33.693,0.032 -30.937,-1.174 -30.937,-2.73L-30.937,-3.376L9.942,-3.376L9.942,-2.73C9.942,-1.174 12.699,0.032 13.666,0.332L14.078,0.461L14.103,0.739C14.103,0.739 13.799,4.028 13.157,5.577L12.869,1.423C11.803,1.033 9.209,-0.109 8.729,-2.085L-29.723,-2.085C-30.203,-0.109 -32.797,1.033 -33.863,1.423L-34.15,5.577ZM-37.016,49.994C-36.6,50.68 -35.89,50.753 -35.89,50.753C-35.89,50.753 -36.159,50.583 -36.38,50.19C-36.49,49.994 -36.402,49.902 -36.289,49.858C-36.207,49.844 -36.126,49.829 -36.039,49.821L-36.037,49.821C-35.855,49.806 -35.669,49.802 -35.484,49.804C-35.602,51.325 -35.697,52.243 -35.701,52.292L-35.778,53.007L-27.46,53.007C-26.74,53.535 -26.265,54.089 -26.879,54.375C-28.269,55.02 -29.538,53.867 -29.538,53.867C-28.267,55.509 -25.687,55.685 -25.256,54.923C-24.826,54.159 -26.115,53.007 -26.115,53.007L-26.092,53.007L-26.209,52.923C-26.693,52.555 -27.197,52.189 -27.717,51.836L-27.883,51.717L-27.895,51.717C-28.641,51.218 -29.409,50.741 -30.187,50.332C-30.34,50.22 -32.386,48.725 -33.963,46.609L-33.963,46.607C-33.963,46.607 -33.977,46.591 -33.997,46.562C-34.1,46.422 -34.199,46.282 -34.297,46.141C-34.33,46.092 -34.361,46.044 -34.397,45.991C-35.113,44.906 -35.665,43.692 -35.774,42.436C-35.871,41.347 -35.611,40.313 -35.021,39.345C-35.039,40.819 -35.074,42.241 -35.125,43.558C-34.879,44.171 -34.422,45.203 -33.92,45.841C-33.783,43.316 -32.729,21.585 -33.812,15.495C-33.092,14.487 -32.563,13.166 -32.924,11.628C-32.957,11.535 -33.995,9.095 -34.301,7.245C-34.301,7.245 -35.224,4.304 -35.212,2.952L-36.023,12.006L-35.979,12.136C-35.694,12.953 -35.471,13.866 -35.273,14.815C-34.814,14.524 -34.445,13.886 -34.246,13.484C-34.387,12.918 -34.537,12.365 -34.714,11.846L-34.545,9.971C-34.191,11.028 -33.842,11.848 -33.812,11.919C-33.625,12.727 -33.778,13.472 -34.084,14.13C-34.361,14.935 -35.107,15.602 -35.107,15.602C-35.816,16.36 -36.539,16.818 -36.555,16.828L-36.863,17.018L-36.756,17.364C-35.923,20.069 -35.016,36.997 -35.016,36.997C-35.014,37.255 -35.012,37.513 -35.012,37.767C-36.284,39.199 -36.862,40.796 -36.709,42.52C-36.587,43.908 -36.008,45.22 -35.26,46.388C-35.311,47.297 -35.363,48.125 -35.415,48.858C-35.477,48.854 -35.541,48.849 -35.598,48.849L-35.596,48.847C-36.574,48.768 -37.432,49.311 -37.016,49.994M-34.051,48.004C-33.678,48.441 -33.298,48.847 -32.935,49.206C-33.339,49.097 -33.732,49.024 -34.119,48.979C-34.098,48.673 -34.074,48.343 -34.051,48.004M-34.189,49.901C-32.781,50.069 -31.188,50.784 -29.637,51.717L-34.348,51.717C-34.307,51.283 -34.251,50.661 -34.189,49.901M-35.762,17.424C-35.551,17.273 -35.25,17.04 -34.922,16.739C-34.408,20.226 -34.314,25.955 -34.347,28.899C-34.7,25.178 -35.171,19.562 -35.762,17.424" style="fill:rgb(35,31,32);fill-rule:nonzero;"/>
        </g>
    </g>
</svg>
