<?xml version="1.0" encoding="UTF-8" standalone="no"?>
<!DOCTYPE svg PUBLIC "-//W3C//DTD SVG 1.1//EN" "http://www.w3.org/Graphics/SVG/1.1/DTD/svg11.dtd">
<svg width="100%" height="100%" viewBox="0 0 222 259" version="1.1" xmlns="http://www.w3.org/2000/svg" xmlns:xlink="http://www.w3.org/1999/xlink" xml:space="preserve" xmlns:serif="http://www.serif.com/" style="fill-rule:evenodd;clip-rule:evenodd;stroke-linejoin:round;stroke-miterlimit:2;">
    <g transform="matrix(1,0,0,1,-127.343,-1782.94)">
        <g transform="matrix(1,0,0,1,0,298.302)">
            <ellipse cx="238.283" cy="1700.34" rx="56.075" ry="39.538" style="fill:white;"/>
        </g>
        <g transform="matrix(4.16667,0,0,4.16667,130.504,1932.34)">
            <path d="M0,-15.384C0,-15.384 2.231,-4.134 1.5,6.116C1.5,6.116 -1.625,9.241 1.75,14.303L1.47,19.775L50.265,19.775L49.984,14.303C53.359,9.241 50.234,6.116 50.234,6.116C49.503,-4.134 51.734,-15.384 51.734,-15.384L50.297,-16.446C50.609,-17.009 51.395,-20.475 51.395,-20.475L50.443,-32.02C47.59,-30.843 45.75,-35.159 45.75,-35.159L5.984,-35.159C5.984,-35.159 4.145,-30.843 1.291,-32.02L0.34,-20.475C0.34,-20.475 1.125,-17.009 1.437,-16.446L0,-15.384Z" style="fill:white;fill-rule:nonzero;"/>
        </g>
        <g transform="matrix(-4.16667,0,0,4.16667,238.284,2032.97)">
            <path d="M0,-16.478C-6.731,-16.478 -12.208,-12.783 -12.208,-8.24C-12.208,-3.697 -6.731,0 0,0C6.731,0 12.208,-3.697 12.208,-8.24C12.208,-12.783 6.731,-16.478 0,-16.478" style="fill:white;fill-rule:nonzero;"/>
        </g>
        <g transform="matrix(4.16667,0,0,4.16667,238.284,1969.52)">
            <path d="M0,13.978C-5.939,13.978 -10.958,10.778 -10.958,6.989C-10.958,3.201 -5.939,-0 0,-0C5.939,-0 10.958,3.201 10.958,6.989C10.958,10.778 5.939,13.978 0,13.978M0,16.478C7.434,16.478 13.458,12.229 13.458,6.989C13.458,1.749 7.434,-2.5 0,-2.5C-7.433,-2.5 -13.458,1.749 -13.458,6.989C-13.458,12.229 -7.433,16.478 0,16.478" style="fill:rgb(220,221,222);fill-rule:nonzero;"/>
        </g>
        <g transform="matrix(4.16667,0,0,4.16667,331.737,1988.85)">
            <path d="M0,-34.414C-0.363,-32.876 0.166,-31.555 0.886,-30.547C-0.197,-24.457 0.857,-2.726 0.994,-0.201C1.497,-0.839 1.953,-1.871 2.2,-2.484C2.149,-3.801 2.113,-5.223 2.096,-6.697C2.687,-5.728 2.944,-4.695 2.849,-3.606C2.739,-2.35 2.188,-1.136 1.472,-0.051C1.437,0.002 1.404,0.05 1.371,0.099C1.274,0.24 1.174,0.38 1.072,0.52C1.051,0.549 1.038,0.565 1.038,0.565L1.038,0.567C-0.54,2.683 -2.585,4.178 -2.739,4.29C-3.516,4.699 -4.285,5.176 -5.03,5.675L-5.042,5.675L-5.208,5.794C-5.729,6.148 -6.231,6.513 -6.717,6.881L-6.834,6.965L-6.828,6.965C-6.828,6.965 -7.99,7.794 -7.222,8.676C-7.222,8.676 -7.443,7.735 -5.519,6.965L2.853,6.965L2.776,6.25C2.771,6.201 2.677,5.283 2.56,3.762C2.742,3.76 2.93,3.764 3.111,3.779L3.112,3.779C3.2,3.787 3.282,3.802 3.364,3.816C3.478,3.86 3.564,3.952 3.453,4.149C3.232,4.541 2.964,4.711 2.964,4.711C2.964,4.711 3.675,4.638 4.09,3.952C4.506,3.269 3.649,2.726 2.671,2.805L2.671,2.807C2.616,2.807 2.551,2.813 2.489,2.816C2.438,2.083 2.384,1.255 2.334,0.346C3.083,-0.822 3.661,-2.134 3.784,-3.521C3.936,-5.246 3.358,-6.843 2.086,-8.275C2.086,-8.529 2.089,-8.787 2.091,-9.045C2.091,-9.045 2.997,-25.973 3.829,-28.678L3.938,-29.024L3.628,-29.214C3.613,-29.224 2.892,-29.682 2.182,-30.44C2.182,-30.44 1.437,-31.107 1.159,-31.912C0.853,-32.57 0.699,-33.315 0.886,-34.123C0.918,-34.194 1.266,-35.014 1.619,-36.071L1.788,-34.196C1.612,-33.677 1.462,-33.124 1.321,-32.558C1.519,-32.156 1.889,-31.518 2.35,-31.226C2.545,-32.176 2.769,-33.089 3.053,-33.906L3.098,-34.036L2.286,-43.09C2.297,-41.738 1.376,-38.797 1.376,-38.797C1.07,-36.947 0.032,-34.507 0,-34.414M1.126,1.962C1.148,2.301 1.172,2.631 1.194,2.938C0.807,2.982 0.413,3.055 0.01,3.164C0.374,2.805 0.752,2.399 1.126,1.962M-3.288,5.675C-1.737,4.742 -0.145,4.027 1.265,3.859C1.325,4.619 1.381,5.241 1.423,5.675L-3.288,5.675ZM1.997,-29.303C2.325,-29.002 2.625,-28.768 2.837,-28.618C2.247,-26.48 1.775,-20.864 1.422,-17.143C1.389,-20.087 1.481,-25.816 1.997,-29.303" style="fill:rgb(35,31,32);fill-rule:nonzero;"/>
        </g>
        <g transform="matrix(4.16667,0,0,4.16667,140.925,1800.25)">
            <path d="M0,0.645C1.067,0.255 3.66,-0.887 4.141,-2.863L42.593,-2.863C43.072,-0.887 45.666,0.255 46.732,0.645L47.021,4.799C47.662,3.25 47.966,-0.039 47.966,-0.039L47.942,-0.317L47.53,-0.446C46.562,-0.746 43.806,-1.952 43.806,-3.508L43.806,-4.154L2.927,-4.154L2.927,-3.508C2.927,-1.952 0.171,-0.746 -0.797,-0.446L-1.21,-0.317L-1.233,-0.039C-1.233,-0.039 -0.929,3.25 -0.288,4.799L0,0.645Z" style="fill:rgb(35,31,32);fill-rule:nonzero;"/>
        </g>
        <g transform="matrix(4.16667,0,0,4.16667,127.79,1828.99)">
            <path d="M0,42.318C0.417,43.004 1.126,43.077 1.126,43.077C1.126,43.077 0.856,42.907 0.636,42.514C0.526,42.318 0.612,42.226 0.726,42.182C0.809,42.168 0.89,42.153 0.978,42.145L0.979,42.145C1.16,42.13 1.347,42.126 1.531,42.128C1.414,43.649 1.319,44.567 1.313,44.616L1.237,45.331L9.609,45.331C11.534,46.101 11.312,47.042 11.312,47.042C12.081,46.16 10.918,45.331 10.918,45.331L10.925,45.331L10.808,45.247C10.322,44.879 9.819,44.513 9.298,44.16L9.133,44.041L9.122,44.041C8.376,43.542 7.606,43.065 6.829,42.656C6.675,42.544 4.63,41.048 3.053,38.933L3.053,38.931C3.053,38.931 3.04,38.915 3.018,38.885C2.916,38.746 2.816,38.606 2.72,38.464C2.687,38.416 2.655,38.368 2.618,38.315C1.903,37.23 1.351,36.016 1.241,34.759C1.146,33.671 1.404,32.637 1.994,31.669C1.977,33.143 1.94,34.565 1.891,35.881C2.138,36.495 2.594,37.527 3.097,38.165C3.233,35.64 4.288,13.909 3.204,7.819C3.925,6.811 4.454,5.49 4.091,3.952C4.058,3.859 3.021,1.419 2.715,-0.431C2.715,-0.431 1.792,-3.372 1.804,-4.724L0.991,4.33L1.038,4.46C1.321,5.277 1.546,6.19 1.741,7.139C2.201,6.848 2.571,6.21 2.771,5.808C2.628,5.242 2.479,4.689 2.302,4.17L2.471,2.295C2.825,3.352 3.173,4.172 3.204,4.243C3.391,5.05 3.237,5.796 2.931,6.454C2.655,7.258 1.907,7.925 1.907,7.925C1.198,8.684 0.477,9.142 0.462,9.152L0.153,9.341L0.261,9.688C1.093,12.393 2,29.321 2,29.321C2.002,29.579 2.005,29.837 2.005,30.09C0.731,31.523 0.153,33.12 0.306,34.844C0.429,36.232 1.007,37.544 1.756,38.712C1.706,39.621 1.652,40.449 1.6,41.182C1.54,41.178 1.476,41.172 1.419,41.172L1.42,41.171C0.441,41.091 -0.415,41.634 0,42.318M2.964,40.328C3.337,40.765 3.717,41.171 4.081,41.53C3.677,41.421 3.284,41.348 2.896,41.303C2.919,40.997 2.942,40.667 2.964,40.328M2.826,42.225C4.235,42.393 5.827,43.108 7.379,44.041L2.668,44.041C2.709,43.607 2.765,42.985 2.826,42.225M1.254,9.748C1.464,9.597 1.766,9.364 2.094,9.063C2.608,12.549 2.702,18.279 2.669,21.223C2.314,17.502 1.844,11.885 1.254,9.748" style="fill:rgb(35,31,32);fill-rule:nonzero;"/>
        </g>
        <g transform="matrix(4.16667,0,0,4.16667,299.01,1970.55)">
            <path d="M0,13.48C-0.067,13.425 -1.026,12.602 0.278,11.355L1.911,10.065L0.391,10.065C0.735,9.046 0.914,8.135 0.97,7.33C1.511,8.066 2.664,9.174 4.395,8.511C4.002,8.623 2.392,8.857 0.945,5.824L0.941,5.838C0.652,3.435 -0.715,2.342 -0.715,2.342C0.703,5.133 0.376,7.609 -0.086,9.105C-0.095,9.116 -0.382,9.515 -0.963,9.525C-0.611,8.638 -0.412,7.706 -0.412,6.74C-0.412,1.12 -6.766,-3.452 -14.574,-3.452C-22.383,-3.452 -28.735,1.12 -28.735,6.74C-28.735,7.706 -28.536,8.638 -28.186,9.525C-28.767,9.515 -29.055,9.116 -29.062,9.105C-29.523,7.609 -29.852,5.133 -28.433,2.342C-28.433,2.342 -29.801,3.435 -30.09,5.838L-30.094,5.824C-31.541,8.857 -33.148,8.623 -33.543,8.511C-31.812,9.174 -30.658,8.066 -30.117,7.33C-30.062,8.135 -29.883,9.046 -29.539,10.065L-31.061,10.065L-29.428,11.355C-28.121,12.602 -29.08,13.425 -29.146,13.48C-30.748,14.16 -32.988,14.596 -35.43,13.485C-35.43,13.485 -34.453,14.931 -32.967,15.324C-32.967,15.324 -30.632,14.473 -29.408,14.775C-29.408,14.775 -27.374,12.195 -25.459,13.251C-25.362,13.335 -25.256,13.411 -25.154,13.491C-25.129,13.511 -25.104,13.531 -25.078,13.551C-29.023,14.092 -28.735,16.821 -28.735,16.821C-28.338,15.623 -26.75,15.752 -26.75,15.752C-26.4,14.431 -24.383,14.63 -24.361,14.634C-24.162,14.684 -23.945,14.748 -23.724,14.831C-23.662,14.855 -23.601,14.889 -23.539,14.915C-23.375,14.984 -23.21,15.052 -23.047,15.144C-22.92,15.216 -22.805,15.313 -22.684,15.399C-22.588,15.468 -22.486,15.522 -22.398,15.6C-22.194,15.78 -22.006,15.987 -21.846,16.229L-16.658,16.821L-16.699,16.804C-16.695,16.806 -16.693,16.806 -16.689,16.806C-16.371,16.841 -16.051,16.873 -15.726,16.89C-15.346,16.917 -14.962,16.932 -14.574,16.932C-14.186,16.932 -13.802,16.917 -13.424,16.89C-13.098,16.873 -12.778,16.841 -12.459,16.806C-12.455,16.806 -12.453,16.806 -12.449,16.804L-12.49,16.821L-7.303,16.229C-6.666,15.27 -5.595,14.836 -4.79,14.634C-4.79,14.634 -2.75,14.423 -2.397,15.752C-2.397,15.752 -0.812,15.623 -0.412,16.821C-0.412,16.821 -0.125,14.092 -4.069,13.551C-4.044,13.531 -4.02,13.511 -3.994,13.491C-3.893,13.411 -3.785,13.335 -3.688,13.251C-1.773,12.195 0.261,14.775 0.261,14.775C1.484,14.473 3.819,15.324 3.819,15.324C5.305,14.931 6.282,13.485 6.282,13.485C3.84,14.596 1.601,14.16 0,13.48M-14.574,-2.044C-7.541,-2.044 -1.819,1.897 -1.819,6.74C-1.819,7.918 -2.163,9.041 -2.776,10.067C-2.899,10.273 -3.037,10.472 -3.182,10.667C-3.198,10.69 -3.214,10.714 -3.229,10.736C-3.39,10.947 -3.561,11.154 -3.742,11.355C-4.572,12.275 -5.641,13.081 -6.888,13.732C-6.934,13.758 -6.981,13.783 -7.029,13.806C-7.408,14.001 -7.804,14.179 -8.213,14.343C-8.25,14.358 -8.283,14.375 -8.319,14.386C-8.769,14.563 -9.234,14.72 -9.716,14.859C-9.744,14.867 -9.775,14.873 -9.803,14.881C-10.225,14.999 -10.658,15.097 -11.1,15.184C-11.236,15.212 -11.374,15.235 -11.512,15.257C-11.871,15.32 -12.236,15.369 -12.607,15.41C-12.751,15.424 -12.896,15.443 -13.041,15.457C-13.545,15.498 -14.055,15.525 -14.574,15.525C-15.094,15.525 -15.604,15.498 -16.105,15.457C-16.254,15.443 -16.396,15.424 -16.542,15.41C-16.912,15.369 -17.277,15.32 -17.637,15.257C-17.773,15.235 -17.911,15.212 -18.048,15.184C-18.49,15.097 -18.924,14.999 -19.345,14.881C-19.374,14.873 -19.404,14.867 -19.433,14.859C-19.913,14.72 -20.379,14.563 -20.83,14.386C-20.865,14.375 -20.899,14.358 -20.936,14.343C-21.345,14.179 -21.738,14.001 -22.119,13.806C-22.166,13.783 -22.213,13.758 -22.262,13.732C-23.506,13.081 -24.576,12.275 -25.406,11.355C-25.587,11.154 -25.758,10.947 -25.918,10.736C-25.935,10.714 -25.949,10.692 -25.965,10.669C-26.111,10.472 -26.248,10.273 -26.371,10.067C-26.984,9.041 -27.328,7.918 -27.328,6.74C-27.328,1.897 -21.606,-2.044 -14.574,-2.044M-28.098,12.959C-28.051,12.295 -28.342,11.718 -28.6,11.355L-27.186,11.355C-27.031,11.57 -26.868,11.778 -26.695,11.983L-26.709,11.992C-26.709,11.992 -27.225,12.459 -28.098,12.959M-1.051,12.959C-1.923,12.459 -2.44,11.992 -2.44,11.992L-2.452,11.983C-2.279,11.778 -2.115,11.57 -1.964,11.355L-0.548,11.355C-0.808,11.718 -1.098,12.295 -1.051,12.959" style="fill:rgb(35,31,32);fill-rule:nonzero;"/>
        </g>
    </g>
</svg>
