<?xml version="1.0" encoding="UTF-8" standalone="no"?>
<!DOCTYPE svg PUBLIC "-//W3C//DTD SVG 1.1//EN" "http://www.w3.org/Graphics/SVG/1.1/DTD/svg11.dtd">
<svg width="100%" height="100%" viewBox="0 0 600 600" version="1.1" xmlns="http://www.w3.org/2000/svg" xmlns:xlink="http://www.w3.org/1999/xlink" xml:space="preserve" xmlns:serif="http://www.serif.com/" style="fill-rule:evenodd;clip-rule:evenodd;stroke-linecap:round;stroke-linejoin:round;stroke-miterlimit:1.5;">
    <g transform="matrix(1.15385,0,0,1.15385,-43.6118,-34.6154)">
        <rect x="37.797" y="30" width="520" height="520" style="fill:rgb(235,235,235);"/>
    </g>
    <path d="M315,30L300,0L285,30L315,30Z"/>
    <path d="M315,570L300,600L285,570L315,570Z"/>
    <path d="M300,24L300,576" style="fill:none;stroke:black;stroke-width:5px;"/>
    <g transform="matrix(6.12323e-17,-1,1,6.12323e-17,0,600)">
        <g transform="matrix(6.12323e-17,1,-1,6.12323e-17,600,-3.67394e-14)">
            <path d="M30,285L0,300L30,315L30,285Z"/>
            <path d="M570,285L600,300L570,315L570,285Z"/>
            <path d="M24,300L576,300" style="fill:none;stroke:black;stroke-width:5px;"/>
        </g>
    </g>
    <g>
        <rect x="40" y="293.973" width="70.57" height="11.656" style="fill:rgb(235,235,235);"/>
        <path d="M113.07,293.973C113.07,292.592 111.951,291.473 110.57,291.473L40,291.473C38.619,291.473 37.5,292.592 37.5,293.973L37.5,305.629C37.5,307.01 38.619,308.129 40,308.129L110.57,308.129C111.951,308.129 113.07,307.01 113.07,305.629L113.07,293.973ZM110.57,293.973L40,293.973L40,305.629L110.57,305.629L110.57,293.973Z" style="fill:rgb(235,235,235);"/>
        <rect x="263.555" y="293.973" width="69.313" height="11.656" style="fill:rgb(235,235,235);"/>
        <path d="M335.367,293.973C335.367,292.592 334.248,291.473 332.867,291.473L263.555,291.473C262.174,291.473 261.055,292.592 261.055,293.973L261.055,305.629C261.055,307.01 262.174,308.129 263.555,308.129L332.867,308.129C334.248,308.129 335.367,307.01 335.367,305.629L335.367,293.973ZM332.867,293.973L263.555,293.973L263.555,305.629L332.867,305.629L332.867,293.973Z" style="fill:rgb(235,235,235);"/>
        <rect x="496" y="293.973" width="64" height="11.656" style="fill:rgb(235,235,235);"/>
        <path d="M562.5,293.973C562.5,292.592 561.381,291.473 560,291.473L496,291.473C494.619,291.473 493.5,292.592 493.5,293.973L493.5,305.629C493.5,307.01 494.619,308.129 496,308.129L560,308.129C561.381,308.129 562.5,307.01 562.5,305.629L562.5,293.973ZM560,293.973L496,293.973L496,305.629L560,305.629L560,293.973Z" style="fill:rgb(235,235,235);"/>
        <rect x="294.473" y="527" width="11.453" height="33" style="fill:rgb(235,235,235);"/>
        <path d="M308.426,527C308.426,525.619 307.306,524.5 305.926,524.5L294.473,524.5C293.092,524.5 291.973,525.619 291.973,527L291.973,560C291.973,561.381 293.092,562.5 294.473,562.5L305.926,562.5C307.306,562.5 308.426,561.381 308.426,560L308.426,527ZM305.926,527L294.473,527L294.473,560L305.926,560L305.926,527Z" style="fill:rgb(235,235,235);"/>
        <rect x="294.473" y="40" width="11.25" height="47.188" style="fill:rgb(235,235,235);"/>
        <path d="M308.223,40C308.223,38.619 307.103,37.5 305.723,37.5L294.473,37.5C293.092,37.5 291.973,38.619 291.973,40L291.973,87.188C291.973,88.568 293.092,89.688 294.473,89.688L305.723,89.688C307.103,89.688 308.223,88.568 308.223,87.188L308.223,40ZM305.723,40L294.473,40L294.473,87.188L305.723,87.188L305.723,40Z" style="fill:rgb(235,235,235);"/>
    </g>
    <g transform="matrix(1,0,0,1,68.3359,61.168)">
        <path d="M195.219,244.461L195.219,233.008L196.773,233.008L202.789,242L202.789,233.008L204.242,233.008L204.242,244.461L202.688,244.461L196.672,235.461L196.672,244.461L195.219,244.461Z" style="fill-rule:nonzero;"/>
        <path d="M206.82,244.461L206.82,233.008L215.102,233.008L215.102,234.359L208.336,234.359L208.336,237.867L214.672,237.867L214.672,239.211L208.336,239.211L208.336,243.109L215.367,243.109L215.367,244.461L206.82,244.461Z" style="fill-rule:nonzero;"/>
        <path d="M224.977,233.008L226.492,233.008L226.492,239.625C226.492,240.776 226.362,241.69 226.102,242.367C225.841,243.044 225.371,243.595 224.691,244.02C224.012,244.444 223.12,244.656 222.016,244.656C220.943,244.656 220.065,244.471 219.383,244.102C218.701,243.732 218.214,243.197 217.922,242.496C217.63,241.796 217.484,240.839 217.484,239.625L217.484,233.008L219,233.008L219,239.617C219,240.612 219.092,241.345 219.277,241.816C219.462,242.288 219.78,242.651 220.23,242.906C220.681,243.161 221.232,243.289 221.883,243.289C222.997,243.289 223.792,243.036 224.266,242.531C224.74,242.026 224.977,241.055 224.977,239.617L224.977,233.008Z" style="fill-rule:nonzero;"/>
        <path d="M231.93,244.461L231.93,234.359L228.156,234.359L228.156,233.008L237.234,233.008L237.234,234.359L233.445,234.359L233.445,244.461L231.93,244.461Z" style="fill-rule:nonzero;"/>
        <path d="M238.813,244.461L238.813,233.008L243.891,233.008C244.911,233.008 245.688,233.111 246.219,233.316C246.75,233.522 247.174,233.885 247.492,234.406C247.81,234.927 247.969,235.503 247.969,236.133C247.969,236.945 247.706,237.63 247.18,238.188C246.654,238.745 245.841,239.099 244.742,239.25C245.143,239.443 245.448,239.633 245.656,239.82C246.099,240.227 246.518,240.734 246.914,241.344L248.906,244.461L247,244.461L245.484,242.078C245.042,241.391 244.677,240.865 244.391,240.5C244.104,240.135 243.848,239.88 243.621,239.734C243.395,239.589 243.164,239.487 242.93,239.43C242.758,239.393 242.477,239.375 242.086,239.375L240.328,239.375L240.328,244.461L238.813,244.461ZM240.328,238.063L243.586,238.063C244.279,238.063 244.82,237.991 245.211,237.848C245.602,237.704 245.898,237.475 246.102,237.16C246.305,236.845 246.406,236.503 246.406,236.133C246.406,235.591 246.21,235.146 245.816,234.797C245.423,234.448 244.802,234.273 243.953,234.273L240.328,234.273L240.328,238.063Z" style="fill-rule:nonzero;"/>
        <path d="M249.086,244.461L253.484,233.008L255.117,233.008L259.805,244.461L258.078,244.461L256.742,240.992L251.953,240.992L250.695,244.461L249.086,244.461ZM252.391,239.758L256.273,239.758L255.078,236.586C254.714,235.622 254.443,234.831 254.266,234.211C254.12,234.945 253.914,235.674 253.648,236.398L252.391,239.758Z" style="fill-rule:nonzero;"/>
        <path d="M260.953,244.461L260.953,233.008L262.469,233.008L262.469,243.109L268.109,243.109L268.109,244.461L260.953,244.461Z" style="fill-rule:nonzero;"/>
    </g>
    <g transform="matrix(-1.83697e-16,1,-1,-1.83697e-16,538.73,-154.852)">
        <path d="M200.594,239.969L200.594,238.625L205.445,238.617L205.445,242.867C204.701,243.461 203.932,243.908 203.141,244.207C202.349,244.507 201.536,244.656 200.703,244.656C199.578,244.656 198.556,244.415 197.637,243.934C196.717,243.452 196.023,242.755 195.555,241.844C195.086,240.932 194.852,239.914 194.852,238.789C194.852,237.674 195.085,236.634 195.551,235.668C196.017,234.702 196.688,233.984 197.563,233.516C198.438,233.047 199.445,232.813 200.586,232.813C201.414,232.813 202.163,232.947 202.832,233.215C203.501,233.483 204.026,233.857 204.406,234.336C204.786,234.815 205.076,235.44 205.273,236.211L203.906,236.586C203.734,236.003 203.521,235.544 203.266,235.211C203.01,234.878 202.646,234.611 202.172,234.41C201.698,234.21 201.172,234.109 200.594,234.109C199.901,234.109 199.302,234.215 198.797,234.426C198.292,234.637 197.884,234.914 197.574,235.258C197.264,235.602 197.023,235.979 196.852,236.391C196.56,237.099 196.414,237.867 196.414,238.695C196.414,239.716 196.59,240.57 196.941,241.258C197.293,241.945 197.805,242.456 198.477,242.789C199.148,243.122 199.862,243.289 200.617,243.289C201.273,243.289 201.914,243.163 202.539,242.91C203.164,242.658 203.638,242.388 203.961,242.102L203.961,239.969L200.594,239.969Z" style="fill-rule:nonzero;"/>
        <path d="M207.219,238.883C207.219,236.982 207.729,235.493 208.75,234.418C209.771,233.342 211.089,232.805 212.703,232.805C213.76,232.805 214.714,233.057 215.563,233.563C216.411,234.068 217.059,234.772 217.504,235.676C217.949,236.579 218.172,237.604 218.172,238.75C218.172,239.911 217.938,240.951 217.469,241.867C217,242.784 216.336,243.478 215.477,243.949C214.617,244.421 213.69,244.656 212.695,244.656C211.617,244.656 210.654,244.396 209.805,243.875C208.956,243.354 208.313,242.643 207.875,241.742C207.438,240.841 207.219,239.888 207.219,238.883ZM208.781,238.906C208.781,240.286 209.152,241.374 209.895,242.168C210.637,242.962 211.568,243.359 212.688,243.359C213.828,243.359 214.767,242.958 215.504,242.156C216.241,241.354 216.609,240.216 216.609,238.742C216.609,237.81 216.452,236.996 216.137,236.301C215.822,235.605 215.361,235.066 214.754,234.684C214.147,234.301 213.466,234.109 212.711,234.109C211.638,234.109 210.715,234.478 209.941,235.215C209.168,235.952 208.781,237.182 208.781,238.906Z" style="fill-rule:nonzero;"/>
        <path d="M219.664,238.883C219.664,236.982 220.174,235.493 221.195,234.418C222.216,233.342 223.534,232.805 225.148,232.805C226.206,232.805 227.159,233.057 228.008,233.563C228.857,234.068 229.504,234.772 229.949,235.676C230.395,236.579 230.617,237.604 230.617,238.75C230.617,239.911 230.383,240.951 229.914,241.867C229.445,242.784 228.781,243.478 227.922,243.949C227.063,244.421 226.135,244.656 225.141,244.656C224.063,244.656 223.099,244.396 222.25,243.875C221.401,243.354 220.758,242.643 220.32,241.742C219.883,240.841 219.664,239.888 219.664,238.883ZM221.227,238.906C221.227,240.286 221.598,241.374 222.34,242.168C223.082,242.962 224.013,243.359 225.133,243.359C226.273,243.359 227.212,242.958 227.949,242.156C228.686,241.354 229.055,240.216 229.055,238.742C229.055,237.81 228.897,236.996 228.582,236.301C228.267,235.605 227.806,235.066 227.199,234.684C226.592,234.301 225.911,234.109 225.156,234.109C224.083,234.109 223.16,234.478 222.387,235.215C221.613,235.952 221.227,237.182 221.227,238.906Z" style="fill-rule:nonzero;"/>
        <path d="M232.57,244.461L232.57,233.008L236.516,233.008C237.406,233.008 238.086,233.063 238.555,233.172C239.211,233.323 239.771,233.596 240.234,233.992C240.839,234.503 241.29,235.155 241.59,235.949C241.889,236.743 242.039,237.651 242.039,238.672C242.039,239.542 241.938,240.313 241.734,240.984C241.531,241.656 241.271,242.212 240.953,242.652C240.635,243.092 240.288,243.439 239.91,243.691C239.533,243.944 239.077,244.135 238.543,244.266C238.009,244.396 237.396,244.461 236.703,244.461L232.57,244.461ZM234.086,243.109L236.531,243.109C237.286,243.109 237.879,243.039 238.309,242.898C238.738,242.758 239.081,242.56 239.336,242.305C239.695,241.945 239.975,241.462 240.176,240.855C240.376,240.249 240.477,239.513 240.477,238.648C240.477,237.451 240.28,236.53 239.887,235.887C239.493,235.243 239.016,234.813 238.453,234.594C238.047,234.438 237.393,234.359 236.492,234.359L234.086,234.359L234.086,243.109Z" style="fill-rule:nonzero;"/>
    </g>
    <g transform="matrix(-1.83697e-16,1,-1,-1.83697e-16,538.934,331.883)">
        <path d="M195.266,244.461L195.266,233.008L203.547,233.008L203.547,234.359L196.781,234.359L196.781,237.867L203.117,237.867L203.117,239.211L196.781,239.211L196.781,243.109L203.813,243.109L203.813,244.461L195.266,244.461Z" style="fill-rule:nonzero;"/>
        <path d="M209.18,244.461L204.742,233.008L206.383,233.008L209.359,241.328C209.599,241.995 209.799,242.62 209.961,243.203C210.138,242.578 210.344,241.953 210.578,241.328L213.672,233.008L215.219,233.008L210.734,244.461L209.18,244.461Z" style="fill-rule:nonzero;"/>
        <rect x="216.836" y="233.008" width="1.516" height="11.453" style="fill-rule:nonzero;"/>
        <path d="M220.961,244.461L220.961,233.008L222.477,233.008L222.477,243.109L228.117,243.109L228.117,244.461L220.961,244.461Z" style="fill-rule:nonzero;"/>
    </g>
    <g transform="matrix(1,0,0,1,302.266,60.9648)">
        <path d="M195.172,244.461L195.172,233.008L196.688,233.008L196.688,243.109L202.328,243.109L202.328,244.461L195.172,244.461Z" style="fill-rule:nonzero;"/>
        <path d="M202.875,244.461L207.273,233.008L208.906,233.008L213.594,244.461L211.867,244.461L210.531,240.992L205.742,240.992L204.484,244.461L202.875,244.461ZM206.18,239.758L210.063,239.758L208.867,236.586C208.503,235.622 208.232,234.831 208.055,234.211C207.909,234.945 207.703,235.674 207.438,236.398L206.18,239.758Z" style="fill-rule:nonzero;"/>
        <path d="M216.211,244.461L213.172,233.008L214.727,233.008L216.469,240.516C216.656,241.302 216.818,242.083 216.953,242.859C217.245,241.635 217.417,240.93 217.469,240.742L219.648,233.008L221.477,233.008L223.117,238.805C223.529,240.242 223.826,241.594 224.008,242.859C224.154,242.135 224.344,241.305 224.578,240.367L226.375,233.008L227.898,233.008L224.758,244.461L223.297,244.461L220.883,235.734C220.68,235.005 220.56,234.557 220.523,234.391C220.404,234.917 220.292,235.365 220.188,235.734L217.758,244.461L216.211,244.461Z" style="fill-rule:nonzero;"/>
        <path d="M229.391,244.461L229.391,233.008L237.117,233.008L237.117,234.359L230.906,234.359L230.906,237.906L236.281,237.906L236.281,239.258L230.906,239.258L230.906,244.461L229.391,244.461Z" style="fill-rule:nonzero;"/>
        <path d="M246.602,233.008L248.117,233.008L248.117,239.625C248.117,240.776 247.987,241.69 247.727,242.367C247.466,243.044 246.996,243.595 246.316,244.02C245.637,244.444 244.745,244.656 243.641,244.656C242.568,244.656 241.69,244.471 241.008,244.102C240.326,243.732 239.839,243.197 239.547,242.496C239.255,241.796 239.109,240.839 239.109,239.625L239.109,233.008L240.625,233.008L240.625,239.617C240.625,240.612 240.717,241.345 240.902,241.816C241.087,242.288 241.405,242.651 241.855,242.906C242.306,243.161 242.857,243.289 243.508,243.289C244.622,243.289 245.417,243.036 245.891,242.531C246.365,242.026 246.602,241.055 246.602,239.617L246.602,233.008Z" style="fill-rule:nonzero;"/>
        <path d="M250.578,244.461L250.578,233.008L252.094,233.008L252.094,243.109L257.734,243.109L257.734,244.461L250.578,244.461Z" style="fill-rule:nonzero;"/>
    </g>
    <g transform="matrix(1,0,0,1,-154.797,61.168)">
        <path d="M203.406,240.445L204.922,240.828C204.604,242.073 204.033,243.022 203.207,243.676C202.382,244.329 201.372,244.656 200.18,244.656C198.945,244.656 197.941,244.405 197.168,243.902C196.395,243.4 195.806,242.672 195.402,241.719C194.999,240.766 194.797,239.742 194.797,238.648C194.797,237.456 195.025,236.415 195.48,235.527C195.936,234.639 196.585,233.965 197.426,233.504C198.267,233.043 199.193,232.813 200.203,232.813C201.349,232.813 202.313,233.104 203.094,233.688C203.875,234.271 204.419,235.091 204.727,236.148L203.234,236.5C202.969,235.667 202.583,235.06 202.078,234.68C201.573,234.299 200.938,234.109 200.172,234.109C199.292,234.109 198.556,234.32 197.965,234.742C197.374,235.164 196.958,235.73 196.719,236.441C196.479,237.152 196.359,237.885 196.359,238.641C196.359,239.615 196.501,240.465 196.785,241.191C197.069,241.918 197.51,242.461 198.109,242.82C198.708,243.18 199.357,243.359 200.055,243.359C200.904,243.359 201.622,243.115 202.211,242.625C202.799,242.135 203.198,241.409 203.406,240.445Z" style="fill-rule:nonzero;"/>
        <path d="M206.836,244.461L206.836,233.008L208.352,233.008L208.352,237.711L214.305,237.711L214.305,233.008L215.82,233.008L215.82,244.461L214.305,244.461L214.305,239.063L208.352,239.063L208.352,244.461L206.836,244.461Z" style="fill-rule:nonzero;"/>
        <path d="M217.086,244.461L221.484,233.008L223.117,233.008L227.805,244.461L226.078,244.461L224.742,240.992L219.953,240.992L218.695,244.461L217.086,244.461ZM220.391,239.758L224.273,239.758L223.078,236.586C222.714,235.622 222.443,234.831 222.266,234.211C222.12,234.945 221.914,235.674 221.648,236.398L220.391,239.758Z" style="fill-rule:nonzero;"/>
        <path d="M228.555,238.883C228.555,236.982 229.065,235.493 230.086,234.418C231.107,233.342 232.424,232.805 234.039,232.805C235.096,232.805 236.049,233.057 236.898,233.563C237.747,234.068 238.395,234.772 238.84,235.676C239.285,236.579 239.508,237.604 239.508,238.75C239.508,239.911 239.273,240.951 238.805,241.867C238.336,242.784 237.672,243.478 236.813,243.949C235.953,244.421 235.026,244.656 234.031,244.656C232.953,244.656 231.99,244.396 231.141,243.875C230.292,243.354 229.648,242.643 229.211,241.742C228.773,240.841 228.555,239.888 228.555,238.883ZM230.117,238.906C230.117,240.286 230.488,241.374 231.23,242.168C231.973,242.962 232.904,243.359 234.023,243.359C235.164,243.359 236.103,242.958 236.84,242.156C237.577,241.354 237.945,240.216 237.945,238.742C237.945,237.81 237.788,236.996 237.473,236.301C237.158,235.605 236.697,235.066 236.09,234.684C235.483,234.301 234.802,234.109 234.047,234.109C232.974,234.109 232.051,234.478 231.277,235.215C230.504,235.952 230.117,237.182 230.117,238.906Z" style="fill-rule:nonzero;"/>
        <path d="M244.375,244.461L244.375,234.359L240.602,234.359L240.602,233.008L249.68,233.008L249.68,234.359L245.891,234.359L245.891,244.461L244.375,244.461Z" style="fill-rule:nonzero;"/>
        <rect x="251.492" y="233.008" width="1.516" height="11.453" style="fill-rule:nonzero;"/>
        <path d="M263.852,240.445L265.367,240.828C265.049,242.073 264.478,243.022 263.652,243.676C262.827,244.329 261.818,244.656 260.625,244.656C259.391,244.656 258.387,244.405 257.613,243.902C256.84,243.4 256.251,242.672 255.848,241.719C255.444,240.766 255.242,239.742 255.242,238.648C255.242,237.456 255.47,236.415 255.926,235.527C256.382,234.639 257.03,233.965 257.871,233.504C258.712,233.043 259.638,232.813 260.648,232.813C261.794,232.813 262.758,233.104 263.539,233.688C264.32,234.271 264.865,235.091 265.172,236.148L263.68,236.5C263.414,235.667 263.029,235.06 262.523,234.68C262.018,234.299 261.383,234.109 260.617,234.109C259.737,234.109 259.001,234.32 258.41,234.742C257.819,235.164 257.404,235.73 257.164,236.441C256.924,237.152 256.805,237.885 256.805,238.641C256.805,239.615 256.947,240.465 257.23,241.191C257.514,241.918 257.956,242.461 258.555,242.82C259.154,243.18 259.802,243.359 260.5,243.359C261.349,243.359 262.068,243.115 262.656,242.625C263.245,242.135 263.643,241.409 263.852,240.445Z" style="fill-rule:nonzero;"/>
    </g>
    <g transform="matrix(0.796813,0,0,0.787402,31.0757,58.2677)">
        <rect x="212" y="180" width="251" height="254" style="fill:none;stroke:black;stroke-opacity:0.2;stroke-width:3.16px;stroke-dasharray:3.16,9.47,0,0;"/>
    </g>
    <g transform="matrix(1.59363,0,0,1.5748,-237.849,-183.465)">
        <rect x="212" y="180" width="251" height="254" style="fill:none;stroke:black;stroke-opacity:0.2;stroke-width:1.58px;stroke-dasharray:1.58,4.73,0,0;"/>
    </g>
</svg>
