<?xml version="1.0" encoding="UTF-8" standalone="no"?>
<!DOCTYPE svg PUBLIC "-//W3C//DTD SVG 1.1//EN" "http://www.w3.org/Graphics/SVG/1.1/DTD/svg11.dtd">
<svg width="100%" height="100%" viewBox="0 0 600 600" version="1.1" xmlns="http://www.w3.org/2000/svg" xmlns:xlink="http://www.w3.org/1999/xlink" xml:space="preserve" xmlns:serif="http://www.serif.com/" style="fill-rule:evenodd;clip-rule:evenodd;stroke-linecap:round;stroke-linejoin:round;stroke-miterlimit:1.5;">
    <g transform="matrix(1.15385,0,0,1.15385,-43.6118,-34.6154)">
        <rect x="37.797" y="30" width="520" height="520" style="fill:rgb(235,235,235);"/>
    </g>
    <g opacity="0.2">
        <path d="M307.5,15L300,0L292.5,15L307.5,15Z"/>
        <path d="M307.5,585L300,600L292.5,585L307.5,585Z"/>
        <path d="M300,12L300,588" style="fill:none;stroke:black;stroke-width:5px;"/>
        <g transform="matrix(6.12323e-17,-1,1,6.12323e-17,0,600)">
            <g transform="matrix(6.12323e-17,1,-1,6.12323e-17,600,-3.67394e-14)">
                <path d="M15,292.5L0,300L15,307.5L15,292.5Z"/>
                <path d="M585,292.5L600,300L585,307.5L585,292.5Z"/>
                <path d="M12,300L588,300" style="fill:none;stroke:black;stroke-width:5px;"/>
            </g>
        </g>
    </g>
    <g>
        <rect x="263.879" y="283.277" width="72.891" height="30.453" style="fill:rgb(235,235,235);"/>
        <path d="M341.77,283.277C341.77,280.515 339.531,278.277 336.77,278.277L263.879,278.277C261.117,278.277 258.879,280.515 258.879,283.277L258.879,313.73C258.879,316.491 261.117,318.73 263.879,318.73L336.77,318.73C339.531,318.73 341.77,316.491 341.77,313.73L341.77,283.277ZM336.77,283.277L263.879,283.277L263.879,313.73L336.77,313.73L336.77,283.277Z" style="fill:rgb(235,235,235);"/>
        <g transform="matrix(1,0,0,1,0.484375,-198.703)">
            <rect x="263.879" y="283.277" width="72.891" height="30.453" style="fill:rgb(235,235,235);"/>
            <path d="M341.77,283.277C341.77,280.515 339.531,278.277 336.77,278.277L263.879,278.277C261.117,278.277 258.879,280.515 258.879,283.277L258.879,313.73C258.879,316.491 261.117,318.73 263.879,318.73L336.77,318.73C339.531,318.73 341.77,316.491 341.77,313.73L341.77,283.277ZM336.77,283.277L263.879,283.277L263.879,313.73L336.77,313.73L336.77,283.277Z" style="fill:rgb(235,235,235);"/>
        </g>
        <g transform="matrix(1,0,0,1,-3.50781,201.5)">
            <rect x="263.879" y="283.277" width="72.891" height="30.453" style="fill:rgb(235,235,235);"/>
            <path d="M341.77,283.277C341.77,280.515 339.531,278.277 336.77,278.277L263.879,278.277C261.117,278.277 258.879,280.515 258.879,283.277L258.879,313.73C258.879,316.491 261.117,318.73 263.879,318.73L336.77,318.73C339.531,318.73 341.77,316.491 341.77,313.73L341.77,283.277ZM336.77,283.277L263.879,283.277L263.879,313.73L336.77,313.73L336.77,283.277Z" style="fill:rgb(235,235,235);"/>
        </g>
        <g transform="matrix(0.968167,0,0,1,-190.682,0)">
            <rect x="263.879" y="283.277" width="72.891" height="30.453" style="fill:rgb(235,235,235);"/>
            <path d="M341.934,283.277C341.934,280.515 339.622,278.277 336.77,278.277L263.879,278.277C261.027,278.277 258.715,280.515 258.715,283.277L258.715,313.73C258.715,316.491 261.027,318.73 263.879,318.73L336.77,318.73C339.622,318.73 341.934,316.491 341.934,313.73L341.934,283.277ZM336.77,283.277L263.879,283.277L263.879,313.73L336.77,313.73L336.77,283.277Z" style="fill:rgb(235,235,235);"/>
        </g>
        <g transform="matrix(1.01163,0,0,1,196.072,0)">
            <rect x="263.879" y="283.277" width="72.891" height="30.453" style="fill:rgb(235,235,235);"/>
            <path d="M341.712,283.277C341.712,280.515 339.499,278.277 336.77,278.277L263.879,278.277C261.149,278.277 258.936,280.515 258.936,283.277L258.936,313.73C258.936,316.491 261.149,318.73 263.879,318.73L336.77,318.73C339.499,318.73 341.712,316.491 341.712,313.73L341.712,283.277ZM336.77,283.277L263.879,283.277L263.879,313.73L336.77,313.73L336.77,283.277Z" style="fill:rgb(235,235,235);"/>
        </g>
    </g>
    <g transform="matrix(0.707107,1.5,-0.707107,1.5,200,5.88633e-15)">
        <path d="M0,0L200,200" style="fill:none;stroke:black;stroke-opacity:0.2;stroke-width:1.18px;stroke-dasharray:1.18,3.54,0,0;"/>
    </g>
    <g transform="matrix(0.707107,1.5,-0.707107,1.5,400,5.88633e-15)">
        <path d="M0,0L200,200" style="fill:none;stroke:black;stroke-opacity:0.2;stroke-width:1.18px;stroke-dasharray:1.18,3.54,0,0;"/>
    </g>
    <g transform="matrix(1.5,-0.707107,1.5,0.707107,1.3182e-13,400)">
        <path d="M0,0L200,200" style="fill:none;stroke:black;stroke-opacity:0.2;stroke-width:1.18px;stroke-dasharray:1.18,3.54,0,0;"/>
    </g>
    <g transform="matrix(1.5,-0.707107,1.5,0.707107,1.44066e-13,200)">
        <path d="M0,0L200,200" style="fill:none;stroke:black;stroke-opacity:0.2;stroke-width:1.18px;stroke-dasharray:1.18,3.54,0,0;"/>
    </g>
    <g>
        <g transform="matrix(1.22727,0,0,1.26925,145.364,-317.086)">
            <path d="M111.636,482.03L111.636,474.071L108.561,474.071L108.561,473.006L115.958,473.006L115.958,474.071L112.871,474.071L112.871,482.03L111.636,482.03Z" style="fill-rule:nonzero;"/>
            <path d="M117.244,482.03L117.244,473.006L121.382,473.006C122.213,473.006 122.846,473.087 123.279,473.249C123.712,473.411 124.057,473.698 124.316,474.108C124.575,474.518 124.705,474.972 124.705,475.468C124.705,476.108 124.49,476.648 124.062,477.087C123.633,477.526 122.971,477.805 122.076,477.924C122.402,478.076 122.651,478.226 122.82,478.374C123.181,478.694 123.523,479.094 123.845,479.574L125.468,482.03L123.915,482.03L122.68,480.152C122.32,479.611 122.022,479.196 121.789,478.909C121.556,478.622 121.347,478.421 121.162,478.306C120.977,478.191 120.79,478.111 120.599,478.066C120.459,478.037 120.229,478.023 119.911,478.023L118.479,478.023L118.479,482.03L117.244,482.03ZM118.479,476.989L121.133,476.989C121.698,476.989 122.139,476.932 122.457,476.819C122.776,476.706 123.018,476.526 123.183,476.278C123.349,476.029 123.431,475.76 123.431,475.468C123.431,475.041 123.271,474.691 122.951,474.416C122.63,474.141 122.124,474.003 121.433,474.003L118.479,474.003L118.479,476.989Z" style="fill-rule:nonzero;"/>
            <path d="M132.764,473.006L133.999,473.006L133.999,478.22C133.999,479.126 133.892,479.847 133.68,480.38C133.468,480.914 133.085,481.347 132.531,481.682C131.977,482.016 131.251,482.184 130.351,482.184C129.477,482.184 128.762,482.038 128.206,481.747C127.65,481.455 127.253,481.034 127.015,480.482C126.778,479.93 126.659,479.176 126.659,478.22L126.659,473.006L127.894,473.006L127.894,478.213C127.894,478.997 127.969,479.575 128.12,479.946C128.27,480.318 128.529,480.604 128.896,480.805C129.264,481.006 129.712,481.106 130.243,481.106C131.151,481.106 131.798,480.907 132.184,480.509C132.571,480.111 132.764,479.346 132.764,478.213L132.764,473.006Z" style="fill-rule:nonzero;"/>
            <path d="M136.08,482.03L136.08,473.006L142.828,473.006L142.828,474.071L137.315,474.071L137.315,476.835L142.478,476.835L142.478,477.893L137.315,477.893L137.315,480.965L143.044,480.965L143.044,482.03L136.08,482.03Z" style="fill-rule:nonzero;"/>
            <path d="M96.568,496.999L96.568,487.976L97.835,487.976L102.736,495.06L102.736,487.976L103.92,487.976L103.92,496.999L102.654,496.999L97.752,489.908L97.752,496.999L96.568,496.999Z" style="fill-rule:nonzero;"/>
            <path d="M106.021,496.999L106.021,487.976L112.769,487.976L112.769,489.04L107.256,489.04L107.256,491.804L112.419,491.804L112.419,492.863L107.256,492.863L107.256,495.934L112.985,495.934L112.985,496.999L106.021,496.999Z" style="fill-rule:nonzero;"/>
            <path d="M120.815,487.976L122.05,487.976L122.05,493.189C122.05,494.096 121.944,494.816 121.732,495.35C121.52,495.883 121.137,496.317 120.583,496.651C120.029,496.986 119.302,497.153 118.402,497.153C117.528,497.153 116.813,497.007 116.257,496.716C115.701,496.425 115.304,496.003 115.067,495.451C114.829,494.899 114.71,494.145 114.71,493.189L114.71,487.976L115.945,487.976L115.945,493.183C115.945,493.967 116.021,494.544 116.171,494.916C116.322,495.287 116.581,495.573 116.948,495.774C117.315,495.975 117.764,496.076 118.294,496.076C119.202,496.076 119.85,495.877 120.236,495.479C120.622,495.081 120.815,494.316 120.815,493.183L120.815,487.976Z" style="fill-rule:nonzero;"/>
            <path d="M126.481,496.999L126.481,489.04L123.406,489.04L123.406,487.976L130.803,487.976L130.803,489.04L127.716,489.04L127.716,496.999L126.481,496.999Z" style="fill-rule:nonzero;"/>
            <path d="M132.089,496.999L132.089,487.976L136.227,487.976C137.058,487.976 137.691,488.057 138.124,488.219C138.556,488.381 138.902,488.667 139.161,489.077C139.42,489.488 139.549,489.941 139.549,490.438C139.549,491.078 139.335,491.617 138.907,492.057C138.478,492.496 137.816,492.775 136.92,492.894C137.247,493.045 137.495,493.195 137.665,493.343C138.026,493.663 138.368,494.063 138.69,494.543L140.313,496.999L138.76,496.999L137.525,495.122C137.164,494.58 136.867,494.166 136.634,493.878C136.401,493.591 136.192,493.39 136.007,493.275C135.822,493.16 135.635,493.08 135.444,493.035C135.304,493.007 135.074,492.992 134.756,492.992L133.324,492.992L133.324,496.999L132.089,496.999ZM133.324,491.958L135.978,491.958C136.543,491.958 136.984,491.902 137.302,491.789C137.621,491.676 137.863,491.495 138.028,491.247C138.194,490.999 138.276,490.729 138.276,490.438C138.276,490.011 138.116,489.66 137.796,489.385C137.475,489.11 136.969,488.973 136.277,488.973L133.324,488.973L133.324,491.958Z" style="fill-rule:nonzero;"/>
            <path d="M140.46,496.999L144.044,487.976L145.374,487.976L149.194,496.999L147.787,496.999L146.698,494.266L142.796,494.266L141.771,496.999L140.46,496.999ZM143.152,493.294L146.316,493.294L145.342,490.795C145.045,490.036 144.825,489.412 144.68,488.924C144.561,489.502 144.394,490.077 144.177,490.647L143.152,493.294Z" style="fill-rule:nonzero;"/>
            <path d="M150.129,496.999L150.129,487.976L151.364,487.976L151.364,495.934L155.96,495.934L155.96,496.999L150.129,496.999Z" style="fill-rule:nonzero;"/>
        </g>
        <g transform="matrix(1.22727,0,0,1.26925,345.364,-317.086)">
            <path d="M100.757,482.03L100.757,473.006L101.992,473.006L101.992,480.965L106.588,480.965L106.588,482.03L100.757,482.03Z" style="fill-rule:nonzero;"/>
            <path d="M107.033,482.03L110.617,473.006L111.948,473.006L115.767,482.03L114.36,482.03L113.272,479.297L109.37,479.297L108.345,482.03L107.033,482.03ZM109.726,478.324L112.89,478.324L111.916,475.825C111.619,475.066 111.398,474.442 111.254,473.954C111.135,474.533 110.967,475.107 110.751,475.678L109.726,478.324Z" style="fill-rule:nonzero;"/>
            <path d="M117.9,482.03L115.423,473.006L116.69,473.006L118.11,478.921C118.262,479.541 118.394,480.156 118.504,480.768C118.742,479.804 118.882,479.248 118.924,479.1L120.701,473.006L122.19,473.006L123.527,477.573C123.862,478.706 124.104,479.771 124.253,480.768C124.371,480.197 124.526,479.543 124.717,478.804L126.181,473.006L127.423,473.006L124.864,482.03L123.673,482.03L121.706,475.154C121.541,474.58 121.443,474.227 121.413,474.096C121.316,474.51 121.225,474.863 121.14,475.154L119.16,482.03L117.9,482.03Z" style="fill-rule:nonzero;"/>
            <path d="M128.639,482.03L128.639,473.006L134.934,473.006L134.934,474.071L129.874,474.071L129.874,476.865L134.253,476.865L134.253,477.93L129.874,477.93L129.874,482.03L128.639,482.03Z" style="fill-rule:nonzero;"/>
            <path d="M142.662,473.006L143.897,473.006L143.897,478.22C143.897,479.126 143.791,479.847 143.579,480.38C143.367,480.914 142.984,481.347 142.43,481.682C141.876,482.016 141.149,482.184 140.25,482.184C139.375,482.184 138.66,482.038 138.104,481.747C137.549,481.455 137.152,481.034 136.914,480.482C136.676,479.93 136.558,479.176 136.558,478.22L136.558,473.006L137.793,473.006L137.793,478.213C137.793,478.997 137.868,479.575 138.019,479.946C138.169,480.318 138.428,480.604 138.795,480.805C139.162,481.006 139.611,481.106 140.141,481.106C141.05,481.106 141.697,480.907 142.083,480.509C142.469,480.111 142.662,479.346 142.662,478.213L142.662,473.006Z" style="fill-rule:nonzero;"/>
            <path d="M145.902,482.03L145.902,473.006L147.137,473.006L147.137,480.965L151.734,480.965L151.734,482.03L145.902,482.03Z" style="fill-rule:nonzero;"/>
            <path d="M96.568,496.999L96.568,487.976L97.835,487.976L102.736,495.06L102.736,487.976L103.92,487.976L103.92,496.999L102.654,496.999L97.752,489.908L97.752,496.999L96.568,496.999Z" style="fill-rule:nonzero;"/>
            <path d="M106.021,496.999L106.021,487.976L112.769,487.976L112.769,489.04L107.256,489.04L107.256,491.804L112.419,491.804L112.419,492.863L107.256,492.863L107.256,495.934L112.985,495.934L112.985,496.999L106.021,496.999Z" style="fill-rule:nonzero;"/>
            <path d="M120.815,487.976L122.05,487.976L122.05,493.189C122.05,494.096 121.944,494.816 121.732,495.35C121.52,495.883 121.137,496.317 120.583,496.651C120.029,496.986 119.302,497.153 118.402,497.153C117.528,497.153 116.813,497.007 116.257,496.716C115.701,496.425 115.304,496.003 115.067,495.451C114.829,494.899 114.71,494.145 114.71,493.189L114.71,487.976L115.945,487.976L115.945,493.183C115.945,493.967 116.021,494.544 116.171,494.916C116.322,495.287 116.581,495.573 116.948,495.774C117.315,495.975 117.764,496.076 118.294,496.076C119.202,496.076 119.85,495.877 120.236,495.479C120.622,495.081 120.815,494.316 120.815,493.183L120.815,487.976Z" style="fill-rule:nonzero;"/>
            <path d="M126.481,496.999L126.481,489.04L123.406,489.04L123.406,487.976L130.803,487.976L130.803,489.04L127.716,489.04L127.716,496.999L126.481,496.999Z" style="fill-rule:nonzero;"/>
            <path d="M132.089,496.999L132.089,487.976L136.227,487.976C137.058,487.976 137.691,488.057 138.124,488.219C138.556,488.381 138.902,488.667 139.161,489.077C139.42,489.488 139.549,489.941 139.549,490.438C139.549,491.078 139.335,491.617 138.907,492.057C138.478,492.496 137.816,492.775 136.92,492.894C137.247,493.045 137.495,493.195 137.665,493.343C138.026,493.663 138.368,494.063 138.69,494.543L140.313,496.999L138.76,496.999L137.525,495.122C137.164,494.58 136.867,494.166 136.634,493.878C136.401,493.591 136.192,493.39 136.007,493.275C135.822,493.16 135.635,493.08 135.444,493.035C135.304,493.007 135.074,492.992 134.756,492.992L133.324,492.992L133.324,496.999L132.089,496.999ZM133.324,491.958L135.978,491.958C136.543,491.958 136.984,491.902 137.302,491.789C137.621,491.676 137.863,491.495 138.028,491.247C138.194,490.999 138.276,490.729 138.276,490.438C138.276,490.011 138.116,489.66 137.796,489.385C137.475,489.11 136.969,488.973 136.277,488.973L133.324,488.973L133.324,491.958Z" style="fill-rule:nonzero;"/>
            <path d="M140.46,496.999L144.044,487.976L145.374,487.976L149.194,496.999L147.787,496.999L146.698,494.266L142.796,494.266L141.771,496.999L140.46,496.999ZM143.152,493.294L146.316,493.294L145.342,490.795C145.045,490.036 144.825,489.412 144.68,488.924C144.561,489.502 144.394,490.077 144.177,490.647L143.152,493.294Z" style="fill-rule:nonzero;"/>
            <path d="M150.129,496.999L150.129,487.976L151.364,487.976L151.364,495.934L155.96,495.934L155.96,496.999L150.129,496.999Z" style="fill-rule:nonzero;"/>
        </g>
        <g transform="matrix(1.22727,0,0,1.26925,-54.6364,-317.086)">
            <path d="M104.331,478.866L105.566,479.168C105.307,480.148 104.841,480.896 104.169,481.411C103.496,481.926 102.674,482.184 101.702,482.184C100.696,482.184 99.878,481.986 99.248,481.59C98.618,481.194 98.138,480.62 97.809,479.869C97.48,479.118 97.316,478.312 97.316,477.45C97.316,476.511 97.502,475.691 97.873,474.991C98.244,474.292 98.773,473.76 99.458,473.397C100.143,473.034 100.898,472.852 101.721,472.852C102.655,472.852 103.44,473.082 104.076,473.542C104.713,474.001 105.156,474.648 105.407,475.481L104.191,475.758C103.975,475.101 103.66,474.623 103.249,474.323C102.837,474.024 102.319,473.874 101.696,473.874C100.978,473.874 100.379,474.04 99.897,474.373C99.416,474.705 99.077,475.151 98.882,475.711C98.687,476.271 98.589,476.849 98.589,477.444C98.589,478.211 98.705,478.881 98.936,479.454C99.167,480.026 99.527,480.454 100.015,480.737C100.503,481.02 101.031,481.162 101.6,481.162C102.292,481.162 102.878,480.969 103.357,480.583C103.837,480.197 104.161,479.625 104.331,478.866Z" style="fill-rule:nonzero;"/>
            <path d="M107.126,482.03L107.126,473.006L108.361,473.006L108.361,476.712L113.211,476.712L113.211,473.006L114.446,473.006L114.446,482.03L113.211,482.03L113.211,477.776L108.361,477.776L108.361,482.03L107.126,482.03Z" style="fill-rule:nonzero;"/>
            <path d="M115.477,482.03L119.061,473.006L120.392,473.006L124.211,482.03L122.804,482.03L121.716,479.297L117.814,479.297L116.789,482.03L115.477,482.03ZM118.17,478.324L121.334,478.324L120.36,475.825C120.063,475.066 119.842,474.442 119.698,473.954C119.579,474.533 119.411,475.107 119.195,475.678L118.17,478.324Z" style="fill-rule:nonzero;"/>
            <path d="M124.822,477.635C124.822,476.137 125.238,474.965 126.07,474.117C126.902,473.27 127.976,472.846 129.291,472.846C130.153,472.846 130.929,473.045 131.621,473.443C132.313,473.841 132.84,474.396 133.203,475.108C133.566,475.82 133.747,476.627 133.747,477.53C133.747,478.445 133.556,479.264 133.174,479.986C132.792,480.708 132.251,481.255 131.551,481.627C130.851,481.998 130.095,482.184 129.285,482.184C128.406,482.184 127.621,481.978 126.929,481.568C126.238,481.158 125.714,480.598 125.357,479.888C125.001,479.178 124.822,478.427 124.822,477.635ZM126.095,477.653C126.095,478.741 126.398,479.597 127.003,480.223C127.607,480.849 128.366,481.162 129.278,481.162C130.208,481.162 130.973,480.846 131.573,480.214C132.174,479.582 132.474,478.685 132.474,477.524C132.474,476.79 132.346,476.148 132.089,475.601C131.832,475.053 131.457,474.628 130.962,474.326C130.468,474.025 129.913,473.874 129.297,473.874C128.423,473.874 127.671,474.164 127.041,474.745C126.411,475.326 126.095,476.295 126.095,477.653Z" style="fill-rule:nonzero;"/>
            <path d="M137.713,482.03L137.713,474.071L134.638,474.071L134.638,473.006L142.035,473.006L142.035,474.071L138.948,474.071L138.948,482.03L137.713,482.03Z" style="fill-rule:nonzero;"/>
            <rect x="143.512" y="473.006" width="1.235" height="9.024" style="fill-rule:nonzero;"/>
            <path d="M153.583,478.866L154.818,479.168C154.559,480.148 154.093,480.896 153.42,481.411C152.748,481.926 151.926,482.184 150.954,482.184C149.948,482.184 149.13,481.986 148.5,481.59C147.87,481.194 147.39,480.62 147.061,479.869C146.732,479.118 146.568,478.312 146.568,477.45C146.568,476.511 146.753,475.691 147.125,474.991C147.496,474.292 148.024,473.76 148.71,473.397C149.395,473.034 150.149,472.852 150.973,472.852C151.906,472.852 152.692,473.082 153.328,473.542C153.965,474.001 154.408,474.648 154.659,475.481L153.443,475.758C153.226,475.101 152.912,474.623 152.501,474.323C152.089,474.024 151.571,473.874 150.947,473.874C150.23,473.874 149.631,474.04 149.149,474.373C148.667,474.705 148.329,475.151 148.134,475.711C147.938,476.271 147.841,476.849 147.841,477.444C147.841,478.211 147.957,478.881 148.188,479.454C148.419,480.026 148.779,480.454 149.267,480.737C149.755,481.02 150.283,481.162 150.852,481.162C151.544,481.162 152.129,480.969 152.609,480.583C153.088,480.197 153.413,479.625 153.583,478.866Z" style="fill-rule:nonzero;"/>
            <path d="M96.568,496.999L96.568,487.976L97.835,487.976L102.736,495.06L102.736,487.976L103.92,487.976L103.92,496.999L102.654,496.999L97.752,489.908L97.752,496.999L96.568,496.999Z" style="fill-rule:nonzero;"/>
            <path d="M106.021,496.999L106.021,487.976L112.769,487.976L112.769,489.04L107.256,489.04L107.256,491.804L112.419,491.804L112.419,492.863L107.256,492.863L107.256,495.934L112.985,495.934L112.985,496.999L106.021,496.999Z" style="fill-rule:nonzero;"/>
            <path d="M120.815,487.976L122.05,487.976L122.05,493.189C122.05,494.096 121.944,494.816 121.732,495.35C121.52,495.883 121.137,496.317 120.583,496.651C120.029,496.986 119.302,497.153 118.402,497.153C117.528,497.153 116.813,497.007 116.257,496.716C115.701,496.425 115.304,496.003 115.067,495.451C114.829,494.899 114.71,494.145 114.71,493.189L114.71,487.976L115.945,487.976L115.945,493.183C115.945,493.967 116.021,494.544 116.171,494.916C116.322,495.287 116.581,495.573 116.948,495.774C117.315,495.975 117.764,496.076 118.294,496.076C119.202,496.076 119.85,495.877 120.236,495.479C120.622,495.081 120.815,494.316 120.815,493.183L120.815,487.976Z" style="fill-rule:nonzero;"/>
            <path d="M126.481,496.999L126.481,489.04L123.406,489.04L123.406,487.976L130.803,487.976L130.803,489.04L127.716,489.04L127.716,496.999L126.481,496.999Z" style="fill-rule:nonzero;"/>
            <path d="M132.089,496.999L132.089,487.976L136.227,487.976C137.058,487.976 137.691,488.057 138.124,488.219C138.556,488.381 138.902,488.667 139.161,489.077C139.42,489.488 139.549,489.941 139.549,490.438C139.549,491.078 139.335,491.617 138.907,492.057C138.478,492.496 137.816,492.775 136.92,492.894C137.247,493.045 137.495,493.195 137.665,493.343C138.026,493.663 138.368,494.063 138.69,494.543L140.313,496.999L138.76,496.999L137.525,495.122C137.164,494.58 136.867,494.166 136.634,493.878C136.401,493.591 136.192,493.39 136.007,493.275C135.822,493.16 135.635,493.08 135.444,493.035C135.304,493.007 135.074,492.992 134.756,492.992L133.324,492.992L133.324,496.999L132.089,496.999ZM133.324,491.958L135.978,491.958C136.543,491.958 136.984,491.902 137.302,491.789C137.621,491.676 137.863,491.495 138.028,491.247C138.194,490.999 138.276,490.729 138.276,490.438C138.276,490.011 138.116,489.66 137.796,489.385C137.475,489.11 136.969,488.973 136.277,488.973L133.324,488.973L133.324,491.958Z" style="fill-rule:nonzero;"/>
            <path d="M140.46,496.999L144.044,487.976L145.374,487.976L149.194,496.999L147.787,496.999L146.698,494.266L142.796,494.266L141.771,496.999L140.46,496.999ZM143.152,493.294L146.316,493.294L145.342,490.795C145.045,490.036 144.825,489.412 144.68,488.924C144.561,489.502 144.394,490.077 144.177,490.647L143.152,493.294Z" style="fill-rule:nonzero;"/>
            <path d="M150.129,496.999L150.129,487.976L151.364,487.976L151.364,495.934L155.96,495.934L155.96,496.999L150.129,496.999Z" style="fill-rule:nonzero;"/>
        </g>
        <g transform="matrix(1.22727,0,0,1.26925,145.364,-515.586)">
            <path d="M96.568,482.03L96.568,473.006L97.835,473.006L102.736,480.091L102.736,473.006L103.92,473.006L103.92,482.03L102.654,482.03L97.752,474.939L97.752,482.03L96.568,482.03Z" style="fill-rule:nonzero;"/>
            <path d="M106.021,482.03L106.021,473.006L112.769,473.006L112.769,474.071L107.256,474.071L107.256,476.835L112.419,476.835L112.419,477.893L107.256,477.893L107.256,480.965L112.985,480.965L112.985,482.03L106.021,482.03Z" style="fill-rule:nonzero;"/>
            <path d="M120.815,473.006L122.05,473.006L122.05,478.22C122.05,479.126 121.944,479.847 121.732,480.38C121.52,480.914 121.137,481.347 120.583,481.682C120.029,482.016 119.302,482.184 118.402,482.184C117.528,482.184 116.813,482.038 116.257,481.747C115.701,481.455 115.304,481.034 115.067,480.482C114.829,479.93 114.71,479.176 114.71,478.22L114.71,473.006L115.945,473.006L115.945,478.213C115.945,478.997 116.021,479.575 116.171,479.946C116.322,480.318 116.581,480.604 116.948,480.805C117.315,481.006 117.764,481.106 118.294,481.106C119.202,481.106 119.85,480.907 120.236,480.509C120.622,480.111 120.815,479.346 120.815,478.213L120.815,473.006Z" style="fill-rule:nonzero;"/>
            <path d="M126.481,482.03L126.481,474.071L123.406,474.071L123.406,473.006L130.803,473.006L130.803,474.071L127.716,474.071L127.716,482.03L126.481,482.03Z" style="fill-rule:nonzero;"/>
            <path d="M132.089,482.03L132.089,473.006L136.227,473.006C137.058,473.006 137.691,473.087 138.124,473.249C138.556,473.411 138.902,473.698 139.161,474.108C139.42,474.518 139.549,474.972 139.549,475.468C139.549,476.108 139.335,476.648 138.907,477.087C138.478,477.526 137.816,477.805 136.92,477.924C137.247,478.076 137.495,478.226 137.665,478.374C138.026,478.694 138.368,479.094 138.69,479.574L140.313,482.03L138.76,482.03L137.525,480.152C137.164,479.611 136.867,479.196 136.634,478.909C136.401,478.622 136.192,478.421 136.007,478.306C135.822,478.191 135.635,478.111 135.444,478.066C135.304,478.037 135.074,478.023 134.756,478.023L133.324,478.023L133.324,482.03L132.089,482.03ZM133.324,476.989L135.978,476.989C136.543,476.989 136.984,476.932 137.302,476.819C137.621,476.706 137.863,476.526 138.028,476.278C138.194,476.029 138.276,475.76 138.276,475.468C138.276,475.041 138.116,474.691 137.796,474.416C137.475,474.141 136.969,474.003 136.277,474.003L133.324,474.003L133.324,476.989Z" style="fill-rule:nonzero;"/>
            <path d="M140.46,482.03L144.044,473.006L145.374,473.006L149.194,482.03L147.787,482.03L146.698,479.297L142.796,479.297L141.771,482.03L140.46,482.03ZM143.152,478.324L146.316,478.324L145.342,475.825C145.045,475.066 144.825,474.442 144.68,473.954C144.561,474.533 144.394,475.107 144.177,475.678L143.152,478.324Z" style="fill-rule:nonzero;"/>
            <path d="M150.129,482.03L150.129,473.006L151.364,473.006L151.364,480.965L155.96,480.965L155.96,482.03L150.129,482.03Z" style="fill-rule:nonzero;"/>
            <path d="M111.454,493.46L111.454,492.401L115.407,492.395L115.407,495.744C114.801,496.211 114.175,496.563 113.53,496.799C112.884,497.035 112.222,497.153 111.543,497.153C110.627,497.153 109.794,496.963 109.045,496.584C108.296,496.204 107.73,495.655 107.348,494.937C106.966,494.219 106.775,493.417 106.775,492.531C106.775,491.652 106.965,490.833 107.345,490.071C107.725,489.31 108.271,488.745 108.984,488.376C109.697,488.006 110.519,487.822 111.448,487.822C112.123,487.822 112.733,487.927 113.278,488.139C113.823,488.35 114.251,488.645 114.561,489.022C114.871,489.4 115.106,489.892 115.267,490.499L114.153,490.795C114.013,490.335 113.839,489.974 113.631,489.711C113.423,489.449 113.126,489.238 112.74,489.081C112.354,488.923 111.925,488.844 111.454,488.844C110.89,488.844 110.402,488.927 109.99,489.093C109.579,489.259 109.246,489.478 108.994,489.748C108.741,490.019 108.545,490.317 108.405,490.641C108.167,491.199 108.049,491.804 108.049,492.457C108.049,493.261 108.192,493.934 108.478,494.476C108.765,495.017 109.182,495.419 109.729,495.682C110.277,495.945 110.858,496.076 111.473,496.076C112.008,496.076 112.53,495.976 113.039,495.777C113.549,495.578 113.935,495.366 114.198,495.14L114.198,493.46L111.454,493.46Z" style="fill-rule:nonzero;"/>
            <path d="M116.852,492.604C116.852,491.107 117.268,489.934 118.1,489.087C118.932,488.239 120.006,487.816 121.321,487.816C122.183,487.816 122.959,488.015 123.651,488.413C124.343,488.811 124.87,489.366 125.233,490.078C125.596,490.79 125.777,491.597 125.777,492.5C125.777,493.415 125.586,494.233 125.204,494.956C124.822,495.678 124.281,496.225 123.581,496.596C122.881,496.967 122.125,497.153 121.315,497.153C120.436,497.153 119.651,496.948 118.959,496.538C118.268,496.127 117.744,495.567 117.387,494.857C117.031,494.147 116.852,493.396 116.852,492.604ZM118.126,492.623C118.126,493.71 118.428,494.567 119.033,495.193C119.637,495.818 120.396,496.131 121.308,496.131C122.238,496.131 123.003,495.815 123.603,495.183C124.204,494.551 124.504,493.655 124.504,492.494C124.504,491.759 124.376,491.118 124.119,490.57C123.862,490.022 123.487,489.598 122.992,489.296C122.498,488.994 121.943,488.844 121.328,488.844C120.453,488.844 119.701,489.134 119.071,489.714C118.441,490.295 118.126,491.265 118.126,492.623Z" style="fill-rule:nonzero;"/>
            <path d="M126.993,492.604C126.993,491.107 127.409,489.934 128.241,489.087C129.073,488.239 130.146,487.816 131.462,487.816C132.323,487.816 133.1,488.015 133.792,488.413C134.483,488.811 135.011,489.366 135.374,490.078C135.736,490.79 135.918,491.597 135.918,492.5C135.918,493.415 135.727,494.233 135.345,494.956C134.963,495.678 134.422,496.225 133.722,496.596C133.021,496.967 132.266,497.153 131.455,497.153C130.577,497.153 129.792,496.948 129.1,496.538C128.408,496.127 127.884,495.567 127.528,494.857C127.171,494.147 126.993,493.396 126.993,492.604ZM128.266,492.623C128.266,493.71 128.569,494.567 129.173,495.193C129.778,495.818 130.537,496.131 131.449,496.131C132.378,496.131 133.143,495.815 133.744,495.183C134.344,494.551 134.645,493.655 134.645,492.494C134.645,491.759 134.516,491.118 134.26,490.57C134.003,490.022 133.627,489.598 133.133,489.296C132.638,488.994 132.084,488.844 131.468,488.844C130.594,488.844 129.842,489.134 129.212,489.714C128.581,490.295 128.266,491.265 128.266,492.623Z" style="fill-rule:nonzero;"/>
            <path d="M137.509,496.999L137.509,487.976L140.724,487.976C141.45,487.976 142.003,488.019 142.385,488.105C142.92,488.224 143.376,488.439 143.754,488.751C144.246,489.153 144.614,489.667 144.859,490.293C145.103,490.919 145.225,491.634 145.225,492.438C145.225,493.123 145.142,493.731 144.976,494.26C144.811,494.789 144.599,495.228 144.34,495.574C144.081,495.921 143.798,496.194 143.49,496.393C143.182,496.592 142.811,496.743 142.376,496.845C141.941,496.948 141.441,496.999 140.877,496.999L137.509,496.999ZM138.744,495.934L140.737,495.934C141.352,495.934 141.835,495.879 142.185,495.768C142.535,495.657 142.814,495.501 143.022,495.3C143.315,495.017 143.543,494.637 143.706,494.159C143.87,493.681 143.951,493.101 143.951,492.42C143.951,491.476 143.791,490.751 143.471,490.244C143.15,489.737 142.761,489.397 142.303,489.225C141.972,489.102 141.439,489.04 140.705,489.04L138.744,489.04L138.744,495.934Z" style="fill-rule:nonzero;"/>
        </g>
        <g transform="matrix(1.22727,0,0,1.26925,342.864,-515.586)">
            <path d="M100.757,482.03L100.757,473.006L101.992,473.006L101.992,480.965L106.588,480.965L106.588,482.03L100.757,482.03Z" style="fill-rule:nonzero;"/>
            <path d="M107.033,482.03L110.617,473.006L111.948,473.006L115.767,482.03L114.36,482.03L113.272,479.297L109.37,479.297L108.345,482.03L107.033,482.03ZM109.726,478.324L112.89,478.324L111.916,475.825C111.619,475.066 111.398,474.442 111.254,473.954C111.135,474.533 110.967,475.107 110.751,475.678L109.726,478.324Z" style="fill-rule:nonzero;"/>
            <path d="M117.9,482.03L115.423,473.006L116.69,473.006L118.11,478.921C118.262,479.541 118.394,480.156 118.504,480.768C118.742,479.804 118.882,479.248 118.924,479.1L120.701,473.006L122.19,473.006L123.527,477.573C123.862,478.706 124.104,479.771 124.253,480.768C124.371,480.197 124.526,479.543 124.717,478.804L126.181,473.006L127.423,473.006L124.864,482.03L123.673,482.03L121.706,475.154C121.541,474.58 121.443,474.227 121.413,474.096C121.316,474.51 121.225,474.863 121.14,475.154L119.16,482.03L117.9,482.03Z" style="fill-rule:nonzero;"/>
            <path d="M128.639,482.03L128.639,473.006L134.934,473.006L134.934,474.071L129.874,474.071L129.874,476.865L134.253,476.865L134.253,477.93L129.874,477.93L129.874,482.03L128.639,482.03Z" style="fill-rule:nonzero;"/>
            <path d="M142.662,473.006L143.897,473.006L143.897,478.22C143.897,479.126 143.791,479.847 143.579,480.38C143.367,480.914 142.984,481.347 142.43,481.682C141.876,482.016 141.149,482.184 140.25,482.184C139.375,482.184 138.66,482.038 138.104,481.747C137.549,481.455 137.152,481.034 136.914,480.482C136.676,479.93 136.558,479.176 136.558,478.22L136.558,473.006L137.793,473.006L137.793,478.213C137.793,478.997 137.868,479.575 138.019,479.946C138.169,480.318 138.428,480.604 138.795,480.805C139.162,481.006 139.611,481.106 140.141,481.106C141.05,481.106 141.697,480.907 142.083,480.509C142.469,480.111 142.662,479.346 142.662,478.213L142.662,473.006Z" style="fill-rule:nonzero;"/>
            <path d="M145.902,482.03L145.902,473.006L147.137,473.006L147.137,480.965L151.734,480.965L151.734,482.03L145.902,482.03Z" style="fill-rule:nonzero;"/>
            <path d="M111.454,493.46L111.454,492.401L115.407,492.395L115.407,495.744C114.801,496.211 114.175,496.563 113.53,496.799C112.884,497.035 112.222,497.153 111.543,497.153C110.627,497.153 109.794,496.963 109.045,496.584C108.296,496.204 107.73,495.655 107.348,494.937C106.966,494.219 106.775,493.417 106.775,492.531C106.775,491.652 106.965,490.833 107.345,490.071C107.725,489.31 108.271,488.745 108.984,488.376C109.697,488.006 110.519,487.822 111.448,487.822C112.123,487.822 112.733,487.927 113.278,488.139C113.823,488.35 114.251,488.645 114.561,489.022C114.871,489.4 115.106,489.892 115.267,490.499L114.153,490.795C114.013,490.335 113.839,489.974 113.631,489.711C113.423,489.449 113.126,489.238 112.74,489.081C112.354,488.923 111.925,488.844 111.454,488.844C110.89,488.844 110.402,488.927 109.99,489.093C109.579,489.259 109.246,489.478 108.994,489.748C108.741,490.019 108.545,490.317 108.405,490.641C108.167,491.199 108.049,491.804 108.049,492.457C108.049,493.261 108.192,493.934 108.478,494.476C108.765,495.017 109.182,495.419 109.729,495.682C110.277,495.945 110.858,496.076 111.473,496.076C112.008,496.076 112.53,495.976 113.039,495.777C113.549,495.578 113.935,495.366 114.198,495.14L114.198,493.46L111.454,493.46Z" style="fill-rule:nonzero;"/>
            <path d="M116.852,492.604C116.852,491.107 117.268,489.934 118.1,489.087C118.932,488.239 120.006,487.816 121.321,487.816C122.183,487.816 122.959,488.015 123.651,488.413C124.343,488.811 124.87,489.366 125.233,490.078C125.596,490.79 125.777,491.597 125.777,492.5C125.777,493.415 125.586,494.233 125.204,494.956C124.822,495.678 124.281,496.225 123.581,496.596C122.881,496.967 122.125,497.153 121.315,497.153C120.436,497.153 119.651,496.948 118.959,496.538C118.268,496.127 117.744,495.567 117.387,494.857C117.031,494.147 116.852,493.396 116.852,492.604ZM118.126,492.623C118.126,493.71 118.428,494.567 119.033,495.193C119.637,495.818 120.396,496.131 121.308,496.131C122.238,496.131 123.003,495.815 123.603,495.183C124.204,494.551 124.504,493.655 124.504,492.494C124.504,491.759 124.376,491.118 124.119,490.57C123.862,490.022 123.487,489.598 122.992,489.296C122.498,488.994 121.943,488.844 121.328,488.844C120.453,488.844 119.701,489.134 119.071,489.714C118.441,490.295 118.126,491.265 118.126,492.623Z" style="fill-rule:nonzero;"/>
            <path d="M126.993,492.604C126.993,491.107 127.409,489.934 128.241,489.087C129.073,488.239 130.146,487.816 131.462,487.816C132.323,487.816 133.1,488.015 133.792,488.413C134.483,488.811 135.011,489.366 135.374,490.078C135.736,490.79 135.918,491.597 135.918,492.5C135.918,493.415 135.727,494.233 135.345,494.956C134.963,495.678 134.422,496.225 133.722,496.596C133.021,496.967 132.266,497.153 131.455,497.153C130.577,497.153 129.792,496.948 129.1,496.538C128.408,496.127 127.884,495.567 127.528,494.857C127.171,494.147 126.993,493.396 126.993,492.604ZM128.266,492.623C128.266,493.71 128.569,494.567 129.173,495.193C129.778,495.818 130.537,496.131 131.449,496.131C132.378,496.131 133.143,495.815 133.744,495.183C134.344,494.551 134.645,493.655 134.645,492.494C134.645,491.759 134.516,491.118 134.26,490.57C134.003,490.022 133.627,489.598 133.133,489.296C132.638,488.994 132.084,488.844 131.468,488.844C130.594,488.844 129.842,489.134 129.212,489.714C128.581,490.295 128.266,491.265 128.266,492.623Z" style="fill-rule:nonzero;"/>
            <path d="M137.509,496.999L137.509,487.976L140.724,487.976C141.45,487.976 142.003,488.019 142.385,488.105C142.92,488.224 143.376,488.439 143.754,488.751C144.246,489.153 144.614,489.667 144.859,490.293C145.103,490.919 145.225,491.634 145.225,492.438C145.225,493.123 145.142,493.731 144.976,494.26C144.811,494.789 144.599,495.228 144.34,495.574C144.081,495.921 143.798,496.194 143.49,496.393C143.182,496.592 142.811,496.743 142.376,496.845C141.941,496.948 141.441,496.999 140.877,496.999L137.509,496.999ZM138.744,495.934L140.737,495.934C141.352,495.934 141.835,495.879 142.185,495.768C142.535,495.657 142.814,495.501 143.022,495.3C143.315,495.017 143.543,494.637 143.706,494.159C143.87,493.681 143.951,493.101 143.951,492.42C143.951,491.476 143.791,490.751 143.471,490.244C143.15,489.737 142.761,489.397 142.303,489.225C141.972,489.102 141.439,489.04 140.705,489.04L138.744,489.04L138.744,495.934Z" style="fill-rule:nonzero;"/>
        </g>
        <g transform="matrix(1.22727,0,0,1.26925,-57.1364,-515.586)">
            <path d="M104.331,478.866L105.566,479.168C105.307,480.148 104.841,480.896 104.169,481.411C103.496,481.926 102.674,482.184 101.702,482.184C100.696,482.184 99.878,481.986 99.248,481.59C98.618,481.194 98.138,480.62 97.809,479.869C97.48,479.118 97.316,478.312 97.316,477.45C97.316,476.511 97.502,475.691 97.873,474.991C98.244,474.292 98.773,473.76 99.458,473.397C100.143,473.034 100.898,472.852 101.721,472.852C102.655,472.852 103.44,473.082 104.076,473.542C104.713,474.001 105.156,474.648 105.407,475.481L104.191,475.758C103.975,475.101 103.66,474.623 103.249,474.323C102.837,474.024 102.319,473.874 101.696,473.874C100.978,473.874 100.379,474.04 99.897,474.373C99.416,474.705 99.077,475.151 98.882,475.711C98.687,476.271 98.589,476.849 98.589,477.444C98.589,478.211 98.705,478.881 98.936,479.454C99.167,480.026 99.527,480.454 100.015,480.737C100.503,481.02 101.031,481.162 101.6,481.162C102.292,481.162 102.878,480.969 103.357,480.583C103.837,480.197 104.161,479.625 104.331,478.866Z" style="fill-rule:nonzero;"/>
            <path d="M107.126,482.03L107.126,473.006L108.361,473.006L108.361,476.712L113.211,476.712L113.211,473.006L114.446,473.006L114.446,482.03L113.211,482.03L113.211,477.776L108.361,477.776L108.361,482.03L107.126,482.03Z" style="fill-rule:nonzero;"/>
            <path d="M115.477,482.03L119.061,473.006L120.392,473.006L124.211,482.03L122.804,482.03L121.716,479.297L117.814,479.297L116.789,482.03L115.477,482.03ZM118.17,478.324L121.334,478.324L120.36,475.825C120.063,475.066 119.842,474.442 119.698,473.954C119.579,474.533 119.411,475.107 119.195,475.678L118.17,478.324Z" style="fill-rule:nonzero;"/>
            <path d="M124.822,477.635C124.822,476.137 125.238,474.965 126.07,474.117C126.902,473.27 127.976,472.846 129.291,472.846C130.153,472.846 130.929,473.045 131.621,473.443C132.313,473.841 132.84,474.396 133.203,475.108C133.566,475.82 133.747,476.627 133.747,477.53C133.747,478.445 133.556,479.264 133.174,479.986C132.792,480.708 132.251,481.255 131.551,481.627C130.851,481.998 130.095,482.184 129.285,482.184C128.406,482.184 127.621,481.978 126.929,481.568C126.238,481.158 125.714,480.598 125.357,479.888C125.001,479.178 124.822,478.427 124.822,477.635ZM126.095,477.653C126.095,478.741 126.398,479.597 127.003,480.223C127.607,480.849 128.366,481.162 129.278,481.162C130.208,481.162 130.973,480.846 131.573,480.214C132.174,479.582 132.474,478.685 132.474,477.524C132.474,476.79 132.346,476.148 132.089,475.601C131.832,475.053 131.457,474.628 130.962,474.326C130.468,474.025 129.913,473.874 129.297,473.874C128.423,473.874 127.671,474.164 127.041,474.745C126.411,475.326 126.095,476.295 126.095,477.653Z" style="fill-rule:nonzero;"/>
            <path d="M137.713,482.03L137.713,474.071L134.638,474.071L134.638,473.006L142.035,473.006L142.035,474.071L138.948,474.071L138.948,482.03L137.713,482.03Z" style="fill-rule:nonzero;"/>
            <rect x="143.512" y="473.006" width="1.235" height="9.024" style="fill-rule:nonzero;"/>
            <path d="M153.583,478.866L154.818,479.168C154.559,480.148 154.093,480.896 153.42,481.411C152.748,481.926 151.926,482.184 150.954,482.184C149.948,482.184 149.13,481.986 148.5,481.59C147.87,481.194 147.39,480.62 147.061,479.869C146.732,479.118 146.568,478.312 146.568,477.45C146.568,476.511 146.753,475.691 147.125,474.991C147.496,474.292 148.024,473.76 148.71,473.397C149.395,473.034 150.149,472.852 150.973,472.852C151.906,472.852 152.692,473.082 153.328,473.542C153.965,474.001 154.408,474.648 154.659,475.481L153.443,475.758C153.226,475.101 152.912,474.623 152.501,474.323C152.089,474.024 151.571,473.874 150.947,473.874C150.23,473.874 149.631,474.04 149.149,474.373C148.667,474.705 148.329,475.151 148.134,475.711C147.938,476.271 147.841,476.849 147.841,477.444C147.841,478.211 147.957,478.881 148.188,479.454C148.419,480.026 148.779,480.454 149.267,480.737C149.755,481.02 150.283,481.162 150.852,481.162C151.544,481.162 152.129,480.969 152.609,480.583C153.088,480.197 153.413,479.625 153.583,478.866Z" style="fill-rule:nonzero;"/>
            <path d="M111.454,493.46L111.454,492.401L115.407,492.395L115.407,495.744C114.801,496.211 114.175,496.563 113.53,496.799C112.884,497.035 112.222,497.153 111.543,497.153C110.627,497.153 109.794,496.963 109.045,496.584C108.296,496.204 107.73,495.655 107.348,494.937C106.966,494.219 106.775,493.417 106.775,492.531C106.775,491.652 106.965,490.833 107.345,490.071C107.725,489.31 108.271,488.745 108.984,488.376C109.697,488.006 110.519,487.822 111.448,487.822C112.123,487.822 112.733,487.927 113.278,488.139C113.823,488.35 114.251,488.645 114.561,489.022C114.871,489.4 115.106,489.892 115.267,490.499L114.153,490.795C114.013,490.335 113.839,489.974 113.631,489.711C113.423,489.449 113.126,489.238 112.74,489.081C112.354,488.923 111.925,488.844 111.454,488.844C110.89,488.844 110.402,488.927 109.99,489.093C109.579,489.259 109.246,489.478 108.994,489.748C108.741,490.019 108.545,490.317 108.405,490.641C108.167,491.199 108.049,491.804 108.049,492.457C108.049,493.261 108.192,493.934 108.478,494.476C108.765,495.017 109.182,495.419 109.729,495.682C110.277,495.945 110.858,496.076 111.473,496.076C112.008,496.076 112.53,495.976 113.039,495.777C113.549,495.578 113.935,495.366 114.198,495.14L114.198,493.46L111.454,493.46Z" style="fill-rule:nonzero;"/>
            <path d="M116.852,492.604C116.852,491.107 117.268,489.934 118.1,489.087C118.932,488.239 120.006,487.816 121.321,487.816C122.183,487.816 122.959,488.015 123.651,488.413C124.343,488.811 124.87,489.366 125.233,490.078C125.596,490.79 125.777,491.597 125.777,492.5C125.777,493.415 125.586,494.233 125.204,494.956C124.822,495.678 124.281,496.225 123.581,496.596C122.881,496.967 122.125,497.153 121.315,497.153C120.436,497.153 119.651,496.948 118.959,496.538C118.268,496.127 117.744,495.567 117.387,494.857C117.031,494.147 116.852,493.396 116.852,492.604ZM118.126,492.623C118.126,493.71 118.428,494.567 119.033,495.193C119.637,495.818 120.396,496.131 121.308,496.131C122.238,496.131 123.003,495.815 123.603,495.183C124.204,494.551 124.504,493.655 124.504,492.494C124.504,491.759 124.376,491.118 124.119,490.57C123.862,490.022 123.487,489.598 122.992,489.296C122.498,488.994 121.943,488.844 121.328,488.844C120.453,488.844 119.701,489.134 119.071,489.714C118.441,490.295 118.126,491.265 118.126,492.623Z" style="fill-rule:nonzero;"/>
            <path d="M126.993,492.604C126.993,491.107 127.409,489.934 128.241,489.087C129.073,488.239 130.146,487.816 131.462,487.816C132.323,487.816 133.1,488.015 133.792,488.413C134.483,488.811 135.011,489.366 135.374,490.078C135.736,490.79 135.918,491.597 135.918,492.5C135.918,493.415 135.727,494.233 135.345,494.956C134.963,495.678 134.422,496.225 133.722,496.596C133.021,496.967 132.266,497.153 131.455,497.153C130.577,497.153 129.792,496.948 129.1,496.538C128.408,496.127 127.884,495.567 127.528,494.857C127.171,494.147 126.993,493.396 126.993,492.604ZM128.266,492.623C128.266,493.71 128.569,494.567 129.173,495.193C129.778,495.818 130.537,496.131 131.449,496.131C132.378,496.131 133.143,495.815 133.744,495.183C134.344,494.551 134.645,493.655 134.645,492.494C134.645,491.759 134.516,491.118 134.26,490.57C134.003,490.022 133.627,489.598 133.133,489.296C132.638,488.994 132.084,488.844 131.468,488.844C130.594,488.844 129.842,489.134 129.212,489.714C128.581,490.295 128.266,491.265 128.266,492.623Z" style="fill-rule:nonzero;"/>
            <path d="M137.509,496.999L137.509,487.976L140.724,487.976C141.45,487.976 142.003,488.019 142.385,488.105C142.92,488.224 143.376,488.439 143.754,488.751C144.246,489.153 144.614,489.667 144.859,490.293C145.103,490.919 145.225,491.634 145.225,492.438C145.225,493.123 145.142,493.731 144.976,494.26C144.811,494.789 144.599,495.228 144.34,495.574C144.081,495.921 143.798,496.194 143.49,496.393C143.182,496.592 142.811,496.743 142.376,496.845C141.941,496.948 141.441,496.999 140.877,496.999L137.509,496.999ZM138.744,495.934L140.737,495.934C141.352,495.934 141.835,495.879 142.185,495.768C142.535,495.657 142.814,495.501 143.022,495.3C143.315,495.017 143.543,494.637 143.706,494.159C143.87,493.681 143.951,493.101 143.951,492.42C143.951,491.476 143.791,490.751 143.471,490.244C143.15,489.737 142.761,489.397 142.303,489.225C141.972,489.102 141.439,489.04 140.705,489.04L138.744,489.04L138.744,495.934Z" style="fill-rule:nonzero;"/>
        </g>
        <g transform="matrix(1.22727,0,0,1.26925,145.364,-115.586)">
            <path d="M96.568,482.03L96.568,473.006L97.835,473.006L102.736,480.091L102.736,473.006L103.92,473.006L103.92,482.03L102.654,482.03L97.752,474.939L97.752,482.03L96.568,482.03Z" style="fill-rule:nonzero;"/>
            <path d="M106.021,482.03L106.021,473.006L112.769,473.006L112.769,474.071L107.256,474.071L107.256,476.835L112.419,476.835L112.419,477.893L107.256,477.893L107.256,480.965L112.985,480.965L112.985,482.03L106.021,482.03Z" style="fill-rule:nonzero;"/>
            <path d="M120.815,473.006L122.05,473.006L122.05,478.22C122.05,479.126 121.944,479.847 121.732,480.38C121.52,480.914 121.137,481.347 120.583,481.682C120.029,482.016 119.302,482.184 118.402,482.184C117.528,482.184 116.813,482.038 116.257,481.747C115.701,481.455 115.304,481.034 115.067,480.482C114.829,479.93 114.71,479.176 114.71,478.22L114.71,473.006L115.945,473.006L115.945,478.213C115.945,478.997 116.021,479.575 116.171,479.946C116.322,480.318 116.581,480.604 116.948,480.805C117.315,481.006 117.764,481.106 118.294,481.106C119.202,481.106 119.85,480.907 120.236,480.509C120.622,480.111 120.815,479.346 120.815,478.213L120.815,473.006Z" style="fill-rule:nonzero;"/>
            <path d="M126.481,482.03L126.481,474.071L123.406,474.071L123.406,473.006L130.803,473.006L130.803,474.071L127.716,474.071L127.716,482.03L126.481,482.03Z" style="fill-rule:nonzero;"/>
            <path d="M132.089,482.03L132.089,473.006L136.227,473.006C137.058,473.006 137.691,473.087 138.124,473.249C138.556,473.411 138.902,473.698 139.161,474.108C139.42,474.518 139.549,474.972 139.549,475.468C139.549,476.108 139.335,476.648 138.907,477.087C138.478,477.526 137.816,477.805 136.92,477.924C137.247,478.076 137.495,478.226 137.665,478.374C138.026,478.694 138.368,479.094 138.69,479.574L140.313,482.03L138.76,482.03L137.525,480.152C137.164,479.611 136.867,479.196 136.634,478.909C136.401,478.622 136.192,478.421 136.007,478.306C135.822,478.191 135.635,478.111 135.444,478.066C135.304,478.037 135.074,478.023 134.756,478.023L133.324,478.023L133.324,482.03L132.089,482.03ZM133.324,476.989L135.978,476.989C136.543,476.989 136.984,476.932 137.302,476.819C137.621,476.706 137.863,476.526 138.028,476.278C138.194,476.029 138.276,475.76 138.276,475.468C138.276,475.041 138.116,474.691 137.796,474.416C137.475,474.141 136.969,474.003 136.277,474.003L133.324,474.003L133.324,476.989Z" style="fill-rule:nonzero;"/>
            <path d="M140.46,482.03L144.044,473.006L145.374,473.006L149.194,482.03L147.787,482.03L146.698,479.297L142.796,479.297L141.771,482.03L140.46,482.03ZM143.152,478.324L146.316,478.324L145.342,475.825C145.045,475.066 144.825,474.442 144.68,473.954C144.561,474.533 144.394,475.107 144.177,475.678L143.152,478.324Z" style="fill-rule:nonzero;"/>
            <path d="M150.129,482.03L150.129,473.006L151.364,473.006L151.364,480.965L155.96,480.965L155.96,482.03L150.129,482.03Z" style="fill-rule:nonzero;"/>
            <path d="M112.899,496.999L112.899,487.976L119.647,487.976L119.647,489.04L114.134,489.04L114.134,491.804L119.297,491.804L119.297,492.863L114.134,492.863L114.134,495.934L119.863,495.934L119.863,496.999L112.899,496.999Z" style="fill-rule:nonzero;"/>
            <path d="M124.237,496.999L120.621,487.976L121.958,487.976L124.383,494.531C124.578,495.056 124.742,495.549 124.873,496.008C125.018,495.516 125.185,495.023 125.376,494.531L127.897,487.976L129.157,487.976L125.503,496.999L124.237,496.999Z" style="fill-rule:nonzero;"/>
            <rect x="130.475" y="487.976" width="1.235" height="9.024" style="fill-rule:nonzero;"/>
            <path d="M133.836,496.999L133.836,487.976L135.071,487.976L135.071,495.934L139.667,495.934L139.667,496.999L133.836,496.999Z" style="fill-rule:nonzero;"/>
        </g>
        <g transform="matrix(1.22727,0,0,1.26925,342.864,-115.586)">
            <path d="M100.757,482.03L100.757,473.006L101.992,473.006L101.992,480.965L106.588,480.965L106.588,482.03L100.757,482.03Z" style="fill-rule:nonzero;"/>
            <path d="M107.033,482.03L110.617,473.006L111.948,473.006L115.767,482.03L114.36,482.03L113.272,479.297L109.37,479.297L108.345,482.03L107.033,482.03ZM109.726,478.324L112.89,478.324L111.916,475.825C111.619,475.066 111.398,474.442 111.254,473.954C111.135,474.533 110.967,475.107 110.751,475.678L109.726,478.324Z" style="fill-rule:nonzero;"/>
            <path d="M117.9,482.03L115.423,473.006L116.69,473.006L118.11,478.921C118.262,479.541 118.394,480.156 118.504,480.768C118.742,479.804 118.882,479.248 118.924,479.1L120.701,473.006L122.19,473.006L123.527,477.573C123.862,478.706 124.104,479.771 124.253,480.768C124.371,480.197 124.526,479.543 124.717,478.804L126.181,473.006L127.423,473.006L124.864,482.03L123.673,482.03L121.706,475.154C121.541,474.58 121.443,474.227 121.413,474.096C121.316,474.51 121.225,474.863 121.14,475.154L119.16,482.03L117.9,482.03Z" style="fill-rule:nonzero;"/>
            <path d="M128.639,482.03L128.639,473.006L134.934,473.006L134.934,474.071L129.874,474.071L129.874,476.865L134.253,476.865L134.253,477.93L129.874,477.93L129.874,482.03L128.639,482.03Z" style="fill-rule:nonzero;"/>
            <path d="M142.662,473.006L143.897,473.006L143.897,478.22C143.897,479.126 143.791,479.847 143.579,480.38C143.367,480.914 142.984,481.347 142.43,481.682C141.876,482.016 141.149,482.184 140.25,482.184C139.375,482.184 138.66,482.038 138.104,481.747C137.549,481.455 137.152,481.034 136.914,480.482C136.676,479.93 136.558,479.176 136.558,478.22L136.558,473.006L137.793,473.006L137.793,478.213C137.793,478.997 137.868,479.575 138.019,479.946C138.169,480.318 138.428,480.604 138.795,480.805C139.162,481.006 139.611,481.106 140.141,481.106C141.05,481.106 141.697,480.907 142.083,480.509C142.469,480.111 142.662,479.346 142.662,478.213L142.662,473.006Z" style="fill-rule:nonzero;"/>
            <path d="M145.902,482.03L145.902,473.006L147.137,473.006L147.137,480.965L151.734,480.965L151.734,482.03L145.902,482.03Z" style="fill-rule:nonzero;"/>
            <path d="M112.899,496.999L112.899,487.976L119.647,487.976L119.647,489.04L114.134,489.04L114.134,491.804L119.297,491.804L119.297,492.863L114.134,492.863L114.134,495.934L119.863,495.934L119.863,496.999L112.899,496.999Z" style="fill-rule:nonzero;"/>
            <path d="M124.237,496.999L120.621,487.976L121.958,487.976L124.383,494.531C124.578,495.056 124.742,495.549 124.873,496.008C125.018,495.516 125.185,495.023 125.376,494.531L127.897,487.976L129.157,487.976L125.503,496.999L124.237,496.999Z" style="fill-rule:nonzero;"/>
            <rect x="130.475" y="487.976" width="1.235" height="9.024" style="fill-rule:nonzero;"/>
            <path d="M133.836,496.999L133.836,487.976L135.071,487.976L135.071,495.934L139.667,495.934L139.667,496.999L133.836,496.999Z" style="fill-rule:nonzero;"/>
        </g>
        <g transform="matrix(1.22727,0,0,1.26925,-57.1364,-115.586)">
            <path d="M104.331,478.866L105.566,479.168C105.307,480.148 104.841,480.896 104.169,481.411C103.496,481.926 102.674,482.184 101.702,482.184C100.696,482.184 99.878,481.986 99.248,481.59C98.618,481.194 98.138,480.62 97.809,479.869C97.48,479.118 97.316,478.312 97.316,477.45C97.316,476.511 97.502,475.691 97.873,474.991C98.244,474.292 98.773,473.76 99.458,473.397C100.143,473.034 100.898,472.852 101.721,472.852C102.655,472.852 103.44,473.082 104.076,473.542C104.713,474.001 105.156,474.648 105.407,475.481L104.191,475.758C103.975,475.101 103.66,474.623 103.249,474.323C102.837,474.024 102.319,473.874 101.696,473.874C100.978,473.874 100.379,474.04 99.897,474.373C99.416,474.705 99.077,475.151 98.882,475.711C98.687,476.271 98.589,476.849 98.589,477.444C98.589,478.211 98.705,478.881 98.936,479.454C99.167,480.026 99.527,480.454 100.015,480.737C100.503,481.02 101.031,481.162 101.6,481.162C102.292,481.162 102.878,480.969 103.357,480.583C103.837,480.197 104.161,479.625 104.331,478.866Z" style="fill-rule:nonzero;"/>
            <path d="M107.126,482.03L107.126,473.006L108.361,473.006L108.361,476.712L113.211,476.712L113.211,473.006L114.446,473.006L114.446,482.03L113.211,482.03L113.211,477.776L108.361,477.776L108.361,482.03L107.126,482.03Z" style="fill-rule:nonzero;"/>
            <path d="M115.477,482.03L119.061,473.006L120.392,473.006L124.211,482.03L122.804,482.03L121.716,479.297L117.814,479.297L116.789,482.03L115.477,482.03ZM118.17,478.324L121.334,478.324L120.36,475.825C120.063,475.066 119.842,474.442 119.698,473.954C119.579,474.533 119.411,475.107 119.195,475.678L118.17,478.324Z" style="fill-rule:nonzero;"/>
            <path d="M124.822,477.635C124.822,476.137 125.238,474.965 126.07,474.117C126.902,473.27 127.976,472.846 129.291,472.846C130.153,472.846 130.929,473.045 131.621,473.443C132.313,473.841 132.84,474.396 133.203,475.108C133.566,475.82 133.747,476.627 133.747,477.53C133.747,478.445 133.556,479.264 133.174,479.986C132.792,480.708 132.251,481.255 131.551,481.627C130.851,481.998 130.095,482.184 129.285,482.184C128.406,482.184 127.621,481.978 126.929,481.568C126.238,481.158 125.714,480.598 125.357,479.888C125.001,479.178 124.822,478.427 124.822,477.635ZM126.095,477.653C126.095,478.741 126.398,479.597 127.003,480.223C127.607,480.849 128.366,481.162 129.278,481.162C130.208,481.162 130.973,480.846 131.573,480.214C132.174,479.582 132.474,478.685 132.474,477.524C132.474,476.79 132.346,476.148 132.089,475.601C131.832,475.053 131.457,474.628 130.962,474.326C130.468,474.025 129.913,473.874 129.297,473.874C128.423,473.874 127.671,474.164 127.041,474.745C126.411,475.326 126.095,476.295 126.095,477.653Z" style="fill-rule:nonzero;"/>
            <path d="M137.713,482.03L137.713,474.071L134.638,474.071L134.638,473.006L142.035,473.006L142.035,474.071L138.948,474.071L138.948,482.03L137.713,482.03Z" style="fill-rule:nonzero;"/>
            <rect x="143.512" y="473.006" width="1.235" height="9.024" style="fill-rule:nonzero;"/>
            <path d="M153.583,478.866L154.818,479.168C154.559,480.148 154.093,480.896 153.42,481.411C152.748,481.926 151.926,482.184 150.954,482.184C149.948,482.184 149.13,481.986 148.5,481.59C147.87,481.194 147.39,480.62 147.061,479.869C146.732,479.118 146.568,478.312 146.568,477.45C146.568,476.511 146.753,475.691 147.125,474.991C147.496,474.292 148.024,473.76 148.71,473.397C149.395,473.034 150.149,472.852 150.973,472.852C151.906,472.852 152.692,473.082 153.328,473.542C153.965,474.001 154.408,474.648 154.659,475.481L153.443,475.758C153.226,475.101 152.912,474.623 152.501,474.323C152.089,474.024 151.571,473.874 150.947,473.874C150.23,473.874 149.631,474.04 149.149,474.373C148.667,474.705 148.329,475.151 148.134,475.711C147.938,476.271 147.841,476.849 147.841,477.444C147.841,478.211 147.957,478.881 148.188,479.454C148.419,480.026 148.779,480.454 149.267,480.737C149.755,481.02 150.283,481.162 150.852,481.162C151.544,481.162 152.129,480.969 152.609,480.583C153.088,480.197 153.413,479.625 153.583,478.866Z" style="fill-rule:nonzero;"/>
            <path d="M112.899,496.999L112.899,487.976L119.647,487.976L119.647,489.04L114.134,489.04L114.134,491.804L119.297,491.804L119.297,492.863L114.134,492.863L114.134,495.934L119.863,495.934L119.863,496.999L112.899,496.999Z" style="fill-rule:nonzero;"/>
            <path d="M124.237,496.999L120.621,487.976L121.958,487.976L124.383,494.531C124.578,495.056 124.742,495.549 124.873,496.008C125.018,495.516 125.185,495.023 125.376,494.531L127.897,487.976L129.157,487.976L125.503,496.999L124.237,496.999Z" style="fill-rule:nonzero;"/>
            <rect x="130.475" y="487.976" width="1.235" height="9.024" style="fill-rule:nonzero;"/>
            <path d="M133.836,496.999L133.836,487.976L135.071,487.976L135.071,495.934L139.667,495.934L139.667,496.999L133.836,496.999Z" style="fill-rule:nonzero;"/>
        </g>
    </g>
</svg>
