<?xml version="1.0" encoding="UTF-8" standalone="no"?>
<!DOCTYPE svg PUBLIC "-//W3C//DTD SVG 1.1//EN" "http://www.w3.org/Graphics/SVG/1.1/DTD/svg11.dtd">
<svg width="100%" height="100%" viewBox="0 0 771 830" version="1.1" xmlns="http://www.w3.org/2000/svg" xmlns:xlink="http://www.w3.org/1999/xlink" xml:space="preserve" xmlns:serif="http://www.serif.com/" style="fill-rule:evenodd;clip-rule:evenodd;stroke-linejoin:round;stroke-miterlimit:2;">
    <g transform="matrix(1,0,0,1,-889.587,-1585.18)">
        <g transform="matrix(4.16667,0,0,4.16667,1660.41,1672.12)">
            <path d="M0,157.334L-0.017,156.864L-0.485,156.834C-0.504,156.833 -2.049,156.67 -2.499,152.825L-2.499,-16.782L-2.938,-16.919C-4.054,-17.268 -6.95,-18.543 -6.95,-20.242L-6.95,-20.867L-178.046,-20.867L-178.046,-20.242C-178.046,-18.543 -180.943,-17.268 -182.06,-16.919L-182.499,-16.782L-182.499,152.825C-182.948,156.67 -184.492,156.833 -184.498,156.834L-184.998,156.834L-184.998,157.334C-184.998,161.979 -183.935,165.645 -182.499,168.48L-182.499,174.117L-182.06,174.253C-180.943,174.6 -178.046,175.872 -178.046,177.576L-178.046,178.201L-6.95,178.201L-6.95,177.576C-6.95,175.877 -4.054,174.602 -2.938,174.253L-2.499,174.116L-2.499,168.48C-1.063,165.645 0,161.979 0,157.334M-2.208,156.791C-1.777,157.349 -1.332,157.608 -1.003,157.729C-1.047,160.976 -1.637,163.706 -2.499,165.987L-2.499,156.353C-2.407,156.508 -2.312,156.657 -2.208,156.791M-181.249,-10.074C-181.085,-10.416 -180.803,-10.979 -180.405,-11.674L-180.405,152.358C-180.405,155.751 -180.692,159.598 -181.249,163.824L-181.249,-10.074ZM-181.249,167.327C-180.357,161.702 -179.905,156.675 -179.905,152.358L-179.905,-12.514C-178.25,-15.183 -175.304,-18.898 -171.422,-19.617L-13.577,-19.617C-9.697,-18.898 -6.749,-15.18 -5.093,-12.51L-5.093,152.358C-5.093,156.675 -4.641,161.702 -3.749,167.327L-3.749,168.694C-4.743,170.489 -5.879,171.906 -6.938,172.981C-9.282,175.36 -11.649,176.556 -12.535,176.951L-172.462,176.951C-173.763,176.367 -178.268,174.034 -181.249,168.68L-181.249,167.327ZM-3.749,163.824C-4.306,159.598 -4.593,155.751 -4.593,152.358L-4.593,-11.671C-4.195,-10.977 -3.913,-10.414 -3.749,-10.072L-3.749,163.824ZM-3.749,-15.879L-3.749,-12.235C-5.02,-14.465 -7.371,-17.868 -10.636,-19.617L-8.129,-19.617C-7.646,-17.531 -4.851,-16.292 -3.749,-15.879M-176.867,-19.617L-174.362,-19.617C-177.627,-17.868 -179.979,-14.465 -181.249,-12.235L-181.249,-15.879C-180.146,-16.292 -177.35,-17.531 -176.867,-19.617M-183.995,157.729C-183.666,157.608 -183.221,157.349 -182.79,156.791C-182.687,156.657 -182.591,156.508 -182.499,156.353L-182.499,165.992C-183.375,163.687 -183.952,160.954 -183.995,157.729M-181.249,173.213L-181.249,170.621C-180.429,171.856 -179.562,172.887 -178.737,173.719C-177.249,175.223 -175.771,176.265 -174.619,176.951L-176.867,176.951C-177.35,174.865 -180.146,173.626 -181.249,173.213M-8.129,176.951L-10.379,176.951C-9.227,176.265 -7.749,175.223 -6.261,173.719C-5.437,172.887 -4.569,171.856 -3.749,170.621L-3.749,173.213C-4.851,173.626 -7.646,174.865 -8.129,176.951" style="fill:rgb(35,31,32);fill-rule:nonzero;"/>
        </g>
    </g>
</svg>
