<?xml version="1.0" encoding="UTF-8" standalone="no"?>
<!DOCTYPE svg PUBLIC "-//W3C//DTD SVG 1.1//EN" "http://www.w3.org/Graphics/SVG/1.1/DTD/svg11.dtd">
<svg width="100%" height="100%" viewBox="0 0 688 267" version="1.1" xmlns="http://www.w3.org/2000/svg" xmlns:xlink="http://www.w3.org/1999/xlink" xml:space="preserve" xmlns:serif="http://www.serif.com/" style="fill-rule:evenodd;clip-rule:evenodd;stroke-linejoin:round;stroke-miterlimit:2;">
    <g transform="matrix(1,0,0,1,-1718.87,-564.64)">
        <g transform="matrix(4.16667,0,0,4.16667,2385.5,828.784)">
            <path d="M0,-62.895L-155.036,-62.895C-155.036,-60.357 -159.489,-58.975 -159.489,-58.975L-159.489,0L-156.91,0C-156.91,0 -154.799,-3.95 -148.004,0L-7.034,0C-0.239,-3.95 1.872,0 1.872,0L4.451,0L4.451,-58.975C4.451,-58.975 0,-60.357 0,-62.895" style="fill:white;fill-rule:nonzero;"/>
        </g>
        <g transform="matrix(4.16667,0,0,4.16667,2404.66,814.444)">
            <path d="M0,-56.011C-1.141,-56.365 -4.1,-57.673 -4.1,-59.453L-4.1,-59.953L-160.136,-59.953L-160.136,-59.453C-160.136,-57.678 -163.097,-56.366 -164.237,-56.011L-164.589,-55.902L-164.589,3.942L-161.214,3.938L-161.07,3.681C-161.041,3.625 -160.368,2.476 -158.586,2.237C-158.417,2.46 -158.162,2.614 -157.86,2.614C-157.568,2.614 -157.319,2.471 -157.149,2.26C-155.882,2.422 -154.447,2.947 -152.854,3.874L-152.738,3.942L-11.499,3.942L-11.383,3.874C-9.79,2.947 -8.355,2.422 -7.088,2.26C-6.919,2.471 -6.669,2.614 -6.378,2.614C-6.076,2.614 -5.82,2.46 -5.651,2.237C-3.869,2.476 -3.197,3.625 -3.169,3.677L-3.027,3.942L0.352,3.942L0.352,-55.902L0,-56.011ZM-1.617,-50.882C-1.084,-49.951 -0.756,-49.253 -0.648,-49.018L-0.648,-9.351C-1.292,-13.962 -1.617,-18.127 -1.617,-21.776L-1.617,-50.882ZM-5.052,-58.953C-4.642,-56.814 -1.686,-55.556 -0.648,-55.177L-0.648,-51.226C-1.915,-53.496 -4.397,-57.19 -7.896,-58.953L-5.052,-58.953ZM-159.183,-58.953L-156.342,-58.953C-159.84,-57.19 -162.322,-53.496 -163.589,-51.226L-163.589,-55.177C-162.552,-55.556 -159.594,-56.814 -159.183,-58.953M-163.589,-49.018C-163.481,-49.254 -163.153,-49.952 -162.62,-50.884L-162.62,-21.776C-162.62,-18.127 -162.945,-13.962 -163.589,-9.351L-163.589,-49.018ZM-2.459,2.942C-2.818,2.452 -3.773,1.449 -5.592,1.233C-5.753,0.959 -6.037,0.766 -6.378,0.766C-6.732,0.766 -7.029,0.972 -7.185,1.264C-8.563,1.436 -10.095,1.984 -11.768,2.942L-152.47,2.942C-154.143,1.984 -155.674,1.436 -157.053,1.264C-157.208,0.972 -157.506,0.766 -157.86,0.766C-158.2,0.766 -158.485,0.959 -158.645,1.233C-160.464,1.449 -161.419,2.452 -161.778,2.942L-163.589,2.942L-163.589,-6.054C-162.617,-11.982 -162.12,-17.27 -162.12,-21.776L-162.12,-51.724C-160.28,-54.691 -156.847,-58.953 -152.307,-58.953L-11.931,-58.953C-7.394,-58.953 -3.958,-54.688 -2.117,-51.721L-2.117,-21.776C-2.117,-17.27 -1.62,-11.982 -0.648,-6.054L-0.648,2.942L-2.459,2.942Z" style="fill:rgb(35,31,32);fill-rule:nonzero;"/>
        </g>
    </g>
</svg>
