<?xml version="1.0" encoding="UTF-8" standalone="no"?>
<!DOCTYPE svg PUBLIC "-//W3C//DTD SVG 1.1//EN" "http://www.w3.org/Graphics/SVG/1.1/DTD/svg11.dtd">
<svg width="100%" height="100%" viewBox="0 0 252 1888" version="1.1" xmlns="http://www.w3.org/2000/svg" xmlns:xlink="http://www.w3.org/1999/xlink" xml:space="preserve" xmlns:serif="http://www.serif.com/" style="fill-rule:evenodd;clip-rule:evenodd;stroke-linejoin:round;stroke-miterlimit:2;">
    <g transform="matrix(1,0,0,1,-112.502,-522)">
        <g transform="matrix(4.16667,0,0,4.16667,145.239,2375.35)">
            <path d="M0,-436.63C1.048,-436.966 2.179,-437.18 3.416,-437.18L7.858,-437.18C8.449,-436.599 9.075,-436.068 9.72,-435.568C7.395,-436.28 3.554,-437.161 0,-436.63M-6.988,-431.379C-7.323,-430.937 -7.611,-430.519 -7.857,-430.137L-7.857,-420.866L-6.683,-425.234C-7.425,-427.666 -7.238,-429.974 -6.988,-431.379M50.848,-425.314C51.792,-428.339 51.207,-431.247 50.95,-432.241C50.065,-433.276 48.958,-434.345 47.611,-435.226C42.747,-437.579 35.62,-435.318 33.564,-434.573C30.247,-432.41 26.38,-431.24 22.332,-431.24C18.282,-431.24 14.414,-432.41 11.097,-434.574C9.036,-435.319 1.895,-437.585 -2.967,-435.216C-4.305,-434.339 -5.405,-433.277 -6.286,-432.247C-6.541,-431.258 -7.13,-428.341 -6.185,-425.314L-6.162,-425.244L-6.182,-425.175L-7.857,-418.944L-7.857,-17.683L-6.163,-11.385L-6.186,-11.316C-7.13,-8.29 -6.545,-5.382 -6.288,-4.388C-5.403,-3.353 -4.296,-2.285 -2.949,-1.404C1.915,0.95 9.042,-1.312 11.098,-2.056C14.415,-4.219 18.282,-5.389 22.33,-5.389C26.38,-5.389 30.248,-4.219 33.565,-2.055C35.626,-1.31 42.768,0.956 47.629,-1.413C48.967,-2.29 50.067,-3.352 50.948,-4.382C51.203,-5.371 51.792,-8.288 50.847,-11.316L50.824,-11.385L50.844,-11.454L52.52,-17.685L52.52,-418.946L50.825,-425.244L50.848,-425.314ZM41.888,-440.691L45.055,-440.691L44.334,-441.651L36.254,-441.651C36.019,-441.659 35.794,-441.687 35.555,-441.687L35.555,-441.651L30.604,-441.651C30.953,-441.35 31.282,-441.027 31.596,-440.691L39.951,-440.691C46.153,-439.319 50.552,-435.388 52.52,-433.295L52.52,-431.461C50.536,-434.194 46.814,-437.93 41.247,-437.93L28.828,-437.93C28.693,-438.172 28.444,-438.343 28.148,-438.343C27.714,-438.343 27.36,-437.989 27.36,-437.555C27.36,-437.12 27.714,-436.767 28.148,-436.767C28.444,-436.767 28.693,-436.938 28.828,-437.18L35.688,-437.18C32.02,-433.839 27.321,-431.99 22.332,-431.99C17.343,-431.99 12.645,-433.839 8.976,-437.18L15.835,-437.18C15.97,-436.938 16.219,-436.767 16.515,-436.767C16.949,-436.767 17.303,-437.12 17.303,-437.555C17.303,-437.989 16.949,-438.343 16.515,-438.343C16.219,-438.343 15.97,-438.172 15.835,-437.93L3.416,-437.93C-2.152,-437.93 -5.875,-434.192 -7.857,-431.46L-7.857,-433.294C-5.892,-435.387 -1.499,-439.316 4.702,-440.689L13.065,-440.689C13.379,-441.027 13.708,-441.349 14.056,-441.651L9.108,-441.651L9.108,-441.687C8.87,-441.687 8.644,-441.659 8.409,-441.651L0.328,-441.651L-0.394,-440.689L2.771,-440.689C-2.258,-439.103 -5.924,-435.985 -7.857,-434.011L-7.857,-436.542C-7.857,-436.542 -4.211,-438.712 -3.281,-440.689L-1.331,-440.689L-0.047,-442.401L7.246,-442.401C10.07,-442.758 13.632,-443.418 15.317,-444.585C15.317,-444.585 16.515,-445.312 16.515,-444.124C16.515,-443.398 13.776,-442.776 11.651,-442.401L14.374,-442.401C14.476,-442.5 14.612,-442.562 14.765,-442.562C14.884,-442.562 14.987,-442.517 15.079,-442.453C17.135,-443.898 19.632,-444.753 22.33,-444.753C25.028,-444.753 27.526,-443.898 29.583,-442.453C29.674,-442.517 29.778,-442.562 29.897,-442.562C30.05,-442.562 30.187,-442.5 30.288,-442.401L33.011,-442.401C30.886,-442.776 28.147,-443.398 28.147,-444.124C28.147,-445.312 29.345,-444.585 29.345,-444.585C31.03,-443.418 34.592,-442.758 37.416,-442.401L44.709,-442.401L45.991,-440.691L47.943,-440.691C48.873,-438.712 52.52,-436.544 52.52,-436.544L52.52,-434.012C50.585,-435.987 46.917,-439.105 41.888,-440.691M30.062,-441.47C30.01,-441.453 29.956,-441.437 29.897,-441.437C29.587,-441.437 29.335,-441.689 29.335,-441.999C29.335,-442.004 29.338,-442.008 29.338,-442.013C27.354,-443.419 24.94,-444.253 22.33,-444.253C19.721,-444.253 17.307,-443.419 15.324,-442.014C15.324,-442.009 15.327,-442.004 15.327,-441.999C15.327,-441.689 15.075,-441.437 14.765,-441.437C14.706,-441.437 14.652,-441.453 14.599,-441.47C14.3,-441.224 14.014,-440.963 13.739,-440.69L14.65,-440.69C16.691,-442.515 19.376,-443.634 22.33,-443.634C25.284,-443.634 27.97,-442.515 30.011,-440.69L30.921,-440.69C30.647,-440.963 30.361,-441.224 30.062,-441.47M51.346,-425.234L52.52,-420.87L52.52,-430.137C52.273,-430.517 51.987,-430.935 51.652,-431.375C51.901,-429.969 52.088,-427.663 51.346,-425.234M41.247,-437.18L36.802,-437.18C36.212,-436.598 35.585,-436.068 34.94,-435.567C37.265,-436.278 41.106,-437.159 44.662,-436.63C43.614,-436.965 42.484,-437.18 41.247,-437.18M41.246,0.55C42.483,0.55 43.614,0.337 44.662,0.001C41.108,0.532 37.268,-0.349 34.942,-1.062C35.587,-0.562 36.213,-0.031 36.804,0.55L41.246,0.55ZM51.65,-5.25C51.985,-5.693 52.273,-6.111 52.52,-6.493L52.52,-15.763L51.345,-11.395C52.087,-8.963 51.9,-6.656 51.65,-5.25M52.52,-5.169L52.52,-3.335C50.554,-1.243 46.161,2.686 39.96,4.059L31.597,4.059C31.283,4.398 30.954,4.719 30.606,5.022L35.554,5.022L35.554,5.057C35.792,5.057 36.019,5.03 36.253,5.022L44.334,5.022L45.056,4.059L41.892,4.059C46.92,2.473 50.586,-0.644 52.52,-2.619L52.52,-0.087C52.52,-0.087 48.873,2.083 47.943,4.059L45.993,4.059L44.709,5.772L37.416,5.772C34.592,6.129 31.03,6.789 29.345,7.956C29.345,7.956 28.147,8.682 28.147,7.495C28.147,6.768 30.886,6.146 33.011,5.772L30.288,5.772C30.187,5.871 30.05,5.932 29.897,5.932C29.778,5.932 29.675,5.887 29.583,5.824C27.527,7.268 25.03,8.124 22.332,8.124C19.634,8.124 17.136,7.268 15.079,5.824C14.988,5.887 14.884,5.932 14.765,5.932C14.612,5.932 14.476,5.871 14.374,5.772L11.651,5.772C13.776,6.146 16.515,6.768 16.515,7.495C16.515,8.682 15.317,7.956 15.317,7.956C13.632,6.789 10.07,6.129 7.246,5.772L-0.047,5.772L-1.329,4.061L-3.281,4.061C-4.211,2.083 -7.857,-0.085 -7.857,-0.085L-7.857,-2.618C-5.923,-0.642 -2.255,2.475 2.774,4.061L-0.393,4.061L0.328,5.022L8.408,5.022C8.644,5.03 8.868,5.057 9.107,5.057L9.107,5.022L14.058,5.022C13.709,4.72 13.38,4.398 13.066,4.061L4.711,4.061C-1.491,2.69 -5.89,-1.242 -7.857,-3.334L-7.857,-5.168C-5.874,-2.435 -2.152,1.3 3.415,1.3L15.834,1.3C15.969,1.543 16.218,1.714 16.514,1.714C16.948,1.714 17.302,1.36 17.302,0.925C17.302,0.491 16.948,0.137 16.514,0.137C16.218,0.137 15.969,0.308 15.834,0.55L8.975,0.55C12.643,-2.79 17.341,-4.639 22.33,-4.639C27.319,-4.639 32.018,-2.79 35.687,0.55L28.827,0.55C28.692,0.308 28.443,0.137 28.147,0.137C27.713,0.137 27.359,0.491 27.359,0.925C27.359,1.36 27.713,1.714 28.147,1.714C28.443,1.714 28.692,1.543 28.827,1.3L41.246,1.3C46.814,1.3 50.537,-2.437 52.52,-5.169M30.923,4.06L30.012,4.06C27.971,5.885 25.286,7.005 22.332,7.005C19.378,7.005 16.692,5.885 14.651,4.06L13.741,4.06C14.015,4.334 14.301,4.594 14.6,4.84C14.652,4.824 14.706,4.807 14.765,4.807C15.075,4.807 15.327,5.059 15.327,5.37C15.327,5.37 15.324,5.379 15.324,5.383C17.308,6.79 19.722,7.624 22.332,7.624C24.941,7.624 27.355,6.79 29.338,5.384C29.338,5.38 29.335,5.375 29.335,5.375C29.335,5.059 29.587,4.807 29.897,4.807C29.956,4.807 30.01,4.824 30.063,4.84C30.362,4.594 30.648,4.334 30.923,4.06M-6.684,-11.395L-7.857,-15.759L-7.857,-6.493C-7.611,-6.113 -7.325,-5.695 -6.99,-5.254C-7.239,-6.661 -7.426,-8.966 -6.684,-11.395M7.86,0.55C8.45,-0.032 9.077,-0.562 9.722,-1.063C7.397,-0.351 3.556,0.53 0,0.001C1.048,0.336 2.178,0.55 3.415,0.55L7.86,0.55Z" style="fill:rgb(220,221,222);fill-rule:nonzero;"/>
        </g>
    </g>
</svg>
