<?xml version="1.0" encoding="UTF-8" standalone="no"?>
<!DOCTYPE svg PUBLIC "-//W3C//DTD SVG 1.1//EN" "http://www.w3.org/Graphics/SVG/1.1/DTD/svg11.dtd">
<svg width="100%" height="100%" viewBox="0 0 218 206" version="1.1" xmlns="http://www.w3.org/2000/svg" xmlns:xlink="http://www.w3.org/1999/xlink" xml:space="preserve" xmlns:serif="http://www.serif.com/" style="fill-rule:evenodd;clip-rule:evenodd;stroke-linejoin:round;stroke-miterlimit:2;">
    <g transform="matrix(1,0,0,1,-1400.96,-564.638)">
        <g transform="matrix(4.16667,0,0,4.16667,1597.74,769.963)">
            <path d="M0,-49.278L-42.215,-49.278L-47.227,-44.265L-47.227,-5.012L-42.215,0L0,0L5.013,-5.012L5.013,-44.265L0,-49.278ZM3.638,-43.695L3.638,-39.82C3.23,-41.042 2.651,-42.345 1.839,-43.576L1.839,-43.647L1.793,-43.647C0.638,-45.374 -0.989,-46.941 -3.277,-47.903L-0.57,-47.903L3.638,-43.695ZM-5.214,-1.375L-37.026,-1.375C-39.64,-2.007 -41.732,-3.447 -43.304,-5.654L-43.304,-43.601C-41.937,-45.516 -39.934,-47.18 -37.001,-47.903L-5.189,-47.903C-2.575,-47.271 -0.483,-45.832 1.089,-43.625L1.089,-5.677C-0.277,-3.762 -2.281,-2.098 -5.214,-1.375M-45.852,-37.549C-45.55,-38.966 -45.01,-40.73 -44.054,-42.422L-44.054,-6.841C-44.221,-7.138 -44.397,-7.42 -44.549,-7.74C-45.206,-9.124 -45.606,-10.515 -45.852,-11.679L-45.852,-37.549ZM1.839,-42.437C2.006,-42.14 2.183,-41.858 2.334,-41.539C2.991,-40.154 3.392,-38.763 3.638,-37.599L3.638,-11.73C3.335,-10.312 2.795,-8.548 1.839,-6.857L1.839,-42.437ZM-41.644,-47.903L-38.937,-47.903C-41.226,-46.941 -42.852,-45.374 -44.008,-43.647L-44.054,-43.647L-44.054,-43.576C-44.866,-42.345 -45.445,-41.042 -45.852,-39.82L-45.852,-43.695L-41.644,-47.903ZM-45.852,-5.582L-45.852,-9.458C-45.445,-8.237 -44.866,-6.933 -44.054,-5.703L-44.054,-5.631L-44.008,-5.631C-42.852,-3.905 -41.226,-2.337 -38.937,-1.375L-41.644,-1.375L-45.852,-5.582ZM-0.57,-1.375L-3.277,-1.375C-0.989,-2.337 0.638,-3.905 1.793,-5.631L1.839,-5.631L1.839,-5.703C2.651,-6.933 3.23,-8.237 3.638,-9.458L3.638,-5.582L-0.57,-1.375Z" style="fill:rgb(35,31,32);fill-rule:nonzero;"/>
        </g>
    </g>
</svg>
