<?xml version="1.0" encoding="UTF-8" standalone="no"?>
<!DOCTYPE svg PUBLIC "-//W3C//DTD SVG 1.1//EN" "http://www.w3.org/Graphics/SVG/1.1/DTD/svg11.dtd">
<svg width="100%" height="100%" viewBox="0 0 479 194" version="1.1" xmlns="http://www.w3.org/2000/svg" xmlns:xlink="http://www.w3.org/1999/xlink" xml:space="preserve" xmlns:serif="http://www.serif.com/" style="fill-rule:evenodd;clip-rule:evenodd;stroke-linejoin:round;stroke-miterlimit:2;">
    <g transform="matrix(1,0,0,1,0,-0.00303201)">
        <g transform="matrix(1,0,0,1,-383.772,-832.556)">
            <g id="top" transform="matrix(1,0,0,1,383.772,832.556)">
                <path d="M0,86.615L1.024,85.978C1.095,85.936 4.179,83.978 7.287,80.678C6.274,74.928 4.979,69.503 3.312,64.703L3.108,64.124L7.333,17.036L9.166,16.466C13.762,15.028 25.699,9.782 25.699,2.866L25.699,0.003L453.029,0.003L453.029,2.866C453.029,9.778 465.271,15.132 469.567,16.466L471.396,17.032L475.621,64.124L475.417,64.703C473.75,69.507 472.446,74.953 471.433,80.716C474.554,83.986 477.633,85.936 477.704,85.978L478.729,86.611L478.375,87.766C473.462,103.707 470.287,163.699 468.971,185.078L468.972,194L463.253,194L463.25,152.436C463.104,150.624 460.175,110.457 465.933,78.911C462.954,74.582 460.85,69.007 462.362,62.561C462.412,62.424 463.208,60.541 464.216,57.82C465.296,48.778 465.725,18.507 426.462,5.732L52.4,5.732C34.116,11.703 21.841,22.449 16.816,37.132C13.787,45.999 14.12,54.053 14.549,57.924C15.52,60.507 16.262,62.253 16.283,62.307C17.833,68.857 15.749,74.491 12.787,78.857C18.558,110.411 15.624,150.657 15.47,152.653L15.473,194L9.751,194L9.749,184.987C8.433,163.578 5.258,103.686 0.354,87.766L0,86.617L0,86.615ZM475.058,87.97C472.146,98.266 469.879,117.399 468.254,135.62C467.95,121.986 468.154,102.141 470.812,84.52C472.529,86.116 474.092,87.291 475.058,87.97ZM7.912,84.507C10.57,102.103 10.779,121.936 10.474,135.611C8.845,117.395 6.583,98.266 3.67,87.97C4.641,87.291 6.204,86.111 7.912,84.507ZM465.321,63.536C465.466,63.195 467.254,58.995 468.937,53.795L469.8,63.416C468.646,66.832 467.675,70.528 466.837,74.382C465.233,71.211 464.387,67.532 465.321,63.536ZM8.929,63.416L9.791,53.795C11.458,58.945 13.216,63.066 13.324,63.278C14.274,67.336 13.454,71.061 11.866,74.27C11.037,70.453 10.07,66.795 8.929,63.416ZM31.087,5.732L46.22,5.732C17.879,17.236 12.704,38.816 12.279,51.278C11.629,49.182 11.029,46.986 10.587,44.882L12.699,21.307C17.437,19.57 28.958,14.503 31.087,5.732ZM466.029,21.307L468.141,44.878C467.716,46.911 467.146,49.024 466.521,51.061C466.387,46.949 465.733,41.874 463.879,36.461C460.45,26.428 452.146,13.716 432.487,5.732L447.641,5.732C449.775,14.503 461.291,19.57 466.029,21.307Z"/>
            </g>
        </g>
    </g>
</svg>
