<?xml version="1.0" encoding="UTF-8" standalone="no"?>
<!DOCTYPE svg PUBLIC "-//W3C//DTD SVG 1.1//EN" "http://www.w3.org/Graphics/SVG/1.1/DTD/svg11.dtd">
<svg width="100%" height="100%" viewBox="0 0 750 607" version="1.1" xmlns="http://www.w3.org/2000/svg" xmlns:xlink="http://www.w3.org/1999/xlink" xml:space="preserve" xmlns:serif="http://www.serif.com/" style="fill-rule:evenodd;clip-rule:evenodd;stroke-linejoin:round;stroke-miterlimit:2;">
    <g transform="matrix(1,0,0,1,-112.5,-2592.2)">
        <g transform="matrix(4.16667,0,0,4.16667,862.5,3185.83)">
            <path d="M0,-139.475L0,-140.378L-2.873,-140.378L-2.873,-142.472L-4.123,-142.472C-4.123,-142.472 -4.62,-141.752 -5.954,-141.752L-174.046,-141.752C-175.38,-141.752 -175.877,-142.472 -175.877,-142.472L-177.127,-142.472L-177.127,-140.378L-180,-140.378L-180,-139.475C-178.818,-139.475 -178.753,-137.538 -178.753,-137.538L-178.753,-3.139C-178.753,-3.139 -178.818,-1.202 -180,-1.202L-180,-0.299L-177.127,-0.299L-177.127,2.997L-175.877,2.997L-175.877,-140.919L-4.123,-140.919L-4.123,1.444L-175.876,1.444L-175.876,2.997C-175.876,2.997 -175.379,2.277 -174.045,2.277L-5.953,2.277C-4.626,2.277 -4.128,2.988 -4.123,2.996L-4.123,2.997L-2.873,2.997L-2.873,-0.299L0,-0.299L0,-1.202C-1.182,-1.202 -1.247,-3.139 -1.247,-3.139L-1.247,-137.538C-1.247,-137.538 -1.182,-139.475 0,-139.475M-177.127,-3.139L-178.003,-3.139L-178.003,-136.789L-177.127,-136.789L-177.127,-3.139ZM-1.997,-3.139L-2.873,-3.139L-2.873,-136.789L-1.997,-136.789L-1.997,-3.139Z" style="fill:rgb(35,31,32);fill-rule:nonzero;"/>
        </g>
    </g>
</svg>
