<?xml version="1.0" encoding="UTF-8" standalone="no"?>
<!DOCTYPE svg PUBLIC "-//W3C//DTD SVG 1.1//EN" "http://www.w3.org/Graphics/SVG/1.1/DTD/svg11.dtd">
<svg width="100%" height="100%" viewBox="0 0 688 208" version="1.1" xmlns="http://www.w3.org/2000/svg" xmlns:xlink="http://www.w3.org/1999/xlink" xml:space="preserve" xmlns:serif="http://www.serif.com/" style="fill-rule:evenodd;clip-rule:evenodd;stroke-linejoin:round;stroke-miterlimit:2;">
    <g transform="matrix(1,0,0,1,-1719.44,-853.399)">
        <g transform="matrix(4.16667,0,0,4.16667,2393.86,1058.4)">
            <path d="M0,-48.701C0,-48.701 -2.111,-44.751 -8.906,-48.701L-149.876,-48.701C-156.671,-44.751 -158.782,-48.701 -158.782,-48.701L-161.361,-48.701L-161.361,0L-158.782,0C-158.782,0 -156.671,-3.95 -149.876,0L-8.906,0C-2.111,-3.95 0,0 0,0L2.579,0L2.579,-48.701L0,-48.701Z" style="fill:white;fill-rule:nonzero;"/>
        </g>
        <g transform="matrix(4.16667,0,0,4.16667,2392.63,1060.47)">
            <path d="M0,-49.693L-0.143,-49.436C-0.173,-49.381 -0.846,-48.231 -2.628,-47.992C-2.797,-48.215 -3.052,-48.37 -3.353,-48.37C-3.646,-48.37 -3.894,-48.226 -4.064,-48.015C-5.332,-48.177 -6.767,-48.703 -8.359,-49.63L-8.475,-49.697L-149.715,-49.697L-149.831,-49.63C-151.424,-48.703 -152.858,-48.177 -154.126,-48.015C-154.295,-48.226 -154.545,-48.37 -154.836,-48.37C-155.138,-48.37 -155.393,-48.215 -155.562,-47.992C-157.344,-48.231 -158.016,-49.381 -158.045,-49.432L-158.186,-49.697L-161.565,-49.697L-161.565,0.004L-158.19,0L-158.047,-0.257C-158.017,-0.312 -157.344,-1.462 -155.562,-1.701C-155.393,-1.477 -155.138,-1.323 -154.837,-1.323C-154.545,-1.323 -154.296,-1.467 -154.126,-1.678C-152.858,-1.516 -151.424,-0.99 -149.831,-0.063L-149.715,0.004L-8.475,0.004L-8.359,-0.063C-6.767,-0.99 -5.332,-1.516 -4.064,-1.678C-3.896,-1.467 -3.646,-1.323 -3.354,-1.323C-3.053,-1.323 -2.797,-1.477 -2.628,-1.701C-0.846,-1.462 -0.174,-0.312 -0.146,-0.261L-0.004,0.004L3.375,0.004L3.375,-49.697L0,-49.693ZM-160.565,-36.404C-159.922,-31.794 -159.596,-27.629 -159.596,-23.979L-159.596,-25.714C-159.596,-22.064 -159.922,-17.899 -160.565,-13.289L-160.565,-36.404ZM2.375,-0.996L0.565,-0.996C0.205,-1.485 -0.75,-2.488 -2.568,-2.705C-2.729,-2.978 -3.014,-3.172 -3.354,-3.172C-3.708,-3.172 -4.006,-2.966 -4.161,-2.674C-5.54,-2.502 -7.071,-1.954 -8.744,-0.996L-149.446,-0.996C-151.119,-1.954 -152.65,-2.502 -154.029,-2.674C-154.184,-2.966 -154.482,-3.172 -154.837,-3.172C-155.177,-3.172 -155.462,-2.978 -155.622,-2.705C-157.44,-2.488 -158.395,-1.485 -158.755,-0.996L-160.565,-0.996L-160.565,-9.992C-159.594,-15.92 -159.096,-21.208 -159.096,-25.714L-159.096,-23.979C-159.096,-28.485 -159.594,-33.773 -160.565,-39.701L-160.565,-48.697L-158.755,-48.697C-158.395,-48.208 -157.44,-47.205 -155.622,-46.988C-155.461,-46.714 -155.177,-46.521 -154.836,-46.521C-154.482,-46.521 -154.184,-46.727 -154.029,-47.019C-152.65,-47.191 -151.119,-47.739 -149.446,-48.697L-8.744,-48.697C-7.071,-47.739 -5.54,-47.191 -4.161,-47.019C-4.006,-46.727 -3.708,-46.521 -3.353,-46.521C-3.014,-46.521 -2.728,-46.714 -2.568,-46.988C-0.75,-47.205 0.205,-48.208 0.565,-48.697L2.375,-48.697L2.375,-39.701C1.403,-33.773 0.906,-28.485 0.906,-23.979L0.906,-25.714C0.906,-21.208 1.403,-15.92 2.375,-9.992L2.375,-0.996ZM2.375,-13.289C1.732,-17.899 1.406,-22.064 1.406,-25.714L1.406,-23.979C1.406,-27.629 1.732,-31.794 2.375,-36.404L2.375,-13.289Z" style="fill:rgb(35,31,32);fill-rule:nonzero;"/>
        </g>
    </g>
</svg>
