<?xml version="1.0" encoding="UTF-8" standalone="no"?>
<!DOCTYPE svg PUBLIC "-//W3C//DTD SVG 1.1//EN" "http://www.w3.org/Graphics/SVG/1.1/DTD/svg11.dtd">
<svg width="100%" height="100%" viewBox="0 0 750 1031" version="1.1" xmlns="http://www.w3.org/2000/svg" xmlns:xlink="http://www.w3.org/1999/xlink" xml:space="preserve" xmlns:serif="http://www.serif.com/" style="fill-rule:evenodd;clip-rule:evenodd;stroke-linejoin:round;stroke-miterlimit:2;">
    <g transform="matrix(1,0,0,1,-900.284,-523.202)">
        <g transform="matrix(4.16667,0,0,4.16667,1645.98,561.502)">
            <path d="M0,229.009C0.25,227.604 0.438,225.296 -0.306,222.863L1.034,217.885L1.034,227.506C0.755,227.952 0.415,228.462 0,229.009M1.034,11.124L1.034,1.504C0.756,1.059 0.415,0.551 0.001,0.005C0.251,1.411 0.437,3.716 -0.306,6.145L1.034,11.124ZM-178.966,1.504L-178.966,11.124L-177.626,6.145C-178.368,3.716 -178.183,1.411 -177.933,0.005C-178.347,0.551 -178.687,1.059 -178.966,1.504M-10.403,235.56L-72.644,235.56C-72.778,235.801 -73.027,235.972 -73.324,235.972C-73.758,235.972 -74.111,235.618 -74.111,235.185C-74.111,234.749 -73.758,234.396 -73.324,234.396C-73.027,234.396 -72.777,234.567 -72.643,234.81L-10.403,234.81C-5.939,234.81 -2.728,232.245 -0.703,229.878C-0.448,228.89 0.144,225.972 -0.804,222.943L-0.826,222.873L-0.807,222.803L1.034,215.962L1.034,13.048L-0.826,6.135L-0.804,6.066C0.141,3.045 -0.444,0.132 -0.701,-0.863C-2.727,-3.231 -5.941,-5.8 -10.403,-5.8L-72.644,-5.8C-72.778,-5.558 -73.027,-5.387 -73.324,-5.387C-73.758,-5.387 -74.111,-5.741 -74.111,-6.175C-74.111,-6.61 -73.758,-6.964 -73.324,-6.964C-73.027,-6.964 -72.777,-6.793 -72.643,-6.55L-10.403,-6.55C-4.674,-6.55 -0.901,-2.595 1.034,0.154L1.034,-1.736C-0.794,-3.72 -5.088,-7.681 -11.216,-9.192L-166.724,-9.19C-172.851,-7.678 -177.14,-3.721 -178.966,-1.737L-178.966,0.154C-177.03,-2.595 -173.258,-6.55 -167.528,-6.55L-105.289,-6.55C-105.154,-6.793 -104.904,-6.964 -104.607,-6.964C-104.174,-6.964 -103.82,-6.61 -103.82,-6.175C-103.82,-5.741 -104.174,-5.387 -104.607,-5.387C-104.904,-5.387 -105.152,-5.558 -105.287,-5.8L-167.528,-5.8C-171.99,-5.8 -175.205,-3.231 -177.23,-0.863C-177.487,0.132 -178.072,3.045 -177.128,6.066L-177.105,6.135L-177.125,6.205L-178.966,13.048L-178.966,215.961L-177.105,222.873L-177.128,222.943C-178.073,225.965 -177.485,228.879 -177.23,229.873C-175.205,232.241 -171.99,234.81 -167.528,234.81L-105.289,234.81C-105.154,234.567 -104.904,234.396 -104.607,234.396C-104.174,234.396 -103.82,234.749 -103.82,235.185C-103.82,235.618 -104.174,235.972 -104.607,235.972C-104.904,235.972 -105.152,235.801 -105.287,235.56L-167.528,235.56C-173.258,235.56 -177.03,231.604 -178.966,228.856L-178.966,230.746C-177.138,232.731 -172.843,236.692 -166.712,238.201L-11.211,238.199C-5.083,236.689 -0.792,232.732 1.034,230.747L1.034,228.856C-0.901,231.604 -4.674,235.56 -10.403,235.56M-178.966,217.885L-178.966,227.505C-178.687,227.95 -178.347,228.459 -177.933,229.005C-178.183,227.599 -178.368,225.293 -177.626,222.863L-178.966,217.885ZM-178.966,231.475L-178.966,234.055C-178.966,234.055 -175.319,236.223 -174.39,238.201L-168.516,238.201C-173.503,236.537 -177.12,233.392 -178.966,231.475M1.034,-2.466L1.034,-5.046C1.034,-5.046 -2.612,-7.214 -3.542,-9.192L-9.413,-9.192C-4.428,-7.528 -0.812,-4.382 1.034,-2.466M-9.411,238.199L-3.542,238.199C-2.612,236.223 1.034,234.053 1.034,234.053L1.034,231.475C-0.812,233.392 -4.427,236.535 -9.411,238.199M-168.522,-9.19L-174.39,-9.19C-175.319,-7.214 -178.966,-5.044 -178.966,-5.044L-178.966,-2.466C-177.12,-4.382 -173.506,-7.526 -168.522,-9.19" style="fill:rgb(220,221,222);fill-rule:nonzero;"/>
        </g>
    </g>
</svg>
