<?xml version="1.0" encoding="UTF-8" standalone="no"?>
<!DOCTYPE svg PUBLIC "-//W3C//DTD SVG 1.1//EN" "http://www.w3.org/Graphics/SVG/1.1/DTD/svg11.dtd">
<svg width="100%" height="100%" viewBox="0 0 479 194" version="1.1" xmlns="http://www.w3.org/2000/svg" xmlns:xlink="http://www.w3.org/1999/xlink" xml:space="preserve" xmlns:serif="http://www.serif.com/" style="fill-rule:evenodd;clip-rule:evenodd;stroke-linejoin:round;stroke-miterlimit:2;">
    <g transform="matrix(1,0,0,1,0,-232.003)">
        <g transform="matrix(1,0,0,1,-383.772,-832.556)">
            <g id="bottom" transform="matrix(1,0,0,1,383.772,832.556)">
                <path d="M468.976,232.003L468.979,257.441C470.296,278.853 473.471,322.082 478.375,337.999L478.729,339.149L477.704,339.791C477.633,339.828 474.55,341.787 471.442,345.087C472.454,350.837 473.754,356.266 475.417,361.062L475.621,361.645L471.396,408.733L469.567,409.299C464.966,410.737 453.029,415.983 453.029,422.899L453.029,425.762L25.699,425.762L25.699,422.899C25.699,415.983 13.762,410.737 9.166,409.299L7.333,408.733L3.108,361.645L3.312,361.062C4.983,356.253 6.283,350.812 7.295,345.049C4.174,341.774 1.095,339.828 1.024,339.791L0,339.154L0,339.152L0.354,337.999C5.266,322.062 8.441,278.737 9.758,257.357L9.755,232.003L15.476,232.003L15.479,273.328C15.624,275.141 18.554,315.312 12.799,346.853C15.774,351.182 17.879,356.757 16.366,363.203C16.316,363.341 15.52,365.224 14.512,367.945C13.433,376.987 13.004,407.258 52.266,420.033L426.333,420.033C444.612,414.058 456.891,403.316 461.912,388.633C464.941,379.77 464.608,371.716 464.179,367.841C463.208,365.253 462.471,363.512 462.45,363.457C460.9,356.912 462.983,351.278 465.941,346.912C460.171,315.353 463.104,275.107 463.258,273.116L463.255,232.003L468.976,232.003ZM12.699,404.458L10.587,380.887C11.012,378.862 11.587,376.745 12.208,374.707C12.341,378.82 12.995,383.891 14.849,389.303C18.279,399.345 26.583,412.049 46.241,420.033L31.087,420.033C28.958,411.262 17.437,406.195 12.699,404.458ZM447.641,420.033L432.508,420.033C460.85,408.533 466.025,386.949 466.454,374.487C467.1,376.587 467.7,378.778 468.141,380.883L466.029,404.458C461.291,406.195 449.775,411.262 447.641,420.033ZM13.408,362.228C13.262,362.574 11.474,366.77 9.791,371.97L8.929,362.353C10.083,358.937 11.058,355.245 11.891,351.387C13.499,354.562 14.341,358.237 13.408,362.228ZM469.8,362.353L468.937,371.97C467.271,366.816 465.512,362.707 465.408,362.487C464.454,358.428 465.275,354.707 466.862,351.495C467.691,355.312 468.658,358.97 469.8,362.353ZM470.817,341.257C468.158,323.666 467.95,303.832 468.254,290.157C469.883,308.374 472.146,327.499 475.058,337.795C474.092,338.474 472.529,339.653 470.817,341.257ZM3.67,337.795C6.583,327.499 8.849,308.37 10.474,290.149C10.779,303.778 10.574,323.628 7.916,341.245C6.204,339.649 4.641,338.47 3.67,337.795Z"/>
            </g>
        </g>
    </g>
</svg>
