<?xml version="1.0" encoding="UTF-8" standalone="no"?>
<!DOCTYPE svg PUBLIC "-//W3C//DTD SVG 1.1//EN" "http://www.w3.org/Graphics/SVG/1.1/DTD/svg11.dtd">
<svg width="100%" height="100%" viewBox="0 0 479 426" version="1.1" xmlns="http://www.w3.org/2000/svg" xmlns:xlink="http://www.w3.org/1999/xlink" xml:space="preserve" xmlns:serif="http://www.serif.com/" style="fill-rule:evenodd;clip-rule:evenodd;stroke-linejoin:round;stroke-miterlimit:2;">
    <g transform="matrix(4.16667,0,0,4.16667,468.979,168.324)">
        <path d="M0,21.388L-0.002,4.021C0.314,-1.11 1.076,-15.508 2.255,-19.334L2.34,-19.611L2.094,-19.763C2.077,-19.773 1.338,-20.241 0.589,-21.026C0.832,-22.409 1.145,-23.716 1.545,-24.869L1.594,-25.008L0.58,-36.31L0.141,-36.446C-0.89,-36.766 -3.828,-38.051 -3.828,-39.71L-3.828,-40.397L-106.387,-40.397L-106.387,-39.71C-106.387,-38.05 -109.252,-36.791 -110.355,-36.446L-110.795,-36.309L-111.809,-25.008L-111.76,-24.869C-111.36,-23.717 -111.049,-22.415 -110.806,-21.035C-111.552,-20.243 -112.292,-19.773 -112.309,-19.763L-112.555,-19.61L-112.47,-19.334C-111.293,-15.513 -110.531,-1.139 -110.215,3.999L-110.213,21.368C-110.529,26.499 -111.291,36.897 -112.47,40.722L-112.555,40.999L-112.309,41.152C-112.292,41.161 -111.553,41.628 -110.804,42.414C-111.047,43.797 -111.359,45.103 -111.76,46.257L-111.809,46.397L-110.795,57.698L-110.355,57.834C-109.252,58.179 -106.387,59.438 -106.387,61.098L-106.387,61.785L-3.828,61.785L-3.828,61.098C-3.828,59.438 -0.963,58.179 0.141,57.834L0.58,57.698L1.594,46.397L1.545,46.257C1.146,45.106 0.834,43.803 0.591,42.423C1.337,41.631 2.077,41.161 2.094,41.152L2.34,40.998L2.255,40.722C1.078,36.902 0.316,26.527 0,21.388M-1.567,46.832C-1.562,46.845 -1.385,47.263 -1.152,47.884C-1.049,48.814 -0.969,50.747 -1.696,52.874C-2.901,56.398 -5.848,58.976 -10.235,60.41L-100.011,60.41C-109.434,57.344 -109.331,50.079 -109.072,47.909C-108.83,47.256 -108.639,46.804 -108.627,46.771C-108.264,45.224 -108.769,43.886 -109.483,42.847C-108.102,35.277 -108.805,25.636 -108.84,25.201L-108.842,-3.761C-108.805,-4.24 -108.101,-13.899 -109.486,-21.472C-108.775,-22.52 -108.275,-23.872 -108.647,-25.444C-108.652,-25.457 -108.83,-25.876 -109.063,-26.496C-109.166,-27.425 -109.246,-29.358 -108.519,-31.486C-107.313,-35.01 -104.367,-37.589 -99.979,-39.022L-10.204,-39.022C-0.781,-35.956 -0.884,-28.691 -1.143,-26.521C-1.385,-25.868 -1.576,-25.416 -1.588,-25.383C-1.951,-23.836 -1.446,-22.498 -0.731,-21.459C-2.113,-13.888 -1.41,-4.248 -1.375,-3.813L-1.373,25.15C-1.41,25.628 -2.114,35.287 -0.729,42.861C-1.439,43.909 -1.939,45.261 -1.567,46.832M1.459,-19.285C0.76,-16.814 0.216,-12.222 -0.174,-7.849C-0.247,-11.121 -0.198,-15.884 0.44,-20.113C0.852,-19.73 1.227,-19.448 1.459,-19.285M-0.878,-25.149C-0.843,-25.231 -0.414,-26.239 -0.01,-27.487L0.197,-25.178C-0.08,-24.358 -0.313,-23.471 -0.514,-22.546C-0.899,-23.307 -1.102,-24.19 -0.878,-25.149M-0.708,-35.284L-0.201,-29.627C-0.303,-29.139 -0.44,-28.632 -0.59,-28.143C-0.622,-29.13 -0.779,-30.348 -1.224,-31.647C-2.047,-34.055 -4.04,-37.106 -8.758,-39.022L-5.121,-39.022C-4.609,-36.917 -1.845,-35.701 -0.708,-35.284M-105.094,-39.022L-101.462,-39.022C-108.264,-36.261 -109.506,-31.082 -109.608,-28.091C-109.764,-28.594 -109.908,-29.121 -110.014,-29.626L-109.507,-35.284C-108.37,-35.701 -105.605,-36.917 -105.094,-39.022M-110.412,-25.178L-110.205,-27.487C-109.805,-26.251 -109.383,-25.262 -109.357,-25.211C-109.129,-24.237 -109.326,-23.343 -109.707,-22.573C-109.906,-23.489 -110.138,-24.367 -110.412,-25.178M-110.656,-20.116C-110.018,-15.893 -109.968,-11.133 -110.041,-7.851C-110.432,-12.223 -110.975,-16.814 -111.674,-19.285C-111.441,-19.448 -111.066,-19.731 -110.656,-20.116M-111.674,40.673C-110.975,38.202 -110.431,33.611 -110.041,29.238C-109.968,32.509 -110.017,37.273 -110.655,41.501C-111.066,41.118 -111.441,40.835 -111.674,40.673M-109.337,46.537C-109.372,46.62 -109.801,47.627 -110.205,48.875L-110.412,46.567C-110.135,45.747 -109.901,44.861 -109.701,43.935C-109.315,44.697 -109.113,45.579 -109.337,46.537M-109.507,56.672L-110.014,51.015C-109.912,50.529 -109.774,50.021 -109.625,49.532C-109.593,50.519 -109.436,51.736 -108.991,53.035C-108.168,55.445 -106.175,58.494 -101.457,60.41L-105.094,60.41C-105.605,58.305 -108.37,57.089 -109.507,56.672M-5.121,60.41L-8.753,60.41C-1.951,57.65 -0.709,52.47 -0.606,49.479C-0.451,49.983 -0.307,50.509 -0.201,51.014L-0.708,56.672C-1.845,57.089 -4.609,58.305 -5.121,60.41M0.197,46.567L-0.01,48.875C-0.41,47.638 -0.832,46.652 -0.857,46.599C-1.086,45.625 -0.889,44.732 -0.508,43.961C-0.309,44.877 -0.077,45.755 0.197,46.567M0.441,41.504C-0.197,37.282 -0.247,32.522 -0.174,29.24C0.217,33.612 0.76,38.202 1.459,40.673C1.227,40.836 0.852,41.119 0.441,41.504" style="fill:rgb(35,31,32);fill-rule:nonzero;"/>
    </g>
</svg>
