<?xml version="1.0" encoding="UTF-8" standalone="no"?>
<!DOCTYPE svg PUBLIC "-//W3C//DTD SVG 1.1//EN" "http://www.w3.org/Graphics/SVG/1.1/DTD/svg11.dtd">
<svg width="100%" height="100%" viewBox="0 0 726 155" version="1.1" xmlns="http://www.w3.org/2000/svg" xmlns:xlink="http://www.w3.org/1999/xlink" xml:space="preserve" xmlns:serif="http://www.serif.com/" style="fill-rule:evenodd;clip-rule:evenodd;stroke-linejoin:round;stroke-miterlimit:2;">
    <g transform="matrix(1,0,0,1,-129.272,-574.232)">
        <g transform="matrix(4.16667,0,0,4.16667,831.97,597.104)">
            <path d="M0,26.142L4.83,20.312L4.83,5.83L0,0L-158.189,0L-158.189,26.142L0,26.142Z" style="fill:white;fill-rule:nonzero;"/>
        </g>
        <g transform="matrix(4.16667,0,0,4.16667,141.773,601.668)">
            <path d="M0,23.952L0,-0.002L2.7,-2.542L12.916,6.319L12.916,17.633L2.7,26.494L0,23.952Z" style="fill:white;fill-rule:nonzero;"/>
        </g>
        <g transform="matrix(4.16667,0,0,4.16667,153.194,703.64)">
            <path d="M0,-24.995L8.675,-17.47L8.675,-7.525L0,-0.001L-1.241,-1.169L-1.241,-23.827L0,-24.995ZM-0.082,-29.037L-4.241,-25.124L-4.241,0.127L-0.082,4.042L11.675,-6.156L11.675,-18.839L-0.082,-29.037Z" style="fill:rgb(220,221,222);fill-rule:nonzero;"/>
        </g>
        <g transform="matrix(4.16667,0,0,4.16667,854.96,620.209)">
            <path d="M0,15.052L0,-0L-6.232,-6.232L-165.299,-6.232L-163.714,-4.857L-156.769,-4.857L-149.735,3.715C-149.974,4.507 -150.141,5.391 -150.219,6.372C-150.761,6.489 -151.177,6.948 -151.177,7.526C-151.177,8.103 -150.761,8.563 -150.218,8.678C-150.141,9.657 -149.974,10.54 -149.735,11.331L-156.774,19.909L-163.714,19.909L-165.3,21.284L-6.232,21.284L0,15.052ZM-152.628,19.909L-151.004,17.865L-9.08,17.865C-11.277,19.02 -13.468,19.61 -15.138,19.909L-152.628,19.909ZM-146.726,4.784L-146.726,10.271L-148.608,12.639C-149.122,11.562 -149.498,10.249 -149.621,8.656C-149.134,8.502 -148.773,8.063 -148.773,7.526C-148.773,6.988 -149.135,6.548 -149.622,6.395C-149.499,4.802 -149.123,3.49 -148.609,2.414L-146.726,4.784ZM-150.53,-2.215L-144.97,-2.215C-145.908,-1.704 -147.177,-0.811 -148.245,0.662L-150.53,-2.215ZM-148.243,14.39C-147.176,15.864 -145.907,16.756 -144.969,17.266L-150.528,17.266L-148.243,14.39ZM-149.507,11.998C-149.355,12.403 -149.187,12.781 -149.003,13.136L-154.385,19.909L-155.999,19.909L-149.507,11.998ZM-154.387,-4.857L-149.005,1.916C-149.187,2.27 -149.354,2.647 -149.506,3.049L-155.994,-4.857L-154.387,-4.857ZM-15.733,-4.857C-14.055,-4.602 -11.678,-4.042 -9.273,-2.814L-151.007,-2.814L-152.63,-4.857L-15.733,-4.857ZM-1.375,3.969C-4.061,-1.297 -8.647,-3.732 -12.34,-4.857L-6.803,-4.857L-1.375,0.571L-1.375,3.969ZM-1.375,9.326C-2.91,13.199 -5.448,15.698 -8.094,17.305L-8.094,17.266L-143.511,17.266C-143.802,17.18 -146.153,16.408 -147.871,13.922L-145.351,10.751L-145.351,4.304L-147.873,1.13C-146.155,-1.356 -143.803,-2.129 -143.513,-2.215L-8.195,-2.215C-5.513,-0.609 -2.93,1.905 -1.375,5.826L-1.375,9.326ZM-1.375,14.482L-6.803,19.909L-12.026,19.909C-8.392,18.744 -3.986,16.302 -1.375,11.187L-1.375,14.482Z" style="fill:rgb(35,31,32);fill-rule:nonzero;"/>
        </g>
        <g transform="matrix(4.16667,0,0,4.16667,152.852,720.486)">
            <path d="M0,-33.08L11.757,-22.882L11.757,-10.199L0,-0.001L-4.159,-3.916L-4.159,-29.167L0,-33.08ZM-0.041,-35.101L-1.027,-34.173L-5.187,-30.26L-5.659,-29.815L-5.659,-3.268L-5.187,-2.823L-1.028,1.091L-0.041,2.021L0.982,1.132L12.74,-9.066L13.257,-9.515L13.257,-23.566L12.74,-24.015L0.982,-34.213L-0.041,-35.101Z" style="fill:rgb(35,31,32);fill-rule:nonzero;"/>
        </g>
    </g>
</svg>
