<?xml version="1.0" encoding="UTF-8" standalone="no"?>
<!DOCTYPE svg PUBLIC "-//W3C//DTD SVG 1.1//EN" "http://www.w3.org/Graphics/SVG/1.1/DTD/svg11.dtd">
<svg width="100%" height="100%" viewBox="0 0 222 261" version="1.1" xmlns="http://www.w3.org/2000/svg" xmlns:xlink="http://www.w3.org/1999/xlink" xml:space="preserve" xmlns:serif="http://www.serif.com/" style="fill-rule:evenodd;clip-rule:evenodd;stroke-linejoin:round;stroke-miterlimit:2;">
    <g transform="matrix(1,0,0,1,-127.343,-2080.25)">
        <g transform="matrix(1,0,0,1,0,595.62)">
            <ellipse cx="238.283" cy="1700.34" rx="56.075" ry="39.538" style="fill:white;"/>
        </g>
        <g transform="matrix(4.16667,0,0,4.16667,130.505,2229.66)">
            <path d="M0,-15.384C0,-15.384 2.231,-4.134 1.5,6.116C1.5,6.116 -1.625,9.241 1.75,14.303L1.47,19.775L50.265,19.775L49.984,14.303C53.359,9.241 50.234,6.116 50.234,6.116C49.503,-4.134 51.734,-15.384 51.734,-15.384L50.297,-16.446C50.609,-17.009 51.395,-20.475 51.395,-20.475L50.443,-32.02C47.59,-30.843 45.75,-35.159 45.75,-35.159L5.984,-35.159C5.984,-35.159 4.145,-30.843 1.291,-32.02L0.34,-20.475C0.34,-20.475 1.125,-17.009 1.437,-16.446L0,-15.384Z" style="fill:white;fill-rule:nonzero;"/>
        </g>
        <g transform="matrix(-4.16667,0,0,4.16667,238.285,2330.29)">
            <path d="M0,-16.478C-6.731,-16.478 -12.208,-12.783 -12.208,-8.24C-12.208,-3.697 -6.731,0 0,0C6.731,0 12.208,-3.697 12.208,-8.24C12.208,-12.783 6.731,-16.478 0,-16.478" style="fill:white;fill-rule:nonzero;"/>
        </g>
        <g transform="matrix(4.16667,0,0,4.16667,238.285,2266.83)">
            <path d="M0,13.978C-5.939,13.978 -10.958,10.778 -10.958,6.989C-10.958,3.201 -5.939,-0 0,-0C5.939,-0 10.958,3.201 10.958,6.989C10.958,10.778 5.939,13.978 0,13.978M0,16.478C7.434,16.478 13.458,12.229 13.458,6.989C13.458,1.749 7.434,-2.5 0,-2.5C-7.433,-2.5 -13.458,1.749 -13.458,6.989C-13.458,12.229 -7.433,16.478 0,16.478" style="fill:rgb(220,221,222);fill-rule:nonzero;"/>
        </g>
        <g transform="matrix(4.16667,0,0,4.16667,300.175,2106.79)">
            <path d="M0,50.014L1.633,48.724L0.111,48.724C0.456,47.705 0.635,46.794 0.69,45.987C1.231,46.724 2.385,47.833 4.115,47.17C3.722,47.282 2.113,47.516 0.667,44.483L0.662,44.497C0.373,42.093 -0.995,41.001 -0.995,41.001C0.425,43.792 0.097,46.268 -0.365,47.764C-0.373,47.775 -0.661,48.174 -1.242,48.184C-0.892,47.297 -0.692,46.365 -0.692,45.399C-0.692,39.778 -7.046,35.207 -14.854,35.207C-22.662,35.207 -29.016,39.778 -29.016,45.399C-29.016,46.365 -28.815,47.297 -28.464,48.184C-29.046,48.174 -29.333,47.775 -29.342,47.764C-29.804,46.268 -30.131,43.792 -28.712,41.001C-28.712,41.001 -30.08,42.093 -30.369,44.497L-30.373,44.483C-31.819,47.516 -33.429,47.282 -33.822,47.17C-32.092,47.833 -30.937,46.724 -30.397,45.987C-30.341,46.794 -30.162,47.705 -29.818,48.724L-31.34,48.724L-29.706,50.014L-29.703,50.014C-29.703,50.014 -27.91,51.241 -28.309,53.66C-28.309,53.66 -28.589,54.455 -27.885,54.571C-27.223,54.679 -26.43,53.139 -28.579,50.014L-27.464,50.014C-27.148,50.459 -26.789,50.885 -26.389,51.289L-26.394,51.297C-26.394,51.297 -26.369,51.333 -26.335,51.389C-24.048,54.791 -25.953,55.342 -25.959,55.344C-26.155,55.405 -26.228,55.635 -26.126,55.8C-25.769,56.381 -23.57,56.156 -24.507,53.333C-23.72,53.547 -22.729,53.977 -22.125,54.888L-16.937,55.48L-16.979,55.463C-16.284,55.538 -15.577,55.591 -14.854,55.591C-14.129,55.591 -13.423,55.538 -12.728,55.463L-12.77,55.48L-7.582,54.888C-6.976,53.977 -5.985,53.545 -5.196,53.331C-6.135,56.156 -3.936,56.383 -3.578,55.8C-3.478,55.635 -3.549,55.405 -3.745,55.344C-3.751,55.342 -5.656,54.791 -3.369,51.389C-3.334,51.333 -3.311,51.297 -3.311,51.297L-3.316,51.287C-2.917,50.885 -2.56,50.459 -2.243,50.014L-1.124,50.014C-3.275,53.139 -2.481,54.679 -1.818,54.571C-1.115,54.455 -1.396,53.66 -1.396,53.66C-1.794,51.241 0,50.014 0,50.014M-14.854,54.184C-19.426,54.184 -23.434,52.51 -25.686,50.014C-25.866,49.813 -26.038,49.606 -26.198,49.395C-26.215,49.373 -26.229,49.349 -26.244,49.327C-26.391,49.131 -26.528,48.932 -26.651,48.726C-27.265,47.698 -27.608,46.576 -27.608,45.399C-27.608,40.556 -21.886,36.615 -14.854,36.615C-7.821,36.615 -2.1,40.556 -2.1,45.399C-2.1,46.576 -2.443,47.7 -3.056,48.726C-3.179,48.932 -3.316,49.131 -3.462,49.327C-3.479,49.349 -3.492,49.373 -3.51,49.395C-3.669,49.606 -3.841,49.813 -4.021,50.014C-6.273,52.51 -10.28,54.184 -14.854,54.184M7.574,8.635C7.211,10.172 7.741,11.494 8.462,12.502C7.378,18.592 8.433,40.323 8.569,42.848C9.071,42.21 9.528,41.178 9.776,40.565C9.725,39.248 9.688,37.826 9.671,36.35C10.261,37.321 10.52,38.354 10.425,39.443C10.314,40.7 9.763,41.913 9.047,42.998C9.011,43.051 8.979,43.099 8.946,43.147C8.849,43.289 8.749,43.429 8.647,43.568C8.625,43.598 8.612,43.615 8.612,43.615L8.612,43.617C7.035,45.732 4.99,47.227 4.837,47.338C4.059,47.746 3.291,48.223 2.544,48.724L2.532,48.724L2.368,48.843C2.093,49.031 1.834,49.226 1.568,49.418L1.553,49.414C1.251,49.606 0.998,49.796 0.78,49.985L0.74,50.014L0.745,50.014C-0.875,51.442 -0.288,52.771 0.176,52.926C0.703,53.102 0.879,52.364 0.879,52.364C0.842,51.203 1.655,50.431 2.268,50.014L10.428,50.014L10.353,49.299C10.347,49.25 10.252,48.332 10.134,46.811C10.318,46.809 10.505,46.813 10.687,46.828L10.688,46.828C10.776,46.836 10.856,46.851 10.939,46.866C11.053,46.91 11.14,47.001 11.029,47.198C10.809,47.589 10.54,47.76 10.54,47.76C10.54,47.76 11.249,47.687 11.665,47.001C12.081,46.318 11.225,45.775 10.245,45.854L10.247,45.856C10.19,45.856 10.126,45.862 10.064,45.866C10.014,45.132 9.96,44.304 9.909,43.395C10.658,42.227 11.236,40.914 11.358,39.528C11.512,37.802 10.935,36.206 9.661,34.773C9.661,34.52 9.663,34.261 9.665,34.004C9.665,34.004 10.573,17.076 11.405,14.371L11.514,14.025L11.203,13.835C11.188,13.826 10.467,13.368 9.758,12.609C9.758,12.609 9.011,11.942 8.734,11.137C8.429,10.479 8.274,9.733 8.462,8.926C8.492,8.855 8.84,8.035 9.194,6.978L9.363,8.853C9.187,9.372 9.037,9.925 8.896,10.492C9.094,10.893 9.464,11.532 9.924,11.823C10.12,10.873 10.344,9.96 10.628,9.143L10.674,9.013L9.861,-0.042C9.873,1.311 8.95,4.252 8.95,4.252C8.645,6.102 7.607,8.541 7.574,8.635M8.702,45.011C8.723,45.35 8.746,45.679 8.77,45.985C8.381,46.032 7.988,46.104 7.584,46.213C7.948,45.854 8.328,45.449 8.702,45.011M4.286,48.724C5.839,47.79 7.43,47.076 8.84,46.908C8.9,47.668 8.956,48.289 8.997,48.724L4.286,48.724ZM9.572,13.746C9.899,14.047 10.201,14.28 10.411,14.43C9.821,16.569 9.35,22.185 8.996,25.907C8.963,22.962 9.058,17.233 9.572,13.746M-38.507,2.584C-39.149,1.035 -39.453,-2.254 -39.453,-2.254L-39.429,-2.532L-39.017,-2.661C-38.049,-2.961 -35.292,-4.167 -35.292,-5.723L-35.292,-6.369L5.586,-6.369L5.586,-5.723C5.586,-4.167 8.343,-2.961 9.31,-2.661L9.723,-2.532L9.746,-2.254C9.746,-2.254 9.441,1.035 8.801,2.584L8.513,-1.57C7.445,-1.961 4.853,-3.102 4.372,-5.078L-34.079,-5.078C-34.56,-3.102 -37.153,-1.961 -38.22,-1.57L-38.507,2.584ZM-41.372,47.001C-40.956,47.687 -40.246,47.76 -40.246,47.76C-40.246,47.76 -40.516,47.589 -40.736,47.198C-40.847,47.001 -40.76,46.91 -40.646,46.866C-40.564,46.851 -40.482,46.836 -40.396,46.828L-40.394,46.828C-40.212,46.813 -40.024,46.809 -39.842,46.811C-39.959,48.332 -40.054,49.25 -40.059,49.299L-40.135,50.014L-31.972,50.014C-31.358,50.431 -30.547,51.203 -30.583,52.364C-30.583,52.364 -30.407,53.102 -29.879,52.926C-29.415,52.771 -28.83,51.442 -30.45,50.014L-30.448,50.014L-30.464,50.004C-30.687,49.807 -30.946,49.612 -31.258,49.414L-31.274,49.418C-31.541,49.226 -31.799,49.031 -32.074,48.843L-32.239,48.724L-32.251,48.724C-32.997,48.223 -33.766,47.746 -34.543,47.338C-34.696,47.227 -36.742,45.732 -38.319,43.617L-38.319,43.615C-38.319,43.615 -38.333,43.598 -38.354,43.568C-38.456,43.429 -38.556,43.289 -38.653,43.147C-38.687,43.099 -38.718,43.051 -38.754,42.998C-39.47,41.913 -40.021,40.7 -40.131,39.443C-40.226,38.354 -39.969,37.321 -39.378,36.35C-39.396,37.826 -39.431,39.248 -39.482,40.565C-39.235,41.178 -38.778,42.21 -38.276,42.848C-38.14,40.323 -37.085,18.592 -38.168,12.502C-37.448,11.494 -36.919,10.172 -37.28,8.635C-37.313,8.541 -38.352,6.102 -38.658,4.252C-38.658,4.252 -39.579,1.311 -39.568,-0.042L-40.38,9.013L-40.335,9.143C-40.051,9.96 -39.827,10.873 -39.63,11.823C-39.17,11.532 -38.801,10.893 -38.603,10.492C-38.743,9.925 -38.895,9.372 -39.069,8.853L-38.901,6.978C-38.548,8.035 -38.199,8.855 -38.168,8.926C-37.981,9.733 -38.135,10.479 -38.441,11.137C-38.718,11.942 -39.464,12.609 -39.464,12.609C-40.173,13.368 -40.896,13.826 -40.91,13.835L-41.22,14.025L-41.111,14.371C-40.279,17.076 -39.373,34.004 -39.373,34.004C-39.371,34.261 -39.368,34.52 -39.368,34.773C-40.641,36.206 -41.218,37.802 -41.065,39.528C-40.942,40.914 -40.364,42.227 -39.616,43.395C-39.666,44.304 -39.721,45.132 -39.771,45.866C-39.833,45.862 -39.897,45.856 -39.954,45.856L-39.952,45.854C-40.931,45.775 -41.788,46.318 -41.372,47.001M-38.408,45.011C-38.034,45.449 -37.654,45.854 -37.291,46.213C-37.695,46.104 -38.089,46.032 -38.476,45.985C-38.454,45.679 -38.431,45.35 -38.408,45.011M-38.547,46.908C-37.138,47.076 -35.545,47.79 -33.993,48.724L-38.704,48.724C-38.663,48.289 -38.607,47.668 -38.547,46.908M-40.118,14.43C-39.907,14.28 -39.607,14.047 -39.278,13.746C-38.764,17.233 -38.671,22.962 -38.703,25.907C-39.057,22.185 -39.527,16.569 -40.118,14.43" style="fill:rgb(35,31,32);fill-rule:nonzero;"/>
        </g>
    </g>
</svg>
