<?xml version="1.0" encoding="UTF-8" standalone="no"?>
<!DOCTYPE svg PUBLIC "-//W3C//DTD SVG 1.1//EN" "http://www.w3.org/Graphics/SVG/1.1/DTD/svg11.dtd">
<svg width="100%" height="100%" viewBox="0 0 688 230" version="1.1" xmlns="http://www.w3.org/2000/svg" xmlns:xlink="http://www.w3.org/1999/xlink" xml:space="preserve" xmlns:serif="http://www.serif.com/" style="fill-rule:evenodd;clip-rule:evenodd;stroke-linejoin:round;stroke-miterlimit:2;">
    <g transform="matrix(1,0,0,1,-931.375,-552.553)">
        <g transform="matrix(4.16667,0,0,4.16667,1371.77,748.255)">
            <path d="M0,-39.058L0,0.01L-4.2,4.21L-46.478,4.21L-50.688,0.01L-50.688,-39.058L-46.478,-43.268L-4.2,-43.268L0,-39.058Z" style="fill:white;fill-rule:nonzero;"/>
        </g>
        <g transform="matrix(4.16667,0,0,4.16667,1615.1,748.255)">
            <path d="M0,-39.058L0,0.01L-4.2,4.21L-46.478,4.21L-50.688,0.01L-50.688,-39.058L-46.478,-43.268L-4.2,-43.268L0,-39.058Z" style="fill:white;fill-rule:nonzero;"/>
        </g>
        <g transform="matrix(4.16667,0,0,4.16667,1353.52,769.963)">
            <path d="M0,-49.278L-42.215,-49.278L-47.227,-44.265L-47.227,-5.012L-42.215,0L0,0L5.013,-5.012L5.013,-44.265L0,-49.278ZM3.638,-43.695L3.638,-39.82C3.23,-41.042 2.651,-42.345 1.839,-43.576L1.839,-43.647L1.793,-43.647C0.638,-45.374 -0.989,-46.941 -3.277,-47.903L-0.57,-47.903L3.638,-43.695ZM-5.214,-1.375L-37.026,-1.375C-39.64,-2.007 -41.732,-3.447 -43.304,-5.654L-43.304,-43.601C-41.937,-45.516 -39.934,-47.18 -37.001,-47.903L-5.189,-47.903C-2.575,-47.271 -0.483,-45.832 1.089,-43.625L1.089,-5.677C-0.277,-3.762 -2.281,-2.098 -5.214,-1.375M-45.852,-37.549C-45.55,-38.966 -45.01,-40.73 -44.054,-42.422L-44.054,-6.841C-44.221,-7.138 -44.397,-7.42 -44.549,-7.74C-45.206,-9.124 -45.606,-10.515 -45.852,-11.679L-45.852,-37.549ZM1.839,-42.437C2.006,-42.14 2.183,-41.858 2.334,-41.539C2.991,-40.154 3.392,-38.763 3.638,-37.599L3.638,-11.73C3.335,-10.312 2.795,-8.548 1.839,-6.857L1.839,-42.437ZM-41.644,-47.903L-38.937,-47.903C-41.226,-46.941 -42.852,-45.374 -44.008,-43.647L-44.054,-43.647L-44.054,-43.576C-44.866,-42.345 -45.445,-41.042 -45.852,-39.82L-45.852,-43.695L-41.644,-47.903ZM-45.852,-5.582L-45.852,-9.458C-45.445,-8.237 -44.866,-6.933 -44.054,-5.703L-44.054,-5.631L-44.008,-5.631C-42.852,-3.905 -41.226,-2.337 -38.937,-1.375L-41.644,-1.375L-45.852,-5.582ZM-0.57,-1.375L-3.277,-1.375C-0.989,-2.337 0.638,-3.905 1.793,-5.631L1.839,-5.631L1.839,-5.703C2.651,-6.933 3.23,-8.237 3.638,-9.458L3.638,-5.582L-0.57,-1.375Z" style="fill:rgb(35,31,32);fill-rule:nonzero;"/>
        </g>
        <g transform="matrix(4.16667,0,0,4.16667,1597.74,769.963)">
            <path d="M0,-49.278L-42.215,-49.278L-47.227,-44.265L-47.227,-5.012L-42.215,0L0,0L5.013,-5.012L5.013,-44.265L0,-49.278ZM3.638,-43.695L3.638,-39.82C3.23,-41.042 2.651,-42.345 1.839,-43.576L1.839,-43.647L1.793,-43.647C0.638,-45.374 -0.989,-46.941 -3.277,-47.903L-0.57,-47.903L3.638,-43.695ZM-5.214,-1.375L-37.026,-1.375C-39.64,-2.007 -41.732,-3.447 -43.304,-5.654L-43.304,-43.601C-41.937,-45.516 -39.934,-47.18 -37.001,-47.903L-5.189,-47.903C-2.575,-47.271 -0.483,-45.832 1.089,-43.625L1.089,-5.677C-0.277,-3.762 -2.281,-2.098 -5.214,-1.375M-45.852,-37.549C-45.55,-38.966 -45.01,-40.73 -44.054,-42.422L-44.054,-6.841C-44.221,-7.138 -44.397,-7.42 -44.549,-7.74C-45.206,-9.124 -45.606,-10.515 -45.852,-11.679L-45.852,-37.549ZM1.839,-42.437C2.006,-42.14 2.183,-41.858 2.334,-41.539C2.991,-40.154 3.392,-38.763 3.638,-37.599L3.638,-11.73C3.335,-10.312 2.795,-8.548 1.839,-6.857L1.839,-42.437ZM-41.644,-47.903L-38.937,-47.903C-41.226,-46.941 -42.852,-45.374 -44.008,-43.647L-44.054,-43.647L-44.054,-43.576C-44.866,-42.345 -45.445,-41.042 -45.852,-39.82L-45.852,-43.695L-41.644,-47.903ZM-45.852,-5.582L-45.852,-9.458C-45.445,-8.237 -44.866,-6.933 -44.054,-5.703L-44.054,-5.631L-44.008,-5.631C-42.852,-3.905 -41.226,-2.337 -38.937,-1.375L-41.644,-1.375L-45.852,-5.582ZM-0.57,-1.375L-3.277,-1.375C-0.989,-2.337 0.638,-3.905 1.793,-5.631L1.839,-5.631L1.839,-5.703C2.651,-6.933 3.23,-8.237 3.638,-9.458L3.638,-5.582L-0.57,-1.375Z" style="fill:rgb(35,31,32);fill-rule:nonzero;"/>
        </g>
        <g transform="matrix(4.16667,0,0,4.16667,1100.93,757.525)">
            <path d="M0,-43.309L-16.691,-48.413L-33.385,-43.309C-33.385,-43.309 -34.061,-34.634 -39.961,-33.438L-39.961,-21.59C-39.961,-21.59 -34.438,0.369 -16.691,5.104C1.054,0.369 6.576,-21.59 6.576,-21.59L6.576,-33.438C0.675,-34.634 0,-43.309 0,-43.309" style="fill:white;fill-rule:nonzero;"/>
        </g>
        <g transform="matrix(4.16667,0,0,4.16667,1128.92,719.458)">
            <path d="M0,-25.035C-5.282,-26.105 -5.981,-34.148 -5.987,-34.229L-6.029,-34.742L-23.409,-40.057L-40.791,-34.742L-40.833,-34.229C-40.839,-34.148 -41.539,-26.105 -46.82,-25.035L-47.411,-24.916L-47.411,-12.45L-47.389,-12.262C-47.332,-12.038 -41.55,10.181 -23.594,14.972L-23.409,15.022L-23.226,14.972C-5.27,10.181 0.512,-12.038 0.568,-12.262L0.591,-24.916L0,-25.035ZM-0.874,-12.551C-1.281,-11.046 -6.999,8.95 -23.409,13.467C-39.821,8.95 -45.539,-11.046 -45.946,-12.551L-45.946,-23.705C-40.88,-25.184 -39.676,-31.68 -39.428,-33.59L-23.409,-38.488L-7.393,-33.59C-7.146,-31.68 -5.941,-25.184 -0.874,-23.705L-0.874,-12.551ZM-8.905,-31.959L-8.953,-32.199L-22.318,-36.287C-22.366,-36.869 -22.828,-37.331 -23.408,-37.331C-23.99,-37.331 -24.452,-36.87 -24.5,-36.287L-37.867,-32.198L-37.915,-31.958C-38.303,-30.005 -39.565,-25.449 -43.12,-23.084C-43.31,-23.239 -43.539,-23.346 -43.801,-23.346C-44.414,-23.346 -44.91,-22.836 -44.91,-22.207C-44.91,-21.723 -44.615,-21.315 -44.201,-21.151L-44.201,-12.86L-44.185,-12.744C-43.614,-10.765 -38.309,6.342 -24.508,11.241C-24.475,11.842 -24.002,12.32 -23.408,12.32C-22.809,12.32 -22.326,11.828 -22.307,11.217C-16.66,9.218 -11.79,5.044 -7.834,-1.26C-4.594,-6.426 -3.035,-11.355 -2.636,-12.742L-2.621,-21.15C-2.206,-21.314 -1.909,-21.722 -1.909,-22.207C-1.909,-22.836 -2.406,-23.346 -3.019,-23.346C-3.281,-23.346 -3.512,-23.239 -3.701,-23.084C-7.255,-25.449 -8.518,-30.005 -8.905,-31.959M-22.566,10.462C-22.771,10.212 -23.065,10.042 -23.408,10.042C-23.753,10.042 -24.048,10.212 -24.251,10.463C-37.549,5.739 -42.765,-10.737 -43.402,-12.92L-43.402,-21.15C-42.986,-21.315 -42.691,-21.722 -42.691,-22.207C-42.691,-22.264 -42.715,-22.314 -42.724,-22.369C-39.029,-24.802 -37.646,-29.37 -37.182,-31.553L-24.27,-35.5C-24.065,-35.234 -23.764,-35.053 -23.408,-35.053C-23.054,-35.053 -22.752,-35.234 -22.549,-35.5L-9.639,-31.553C-9.175,-29.371 -7.791,-24.802 -4.097,-22.368C-4.105,-22.312 -4.129,-22.264 -4.129,-22.207C-4.129,-21.722 -3.834,-21.315 -3.418,-21.151L-3.418,-12.919C-4.055,-10.736 -9.272,5.739 -22.566,10.462" style="fill:rgb(35,31,32);fill-rule:nonzero;"/>
        </g>
        <g transform="matrix(4.16667,0,0,4.16667,0,0)">
            <path d="M236.782,171.881L238.61,167.184L239.588,167.184L241.416,171.881L240.413,171.881L239.924,170.628L237.982,170.628L237.493,171.881L236.782,171.881ZM238.223,170.002L239.683,170.002L238.953,168.13L238.223,170.002Z" style="fill:rgb(35,31,32);fill-rule:nonzero;"/>
            <path d="M241.534,171.881L241.534,167.184L243.293,167.184C244.247,167.184 244.724,167.572 244.724,168.349C244.724,168.639 244.643,168.903 244.481,169.141C244.319,169.379 244.097,169.561 243.813,169.688L245.349,171.881L244.159,171.881L242.994,169.961L242.455,169.961L242.455,171.881L241.534,171.881ZM242.455,169.317L242.68,169.317C243.389,169.317 243.743,169.03 243.743,168.457C243.743,168.038 243.427,167.828 242.794,167.828L242.455,167.828L242.455,169.317Z" style="fill:rgb(35,31,32);fill-rule:nonzero;"/>
            <path d="M245.471,171.881L245.471,167.184L246.766,167.184L247.896,170.488L249.061,167.184L250.197,167.184L250.197,171.881L249.295,171.881L249.295,168.336L248.15,171.567L247.363,171.567L246.239,168.289L246.239,171.881L245.471,171.881Z" style="fill:rgb(35,31,32);fill-rule:nonzero;"/>
            <path d="M252.883,171.999C252.17,171.999 251.6,171.774 251.172,171.326C250.745,170.877 250.531,170.28 250.531,169.533C250.531,168.777 250.746,168.177 251.175,167.733C251.605,167.289 252.185,167.067 252.915,167.067C253.64,167.067 254.219,167.289 254.649,167.733C255.08,168.177 255.295,168.774 255.295,169.523C255.295,170.289 255.08,170.893 254.649,171.335C254.219,171.778 253.63,171.999 252.883,171.999ZM252.896,171.351C253.315,171.351 253.646,171.187 253.891,170.858C254.135,170.529 254.257,170.083 254.257,169.52C254.257,168.974 254.135,168.536 253.889,168.206C253.644,167.876 253.319,167.711 252.915,167.711C252.506,167.711 252.18,167.876 251.936,168.206C251.691,168.536 251.569,168.977 251.569,169.529C251.569,170.078 251.691,170.518 251.934,170.851C252.177,171.185 252.498,171.351 252.896,171.351Z" style="fill:rgb(35,31,32);fill-rule:nonzero;"/>
            <path d="M255.626,171.881L255.626,167.184L257.385,167.184C258.339,167.184 258.816,167.572 258.816,168.349C258.816,168.639 258.735,168.903 258.573,169.141C258.411,169.379 258.189,169.561 257.905,169.688L259.441,171.881L258.251,171.881L257.086,169.961L256.547,169.961L256.547,171.881L255.626,171.881ZM256.547,169.317L256.772,169.317C257.481,169.317 257.835,169.03 257.835,168.457C257.835,168.038 257.519,167.828 256.886,167.828L256.547,167.828L256.547,169.317Z" style="fill:rgb(35,31,32);fill-rule:nonzero;"/>
            <path d="M243.156,177.694C242.701,177.897 242.159,177.998 241.528,177.998C240.758,177.998 240.158,177.781 239.729,177.348C239.299,176.914 239.084,176.309 239.084,175.532C239.084,174.741 239.301,174.132 239.733,173.706C240.166,173.279 240.783,173.066 241.585,173.066C242.097,173.066 242.606,173.126 243.112,173.247L243.112,174.012C242.538,173.811 242.058,173.71 241.671,173.71C241.176,173.71 240.794,173.867 240.525,174.182C240.256,174.496 240.122,174.942 240.122,175.519C240.122,176.087 240.267,176.529 240.555,176.846C240.844,177.164 241.246,177.322 241.76,177.322C242.221,177.322 242.687,177.206 243.156,176.973L243.156,177.694Z" style="fill:rgb(35,31,32);fill-rule:nonzero;"/>
            <path d="M243.401,177.881L243.401,173.184L244.379,173.184L244.379,177.214L246.496,177.214L246.496,177.881L243.401,177.881Z" style="fill:rgb(35,31,32);fill-rule:nonzero;"/>
            <path d="M246.062,177.881L247.89,173.184L248.868,173.184L250.696,177.881L249.693,177.881L249.204,176.627L247.262,176.627L246.773,177.881L246.062,177.881ZM247.503,176.002L248.963,176.002L248.233,174.129L247.503,176.002Z" style="fill:rgb(35,31,32);fill-rule:nonzero;"/>
            <path d="M250.493,177.84L250.493,177.033C250.999,177.245 251.432,177.351 251.791,177.351C252.043,177.351 252.242,177.295 252.387,177.183C252.531,177.07 252.604,176.918 252.604,176.726C252.604,176.573 252.558,176.445 252.467,176.34C252.377,176.235 252.204,176.111 251.95,175.967L251.636,175.792C251.215,175.555 250.918,175.329 250.744,175.112C250.571,174.895 250.484,174.641 250.484,174.352C250.484,173.964 250.626,173.653 250.911,173.418C251.195,173.184 251.571,173.066 252.039,173.066C252.414,173.066 252.836,173.12 253.305,173.228L253.305,173.98C252.825,173.8 252.445,173.71 252.166,173.71C251.95,173.71 251.777,173.759 251.647,173.855C251.517,173.951 251.452,174.077 251.452,174.234C251.452,174.363 251.497,174.476 251.588,174.574C251.679,174.671 251.851,174.791 252.102,174.932L252.439,175.12C252.892,175.373 253.204,175.607 253.375,175.821C253.547,176.035 253.632,176.295 253.632,176.602C253.632,177.038 253.47,177.379 253.147,177.627C252.823,177.874 252.377,177.998 251.807,177.998C251.431,177.998 250.993,177.945 250.493,177.84Z" style="fill:rgb(35,31,32);fill-rule:nonzero;"/>
            <path d="M253.601,177.84L253.601,177.033C254.107,177.245 254.54,177.351 254.899,177.351C255.151,177.351 255.35,177.295 255.495,177.183C255.639,177.07 255.712,176.918 255.712,176.726C255.712,176.573 255.666,176.445 255.575,176.34C255.484,176.235 255.312,176.111 255.058,175.967L254.744,175.792C254.323,175.555 254.026,175.329 253.852,175.112C253.679,174.895 253.592,174.641 253.592,174.352C253.592,173.964 253.734,173.653 254.019,173.418C254.303,173.184 254.679,173.066 255.147,173.066C255.521,173.066 255.944,173.12 256.413,173.228L256.413,173.98C255.933,173.8 255.553,173.71 255.274,173.71C255.058,173.71 254.885,173.759 254.755,173.855C254.625,173.951 254.56,174.077 254.56,174.234C254.56,174.363 254.605,174.476 254.696,174.574C254.787,174.671 254.959,174.791 255.21,174.932L255.547,175.12C256,175.373 256.312,175.607 256.483,175.821C256.655,176.035 256.74,176.295 256.74,176.602C256.74,177.038 256.578,177.379 256.255,177.627C255.931,177.874 255.484,177.998 254.915,177.998C254.539,177.998 254.101,177.945 253.601,177.84Z" style="fill:rgb(35,31,32);fill-rule:nonzero;"/>
        </g>
        <g transform="matrix(4.16667,0,0,4.16667,0,0)">
            <rect x="289.03" y="175.875" width="0.978" height="4.697" style="fill:rgb(35,31,32);fill-rule:nonzero;"/>
            <path d="M290.647,180.572L290.647,175.875L291.507,175.875L293.684,179.083L293.684,175.875L294.468,175.875L294.468,180.572L293.592,180.572L291.431,177.363L291.431,180.572L290.647,180.572Z" style="fill:rgb(35,31,32);fill-rule:nonzero;"/>
            <rect x="295.105" y="175.875" width="0.978" height="4.697" style="fill:rgb(35,31,32);fill-rule:nonzero;"/>
            <path d="M297.887,180.572L297.887,176.519L296.205,176.519L296.205,175.875L300.55,175.875L300.55,176.519L298.867,176.519L298.867,180.572L297.887,180.572Z" style="fill:rgb(35,31,32);fill-rule:nonzero;"/>
            <rect x="300.669" y="175.875" width="0.978" height="4.697" style="fill:rgb(35,31,32);fill-rule:nonzero;"/>
            <path d="M301.772,180.572L303.6,175.875L304.577,175.875L306.406,180.572L305.403,180.572L304.914,179.318L302.972,179.318L302.483,180.572L301.772,180.572ZM303.213,178.693L304.673,178.693L303.943,176.82L303.213,178.693Z" style="fill:rgb(35,31,32);fill-rule:nonzero;"/>
            <path d="M307.699,180.572L307.699,176.519L306.017,176.519L306.017,175.875L310.362,175.875L310.362,176.519L308.68,176.519L308.68,180.572L307.699,180.572Z" style="fill:rgb(35,31,32);fill-rule:nonzero;"/>
            <rect x="310.481" y="175.875" width="0.978" height="4.697" style="fill:rgb(35,31,32);fill-rule:nonzero;"/>
            <path d="M313.327,180.572L311.591,175.875L312.635,175.875L313.98,179.509L315.282,175.875L315.986,175.875L314.307,180.572L313.327,180.572Z" style="fill:rgb(35,31,32);fill-rule:nonzero;"/>
            <path d="M316.102,180.572L316.102,175.875L319.038,175.875L319.038,176.519L317.08,176.519L317.08,177.83L318.686,177.83L318.686,178.458L317.08,178.458L317.08,179.905L319.187,179.905L319.187,180.572L316.102,180.572Z" style="fill:rgb(35,31,32);fill-rule:nonzero;"/>
        </g>
        <g transform="matrix(4.16667,0,0,4.16667,0,0)">
            <path d="M353.311,180.531L353.311,179.724C353.817,179.936 354.25,180.042 354.609,180.042C354.861,180.042 355.06,179.986 355.205,179.874C355.349,179.761 355.422,179.609 355.422,179.417C355.422,179.264 355.376,179.136 355.285,179.031C355.194,178.926 355.022,178.802 354.768,178.658L354.454,178.483C354.033,178.246 353.736,178.02 353.562,177.803C353.389,177.586 353.302,177.332 353.302,177.043C353.302,176.655 353.444,176.344 353.729,176.109C354.013,175.875 354.389,175.757 354.857,175.757C355.231,175.757 355.654,175.811 356.123,175.919L356.123,176.671C355.643,176.491 355.263,176.401 354.984,176.401C354.768,176.401 354.595,176.45 354.465,176.546C354.335,176.642 354.27,176.768 354.27,176.925C354.27,177.054 354.315,177.167 354.406,177.265C354.497,177.362 354.669,177.482 354.92,177.623L355.257,177.811C355.71,178.064 356.022,178.298 356.193,178.512C356.365,178.726 356.45,178.986 356.45,179.293C356.45,179.729 356.288,180.07 355.965,180.318C355.641,180.565 355.194,180.689 354.625,180.689C354.249,180.689 353.811,180.636 353.311,180.531Z" style="fill:rgb(35,31,32);fill-rule:nonzero;"/>
            <path d="M356.934,180.572L356.934,175.875L358.572,175.875C359.143,175.875 359.551,175.97 359.796,176.162C360.04,176.353 360.162,176.673 360.162,177.122C360.162,177.63 359.999,178.025 359.672,178.307C359.345,178.59 358.887,178.731 358.299,178.731L357.893,178.731L357.893,180.572L356.934,180.572ZM357.893,178.087L358.083,178.087C358.418,178.087 358.681,178.009 358.875,177.853C359.069,177.698 359.166,177.487 359.166,177.22C359.166,176.753 358.868,176.519 358.274,176.519L357.893,176.519L357.893,178.087Z" style="fill:rgb(35,31,32);fill-rule:nonzero;"/>
            <path d="M360.567,180.572L360.567,175.875L363.503,175.875L363.503,176.519L361.544,176.519L361.544,177.83L363.15,177.83L363.15,178.458L361.544,178.458L361.544,179.905L363.652,179.905L363.652,180.572L360.567,180.572Z" style="fill:rgb(35,31,32);fill-rule:nonzero;"/>
            <path d="M364.117,180.572L364.117,175.875L367.053,175.875L367.053,176.519L365.094,176.519L365.094,177.83L366.7,177.83L366.7,178.458L365.094,178.458L365.094,179.905L367.202,179.905L367.202,180.572L364.117,180.572Z" style="fill:rgb(35,31,32);fill-rule:nonzero;"/>
            <path d="M367.667,180.572L367.667,175.875L369.688,175.875C370.416,175.875 370.974,176.068 371.361,176.454C371.748,176.84 371.942,177.397 371.942,178.125C371.942,178.899 371.737,179.501 371.326,179.929C370.916,180.358 370.341,180.572 369.603,180.572L367.667,180.572ZM368.644,179.905L369.374,179.905C369.888,179.905 370.272,179.763 370.525,179.478C370.778,179.194 370.904,178.762 370.904,178.182C370.904,177.733 370.803,177.36 370.599,177.062C370.46,176.856 370.292,176.715 370.095,176.636C369.898,176.558 369.611,176.519 369.235,176.519L368.644,176.519L368.644,179.905Z" style="fill:rgb(35,31,32);fill-rule:nonzero;"/>
        </g>
    </g>
</svg>
