<?xml version="1.0" encoding="UTF-8" standalone="no"?>
<!DOCTYPE svg PUBLIC "-//W3C//DTD SVG 1.1//EN" "http://www.w3.org/Graphics/SVG/1.1/DTD/svg11.dtd">
<svg width="100%" height="100%" viewBox="0 0 222 261" version="1.1" xmlns="http://www.w3.org/2000/svg" xmlns:xlink="http://www.w3.org/1999/xlink" xml:space="preserve" xmlns:serif="http://www.serif.com/" style="fill-rule:evenodd;clip-rule:evenodd;stroke-linejoin:round;stroke-miterlimit:2;">
    <g transform="matrix(1,0,0,1,-127.343,-1185.34)">
        <g transform="matrix(1,0,0,1,0,-299.308)">
            <ellipse cx="238.283" cy="1700.34" rx="56.075" ry="39.538" style="fill:white;"/>
        </g>
        <g transform="matrix(4.16667,0,0,4.16667,130.503,1334.73)">
            <path d="M0,-15.384C0,-15.384 2.231,-4.134 1.5,6.116C1.5,6.116 -1.625,9.241 1.75,14.303L1.47,19.775L50.265,19.775L49.984,14.303C53.359,9.241 50.234,6.116 50.234,6.116C49.503,-4.134 51.734,-15.384 51.734,-15.384L50.297,-16.446C50.609,-17.009 51.395,-20.475 51.395,-20.475L50.443,-32.02C47.59,-30.843 45.75,-35.159 45.75,-35.159L5.984,-35.159C5.984,-35.159 4.145,-30.843 1.291,-32.02L0.34,-20.475C0.34,-20.475 1.125,-17.009 1.437,-16.446L0,-15.384Z" style="fill:white;fill-rule:nonzero;"/>
        </g>
        <g transform="matrix(-4.16667,0,0,4.16667,238.283,1435.36)">
            <path d="M0,-16.478C-6.731,-16.478 -12.208,-12.783 -12.208,-8.24C-12.208,-3.697 -6.731,0 0,0C6.731,0 12.208,-3.697 12.208,-8.24C12.208,-12.783 6.731,-16.478 0,-16.478" style="fill:white;fill-rule:nonzero;"/>
        </g>
        <g transform="matrix(4.16667,0,0,4.16667,238.283,1371.91)">
            <path d="M0,13.978C-5.94,13.978 -10.958,10.778 -10.958,6.989C-10.958,3.201 -5.94,-0 0,-0C5.94,-0 10.958,3.201 10.958,6.989C10.958,10.778 5.94,13.978 0,13.978M0,16.478C7.434,16.478 13.458,12.229 13.458,6.989C13.458,1.749 7.434,-2.5 0,-2.5C-7.433,-2.5 -13.458,1.749 -13.458,6.989C-13.458,12.229 -7.433,16.478 0,16.478" style="fill:rgb(220,221,222);fill-rule:nonzero;"/>
        </g>
        <g transform="matrix(4.16667,0,0,4.16667,139.728,1408.23)">
            <path d="M0,-44.542C-0.641,-46.092 -0.945,-49.38 -0.945,-49.38L-0.922,-49.659L-0.51,-49.787C0.458,-50.087 3.215,-51.293 3.215,-52.85L3.215,-53.494L44.093,-53.494L44.093,-52.85C44.093,-51.293 46.85,-50.087 47.816,-49.787L48.229,-49.659L48.254,-49.38C48.254,-49.38 47.949,-46.092 47.308,-44.542L47.02,-48.696C45.953,-49.088 43.359,-50.229 42.879,-52.204L4.428,-52.204C3.947,-50.229 1.354,-49.088 0.287,-48.696L0,-44.542ZM-1.445,-1.273L-1.445,-1.271C-1.39,-1.271 -1.325,-1.266 -1.266,-1.262C-1.213,-1.994 -1.159,-2.823 -1.109,-3.731C-1.857,-4.899 -2.436,-6.213 -2.559,-7.6C-2.711,-9.324 -2.133,-10.921 -0.859,-12.354C-0.859,-12.607 -0.863,-12.865 -0.865,-13.121C-0.865,-13.121 -1.772,-30.051 -2.604,-32.754L-2.712,-33.102L-2.402,-33.293C-2.389,-33.302 -1.666,-33.76 -0.957,-34.518C-0.957,-34.518 -0.211,-35.185 0.066,-35.989C0.372,-36.647 0.525,-37.395 0.339,-38.2C0.309,-38.271 -0.041,-39.092 -0.395,-40.148L-0.562,-38.273C-0.387,-37.755 -0.236,-37.201 -0.095,-36.635C-0.293,-36.233 -0.664,-35.597 -1.123,-35.305C-1.319,-36.254 -1.543,-37.167 -1.826,-37.983L-1.873,-38.115L-1.062,-47.168C-1.072,-45.814 -0.15,-42.875 -0.15,-42.875C0.156,-41.024 1.193,-38.586 1.227,-38.492C1.59,-36.955 1.06,-35.633 0.339,-34.625C1.422,-28.534 0.368,-6.804 0.23,-4.277C-0.271,-4.917 -0.728,-5.947 -0.975,-6.563C-0.924,-7.879 -0.889,-9.301 -0.871,-10.775C-1.461,-9.807 -1.719,-8.772 -1.623,-7.684C-1.514,-6.427 -0.963,-5.213 -0.246,-4.128C-0.211,-4.074 -0.178,-4.027 -0.146,-3.98C-0.049,-3.837 0.051,-3.697 0.152,-3.559C0.176,-3.529 0.187,-3.513 0.187,-3.513L0.187,-3.511C1.765,-1.396 3.811,0.1 3.965,0.211C4.742,0.62 5.511,1.097 6.257,1.598L6.268,1.598L6.434,1.715C6.954,2.07 7.457,2.436 7.941,2.803L8.061,2.887L2.261,2.887C2.18,3.409 2.184,4.946 4.842,5.506C4.842,5.506 5.223,6.835 9.166,7.761C13.109,8.686 9.977,3.834 8.777,2.887L8.789,2.877L7.168,1.598L8.689,1.598C8.345,0.578 8.166,-0.333 8.11,-1.139C7.57,-0.402 6.416,0.706 4.686,0.043C5.079,0.154 6.687,0.389 8.134,-2.643L8.139,-2.629C8.428,-5.034 9.795,-6.126 9.795,-6.126C8.376,-3.336 8.704,-0.859 9.166,0.637C9.174,0.648 9.461,1.048 10.043,1.057C9.691,0.17 9.492,-0.762 9.492,-1.728C9.492,-7.348 15.846,-11.92 23.654,-11.92C31.463,-11.92 37.816,-7.348 37.816,-1.728C37.816,-0.762 37.615,0.17 37.265,1.057C37.846,1.048 38.134,0.648 38.143,0.637C38.604,-0.859 38.932,-3.336 37.513,-6.126C37.513,-6.126 38.881,-5.034 39.169,-2.629L39.174,-2.643C40.619,0.389 42.229,0.154 42.623,0.043C40.893,0.706 39.738,-0.402 39.197,-1.139C39.142,-0.333 38.963,0.578 38.619,1.598L40.139,1.598L38.506,2.887C37.308,3.834 34.176,8.686 38.118,7.761C42.061,6.835 42.442,5.506 42.442,5.506C45.102,4.946 45.105,3.409 45.024,2.887L39.248,2.887L39.365,2.803C39.851,2.436 40.354,2.07 40.875,1.715L41.04,1.598L41.052,1.598C41.797,1.097 42.566,0.62 43.344,0.211C43.497,0.1 45.543,-1.396 47.119,-3.511L47.119,-3.513C47.119,-3.513 47.133,-3.529 47.154,-3.559C47.256,-3.697 47.357,-3.837 47.453,-3.98C47.486,-4.027 47.519,-4.074 47.555,-4.128C48.27,-5.213 48.821,-6.427 48.932,-7.684C49.026,-8.772 48.77,-9.807 48.178,-10.775C48.195,-9.301 48.231,-7.879 48.283,-6.563C48.035,-5.947 47.578,-4.917 47.077,-4.277C46.94,-6.804 45.886,-28.534 46.969,-34.625C46.249,-35.633 45.719,-36.955 46.081,-38.492C46.114,-38.586 47.151,-41.024 47.457,-42.875C47.457,-42.875 48.379,-45.814 48.369,-47.168L49.181,-38.115L49.135,-37.983C48.852,-37.167 48.627,-36.254 48.431,-35.305C47.971,-35.597 47.602,-36.233 47.403,-36.635C47.544,-37.201 47.695,-37.755 47.87,-38.273L47.701,-40.148C47.348,-39.092 47,-38.271 46.969,-38.2C46.781,-37.395 46.936,-36.647 47.242,-35.989C47.519,-35.185 48.264,-34.518 48.264,-34.518C48.975,-33.76 49.695,-33.302 49.711,-33.293L50.02,-33.102L49.912,-32.754C49.08,-30.051 48.172,-13.121 48.172,-13.121C48.172,-12.865 48.168,-12.607 48.168,-12.354C49.441,-10.921 50.018,-9.324 49.866,-7.6C49.743,-6.213 49.165,-4.899 48.416,-3.731C48.467,-2.823 48.521,-1.994 48.572,-1.262C48.633,-1.266 48.698,-1.271 48.754,-1.271L48.752,-1.273C49.731,-1.352 50.589,-0.81 50.172,-0.125C49.757,0.559 49.047,0.634 49.047,0.634C49.047,0.634 49.314,0.462 49.536,0.07C49.647,-0.126 49.561,-0.218 49.447,-0.261C49.363,-0.275 49.283,-0.289 49.195,-0.298L49.193,-0.298C49.012,-0.314 48.825,-0.318 48.643,-0.316C48.76,1.204 48.854,2.124 48.859,2.174L48.936,2.887L46.369,2.887C45.173,7.449 36.846,8.952 36.846,8.952C35.32,7.605 33.624,8.008 33.624,8.008C34.98,7.287 35.32,5.719 35.32,5.719L33.438,6.166C32.633,6.367 31.562,6.802 30.925,7.761L25.737,8.354L25.78,8.337C25.084,8.412 24.377,8.464 23.654,8.464C22.93,8.464 22.224,8.412 21.528,8.337L21.57,8.354L16.383,7.761C15.738,6.793 14.652,6.357 13.846,6.159L13.846,6.166L11.965,5.719C11.965,5.719 12.303,7.287 13.66,8.008C13.66,8.008 11.963,7.605 10.438,8.952C10.438,8.952 2.111,7.449 0.914,2.887L-1.627,2.887L-1.552,2.174C-1.546,2.124 -1.451,1.204 -1.334,-0.316C-1.518,-0.318 -1.705,-0.314 -1.886,-0.298L-1.888,-0.298C-1.976,-0.289 -2.057,-0.275 -2.139,-0.261C-2.253,-0.218 -2.34,-0.126 -2.229,0.07C-2.008,0.462 -1.739,0.634 -1.739,0.634C-1.739,0.634 -2.448,0.559 -2.865,-0.125C-3.28,-0.81 -2.424,-1.352 -1.445,-1.273M47.504,-21.221C47.857,-24.942 48.328,-30.558 48.919,-32.696C48.708,-32.847 48.408,-33.079 48.079,-33.381C47.564,-29.895 47.471,-24.164 47.504,-21.221M46.092,-0.914C46.496,-1.023 46.889,-1.094 47.276,-1.142C47.254,-1.447 47.23,-1.776 47.209,-2.116C46.835,-1.678 46.455,-1.272 46.092,-0.914M42.793,1.598L47.505,1.598C47.463,1.162 47.407,0.541 47.348,-0.22C45.938,-0.051 44.346,0.664 42.793,1.598M36.264,2.887C35.756,3.604 35.139,4.271 34.42,4.878C35.758,4.92 36.848,3.684 37.407,2.887L36.264,2.887ZM10.9,-1.728C10.9,-0.55 11.242,0.571 11.856,1.6C11.979,1.805 12.116,2.004 12.264,2.201C12.279,2.223 12.293,2.246 12.309,2.269C12.469,2.479 12.641,2.686 12.822,2.887C15.074,5.384 19.081,7.057 23.654,7.057C28.227,7.057 32.234,5.384 34.485,2.887C34.668,2.686 34.839,2.479 34.998,2.269C35.016,2.246 35.029,2.223 35.045,2.201C35.191,2.004 35.328,1.805 35.451,1.6C36.064,0.572 36.408,-0.55 36.408,-1.728C36.408,-6.571 30.687,-10.512 23.654,-10.512C16.621,-10.512 10.9,-6.571 10.9,-1.728M12.891,4.879C12.17,4.272 11.553,3.604 11.043,2.887L9.877,2.887C10.439,3.688 11.54,4.937 12.891,4.879M0.031,-1.142C0.418,-1.094 0.812,-1.023 1.217,-0.914C0.852,-1.272 0.473,-1.678 0.099,-2.116C0.078,-1.776 0.055,-1.447 0.031,-1.142M-0.197,1.598L4.514,1.598C2.962,0.664 1.369,-0.051 -0.039,-0.22C-0.1,0.541 -0.156,1.162 -0.197,1.598M-0.195,-21.221C-0.162,-24.164 -0.257,-29.895 -0.771,-33.381C-1.1,-33.079 -1.4,-32.847 -1.611,-32.696C-1.021,-30.558 -0.551,-24.942 -0.195,-21.221" style="fill:rgb(35,31,32);fill-rule:nonzero;"/>
        </g>
    </g>
</svg>
