<?xml version="1.0" encoding="UTF-8" standalone="no"?>
<!DOCTYPE svg PUBLIC "-//W3C//DTD SVG 1.1//EN" "http://www.w3.org/Graphics/SVG/1.1/DTD/svg11.dtd">
<svg width="100%" height="100%" viewBox="0 0 684 206" version="1.1" xmlns="http://www.w3.org/2000/svg" xmlns:xlink="http://www.w3.org/1999/xlink" xml:space="preserve" xmlns:serif="http://www.serif.com/" style="fill-rule:evenodd;clip-rule:evenodd;">
    <g transform="matrix(1,0,0,1,-931.375,-1312.3)">
        <g transform="matrix(4.16667,0,0,4.16667,1611.51,1496.42)">
            <path d="M0,-39.058L0,0.01L-4.2,4.21L-73.077,4.21L-77.287,0.01L-77.287,-39.058L-73.077,-43.268L-4.2,-43.268L0,-39.058Z" style="fill:white;fill-rule:nonzero;"/>
        </g>
        <g transform="matrix(4.16667,0,0,4.16667,1594.22,1517.8)">
            <path d="M0,-49.32L-69,-49.32L-74.012,-44.307L-74.012,-5.012L-69,0L0,0L5.013,-5.012L5.013,-44.307L0,-49.32ZM3.638,-43.737L3.638,-39.862C3.23,-41.084 2.651,-42.387 1.839,-43.618L1.839,-43.689L1.793,-43.689C0.638,-45.416 -0.989,-46.983 -3.277,-47.945L-0.57,-47.945L3.638,-43.737ZM-5.214,-1.375L-63.811,-1.375C-66.424,-2.007 -68.517,-3.446 -70.088,-5.653L-70.088,-43.643C-68.722,-45.558 -66.718,-47.222 -63.786,-47.945L-5.189,-47.945C-2.575,-47.313 -0.483,-45.874 1.089,-43.667L1.089,-5.677C-0.277,-3.762 -2.281,-2.098 -5.214,-1.375M-72.637,-37.591C-72.334,-39.008 -71.794,-40.772 -70.838,-42.464L-70.838,-6.841C-71.005,-7.138 -71.182,-7.42 -71.333,-7.739C-71.991,-9.124 -72.391,-10.515 -72.637,-11.679L-72.637,-37.591ZM1.839,-42.479C2.006,-42.182 2.183,-41.9 2.334,-41.581C2.991,-40.196 3.392,-38.805 3.638,-37.641L3.638,-11.73C3.335,-10.312 2.795,-8.548 1.839,-6.856L1.839,-42.479ZM-68.429,-47.945L-65.722,-47.945C-68.01,-46.983 -69.637,-45.416 -70.792,-43.689L-70.838,-43.689L-70.838,-43.618C-71.651,-42.387 -72.23,-41.084 -72.637,-39.862L-72.637,-43.737L-68.429,-47.945ZM-72.637,-5.582L-72.637,-9.458C-72.23,-8.236 -71.651,-6.933 -70.838,-5.702L-70.838,-5.631L-70.792,-5.631C-69.637,-3.904 -68.01,-2.337 -65.722,-1.375L-68.429,-1.375L-72.637,-5.582ZM-0.57,-1.375L-3.277,-1.375C-0.989,-2.337 0.638,-3.904 1.793,-5.631L1.839,-5.631L1.839,-5.702C2.651,-6.933 3.23,-8.236 3.638,-9.458L3.638,-5.582L-0.57,-1.375Z" style="fill:rgb(35,31,32);fill-rule:nonzero;"/>
        </g>
        <g transform="matrix(4.16667,0,0,4.16667,1257.05,1496.42)">
            <path d="M0,-39.058L0,0.01L-4.2,4.21L-73.077,4.21L-77.287,0.01L-77.287,-39.058L-73.077,-43.268L-4.2,-43.268L0,-39.058Z" style="fill:white;fill-rule:nonzero;"/>
        </g>
        <g transform="matrix(4.16667,0,0,4.16667,1239.76,1517.8)">
            <path d="M0,-49.32L-69,-49.32L-74.012,-44.307L-74.012,-5.012L-69,0L0,0L5.013,-5.012L5.013,-44.307L0,-49.32ZM3.638,-43.737L3.638,-39.862C3.23,-41.084 2.651,-42.387 1.839,-43.618L1.839,-43.689L1.793,-43.689C0.638,-45.416 -0.989,-46.983 -3.277,-47.945L-0.57,-47.945L3.638,-43.737ZM-5.214,-1.375L-63.811,-1.375C-66.424,-2.007 -68.517,-3.446 -70.088,-5.653L-70.088,-43.643C-68.722,-45.558 -66.718,-47.222 -63.786,-47.945L-5.189,-47.945C-2.575,-47.313 -0.483,-45.874 1.089,-43.667L1.089,-5.677C-0.277,-3.762 -2.281,-2.098 -5.214,-1.375M-72.637,-37.591C-72.334,-39.008 -71.794,-40.772 -70.838,-42.464L-70.838,-6.841C-71.005,-7.138 -71.182,-7.42 -71.333,-7.739C-71.991,-9.124 -72.391,-10.515 -72.637,-11.679L-72.637,-37.591ZM1.839,-42.479C2.006,-42.182 2.183,-41.9 2.334,-41.581C2.991,-40.196 3.392,-38.805 3.638,-37.641L3.638,-11.73C3.335,-10.312 2.795,-8.548 1.839,-6.856L1.839,-42.479ZM-68.429,-47.945L-65.722,-47.945C-68.01,-46.983 -69.637,-45.416 -70.792,-43.689L-70.838,-43.689L-70.838,-43.618C-71.651,-42.387 -72.23,-41.084 -72.637,-39.862L-72.637,-43.737L-68.429,-47.945ZM-72.637,-5.582L-72.637,-9.458C-72.23,-8.236 -71.651,-6.933 -70.838,-5.702L-70.838,-5.631L-70.792,-5.631C-69.637,-3.904 -68.01,-2.337 -65.722,-1.375L-68.429,-1.375L-72.637,-5.582ZM-0.57,-1.375L-3.277,-1.375C-0.989,-2.337 0.638,-3.904 1.793,-5.631L1.839,-5.631L1.839,-5.702C2.651,-6.933 3.23,-8.236 3.638,-9.458L3.638,-5.582L-0.57,-1.375Z" style="fill:rgb(35,31,32);fill-rule:nonzero;"/>
        </g>
        <g transform="matrix(4.16667,0,0,4.16667,1567.6,1381.26)">
            <path d="M0,-9.359C-2.427,-9.359 -4.404,-7.496 -4.634,-5.129L-8.227,-5.129C-8.457,-7.496 -10.434,-9.359 -12.861,-9.359C-15.288,-9.359 -17.265,-7.496 -17.495,-5.129L-21.088,-5.129C-21.318,-7.496 -23.295,-9.359 -25.722,-9.359C-28.302,-9.359 -30.401,-7.26 -30.401,-4.68C-30.401,-2.099 -28.302,0 -25.722,0C-23.697,0 -21.985,-1.3 -21.335,-3.104L-17.247,-3.104C-16.597,-1.3 -14.885,0 -12.861,0C-10.836,0 -9.125,-1.3 -8.474,-3.104L-4.387,-3.104C-3.736,-1.3 -2.025,0 0,0C2.58,0 4.679,-2.099 4.679,-4.68C4.679,-7.26 2.58,-9.359 0,-9.359M-25.722,-0.898C-27.807,-0.898 -29.503,-2.595 -29.503,-4.68C-29.503,-6.765 -27.807,-8.462 -25.722,-8.462C-23.637,-8.462 -21.94,-6.765 -21.94,-4.68C-21.94,-2.595 -23.637,-0.898 -25.722,-0.898M-21.196,-3.553C-21.141,-3.773 -21.11,-4 -21.088,-4.231L-17.495,-4.231C-17.473,-4 -17.442,-3.773 -17.387,-3.553L-21.196,-3.553ZM-12.861,-0.898C-14.946,-0.898 -16.643,-2.595 -16.643,-4.68C-16.643,-6.765 -14.946,-8.462 -12.861,-8.462C-10.776,-8.462 -9.079,-6.765 -9.079,-4.68C-9.079,-2.595 -10.776,-0.898 -12.861,-0.898M-8.335,-3.553C-8.28,-3.773 -8.249,-4 -8.227,-4.231L-4.634,-4.231C-4.612,-4 -4.581,-3.773 -4.526,-3.553L-8.335,-3.553ZM0,-0.898C-2.085,-0.898 -3.782,-2.595 -3.782,-4.68C-3.782,-6.765 -2.085,-8.462 0,-8.462C2.085,-8.462 3.782,-6.765 3.782,-4.68C3.782,-2.595 2.085,-0.898 0,-0.898" style="fill:rgb(35,31,32);fill-rule:nonzero;"/>
        </g>
        <g transform="matrix(4.16667,0,0,4.16667,1567.6,1443.76)">
            <path d="M0,-9.359C-2.427,-9.359 -4.404,-7.496 -4.634,-5.128L-8.227,-5.128C-8.457,-7.496 -10.434,-9.359 -12.861,-9.359C-15.288,-9.359 -17.265,-7.496 -17.495,-5.128L-21.088,-5.128C-21.318,-7.496 -23.295,-9.359 -25.722,-9.359C-28.302,-9.359 -30.401,-7.26 -30.401,-4.68C-30.401,-2.099 -28.302,0 -25.722,0C-23.697,0 -21.985,-1.3 -21.335,-3.104L-17.247,-3.104C-16.597,-1.3 -14.885,0 -12.861,0C-10.836,0 -9.125,-1.3 -8.474,-3.104L-4.387,-3.104C-3.736,-1.3 -2.025,0 0,0C2.58,0 4.679,-2.099 4.679,-4.68C4.679,-7.26 2.58,-9.359 0,-9.359M-25.722,-0.898C-27.807,-0.898 -29.503,-2.595 -29.503,-4.68C-29.503,-6.765 -27.807,-8.462 -25.722,-8.462C-23.637,-8.462 -21.94,-6.765 -21.94,-4.68C-21.94,-2.595 -23.637,-0.898 -25.722,-0.898M-21.196,-3.553C-21.141,-3.773 -21.11,-4 -21.088,-4.231L-17.495,-4.231C-17.473,-4 -17.442,-3.773 -17.387,-3.553L-21.196,-3.553ZM-12.861,-0.898C-14.946,-0.898 -16.643,-2.595 -16.643,-4.68C-16.643,-6.765 -14.946,-8.462 -12.861,-8.462C-10.776,-8.462 -9.079,-6.765 -9.079,-4.68C-9.079,-2.595 -10.776,-0.898 -12.861,-0.898M-8.335,-3.553C-8.28,-3.773 -8.249,-4 -8.227,-4.231L-4.634,-4.231C-4.612,-4 -4.581,-3.773 -4.526,-3.553L-8.335,-3.553ZM0,-0.898C-2.085,-0.898 -3.782,-2.595 -3.782,-4.68C-3.782,-6.765 -2.085,-8.462 0,-8.462C2.085,-8.462 3.782,-6.765 3.782,-4.68C3.782,-2.595 2.085,-0.898 0,-0.898" style="fill:rgb(35,31,32);fill-rule:nonzero;"/>
        </g>
        <g transform="matrix(4.16667,0,0,4.16667,1028.83,1366.93)">
            <path d="M0,0L47.772,0" style="fill:none;fill-rule:nonzero;stroke:rgb(178,180,182);stroke-width:0.25px;"/>
        </g>
        <g transform="matrix(4.16667,0,0,4.16667,0,0)">
            <path d="M331.083,359.262L331.083,355.107L332.464,355.107C332.876,355.107 333.208,355.153 333.462,355.244C333.716,355.336 333.935,355.491 334.12,355.71C334.414,356.059 334.561,356.517 334.561,357.086C334.561,357.777 334.379,358.312 334.014,358.692C333.649,359.072 333.135,359.262 332.472,359.262L331.083,359.262ZM331.672,358.821L332.428,358.821C332.967,358.821 333.348,358.676 333.573,358.386C333.814,358.077 333.935,357.663 333.935,357.142C333.935,356.654 333.816,356.27 333.579,355.991C333.435,355.821 333.262,355.704 333.062,355.642C332.862,355.579 332.56,355.548 332.158,355.548L331.672,355.548L331.672,358.821Z" style="fill:rgb(35,31,32);fill-rule:nonzero;"/>
            <path d="M335.104,359.262L335.104,355.107L337.426,355.107L337.426,355.548L335.694,355.548L335.694,356.881L337.145,356.881L337.145,357.316L335.694,357.316L335.694,358.821L337.547,358.821L337.547,359.262L335.104,359.262Z" style="fill:rgb(35,31,32);fill-rule:nonzero;"/>
            <path d="M340.041,357.673L339.334,355.882L338.623,357.673L340.041,357.673ZM340.664,359.262L340.212,358.111L338.452,358.111L337.994,359.262L337.447,359.262L339.095,355.107L339.679,355.107L341.302,359.262L340.664,359.262Z" style="fill:rgb(35,31,32);fill-rule:nonzero;"/>
            <path d="M342.606,359.262L342.606,355.548L341.132,355.548L341.132,355.107L344.669,355.107L344.669,355.548L343.195,355.548L343.195,359.262L342.606,359.262Z" style="fill:rgb(35,31,32);fill-rule:nonzero;"/>
            <path d="M344.968,359.262L344.968,355.107L345.557,355.107L345.557,356.859L347.534,356.859L347.534,355.107L348.124,355.107L348.124,359.262L347.534,359.262L347.534,357.3L345.557,357.3L345.557,359.262L344.968,359.262Z" style="fill:rgb(35,31,32);fill-rule:nonzero;"/>
            <path d="M351.337,359.366C351.058,359.366 350.702,359.305 350.268,359.183L350.268,358.6C350.736,358.817 351.12,358.925 351.422,358.925C351.654,358.925 351.84,358.864 351.982,358.743C352.123,358.621 352.194,358.461 352.194,358.263C352.194,358.1 352.147,357.961 352.055,357.847C351.962,357.733 351.791,357.606 351.542,357.465L351.256,357.3C350.902,357.097 350.653,356.907 350.508,356.728C350.363,356.549 350.29,356.341 350.29,356.104C350.29,355.783 350.406,355.52 350.638,355.313C350.87,355.106 351.166,355.003 351.525,355.003C351.845,355.003 352.183,355.056 352.539,355.163L352.539,355.702C352.101,355.53 351.774,355.444 351.559,355.444C351.355,355.444 351.187,355.498 351.054,355.607C350.921,355.715 350.854,355.852 350.854,356.016C350.854,356.155 350.903,356.278 351,356.384C351.098,356.491 351.276,356.618 351.534,356.766L351.831,356.935C352.191,357.139 352.442,357.331 352.584,357.513C352.726,357.695 352.797,357.913 352.797,358.167C352.797,358.528 352.664,358.818 352.397,359.037C352.13,359.256 351.777,359.366 351.337,359.366Z" style="fill:rgb(35,31,32);fill-rule:nonzero;"/>
            <path d="M355.44,357.673L354.733,355.882L354.022,357.673L355.44,357.673ZM356.064,359.262L355.612,358.111L353.851,358.111L353.394,359.262L352.846,359.262L354.494,355.107L355.078,355.107L356.701,359.262L356.064,359.262Z" style="fill:rgb(35,31,32);fill-rule:nonzero;"/>
            <path d="M358.151,359.262L356.581,355.107L357.171,355.107L358.457,358.51L359.698,355.107L360.214,355.107L358.707,359.262L358.151,359.262Z" style="fill:rgb(35,31,32);fill-rule:nonzero;"/>
            <path d="M360.491,359.262L360.491,355.107L362.812,355.107L362.812,355.548L361.08,355.548L361.08,356.881L362.532,356.881L362.532,357.316L361.08,357.316L361.08,358.821L362.933,358.821L362.933,359.262L360.491,359.262Z" style="fill:rgb(35,31,32);fill-rule:nonzero;"/>
            <path d="M364.136,359.366C363.857,359.366 363.5,359.305 363.066,359.183L363.066,358.6C363.534,358.817 363.919,358.925 364.22,358.925C364.452,358.925 364.639,358.864 364.78,358.743C364.922,358.621 364.992,358.461 364.992,358.263C364.992,358.1 364.946,357.961 364.853,357.847C364.761,357.733 364.59,357.606 364.341,357.465L364.054,357.3C363.701,357.097 363.451,356.907 363.306,356.728C363.161,356.549 363.089,356.341 363.089,356.104C363.089,355.783 363.205,355.52 363.437,355.313C363.669,355.106 363.965,355.003 364.324,355.003C364.644,355.003 364.982,355.056 365.338,355.163L365.338,355.702C364.9,355.53 364.573,355.444 364.358,355.444C364.154,355.444 363.985,355.498 363.852,355.607C363.719,355.715 363.653,355.852 363.653,356.016C363.653,356.155 363.702,356.278 363.799,356.384C363.896,356.491 364.074,356.618 364.332,356.766L364.63,356.935C364.989,357.139 365.24,357.331 365.382,357.513C365.525,357.695 365.596,357.913 365.596,358.167C365.596,358.528 365.463,358.818 365.196,359.037C364.929,359.256 364.576,359.366 364.136,359.366Z" style="fill:rgb(35,31,32);fill-rule:nonzero;"/>
        </g>
        <g transform="matrix(4.16667,0,0,4.16667,0,0)">
            <path d="M252.043,359.262L252.043,355.107L252.633,355.107L252.633,356.859L254.609,356.859L254.609,355.107L255.199,355.107L255.199,359.262L254.609,359.262L254.609,357.3L252.633,357.3L252.633,359.262L252.043,359.262Z" style="fill:rgb(35,31,32);fill-rule:nonzero;"/>
            <rect x="256.114" y="355.107" width="0.59" height="4.155" style="fill:rgb(35,31,32);fill-rule:nonzero;"/>
            <path d="M258.61,359.262L258.61,355.548L257.136,355.548L257.136,355.107L260.674,355.107L260.674,355.548L259.2,355.548L259.2,359.262L258.61,359.262Z" style="fill:rgb(35,31,32);fill-rule:nonzero;"/>
            <path d="M262.774,359.262L262.774,355.107L264.155,355.107C264.567,355.107 264.899,355.153 265.153,355.244C265.407,355.336 265.626,355.491 265.811,355.71C266.105,356.059 266.252,356.517 266.252,357.086C266.252,357.777 266.07,358.312 265.705,358.692C265.34,359.072 264.826,359.262 264.163,359.262L262.774,359.262ZM263.363,358.821L264.118,358.821C264.657,358.821 265.039,358.676 265.264,358.386C265.505,358.077 265.626,357.663 265.626,357.142C265.626,356.654 265.507,356.27 265.27,355.991C265.125,355.821 264.953,355.704 264.753,355.642C264.553,355.579 264.251,355.548 263.849,355.548L263.363,355.548L263.363,358.821Z" style="fill:rgb(35,31,32);fill-rule:nonzero;"/>
            <rect x="266.926" y="355.107" width="0.59" height="4.155" style="fill:rgb(35,31,32);fill-rule:nonzero;"/>
            <path d="M270.214,359.366C269.568,359.366 269.069,359.176 268.717,358.797C268.365,358.418 268.189,357.882 268.189,357.187C268.189,356.495 268.369,355.958 268.727,355.576C269.085,355.194 269.59,355.003 270.242,355.003C270.614,355.003 271.05,355.064 271.55,355.185L271.55,355.739C270.981,355.542 270.542,355.444 270.233,355.444C269.782,355.444 269.433,355.596 269.186,355.901C268.939,356.206 268.815,356.637 268.815,357.193C268.815,357.723 268.947,358.14 269.211,358.446C269.475,358.753 269.836,358.906 270.292,358.906C270.685,358.906 271.106,358.785 271.556,358.543L271.556,359.049C271.146,359.26 270.698,359.366 270.214,359.366Z" style="fill:rgb(35,31,32);fill-rule:nonzero;"/>
            <path d="M272.26,359.262L272.26,355.107L274.582,355.107L274.582,355.548L272.85,355.548L272.85,356.881L274.301,356.881L274.301,357.316L272.85,357.316L272.85,358.821L274.703,358.821L274.703,359.262L272.26,359.262Z" style="fill:rgb(35,31,32);fill-rule:nonzero;"/>
        </g>
        <g transform="matrix(4.16667,0,0,4.16667,0,0)">
            <path d="M231.616,327.699L231.616,323.177L229.822,323.177L229.822,322.64L234.128,322.64L234.128,323.177L232.334,323.177L232.334,327.699L231.616,327.699Z" style="fill:rgb(147,149,152);fill-rule:nonzero;"/>
            <path d="M235.585,327.784C235.054,327.784 234.63,327.608 234.313,327.256C233.996,326.904 233.838,326.433 233.838,325.843C233.838,325.246 233.997,324.773 234.315,324.426C234.633,324.079 235.064,323.905 235.608,323.905C236.153,323.905 236.584,324.079 236.902,324.426C237.22,324.773 237.379,325.243 237.379,325.836C237.379,326.442 237.219,326.918 236.9,327.265C236.581,327.611 236.143,327.784 235.585,327.784ZM235.595,327.278C236.308,327.278 236.665,326.797 236.665,325.836C236.665,324.886 236.313,324.411 235.608,324.411C234.907,324.411 234.556,324.888 234.556,325.843C234.556,326.8 234.902,327.278 235.595,327.278Z" style="fill:rgb(147,149,152);fill-rule:nonzero;"/>
            <path d="M238.818,327.784C238.476,327.784 238.21,327.686 238.018,327.49C237.827,327.294 237.731,327.022 237.731,326.673L237.731,324.493L237.266,324.493L237.266,323.987L237.731,323.987L237.731,323.313L238.405,323.249L238.405,323.987L239.375,323.987L239.375,324.493L238.405,324.493L238.405,326.55C238.405,327.036 238.614,327.278 239.034,327.278C239.122,327.278 239.231,327.263 239.358,327.234L239.358,327.699C239.151,327.756 238.971,327.784 238.818,327.784Z" style="fill:rgb(147,149,152);fill-rule:nonzero;"/>
            <path d="M241.508,327.227C241.105,327.598 240.717,327.784 240.343,327.784C240.035,327.784 239.78,327.688 239.577,327.495C239.374,327.303 239.273,327.06 239.273,326.766C239.273,326.36 239.443,326.048 239.784,325.831C240.125,325.613 240.613,325.504 241.249,325.504L241.409,325.504L241.409,325.057C241.409,324.626 241.188,324.411 240.746,324.411C240.391,324.411 240.007,324.52 239.594,324.739L239.594,324.182C240.048,323.997 240.473,323.905 240.869,323.905C241.284,323.905 241.59,323.998 241.787,324.185C241.984,324.372 242.083,324.662 242.083,325.057L242.083,326.738C242.083,327.123 242.201,327.316 242.438,327.316C242.468,327.316 242.511,327.311 242.568,327.302L242.616,327.675C242.463,327.748 242.295,327.784 242.11,327.784C241.796,327.784 241.595,327.598 241.508,327.227ZM241.409,326.861L241.409,325.901L241.184,325.894C240.815,325.894 240.516,325.964 240.288,326.104C240.06,326.244 239.946,326.428 239.946,326.656C239.946,326.818 240.003,326.955 240.117,327.066C240.231,327.178 240.37,327.234 240.534,327.234C240.815,327.234 241.106,327.11 241.409,326.861Z" style="fill:rgb(147,149,152);fill-rule:nonzero;"/>
            <rect x="242.732" y="322.302" width="0.673" height="5.397" style="fill:rgb(147,149,152);fill-rule:nonzero;"/>
        </g>
        <g transform="matrix(4.16667,0,0,4.16667,0,0)">
            <path d="M316.118,329.036C315.839,329.036 315.482,328.976 315.048,328.854L315.048,328.27C315.516,328.487 315.901,328.596 316.202,328.596C316.434,328.596 316.621,328.535 316.762,328.413C316.903,328.291 316.974,328.131 316.974,327.933C316.974,327.77 316.928,327.632 316.835,327.517C316.742,327.403 316.572,327.276 316.323,327.136L316.036,326.97C315.682,326.768 315.433,326.577 315.288,326.399C315.143,326.22 315.07,326.012 315.07,325.774C315.07,325.454 315.186,325.19 315.419,324.984C315.651,324.777 315.946,324.673 316.306,324.673C316.626,324.673 316.964,324.727 317.319,324.833L317.319,325.372C316.881,325.2 316.555,325.114 316.339,325.114C316.135,325.114 315.967,325.168 315.834,325.277C315.701,325.386 315.635,325.522 315.635,325.687C315.635,325.825 315.683,325.948 315.781,326.055C315.878,326.161 316.056,326.289 316.314,326.437L316.612,326.605C316.971,326.809 317.222,327.002 317.364,327.183C317.506,327.365 317.578,327.583 317.578,327.838C317.578,328.199 317.444,328.489 317.178,328.708C316.911,328.927 316.558,329.036 316.118,329.036Z" style="fill:rgb(35,31,32);fill-rule:nonzero;"/>
            <path d="M318.233,324.777L318.822,324.777L318.822,327.4C318.822,327.817 318.899,328.121 319.054,328.311C319.208,328.501 319.454,328.596 319.791,328.596C320.12,328.596 320.354,328.506 320.491,328.327C320.629,328.149 320.698,327.846 320.698,327.419L320.698,324.777L321.214,324.777L321.214,327.411C321.214,327.978 321.098,328.391 320.865,328.649C320.632,328.907 320.261,329.036 319.752,329.036C319.233,329.036 318.85,328.903 318.603,328.635C318.356,328.367 318.233,327.954 318.233,327.394L318.233,324.777Z" style="fill:rgb(35,31,32);fill-rule:nonzero;"/>
            <path d="M323.896,329.036C323.251,329.036 322.752,328.847 322.4,328.468C322.048,328.089 321.872,327.552 321.872,326.858C321.872,326.165 322.051,325.628 322.41,325.246C322.768,324.864 323.273,324.673 323.924,324.673C324.297,324.673 324.733,324.734 325.233,324.856L325.233,325.409C324.664,325.212 324.225,325.114 323.916,325.114C323.465,325.114 323.116,325.267 322.869,325.572C322.622,325.877 322.498,326.307 322.498,326.863C322.498,327.393 322.63,327.811 322.894,328.117C323.158,328.423 323.518,328.576 323.975,328.576C324.368,328.576 324.789,328.455 325.238,328.214L325.238,328.719C324.829,328.931 324.381,329.036 323.896,329.036Z" style="fill:rgb(35,31,32);fill-rule:nonzero;"/>
            <path d="M327.741,329.036C327.095,329.036 326.596,328.847 326.244,328.468C325.892,328.089 325.717,327.552 325.717,326.858C325.717,326.165 325.896,325.628 326.254,325.246C326.613,324.864 327.118,324.673 327.769,324.673C328.141,324.673 328.578,324.734 329.077,324.856L329.077,325.409C328.508,325.212 328.069,325.114 327.76,325.114C327.309,325.114 326.96,325.267 326.713,325.572C326.466,325.877 326.343,326.307 326.343,326.863C326.343,327.393 326.475,327.811 326.739,328.117C327.002,328.423 327.363,328.576 327.819,328.576C328.213,328.576 328.634,328.455 329.083,328.214L329.083,328.719C328.673,328.931 328.226,329.036 327.741,329.036Z" style="fill:rgb(35,31,32);fill-rule:nonzero;"/>
            <path d="M329.805,328.933L329.805,324.777L332.127,324.777L332.127,325.218L330.395,325.218L330.395,326.552L331.846,326.552L331.846,326.987L330.395,326.987L330.395,328.492L332.248,328.492L332.248,328.933L329.805,328.933Z" style="fill:rgb(35,31,32);fill-rule:nonzero;"/>
            <path d="M333.602,329.036C333.323,329.036 332.967,328.976 332.532,328.854L332.532,328.27C333,328.487 333.385,328.596 333.686,328.596C333.918,328.596 334.105,328.535 334.246,328.413C334.388,328.291 334.458,328.131 334.458,327.933C334.458,327.77 334.412,327.632 334.319,327.517C334.227,327.403 334.056,327.276 333.807,327.136L333.521,326.97C333.167,326.768 332.917,326.577 332.772,326.399C332.627,326.22 332.555,326.012 332.555,325.774C332.555,325.454 332.671,325.19 332.903,324.984C333.135,324.777 333.431,324.673 333.79,324.673C334.11,324.673 334.448,324.727 334.804,324.833L334.804,325.372C334.366,325.2 334.039,325.114 333.824,325.114C333.62,325.114 333.451,325.168 333.318,325.277C333.185,325.386 333.119,325.522 333.119,325.687C333.119,325.825 333.168,325.948 333.265,326.055C333.362,326.161 333.54,326.289 333.798,326.437L334.096,326.605C334.455,326.809 334.706,327.002 334.849,327.183C334.991,327.365 335.062,327.583 335.062,327.838C335.062,328.199 334.929,328.489 334.662,328.708C334.395,328.927 334.042,329.036 333.602,329.036Z" style="fill:rgb(35,31,32);fill-rule:nonzero;"/>
            <path d="M336.565,329.036C336.286,329.036 335.929,328.976 335.495,328.854L335.495,328.27C335.963,328.487 336.348,328.596 336.649,328.596C336.881,328.596 337.068,328.535 337.209,328.413C337.35,328.291 337.421,328.131 337.421,327.933C337.421,327.77 337.375,327.632 337.282,327.517C337.19,327.403 337.019,327.276 336.77,327.136L336.483,326.97C336.13,326.768 335.88,326.577 335.735,326.399C335.59,326.22 335.518,326.012 335.518,325.774C335.518,325.454 335.634,325.19 335.866,324.984C336.098,324.777 336.394,324.673 336.753,324.673C337.073,324.673 337.411,324.727 337.766,324.833L337.766,325.372C337.328,325.2 337.002,325.114 336.787,325.114C336.583,325.114 336.414,325.168 336.281,325.277C336.148,325.386 336.082,325.522 336.082,325.687C336.082,325.825 336.131,325.948 336.228,326.055C336.325,326.161 336.503,326.289 336.761,326.437L337.059,326.605C337.418,326.809 337.669,327.002 337.811,327.183C337.954,327.365 338.025,327.583 338.025,327.838C338.025,328.199 337.891,328.489 337.625,328.708C337.358,328.927 337.005,329.036 336.565,329.036Z" style="fill:rgb(35,31,32);fill-rule:nonzero;"/>
            <path d="M338.713,328.933L338.713,324.777L341.035,324.777L341.035,325.218L339.303,325.218L339.303,326.552L340.755,326.552L340.755,326.987L339.303,326.987L339.303,328.492L341.156,328.492L341.156,328.933L338.713,328.933Z" style="fill:rgb(35,31,32);fill-rule:nonzero;"/>
            <path d="M342.51,329.036C342.231,329.036 341.875,328.976 341.44,328.854L341.44,328.27C341.908,328.487 342.293,328.596 342.594,328.596C342.826,328.596 343.013,328.535 343.155,328.413C343.296,328.291 343.366,328.131 343.366,327.933C343.366,327.77 343.32,327.632 343.228,327.517C343.135,327.403 342.964,327.276 342.715,327.136L342.429,326.97C342.075,326.768 341.826,326.577 341.681,326.399C341.535,326.22 341.463,326.012 341.463,325.774C341.463,325.454 341.579,325.19 341.811,324.984C342.043,324.777 342.339,324.673 342.698,324.673C343.018,324.673 343.356,324.727 343.712,324.833L343.712,325.372C343.274,325.2 342.947,325.114 342.732,325.114C342.528,325.114 342.359,325.168 342.227,325.277C342.094,325.386 342.027,325.522 342.027,325.687C342.027,325.825 342.076,325.948 342.173,326.055C342.271,326.161 342.448,326.289 342.707,326.437L343.004,326.605C343.364,326.809 343.614,327.002 343.757,327.183C343.899,327.365 343.97,327.583 343.97,327.838C343.97,328.199 343.837,328.489 343.57,328.708C343.303,328.927 342.95,329.036 342.51,329.036Z" style="fill:rgb(35,31,32);fill-rule:nonzero;"/>
            <path d="M320.335,343.933L320.335,339.777L322.657,339.777L322.657,340.218L320.924,340.218L320.924,341.611L322.379,341.611L322.379,342.046L320.924,342.046L320.924,343.933L320.335,343.933Z" style="fill:rgb(35,31,32);fill-rule:nonzero;"/>
            <path d="M325.359,342.343L324.652,340.552L323.941,342.343L325.359,342.343ZM325.983,343.933L325.531,342.781L323.77,342.781L323.313,343.933L322.765,343.933L324.413,339.777L324.997,339.777L326.62,343.933L325.983,343.933Z" style="fill:rgb(35,31,32);fill-rule:nonzero;"/>
            <rect x="327.054" y="339.777" width="0.59" height="4.155" style="fill:rgb(35,31,32);fill-rule:nonzero;"/>
            <path d="M328.549,343.933L328.549,339.777L329.139,339.777L329.139,343.492L331.009,343.492L331.009,343.933L328.549,343.933Z" style="fill:rgb(35,31,32);fill-rule:nonzero;"/>
            <path d="M331.418,339.777L332.007,339.777L332.007,342.4C332.007,342.817 332.084,343.121 332.239,343.311C332.393,343.501 332.639,343.596 332.976,343.596C333.305,343.596 333.539,343.506 333.676,343.327C333.814,343.149 333.883,342.846 333.883,342.419L333.883,339.777L334.399,339.777L334.399,342.411C334.399,342.978 334.283,343.391 334.05,343.649C333.817,343.907 333.446,344.036 332.937,344.036C332.418,344.036 332.035,343.903 331.788,343.635C331.541,343.367 331.418,342.954 331.418,342.394L331.418,339.777Z" style="fill:rgb(35,31,32);fill-rule:nonzero;"/>
            <path d="M335.271,343.933L335.271,339.777L336.529,339.777C336.928,339.777 337.234,339.865 337.446,340.041C337.658,340.217 337.765,340.473 337.765,340.808C337.765,341.362 337.485,341.755 336.925,341.987L338.312,343.933L337.588,343.933L336.406,342.175L335.855,342.175L335.855,343.933L335.271,343.933ZM335.855,341.734L336.046,341.734C336.788,341.734 337.158,341.443 337.158,340.861C337.158,340.432 336.847,340.218 336.226,340.218L335.855,340.218L335.855,341.734Z" style="fill:rgb(35,31,32);fill-rule:nonzero;"/>
            <path d="M338.743,343.933L338.743,339.777L341.065,339.777L341.065,340.218L339.333,340.218L339.333,341.552L340.785,341.552L340.785,341.987L339.333,341.987L339.333,343.492L341.186,343.492L341.186,343.933L338.743,343.933Z" style="fill:rgb(35,31,32);fill-rule:nonzero;"/>
            <path d="M342.51,344.036C342.231,344.036 341.875,343.976 341.44,343.854L341.44,343.27C341.908,343.487 342.293,343.596 342.594,343.596C342.826,343.596 343.013,343.535 343.155,343.413C343.296,343.291 343.366,343.131 343.366,342.933C343.366,342.77 343.32,342.632 343.228,342.517C343.135,342.403 342.964,342.276 342.715,342.136L342.429,341.97C342.075,341.768 341.826,341.577 341.681,341.399C341.535,341.22 341.463,341.012 341.463,340.774C341.463,340.454 341.579,340.19 341.811,339.984C342.043,339.777 342.339,339.673 342.698,339.673C343.018,339.673 343.356,339.727 343.712,339.833L343.712,340.372C343.274,340.2 342.947,340.114 342.732,340.114C342.528,340.114 342.359,340.168 342.227,340.277C342.094,340.386 342.027,340.522 342.027,340.687C342.027,340.825 342.076,340.948 342.173,341.055C342.271,341.161 342.448,341.289 342.707,341.437L343.004,341.605C343.364,341.809 343.614,342.002 343.757,342.183C343.899,342.365 343.97,342.583 343.97,342.838C343.97,343.199 343.837,343.489 343.57,343.708C343.303,343.927 342.95,344.036 342.51,344.036Z" style="fill:rgb(35,31,32);fill-rule:nonzero;"/>
        </g>
    </g>
</svg>
