<?xml version="1.0" encoding="UTF-8" standalone="no"?>
<!DOCTYPE svg PUBLIC "-//W3C//DTD SVG 1.1//EN" "http://www.w3.org/Graphics/SVG/1.1/DTD/svg11.dtd">
<svg width="100%" height="100%" viewBox="0 0 2465 414" version="1.1" xmlns="http://www.w3.org/2000/svg" xmlns:xlink="http://www.w3.org/1999/xlink" xml:space="preserve" xmlns:serif="http://www.serif.com/" style="fill-rule:evenodd;clip-rule:evenodd;stroke-miterlimit:10;">
    <g transform="matrix(1,0,0,1,-35.6546,-66)">
        <g transform="matrix(4.16667,0,0,4.16667,386.846,104.441)">
            <path d="M0,32.762L23.255,34.502L0,36.241L-23.252,34.502L0,32.762ZM139.199,39.281L162.453,41.02L185.709,39.281L162.453,37.541L139.199,39.281ZM253.492,22.29L275.778,20.624L248.298,18.569L290.346,15.426L252.899,12.625L304.776,8.748L216.438,2.14L240.174,0.367L196.837,-2.875L158.332,0.005L141.014,-2.25L183.502,-5.424L149.453,-7.971L125.723,-6.198L98.174,-8.258L72.423,-6.331L98.587,-4.373L69.759,-2.217L40.936,-4.373L57.643,-5.623L37.683,-7.116L-26.135,-2.345L-3.521,-0.654L-75.231,4.706L-33,7.864L-55.286,9.53L-27.808,11.585L-69.854,14.727L-32.409,17.529L-84.286,21.406L-12.992,26.739L-45.636,29.181L-11.176,31.756L-2.264,31.09L23.652,33.029L62.158,30.149L79.457,32.401L34.585,35.757L96.183,40.361L109.652,39.355L85.405,37.541L120.03,34.951L144.298,36.766L160.185,35.578L182.807,37.269L246.625,32.499L224.013,30.808L295.722,25.449L253.492,22.29Z" style="fill:rgb(220,221,222);fill-rule:nonzero;"/>
        </g>
        <g transform="matrix(4.16667,0,0,4.16667,798.193,339.489)">
            <path d="M0,26.613L18.891,28.026L0,29.439L-18.888,28.026L0,26.613ZM113.072,31.908L131.962,33.321L150.853,31.908L131.962,30.495L113.072,31.908ZM205.913,18.107L224.016,16.753L201.694,15.084L235.85,12.531L205.431,10.256L247.571,7.106L175.814,1.739L195.095,0.298L159.892,-2.335L128.614,0.004L114.547,-1.827L149.06,-4.406L121.401,-6.475L102.126,-5.034L79.747,-6.708L58.83,-5.143L80.082,-3.552L56.666,-1.801L33.253,-3.552L46.824,-4.567L30.61,-5.78L-21.229,-1.905L-2.86,-0.531L-61.111,3.823L-26.806,6.388L-44.909,7.741L-22.588,9.411L-56.743,11.963L-26.326,14.239L-68.466,17.389L-10.554,21.72L-37.07,23.704L-9.078,25.796L-1.839,25.255L19.213,26.83L50.491,24.49L64.543,26.32L28.094,29.046L78.13,32.786L89.071,31.968L69.375,30.495L97.501,28.391L117.214,29.865L130.119,28.901L148.495,30.274L200.335,26.399L181.967,25.026L240.217,20.672L205.913,18.107Z" style="fill:rgb(220,221,222);fill-rule:nonzero;"/>
        </g>
        <g transform="matrix(4.16667,0,0,4.16667,1632.57,161.028)">
            <path d="M0,21.949L15.58,23.115L0,24.279L-15.578,23.115L0,21.949ZM93.256,26.316L108.835,27.481L124.415,26.316L108.835,25.15L93.256,26.316ZM169.826,14.933L184.756,13.817L166.346,12.441L194.516,10.335L169.429,8.458L204.183,5.861L145.002,1.434L160.904,0.246L131.87,-1.926L106.074,0.003L94.472,-1.507L122.937,-3.634L100.125,-5.34L84.228,-4.152L65.771,-5.532L48.519,-4.241L66.048,-2.929L46.735,-1.485L27.425,-2.929L38.618,-3.767L25.246,-4.767L-17.509,-1.571L-2.359,-0.438L-50.401,3.153L-22.108,5.269L-37.039,6.385L-18.63,7.761L-46.798,9.867L-21.712,11.744L-56.467,14.341L-8.704,17.914L-30.573,19.55L-7.487,21.275L-1.517,20.829L15.846,22.128L41.642,20.198L53.232,21.707L23.17,23.956L64.438,27.04L73.461,26.366L57.216,25.15L80.413,23.415L96.672,24.631L107.315,23.836L122.471,24.969L165.225,21.773L150.077,20.64L198.118,17.049L169.826,14.933Z" style="fill:rgb(220,221,222);fill-rule:nonzero;"/>
        </g>
        <g transform="matrix(4.16667,0,0,4.16667,362.752,267.834)">
            <path d="M0,-43.47C-0.431,-40.67 0.22,-37.13 0.22,-37.13C0.22,-37.13 -1.83,-38.63 -4.07,-39.9C-5.4,-40.65 -6.53,-42.32 -7.231,-43.55C-7.71,-44.4 -7.99,-45.03 -7.99,-45.03C-11.101,-41.69 -9.091,-37.76 -9.091,-37.76C-13.94,-38.82 -16.971,-37.57 -16.971,-37.57C-7.79,-31.56 -12.67,-31.07 -17.971,-28.56C-23.261,-26.05 -23.65,-22.93 -23.65,-22.93C-17.32,-25.01 -14.801,-22.35 -14.801,-22.35C-18.21,-19.09 -15.17,-14 -15.17,-14C-11.86,-7.66 -3.66,-4.96 3.68,-3.85C10.949,-2.74 17.38,-3.18 17.38,-3.18L0.659,2.02L-14.36,5.81C-14.36,5.81 -29.271,4.21 -34.75,-8.41C-40.221,-21.04 -30.66,-30.98 -31.62,-31.63C-32.53,-32.25 -33.69,-30.87 -33.811,-30.72C-29.65,-42.63 -17.12,-42.5 -16.62,-43.76C-16.11,-45.03 -19.091,-45.11 -19.091,-45.11C-6.42,-49.28 0,-43.47 0,-43.47" style="fill:rgb(35,31,32);fill-rule:nonzero;"/>
        </g>
        <g transform="matrix(0,4.16667,4.16667,0,2506.24,263.177)">
            <path d="M-8.305,-27.251L29.837,-27.251C29.752,-12.684 29.837,-10.789 26.609,-8.305L-10.891,-8.305C-8.417,-12.964 -8.342,-17.778 -8.305,-27.251Z" style="fill:white;fill-rule:nonzero;stroke:rgb(35,31,32);stroke-width:1.38px;"/>
        </g>
        <g transform="matrix(4.16667,0,0,4.16667,2390.18,374.223)">
            <path d="M0,-32.121C16.235,-32.175 17.687,-33.297 19.157,-34.424M0.603,0.072C20.205,2.303 18.535,-3.507 19.407,-3.682" style="fill:none;fill-rule:nonzero;stroke:rgb(35,31,32);stroke-width:0.75px;"/>
        </g>
        <g transform="matrix(4.16667,0,0,4.16667,823.419,394.509)">
            <path d="M0,-8.879C-0.004,-8.865 -0.015,-8.856 -0.019,-8.843C-0.107,-8.536 -0.055,-8.207 0.124,-7.942C0.342,-7.618 5.55,0 12.347,0C13.86,0 15.341,-0.383 16.816,-1.177C17.407,-1.552 17.975,-1.932 18.465,-2.275C22.043,-4.467 25.523,-7.674 26.784,-8.879L0,-8.879Z" style="fill:white;fill-rule:nonzero;"/>
        </g>
        <g transform="matrix(0,4.16667,4.16667,0,269.115,251.043)">
            <path d="M1.32,-34.18L38.82,-34.18L34.181,1.32L-3.32,1.32L1.32,-34.18Z" style="fill:white;fill-rule:nonzero;"/>
        </g>
        <g transform="matrix(0,4.16667,4.16667,0,269.117,251.045)">
            <path d="M1.32,-34.18L38.82,-34.18L34.18,1.32L-3.319,1.32L1.32,-34.18Z" style="fill:none;fill-rule:nonzero;stroke:rgb(35,31,32);stroke-width:1.38px;"/>
        </g>
        <g transform="matrix(4.16667,0,0,4.16667,129.933,248.588)">
            <path d="M0,36.625L34.724,31.7M0,4.418L34.724,0" style="fill:none;fill-rule:nonzero;stroke:rgb(35,31,32);stroke-width:0.75px;"/>
        </g>
        <g transform="matrix(-4.1218,-0.609787,-0.609787,4.1218,163.904,370.391)">
            <path d="M-21.607,-35.507L2.876,-35.507L-2.612,1.59L-27.095,1.59L-21.607,-35.507Z" style="fill:rgb(191,193,196);fill-rule:nonzero;stroke:rgb(35,31,32);stroke-width:1.38px;"/>
        </g>
        <g transform="matrix(0.703113,-4.10691,-4.10691,-0.703113,784.044,-136.193)">
            <path d="M-109.519,-92.363C-131.029,-33.394 -124.972,64.566 -146.482,123.535L-109.519,129.863C-88.01,70.894 -94.067,-27.066 -72.557,-86.035L-109.519,-92.363Z" style="fill:white;fill-rule:nonzero;stroke:rgb(35,31,32);stroke-width:1.37px;"/>
        </g>
        <g transform="matrix(4.16667,0,0,4.16667,1090.02,244.815)">
            <path d="M0,28.47C0,28.47 -20.5,37.136 -114.666,28.803C-181.176,22.917 -214.384,28.076 -219.522,28.976M-0.878,-2.485C-0.878,-2.485 -20.75,5.553 -114.916,-2.78C-181.426,-8.666 -214.634,-3.506 -219.772,-2.607" style="fill:none;fill-rule:nonzero;stroke:rgb(35,31,32);stroke-width:0.75px;"/>
        </g>
        <g transform="matrix(-4.16667,0,0,4.16667,3479.84,-2698.87)">
            <rect x="260.634" y="689.543" width="313.894" height="60.642" style="fill:white;stroke:rgb(35,31,32);stroke-width:1.25px;"/>
        </g>
        <g transform="matrix(-5.68766e-05,4.16667,4.16667,5.68766e-05,1234.22,296.199)">
            <path d="M-35.58,-37.678L37.678,-37.678C35.162,-36.63 34.112,-35.58 34.112,-35.58L-32.017,-35.58C-32.017,-35.58 -33.062,-36.63 -35.58,-37.678Z" style="fill:white;fill-rule:nonzero;stroke:rgb(35,31,32);stroke-width:1.25px;"/>
        </g>
        <g transform="matrix(4.16667,0,0,4.16667,1085.97,394.038)">
            <path d="M0,-44.866C0,-44.866 1.067,-55.199 8.401,-55.199L30.401,-55.199C30.401,-55.199 37.567,-52.754 50.901,-52.754M-0.001,0C-0.001,0 1.066,10.333 8.4,10.333L30.4,10.333C30.4,10.333 37.566,7.888 50.9,7.888" style="fill:none;fill-rule:nonzero;stroke:rgb(35,31,32);stroke-width:1.25px;"/>
        </g>
        <g transform="matrix(5.68766e-05,4.16667,4.16667,-5.68766e-05,2550.86,304.932)">
            <path d="M-37.677,-35.58L35.581,-35.58C33.065,-36.628 32.015,-37.678 32.015,-37.678L-34.114,-37.678C-34.114,-37.678 -35.159,-36.628 -37.677,-35.58Z" style="fill:white;fill-rule:nonzero;stroke:rgb(35,31,32);stroke-width:1.25px;"/>
        </g>
        <g transform="matrix(4.16667,0,0,4.16667,2393.86,394.038)">
            <path d="M0,-44.866C0,-44.866 -1.067,-55.199 -8.401,-55.199L-30.401,-55.199C-30.401,-55.199 -37.567,-52.754 -50.901,-52.754M0.001,0C0.001,0 -1.066,10.333 -8.4,10.333L-30.4,10.333C-30.4,10.333 -37.566,7.888 -50.9,7.888" style="fill:none;fill-rule:nonzero;stroke:rgb(35,31,32);stroke-width:1.25px;"/>
        </g>
        <g transform="matrix(4.16667,0,0,4.16667,2302.62,426.906)">
            <path d="M0,-60.641C-5.202,-59.734 -11.465,-58.718 -17.206,-58.718L-252.891,-58.718C-258.632,-58.718 -264.895,-59.734 -270.097,-60.641M-270.097,0C-264.895,-0.908 -258.632,-1.923 -252.891,-1.923L-17.206,-1.923C-11.465,-1.923 -5.202,-0.908 0,0" style="fill:none;fill-rule:nonzero;stroke:rgb(35,31,32);stroke-width:0.75px;"/>
        </g>
        <g transform="matrix(4.16667,0,0,4.16667,415.498,172.168)">
            <path d="M0,-4.66C3.391,-3.29 4.29,0 4.29,0C1.441,-0.08 0.601,-2.28 0,-4.66" style="fill:white;fill-rule:nonzero;"/>
        </g>
        <g transform="matrix(4.16667,0,0,4.16667,1066.77,357.154)">
            <path d="M0,10.163C-0.64,6.695 -3.087,1.039 -7.827,-1.943C-11.744,-4.402 -15.166,-3.87 -15.182,-5.092C-15.211,-6.646 -10.82,-6.165 -10.82,-6.165C-15.555,-8.877 -22.347,-5.558 -23.318,-7.111C-23.891,-8.042 -20.157,-9.349 -20.157,-9.349C-25.933,-9.561 -32.749,-6.584 -35.483,-3.883C-28.593,-6.196 -18.89,-4.866 -14.433,-1.058C-16.32,-2.118 -18.366,-2.826 -20.466,-3.246C-28.285,-4.818 -36.989,-2.491 -42.229,-0.311C-48.143,1.692 -52.654,4.65 -52.654,4.65C-56.558,6.919 -63.768,9.034 -68.657,6.965L-68.658,6.975C-68.658,6.975 -61.004,19.724 -51.599,15.289C-50.908,14.905 -50.247,14.509 -49.626,14.121C-44.492,11.336 -39.322,6.69 -39.322,6.69C-37.524,5.433 -31.988,1.828 -25.323,-0.186C-23.838,-0.629 -22.331,-0.721 -20.899,-0.515C-17.182,-0.01 -13.942,2.373 -12.879,5.222C-10.009,4.722 -2.734,7.126 0,10.163" style="fill:rgb(35,31,32);fill-rule:nonzero;"/>
        </g>
        <g transform="matrix(4.16667,0,0,4.16667,433.373,139.917)">
            <path d="M0,7.74C0,7.74 -0.899,4.45 -4.29,3.08C-3.689,5.46 -2.85,7.66 0,7.74M-10.92,16.54C-11.71,12.28 -17.59,11.55 -20.619,13.51C-19.569,10.69 -16.619,8.13 -14.34,7.32C-15.64,6.82 -17.17,6.39 -18.819,6.03C-16.88,4.55 -12.109,3.43 -9.689,3.64C-10.13,3.51 -10.609,3.41 -11.13,3.34L-10.67,0.57C-10.939,-1.75 -13.04,-4.41 -15.54,-6.01C-16.779,-9.56 -15.569,-16.02 -13.859,-17.74C-14.72,-8.45 -1.6,-2.71 0.95,4.14C-0.489,-1.71 -6.56,-5.57 -9.399,-9.13C-10.3,-11.47 -9.43,-15.34 -8.34,-16.65C-8.84,-10.42 -2.26,-5.34 1.23,-1.74C5.351,2.49 6.44,6.16 5.771,9.11C6.69,9.39 7.94,10.33 7.681,11.85C9.04,11.58 10.471,10.07 10.83,9.12C11.36,13.78 8.48,18.59 5.391,19.96C5.391,19.96 6.28,17.78 4.931,16.04C3.61,14.33 -0.279,14.19 -1.6,14.24C-1.6,14.24 0.091,11.9 -0.52,10.67C-1.26,9.14 -8.899,9.57 -12.35,10.7C-11.18,10.61 -8.439,11 -7.5,11.43C-8.06,12.21 -9.56,15.52 -8.579,16.56C-7.75,17.45 -6.579,16.13 -6.43,15.96C-6.54,16.28 -7.689,19.62 -6.899,20.46C-6.079,21.34 -4.229,20.79 -4.229,20.79C-5.46,23.63 -9.949,25.48 -13.05,25.38C-11.93,25.07 -10.04,23.16 -9.729,21.98C-10.56,22.36 -12.68,22.53 -13.489,22.35C-12.479,21.97 -10.39,19.46 -10.92,16.54" style="fill:rgb(35,31,32);fill-rule:nonzero;"/>
        </g>
        <g transform="matrix(4.16667,0,0,4.16667,319.709,150.085)">
            <path d="M0,-3.36C0.51,-5.16 -2.99,-8.37 -4.311,-8.99C0.63,-9.04 3.06,-8.04 3.06,-8.04C1.83,-9.97 1.5,-12.89 2.31,-15.17C4.8,-8.64 14.39,-7.3 16.609,-1.87L16.149,0.9C12.359,0.41 6.77,1.54 3.95,4.67C4.93,4.7 7.46,5.25 8.439,5.6C4.17,6.24 -1.71,10 -3.471,11.81C-2.95,9.37 -2.2,7.32 -2.73,5.83C-3.48,3.73 -5.98,2.77 -11.03,3.66C-7.54,0.37 -0.53,-1.52 0,-3.36" style="fill:rgb(35,31,32);fill-rule:nonzero;"/>
        </g>
        <g transform="matrix(1.73818,3.7868,3.7868,-1.73818,211.33,221.95)">
            <path d="M-4.561,-0.128L-2.118,-0.128C-2.48,-1.468 1.794,-5.125 1.794,-5.125C-1.498,-7.454 -6.142,-2.087 -6.142,-2.087L-4.561,-0.128Z" style="fill:rgb(35,31,32);fill-rule:nonzero;"/>
        </g>
        <g transform="matrix(4.16667,0,0,4.16667,171.166,236.61)">
            <path d="M0,-8.53C0,-8.53 1.82,-9.84 2.78,-10.08L4.37,-8.67L3.55,-8.42C3.55,-8.42 2.021,-3.42 2.64,-1.35L3.64,1.55C3.64,1.55 0.38,0.9 -0.12,-0.35C-0.12,-0.35 -1.17,-5.98 0,-8.53" style="fill:rgb(35,31,32);fill-rule:nonzero;"/>
        </g>
        <g transform="matrix(4.16667,0,0,4.16667,163.5,252.441)">
            <path d="M0,-10.21C0,-10.21 0.21,-3.79 0.87,-3.22L3.29,-2.19L3.36,0C3.36,0 -0.96,-1.37 -1.32,-3.02C-1.68,-4.67 -1.96,-8.77 -1.96,-8.77C-1.96,-8.77 -1.24,-9.84 0,-10.21" style="fill:rgb(35,31,32);fill-rule:nonzero;"/>
        </g>
        <g transform="matrix(4.16667,0,0,4.16667,1055.64,147.528)">
            <path d="M0,-1.314C0.386,-1.314 0.386,-0.747 0,-0.747L-0.526,-0.747L-0.526,-1.314L0,-1.314ZM0.379,-0.318C1.281,-0.522 1.096,-1.901 0,-1.901L-1.182,-1.901L-1.182,0.58L-0.526,0.58L-0.526,-0.191L-0.296,-0.191L0.294,0.58L0.998,0.58L0.998,0.437L0.379,-0.318ZM-0.208,1.278C0.961,1.278 1.619,0.424 1.619,-0.66C1.619,-1.739 0.961,-2.593 -0.208,-2.593C-1.37,-2.593 -2.028,-1.739 -2.034,-0.66C-2.028,0.424 -1.37,1.278 -0.208,1.278M2.206,-0.66C2.206,0.662 1.338,1.777 -0.207,1.777C-1.747,1.777 -2.615,0.662 -2.615,-0.66C-2.615,-1.979 -1.747,-3.091 -0.207,-3.091C1.338,-3.091 2.206,-1.979 2.206,-0.66" style="fill:rgb(35,31,32);fill-rule:nonzero;"/>
        </g>
        <g transform="matrix(4.16667,0,0,4.16667,753.201,165.147)">
            <path d="M0,-6.764C-0.033,-7.022 -0.015,-7.287 0.061,-7.525L0.397,-8.572L0.819,-7.558C0.942,-7.263 1.201,-7.048 1.508,-6.852C1.481,-7.339 1.568,-7.88 1.742,-8.252C1.706,-9.037 2.249,-9.624 2.897,-9.624C4.006,-9.624 4.303,-8.282 3.788,-7.321C4.027,-6.961 4.391,-6.627 4.713,-6.337C4.828,-6.233 4.937,-6.135 5.033,-6.043C5.063,-6.012 5.079,-5.985 5.109,-5.955C5.591,-6.608 5.944,-7.518 5.944,-8.206C5.944,-9.632 5.017,-10.955 3.089,-11.059C1.866,-11.124 1.04,-10.747 0.425,-10.12C0.147,-9.835 -0.472,-9.117 -0.354,-7.817C-0.309,-7.327 -0.145,-6.985 0,-6.764M5.169,-0.168C4.728,0.579 3.804,1.544 2.864,1.544C1.131,1.544 0.262,-0.904 2.194,-2.912C2.085,-2.947 1.979,-2.952 1.942,-2.952C1.779,-2.952 1.619,-2.909 1.514,-2.837L0.659,-2.103L0.9,-3.298C0.915,-3.339 0.93,-3.379 0.947,-3.419C0.518,-3.201 0.102,-2.9 -0.058,-2.726L-0.832,-1.883L-0.754,-3.072L-0.701,-3.334C-0.661,-3.519 -0.613,-3.75 -0.642,-3.825C-0.652,-3.848 -0.67,-3.866 -0.692,-3.882C-1.051,-3.605 -2.027,-2.743 -2.142,-1.462C-2.142,-1.462 -1.952,-1.731 -1.786,-1.794C-1.677,-1.836 -1.582,-1.782 -1.686,-1.462C-1.726,-1.337 -2.676,1.232 -0.809,3.01C-0.809,3.01 -1.014,2.489 -0.89,2.329C-0.83,2.253 -0.752,2.246 -0.642,2.384C-0.563,2.491 -0.48,2.593 -0.389,2.693L-0.389,2.695L-0.388,2.694C-0.234,2.87 -0.064,3.036 0.121,3.179C0.679,3.569 1.438,3.884 2.301,3.884C4.6,3.884 5.819,2.309 6.499,0.976C6.468,0.938 6.445,0.899 6.403,0.862C6.055,0.556 5.551,0.138 5.169,-0.168M10.391,-4.723C8.673,-4.64 7.201,-3.184 6.439,-2.154C6.575,-2.108 6.712,-2.045 6.848,-1.937C7.007,-1.809 7.24,-1.619 7.491,-1.411C7.695,-1.861 8.154,-2.771 8.858,-3.578C9.501,-4.314 10.621,-4.385 11.208,-3.936C11.586,-4.279 12.89,-4.6 13.577,-4.405C13.16,-4.86 12.27,-5.47 11.288,-5.47C10.478,-5.47 10.02,-5.072 9.903,-5.251C9.754,-5.479 10.451,-5.818 10.451,-5.818C9.494,-5.778 8.799,-4.654 8.509,-4.792C8.336,-4.876 8.767,-5.42 8.767,-5.42C7.892,-4.912 7.159,-3.835 7.007,-3.18C7.812,-4.165 9.375,-4.872 10.391,-4.723M45.742,-0.021C45.682,-0.115 45.645,-0.197 45.645,-0.524L45.645,-2.675C45.645,-3 45.674,-3.061 45.736,-3.158C45.803,-3.265 45.92,-3.423 45.921,-3.424L45.961,-3.477L45.902,-3.508C45.895,-3.512 45.746,-3.59 45.58,-3.607L45.58,-3.604C45.536,-3.607 42.185,-3.607 42.185,-3.607L42.356,-3.502C42.356,-3.502 42.856,-3.198 43.08,-3.057C43.298,-2.92 43.41,-2.764 43.41,-2.289L43.41,-1.118C43.157,-1.038 42.898,-1.001 42.589,-1.001C41.221,-1.001 40.528,-1.741 40.528,-3.196C40.528,-4.584 41.287,-5.379 42.611,-5.379C43.441,-5.379 44.314,-5.19 45.376,-4.389L45.371,-4.446L45.127,-6.753L45.108,-6.923L44.943,-6.962L44.781,-7C44.071,-7.164 43.794,-7.207 43.373,-7.261C43.124,-7.291 42.988,-7.306 42.675,-7.306C42.675,-7.306 42.587,-7.307 42.541,-7.307C40.046,-7.307 38.233,-5.561 38.233,-3.155C38.233,-0.787 40.055,0.933 42.564,0.933C43.003,0.933 43.848,0.852 44.38,0.741C44.481,0.72 44.539,0.704 44.618,0.685C44.635,0.681 44.652,0.678 44.67,0.674C44.97,0.602 45.275,0.525 45.584,0.431L45.974,0.31L45.928,0.246C45.926,0.244 45.81,0.087 45.742,-0.021M64.075,-7.189L59.556,-7.189L59.726,-7.086C59.73,-7.083 60.162,-6.817 60.428,-6.643C60.669,-6.482 60.76,-6.373 60.76,-5.856L60.76,-3.925L57.424,-7.19L57.424,-7.189L54.771,-7.189L54.929,-7.087C54.933,-7.084 55.339,-6.819 55.573,-6.649C55.804,-6.48 55.914,-6.309 55.914,-5.791L55.914,-0.536C55.914,-0.021 55.821,0.088 55.59,0.231C55.336,0.387 54.84,0.674 54.834,0.676L54.654,0.781L59.184,0.781L59.003,0.676C58.998,0.673 58.495,0.384 58.252,0.231C58.025,0.088 57.926,-0.029 57.926,-0.536L57.926,-3.706L62.771,1.038L62.771,-5.856C62.771,-6.37 62.857,-6.475 63.103,-6.643C63.371,-6.825 63.864,-7.081 63.87,-7.084L64.075,-7.189ZM35.019,-2.506L34.3,-4.466L33.519,-2.506L35.019,-2.506ZM27.606,-4.916C27.606,-5.324 27.34,-5.597 26.572,-5.6L26.305,-5.598L26.305,-3.74C26.417,-3.738 26.529,-3.738 26.569,-3.738C27.075,-3.738 27.606,-3.85 27.606,-4.916M38.697,0.252L39.371,0.781L35.202,0.781C35.202,0.781 35.556,0.442 35.715,0.275C35.853,0.13 35.924,-0.014 35.821,-0.26C35.798,-0.32 35.75,-0.45 35.692,-0.615L32.803,-0.615C32.745,-0.456 32.698,-0.328 32.668,-0.26C32.551,0.026 32.577,0.107 32.74,0.261C32.917,0.432 33.352,0.78 33.352,0.78L28.979,0.781L26.973,-1.639L26.967,-1.645L26.964,-1.65C26.746,-1.949 26.581,-2.119 26.429,-2.199C26.409,-2.21 26.372,-2.223 26.305,-2.238L26.305,-0.537C26.305,-0.037 26.4,0.054 26.636,0.234C26.878,0.419 27.584,0.781 27.584,0.781L22.922,0.781C22.922,0.781 23.635,0.382 23.856,0.232C24.062,0.093 24.185,-0.029 24.185,-0.537L24.185,-5.846C24.185,-6.338 24.078,-6.491 23.853,-6.631C23.62,-6.776 23.149,-7.073 23.149,-7.073L22.984,-7.178C22.984,-7.178 26.568,-7.179 26.779,-7.179C27.508,-7.168 27.799,-7.146 28.204,-7.023C29.18,-6.742 29.785,-5.93 29.785,-4.905C29.785,-4.428 29.65,-3.985 29.397,-3.625C29.208,-3.344 28.954,-3.111 28.664,-2.948C29.498,-1.833 30.157,-1.003 30.563,-0.557C30.59,-0.604 32.977,-6.369 32.977,-6.369C32.985,-6.41 32.99,-6.447 32.99,-6.478C32.99,-6.519 32.99,-6.567 32.87,-6.676L32.306,-7.19L35.448,-7.19C35.448,-7.19 38.064,-0.555 38.083,-0.515L38.081,-0.515C38.154,-0.35 38.175,-0.317 38.25,-0.203C38.362,-0.037 38.401,0.02 38.697,0.252M52.764,-3.212C52.764,-4.517 51.937,-5.36 50.656,-5.36C49.427,-5.36 48.663,-4.517 48.663,-3.159C48.663,-1.847 49.472,-0.999 50.72,-0.999C51.922,-0.999 52.764,-1.91 52.764,-3.212M55.058,-3.212C55.058,-0.859 53.184,0.916 50.699,0.916C48.197,0.916 46.382,-0.798 46.382,-3.159C46.382,-5.557 48.187,-7.299 50.677,-7.299C53.175,-7.299 55.058,-5.542 55.058,-3.212M67.369,-4.327C67.261,-4.354 67.152,-4.38 67.046,-4.406L67.017,-4.412C66.258,-4.591 65.762,-4.733 65.762,-5.058C65.762,-5.168 65.794,-5.254 65.859,-5.318C65.993,-5.452 66.27,-5.527 66.642,-5.527C66.704,-5.527 66.769,-5.524 66.832,-5.519L66.857,-5.519C66.87,-5.517 66.882,-5.515 66.895,-5.514C67.581,-5.454 68.4,-5.156 69.239,-4.598L69.107,-6.951L68.953,-7.003L68.925,-7.013C68.913,-7.017 68.824,-7.047 68.564,-7.104C68.406,-7.139 67.595,-7.314 67.11,-7.349C66.952,-7.361 66.796,-7.366 66.649,-7.366C64.873,-7.366 63.835,-6.524 63.723,-4.994C63.667,-4.229 64.044,-3.482 64.679,-3.094C65.247,-2.749 66.096,-2.489 66.715,-2.298L66.857,-2.255C67.245,-2.136 67.691,-1.896 67.63,-1.432C67.597,-1.19 67.503,-0.93 66.774,-0.93C66.669,-0.93 66.554,-0.935 66.426,-0.947C65.924,-0.991 65.337,-1.278 64.686,-1.797C64.66,-1.819 64.639,-1.836 64.624,-1.845L64.222,-2.15L63.807,-2.464L63.972,0.52L64.126,0.571L64.156,0.582C64.162,0.583 64.248,0.611 64.518,0.671C64.786,0.731 65.667,0.884 66.116,0.916C66.26,0.927 66.408,0.933 66.556,0.933C68.495,0.933 69.774,-0.032 69.812,-1.526C69.849,-2.964 69.026,-3.907 67.369,-4.327M21.096,-3.202C21.096,-4.508 20.422,-5.258 19.248,-5.258L18.352,-5.258L18.352,-1.156L19.248,-1.156C20.422,-1.156 21.096,-1.903 21.096,-3.202M23.414,-3.223C23.414,-2.296 23.111,-1.384 22.582,-0.725C22.349,-0.432 22.062,-0.169 21.726,0.057C20.935,0.585 20.206,0.781 19.038,0.781L14.871,0.781L15.048,0.678C15.049,0.676 15.564,0.375 15.803,0.23C16.034,0.091 16.13,-0.045 16.13,-0.538L16.13,-5.138C16.13,-5.643 15.99,-5.784 15.792,-5.926C14.764,-6.676 14.678,-7.537 14.675,-7.573L14.665,-7.688L14.761,-7.624C14.764,-7.622 15.107,-7.402 15.485,-7.315C15.924,-7.214 16.527,-7.197 17.794,-7.197L19.397,-7.197L19.397,-7.19C20.196,-7.158 20.782,-7.012 21.357,-6.711C22.645,-6.036 23.414,-4.733 23.414,-3.223M-35.937,0.317C-35.938,0.315 -36.055,0.156 -36.123,0.049C-36.183,-0.045 -36.219,-0.125 -36.219,-0.453L-36.22,-2.604C-36.22,-2.929 -36.19,-2.99 -36.129,-3.087C-36.061,-3.194 -35.945,-3.353 -35.944,-3.354L-35.905,-3.406L-35.963,-3.437C-35.969,-3.441 -36.118,-3.519 -36.284,-3.536L-36.284,-3.534C-36.328,-3.536 -39.679,-3.536 -39.679,-3.536L-39.508,-3.432C-39.508,-3.432 -39.009,-3.126 -38.785,-2.988C-38.566,-2.85 -38.454,-2.692 -38.454,-2.219L-38.454,-1.048C-38.707,-0.968 -38.967,-0.932 -39.277,-0.932C-40.643,-0.932 -41.337,-1.669 -41.337,-3.126C-41.337,-4.513 -40.577,-5.31 -39.253,-5.31C-38.424,-5.31 -37.552,-5.118 -36.489,-4.318L-36.494,-4.375L-36.738,-6.682L-36.755,-6.853L-36.922,-6.892L-37.083,-6.929C-37.793,-7.093 -38.07,-7.137 -38.493,-7.19C-38.741,-7.22 -38.876,-7.236 -39.189,-7.236C-39.189,-7.236 -39.278,-7.237 -39.323,-7.237C-41.819,-7.237 -43.631,-5.49 -43.631,-3.085C-43.631,-0.717 -41.81,1.003 -39.3,1.003C-38.862,1.003 -38.016,0.922 -37.484,0.812C-37.383,0.79 -37.326,0.775 -37.246,0.758C-37.23,0.753 -37.212,0.749 -37.194,0.745C-36.893,0.674 -36.589,0.597 -36.28,0.502L-35.89,0.381L-35.937,0.317ZM-10.752,-7.189L-15.27,-7.189L-15.101,-7.086C-15.096,-7.082 -14.664,-6.817 -14.4,-6.642C-14.158,-6.482 -14.067,-6.373 -14.067,-5.856L-14.067,-3.924L-17.402,-7.189L-20.056,-7.189L-19.897,-7.086C-19.893,-7.084 -19.487,-6.819 -19.253,-6.649C-19.021,-6.48 -18.912,-6.309 -18.912,-5.791L-18.912,-0.536C-18.912,-0.021 -19.005,0.088 -19.237,0.231C-19.492,0.387 -19.986,0.674 -19.991,0.676L-20.174,0.781L-15.641,0.781L-15.824,0.676C-15.829,0.674 -16.331,0.384 -16.574,0.231C-16.802,0.088 -16.901,-0.029 -16.901,-0.536L-16.901,-3.706L-12.056,1.039L-12.056,-5.856C-12.056,-6.369 -11.971,-6.475 -11.724,-6.643C-11.456,-6.825 -10.963,-7.081 -10.957,-7.084L-10.752,-7.189ZM-17.402,-7.19L-17.402,-7.189L-17.402,-7.19ZM-43.067,-7.189L-47.585,-7.189L-47.415,-7.086C-47.411,-7.082 -46.978,-6.817 -46.714,-6.642C-46.472,-6.482 -46.381,-6.373 -46.381,-5.856L-46.381,-3.924L-49.717,-7.19L-49.716,-7.189L-54.961,-7.19C-55.117,-7.19 -55.282,-7.094 -55.29,-7.09L-55.343,-7.059L-55.306,-7.008C-55.305,-7.007 -55.189,-6.849 -55.122,-6.742C-55.07,-6.661 -55.042,-6.605 -55.033,-6.392C-55.033,-6.392 -55.034,-2.337 -55.034,-2.329L-55.034,-2.32L-55.032,-2.289C-55.045,-1.432 -55.426,-0.997 -56.232,-0.997C-57.051,-0.997 -57.467,-1.447 -57.467,-2.329L-57.469,-6.392C-57.462,-6.605 -57.432,-6.661 -57.381,-6.742C-57.313,-6.849 -57.197,-7.007 -57.195,-7.008L-57.158,-7.059L-57.212,-7.09C-57.22,-7.094 -57.386,-7.19 -57.542,-7.19L-60.896,-7.189L-60.725,-7.086C-60.721,-7.083 -60.289,-6.819 -60.021,-6.642C-59.78,-6.483 -59.689,-6.374 -59.689,-5.856L-59.689,-2.567C-59.689,-1.843 -59.602,-1.26 -59.439,-0.883C-59.321,-0.614 -59.137,-0.356 -58.874,-0.093C-58.189,0.582 -57.326,0.909 -56.235,0.909C-54.72,0.909 -53.533,0.224 -53.059,-0.919C-52.875,-1.363 -52.814,-1.762 -52.814,-2.503L-52.814,-5.856C-52.814,-6.374 -52.722,-6.483 -52.481,-6.642C-52.337,-6.737 -52.147,-6.856 -52.001,-6.947C-51.866,-6.857 -51.692,-6.74 -51.568,-6.649C-51.336,-6.48 -51.226,-6.309 -51.226,-5.791L-51.226,-0.536C-51.226,-0.021 -51.319,0.088 -51.552,0.231C-51.806,0.387 -52.302,0.674 -52.305,0.676L-52.487,0.781L-47.955,0.781L-48.138,0.676C-48.143,0.674 -48.646,0.384 -48.889,0.231C-49.115,0.088 -49.215,-0.029 -49.215,-0.536L-49.215,-3.706L-44.371,1.039L-44.371,-5.856C-44.371,-6.37 -44.284,-6.475 -44.038,-6.643C-43.77,-6.825 -43.277,-7.081 -43.271,-7.084L-43.067,-7.189ZM-30.657,-1.155L-32.465,-1.155L-32.465,-2.322C-32.465,-2.322 -30.818,-2.323 -30.772,-2.323C-30.551,-2.326 -30.311,-2.331 -30.174,-2.263C-30.015,-2.187 -29.904,-2.023 -29.902,-2.022L-29.822,-1.901L-29.825,-4.455L-29.892,-4.415C-29.894,-4.414 -30.001,-4.348 -30.093,-4.308C-30.174,-4.275 -30.229,-4.259 -30.592,-4.259L-32.465,-4.259L-32.465,-5.254L-30.589,-5.254C-30.107,-5.254 -30.002,-5.211 -29.727,-5.017L-29.263,-4.662L-29.508,-7.189L-35.889,-7.189L-35.719,-7.086C-35.715,-7.082 -35.282,-6.817 -35.019,-6.642C-34.778,-6.481 -34.686,-6.371 -34.686,-5.856L-34.686,-0.537C-34.686,-0.014 -34.766,0.079 -35.011,0.231C-35.255,0.382 -35.758,0.674 -35.762,0.676L-35.944,0.781L-29.328,0.781L-28.736,-1.88C-28.736,-1.88 -29.269,-1.495 -29.421,-1.401C-29.716,-1.22 -29.946,-1.155 -30.657,-1.155M-7.458,-4.327C-7.565,-4.354 -7.674,-4.38 -7.781,-4.406L-7.811,-4.412C-8.568,-4.591 -9.064,-4.733 -9.064,-5.058C-9.064,-5.168 -9.034,-5.254 -8.967,-5.317C-8.834,-5.452 -8.555,-5.527 -8.184,-5.527C-8.122,-5.527 -8.058,-5.524 -7.994,-5.519C-7.986,-5.519 -7.978,-5.519 -7.971,-5.518C-7.957,-5.517 -7.944,-5.515 -7.932,-5.514C-7.246,-5.454 -6.428,-5.156 -5.589,-4.598L-5.719,-6.951L-5.873,-7.003L-5.902,-7.012C-5.914,-7.017 -6.003,-7.047 -6.265,-7.104C-6.422,-7.139 -7.232,-7.314 -7.718,-7.348C-7.875,-7.36 -8.031,-7.366 -8.178,-7.366C-9.953,-7.366 -10.993,-6.524 -11.104,-4.994C-11.16,-4.229 -10.784,-3.482 -10.146,-3.094C-9.578,-2.749 -8.731,-2.488 -8.111,-2.298L-7.969,-2.255C-7.583,-2.136 -7.136,-1.896 -7.197,-1.432C-7.228,-1.19 -7.324,-0.93 -8.052,-0.93C-8.157,-0.93 -8.273,-0.935 -8.4,-0.947C-8.904,-0.991 -9.491,-1.278 -10.141,-1.797C-10.167,-1.818 -10.188,-1.836 -10.203,-1.845L-10.606,-2.15L-11.02,-2.464L-10.855,0.52L-10.698,0.571L-10.671,0.582C-10.665,0.583 -10.58,0.611 -10.309,0.672C-10.041,0.731 -9.16,0.884 -8.712,0.916C-8.567,0.927 -8.418,0.933 -8.272,0.933C-6.331,0.933 -5.053,-0.032 -5.015,-1.526C-4.979,-2.964 -5.801,-3.907 -7.458,-4.327M-62.778,-3.202C-62.778,-4.508 -63.451,-5.258 -64.625,-5.258L-65.521,-5.258L-65.521,-1.156L-64.625,-1.156C-63.451,-1.156 -62.778,-1.903 -62.778,-3.202M-60.461,-3.223C-60.461,-2.296 -60.764,-1.384 -61.292,-0.725C-61.525,-0.432 -61.812,-0.169 -62.148,0.057C-62.939,0.585 -63.667,0.781 -64.836,0.781L-69.004,0.781L-68.826,0.678C-68.826,0.676 -68.31,0.375 -68.07,0.23C-67.839,0.091 -67.744,-0.045 -67.744,-0.538L-67.744,-5.138C-67.744,-5.643 -67.883,-5.784 -68.081,-5.926C-69.109,-6.676 -69.197,-7.537 -69.199,-7.573L-69.209,-7.688L-69.113,-7.624C-69.109,-7.622 -68.767,-7.402 -68.389,-7.315C-67.949,-7.214 -67.347,-7.197 -66.079,-7.197L-64.477,-7.197L-64.477,-7.19C-63.678,-7.158 -63.092,-7.012 -62.517,-6.711C-61.23,-6.036 -60.461,-4.733 -60.461,-3.223M-22.063,-3.219C-22.063,-4.524 -22.89,-5.368 -24.17,-5.368C-25.398,-5.368 -26.161,-4.524 -26.161,-3.165C-26.161,-1.854 -25.355,-1.006 -24.107,-1.006C-22.904,-1.006 -22.063,-1.916 -22.063,-3.219M-19.768,-3.219C-19.768,-0.865 -21.643,0.91 -24.128,0.91C-26.63,0.91 -28.445,-0.804 -28.445,-3.165C-28.445,-5.564 -26.639,-7.304 -24.15,-7.304C-21.652,-7.304 -19.768,-5.548 -19.768,-3.219M4.854,-4.019L4.779,-4.263C4.771,-4.289 4.582,-4.885 3.945,-5.119L3.597,-5.248L3.698,-4.891C3.785,-4.585 3.946,-4.019 4.599,-4.019L4.854,-4.019ZM0.13,-5.475C0.205,-5.77 -0.379,-6.273 -0.596,-6.367C0.205,-6.399 0.604,-6.249 0.604,-6.249C0.395,-6.557 0.327,-7.029 0.446,-7.402C0.883,-6.355 2.444,-6.187 2.831,-5.317C2.776,-5.693 2.422,-6.113 2.011,-6.359C1.79,-6.93 1.955,-7.982 2.224,-8.271C2.13,-6.759 4.287,-5.894 4.736,-4.796C4.473,-5.737 3.467,-6.332 2.989,-6.897C2.832,-7.27 2.954,-7.904 3.124,-8.12C3.073,-7.108 4.166,-6.318 4.751,-5.752C5.438,-5.085 5.634,-4.496 5.541,-4.014C5.691,-3.974 5.899,-3.828 5.864,-3.58C6.084,-3.631 6.308,-3.884 6.361,-4.038C6.469,-3.287 6.027,-2.491 5.533,-2.254C5.533,-2.254 5.667,-2.613 5.44,-2.887C5.217,-3.158 4.586,-3.162 4.371,-3.145C4.371,-3.145 4.634,-3.534 4.529,-3.731C4.401,-3.974 3.164,-3.868 2.611,-3.667C2.799,-3.687 3.246,-3.637 3.401,-3.572C3.314,-3.443 3.087,-2.898 3.251,-2.735C3.401,-2.586 3.598,-2.846 3.598,-2.846C3.598,-2.846 3.405,-2.249 3.542,-2.111C3.681,-1.974 3.977,-2.071 3.977,-2.071C3.793,-1.605 3.073,-1.282 2.572,-1.282C2.751,-1.339 3.047,-1.66 3.092,-1.85C2.96,-1.785 2.617,-1.747 2.484,-1.771C2.647,-1.837 2.973,-2.258 2.87,-2.727C2.723,-3.414 1.764,-3.501 1.284,-3.169C1.439,-3.631 1.905,-4.063 2.271,-4.204C2.058,-4.279 1.807,-4.342 1.538,-4.39C1.844,-4.641 2.614,-4.846 3.006,-4.824C2.408,-4.979 1.313,-4.787 0.812,-4.194C0.971,-4.194 1.385,-4.116 1.545,-4.066C0.856,-3.941 -0.079,-3.301 -0.356,-2.999C-0.283,-3.397 -0.171,-3.733 -0.266,-3.973C-0.398,-4.308 -0.807,-4.451 -1.623,-4.283C-1.072,-4.833 0.054,-5.175 0.13,-5.475M13.048,1.14C13.048,2.278 11.916,3.166 10.634,2.985C10.961,3.29 11.753,3.497 12.175,3.306C11.934,3.742 10.774,4.36 9.68,4.07C8.656,3.797 8.206,2.818 8.18,2.196C7.696,2.68 7.827,3.469 8.172,3.781C7.772,3.677 7.17,3.262 7.068,2.517C6.982,1.877 7.338,1.146 6.67,0.558C6.271,0.207 5.664,-0.295 5.271,-0.604C4.447,-1.249 4.759,-1.723 4.574,-2.064C4.432,-2.327 4.086,-2.475 3.879,-2.715C3.67,-2.957 3.678,-3.316 3.795,-3.522C3.76,-3.234 3.966,-3.019 4.24,-2.928C4.544,-2.828 4.8,-2.911 5.059,-2.76C5.371,-2.58 5.226,-2.093 5.452,-1.92C5.655,-1.767 6.161,-1.97 6.593,-1.622C7.027,-1.274 7.999,-0.465 8.418,-0.12C9.171,0.5 9.948,-0.207 9.69,-0.917C10.455,-0.464 10.539,0.803 9.903,1.245C10.502,1.381 11.583,1.113 11.583,0.245C11.583,-0.286 11.093,-0.661 10.743,-0.72C11.972,-0.835 13.048,0.027 13.048,1.14" style="fill:rgb(35,31,32);fill-rule:nonzero;"/>
        </g>
    </g>
</svg>
