<?xml version="1.0" encoding="UTF-8" standalone="no"?>
<!DOCTYPE svg PUBLIC "-//W3C//DTD SVG 1.1//EN" "http://www.w3.org/Graphics/SVG/1.1/DTD/svg11.dtd">
<svg width="100%" height="100%" viewBox="0 0 688 258" version="1.1" xmlns="http://www.w3.org/2000/svg" xmlns:xlink="http://www.w3.org/1999/xlink" xml:space="preserve" xmlns:serif="http://www.serif.com/" style="fill-rule:evenodd;clip-rule:evenodd;stroke-linejoin:round;stroke-miterlimit:2;">
    <g transform="matrix(1,0,0,1,-931.373,-803.726)">
        <g transform="matrix(4.16667,0,0,4.16667,1598,1059.3)">
            <path d="M0,-60.837L-155.036,-60.837C-155.036,-58.299 -159.489,-56.917 -159.489,-56.917L-159.489,0L-156.91,0C-156.91,0 -154.799,-3.95 -148.004,0L-7.034,0C-0.239,-3.95 1.872,0 1.872,0L4.451,0L4.451,-56.917C4.451,-56.917 0,-58.299 0,-60.837" style="fill:white;fill-rule:nonzero;"/>
        </g>
        <g transform="matrix(4.16667,0,0,4.16667,1617.16,1044.95)">
            <path d="M0,-53.953C-1.141,-54.307 -4.1,-55.615 -4.1,-57.395L-4.1,-57.895L-160.136,-57.895L-160.136,-57.395C-160.136,-55.62 -163.097,-54.308 -164.237,-53.953L-164.589,-53.844L-164.589,3.942L-161.214,3.938L-161.07,3.681C-161.041,3.625 -160.368,2.476 -158.586,2.237C-158.417,2.46 -158.162,2.615 -157.86,2.615C-157.568,2.615 -157.319,2.471 -157.149,2.26C-155.882,2.422 -154.447,2.948 -152.854,3.874L-152.738,3.942L-11.499,3.942L-11.383,3.874C-9.79,2.948 -8.355,2.422 -7.088,2.26C-6.919,2.471 -6.669,2.615 -6.378,2.615C-6.076,2.615 -5.82,2.46 -5.651,2.237C-3.869,2.476 -3.197,3.625 -3.169,3.677L-3.027,3.942L0.352,3.942L0.352,-53.844L0,-53.953ZM-1.617,-48.824C-1.084,-47.893 -0.756,-47.195 -0.648,-46.96L-0.648,-9.351C-1.292,-13.962 -1.617,-18.127 -1.617,-21.776L-1.617,-48.824ZM-5.052,-56.895C-4.642,-54.756 -1.686,-53.498 -0.648,-53.119L-0.648,-49.168C-1.915,-51.438 -4.397,-55.132 -7.896,-56.895L-5.052,-56.895ZM-159.183,-56.895L-156.342,-56.895C-159.84,-55.132 -162.322,-51.438 -163.589,-49.168L-163.589,-53.119C-162.552,-53.498 -159.594,-54.756 -159.183,-56.895M-163.589,-46.96C-163.481,-47.196 -163.153,-47.894 -162.62,-48.826L-162.62,-21.776C-162.62,-18.127 -162.945,-13.962 -163.589,-9.351L-163.589,-46.96ZM-2.459,2.942C-2.818,2.453 -3.773,1.45 -5.592,1.233C-5.753,0.959 -6.037,0.766 -6.378,0.766C-6.732,0.766 -7.029,0.972 -7.185,1.264C-8.563,1.436 -10.095,1.984 -11.768,2.942L-152.47,2.942C-154.143,1.984 -155.674,1.436 -157.053,1.264C-157.208,0.972 -157.506,0.766 -157.86,0.766C-158.2,0.766 -158.485,0.959 -158.645,1.233C-160.464,1.45 -161.419,2.453 -161.778,2.942L-163.589,2.942L-163.589,-6.054C-162.617,-11.982 -162.12,-17.27 -162.12,-21.776L-162.12,-49.666C-160.28,-52.633 -156.847,-56.895 -152.307,-56.895L-11.931,-56.895C-7.394,-56.895 -3.958,-52.63 -2.117,-49.663L-2.117,-21.776C-2.117,-17.27 -1.62,-11.982 -0.648,-6.054L-0.648,2.942L-2.459,2.942Z" style="fill:rgb(35,31,32);fill-rule:nonzero;"/>
        </g>
    </g>
</svg>
