<?xml version="1.0" encoding="UTF-8" standalone="no"?>
<!DOCTYPE svg PUBLIC "-//W3C//DTD SVG 1.1//EN" "http://www.w3.org/Graphics/SVG/1.1/DTD/svg11.dtd">
<svg width="100%" height="100%" viewBox="0 0 688 208" version="1.1" xmlns="http://www.w3.org/2000/svg" xmlns:xlink="http://www.w3.org/1999/xlink" xml:space="preserve" xmlns:serif="http://www.serif.com/" style="fill-rule:evenodd;clip-rule:evenodd;stroke-linejoin:round;stroke-miterlimit:2;">
    <g transform="matrix(1,0,0,1,-931.373,-1073.86)">
        <g transform="matrix(4.16667,0,0,4.16667,952.005,1075.95)">
            <path d="M0,48.881L155.036,48.881C155.036,46.343 159.489,44.961 159.489,44.961L159.489,0L156.91,0C156.91,0 154.799,3.95 148.004,0L7.034,0C0.239,3.95 -1.872,0 -1.872,0L-4.451,0L-4.451,44.961C-4.451,44.961 0,46.343 0,48.881" style="fill:white;fill-rule:nonzero;"/>
        </g>
        <g transform="matrix(4.16667,0,0,4.16667,932.84,1090.29)">
            <path d="M0,41.997C1.141,42.351 4.1,43.659 4.1,45.439L4.1,45.939L160.136,45.939L160.136,45.439C160.136,43.664 163.097,42.352 164.237,41.997L164.589,41.888L164.589,-3.942L161.214,-3.938L161.07,-3.681C161.041,-3.625 160.368,-2.476 158.586,-2.237C158.417,-2.46 158.162,-2.615 157.86,-2.615C157.568,-2.615 157.319,-2.471 157.149,-2.26C155.882,-2.422 154.447,-2.948 152.854,-3.874L152.738,-3.942L11.499,-3.942L11.383,-3.874C9.79,-2.948 8.355,-2.422 7.088,-2.26C6.919,-2.471 6.669,-2.615 6.378,-2.615C6.076,-2.615 5.82,-2.46 5.651,-2.237C3.869,-2.476 3.197,-3.625 3.169,-3.677L3.027,-3.942L-0.352,-3.942L-0.352,41.888L0,41.997ZM1.617,36.868C1.084,35.937 0.756,35.239 0.648,35.004L0.648,9.351C1.292,13.962 1.617,18.127 1.617,21.776L1.617,36.868ZM5.052,44.939C4.642,42.8 1.686,41.542 0.648,41.163L0.648,37.212C1.915,39.482 4.397,43.176 7.896,44.939L5.052,44.939ZM159.183,44.939L156.342,44.939C159.84,43.176 162.322,39.482 163.589,37.212L163.589,41.163C162.552,41.542 159.594,42.8 159.183,44.939M163.589,35.004C163.481,35.24 163.153,35.938 162.62,36.87L162.62,21.776C162.62,18.127 162.945,13.962 163.589,9.351L163.589,35.004ZM2.459,-2.942C2.818,-2.452 3.773,-1.45 5.592,-1.233C5.753,-0.959 6.037,-0.766 6.378,-0.766C6.732,-0.766 7.029,-0.972 7.185,-1.264C8.563,-1.436 10.095,-1.984 11.768,-2.942L152.47,-2.942C154.143,-1.984 155.674,-1.436 157.053,-1.264C157.208,-0.972 157.506,-0.766 157.86,-0.766C158.2,-0.766 158.485,-0.959 158.645,-1.233C160.464,-1.45 161.419,-2.452 161.778,-2.942L163.589,-2.942L163.589,6.054C162.617,11.982 162.12,17.27 162.12,21.776L162.12,37.71C160.28,40.677 156.847,44.939 152.307,44.939L11.931,44.939C7.394,44.939 3.958,40.674 2.117,37.707L2.117,21.776C2.117,17.27 1.62,11.982 0.648,6.054L0.648,-2.942L2.459,-2.942Z" style="fill:rgb(35,31,32);fill-rule:nonzero;"/>
        </g>
    </g>
</svg>
