<?xml version="1.0" encoding="UTF-8" standalone="no"?>
<!DOCTYPE svg PUBLIC "-//W3C//DTD SVG 1.1//EN" "http://www.w3.org/Graphics/SVG/1.1/DTD/svg11.dtd">
<svg width="100%" height="100%" viewBox="0 0 472 118" version="1.1" xmlns="http://www.w3.org/2000/svg" xmlns:xlink="http://www.w3.org/1999/xlink" xml:space="preserve" xmlns:serif="http://www.serif.com/" style="fill-rule:evenodd;clip-rule:evenodd;stroke-linejoin:round;stroke-miterlimit:2;">
    <g transform="matrix(1,0,0,1,-388.829,-523.202)">
        <g transform="matrix(4.16667,0,0,4.16667,859.904,608.514)">
            <path d="M0,-12.811L-0.395,-12.997C-1.857,-13.684 -3.669,-16.338 -4.243,-17.302L-4.443,-17.638L-84.919,-17.638L-84.919,-20.475L-91.793,-20.475L-92.056,-20.145C-92.498,-19.59 -93.041,-19.153 -93.643,-18.842C-95.131,-19.483 -96.701,-19.844 -98.287,-19.927C-98.412,-20.192 -98.676,-20.379 -98.989,-20.379C-99.301,-20.379 -99.566,-20.192 -99.69,-19.927C-101.276,-19.844 -102.845,-19.483 -104.333,-18.842C-104.936,-19.153 -105.479,-19.59 -105.92,-20.145L-106.183,-20.475L-113.058,-20.475L-113.058,7.664L-106.183,7.664L-105.92,7.334C-105.479,6.78 -104.937,6.342 -104.335,6.032C-102.85,6.675 -101.293,7.041 -99.686,7.123C-99.56,7.384 -99.298,7.568 -98.989,7.568C-98.68,7.568 -98.417,7.384 -98.292,7.123C-96.684,7.041 -95.126,6.675 -93.641,6.032C-93.04,6.342 -92.497,6.78 -92.056,7.334L-91.793,7.664L-84.919,7.664L-84.919,4.827L-4.441,4.827L-4.241,4.491C-3.667,3.526 -1.856,0.873 -0.394,0.185L0.002,0L0,-12.811ZM-6.846,1.288L-82.915,1.288L-82.915,-14.099L-6.844,-14.099C-4.526,-12.792 -2.197,-11.017 -1.374,-8.878L-1.374,-3.936C-2.196,-1.796 -4.526,-0.02 -6.846,1.288M-84.919,-14.099L-83.664,-14.099L-83.664,1.288L-84.919,1.288L-84.919,-14.099ZM-1.375,-11.966L-1.375,-10.483C-3.187,-13.177 -6.923,-15.149 -9.513,-16.263L-5.217,-16.263C-4.651,-15.374 -3.033,-12.983 -1.375,-11.966M-11.549,-16.263C-10.767,-15.972 -9.574,-15.495 -8.265,-14.849L-84.919,-14.849L-84.919,-16.263L-11.549,-16.263ZM-99.632,-19.188C-99.495,-18.972 -99.264,-18.822 -98.989,-18.822C-98.713,-18.822 -98.483,-18.972 -98.344,-19.188C-97.097,-19.125 -95.862,-18.881 -94.674,-18.454C-95.039,-18.364 -95.415,-18.315 -95.796,-18.315L-102.18,-18.315C-102.563,-18.315 -102.938,-18.364 -103.301,-18.454C-102.115,-18.881 -100.879,-19.125 -99.632,-19.188M-98.345,6.376C-98.484,6.162 -98.714,6.01 -98.989,6.01C-99.264,6.01 -99.494,6.162 -99.631,6.376C-100.879,6.314 -102.115,6.07 -103.301,5.642C-102.938,5.552 -102.563,5.503 -102.18,5.503L-95.796,5.503C-95.415,5.503 -95.039,5.552 -94.674,5.642C-95.862,6.07 -97.098,6.314 -98.345,6.376M-90.967,5.914C-92.214,4.536 -93.952,3.753 -95.796,3.753L-102.18,3.753C-104.025,3.753 -105.762,4.536 -107.009,5.914L-108.173,5.914C-108.173,5.914 -111.308,5.881 -111.308,1.663L-111.308,-14.474C-111.308,-18.693 -108.173,-18.725 -108.173,-18.725L-107.009,-18.725C-105.762,-17.347 -104.025,-16.565 -102.18,-16.565L-95.796,-16.565C-93.952,-16.565 -92.214,-17.347 -90.967,-18.725L-89.804,-18.725C-89.804,-18.725 -86.669,-18.693 -86.669,-14.474L-86.669,1.663C-86.669,5.881 -89.804,5.914 -89.804,5.914L-90.967,5.914ZM-84.919,2.038L-8.267,2.038C-9.575,2.683 -10.768,3.161 -11.549,3.452L-84.919,3.452L-84.919,2.038ZM-5.215,3.452L-9.513,3.452C-6.922,2.337 -3.185,0.365 -1.373,-2.331L-1.373,-0.845C-3.032,0.171 -4.649,2.562 -5.215,3.452" style="fill:rgb(33,29,31);fill-rule:nonzero;"/>
        </g>
    </g>
</svg>
