<?xml version="1.0" encoding="UTF-8" standalone="no"?>
<!DOCTYPE svg PUBLIC "-//W3C//DTD SVG 1.1//EN" "http://www.w3.org/Graphics/SVG/1.1/DTD/svg11.dtd">
<svg width="100%" height="100%" viewBox="0 0 222 259" version="1.1" xmlns="http://www.w3.org/2000/svg" xmlns:xlink="http://www.w3.org/1999/xlink" xml:space="preserve" xmlns:serif="http://www.serif.com/" style="fill-rule:evenodd;clip-rule:evenodd;stroke-linejoin:round;stroke-miterlimit:2;">
    <g transform="matrix(1,0,0,1,-127.342,-1484.65)">
        <ellipse cx="238.283" cy="1700.34" rx="56.075" ry="39.538" style="fill:white;"/>
        <g transform="matrix(4.16667,0,0,4.16667,130.503,1634.04)">
            <path d="M0,-15.384C0,-15.384 2.231,-4.134 1.5,6.116C1.5,6.116 -1.625,9.241 1.75,14.303L1.47,19.775L50.265,19.775L49.984,14.303C53.359,9.241 50.234,6.116 50.234,6.116C49.503,-4.134 51.734,-15.384 51.734,-15.384L50.297,-16.446C50.609,-17.009 51.395,-20.475 51.395,-20.475L50.443,-32.02C47.59,-30.843 45.75,-35.159 45.75,-35.159L5.984,-35.159C5.984,-35.159 4.145,-30.843 1.291,-32.02L0.34,-20.475C0.34,-20.475 1.125,-17.009 1.437,-16.446L0,-15.384Z" style="fill:white;fill-rule:nonzero;"/>
        </g>
        <g transform="matrix(-4.16667,0,0,4.16667,238.283,1734.67)">
            <path d="M0,-16.478C-6.731,-16.478 -12.208,-12.783 -12.208,-8.24C-12.208,-3.697 -6.731,0 0,0C6.731,0 12.208,-3.697 12.208,-8.24C12.208,-12.783 6.731,-16.478 0,-16.478" style="fill:white;fill-rule:nonzero;"/>
        </g>
        <g transform="matrix(4.16667,0,0,4.16667,238.283,1671.22)">
            <path d="M0,13.978C-5.939,13.978 -10.958,10.777 -10.958,6.989C-10.958,3.201 -5.939,-0 0,-0C5.939,-0 10.958,3.201 10.958,6.989C10.958,10.777 5.939,13.978 0,13.978M0,16.478C7.434,16.478 13.458,12.229 13.458,6.989C13.458,1.749 7.434,-2.5 0,-2.5C-7.433,-2.5 -13.458,1.749 -13.458,6.989C-13.458,12.229 -7.433,16.478 0,16.478" style="fill:rgb(220,221,222);fill-rule:nonzero;"/>
        </g>
        <g transform="matrix(4.16667,0,0,4.16667,290.83,1507.88)">
            <path d="M0,50.805L1.489,50.805C0.342,51.758 0.091,52.893 0.091,52.893C0.501,52.928 1.204,53.287 1.204,53.287C0.618,51.919 2.242,50.805 2.242,50.805L3.875,49.514L2.354,49.514C2.699,48.495 2.877,47.584 2.934,46.78C3.474,47.516 4.627,48.624 6.357,47.96C5.965,48.073 4.355,48.307 2.909,45.274L2.904,45.289C2.615,42.884 1.248,41.792 1.248,41.792C2.667,44.582 2.34,47.059 1.878,48.555C1.869,48.567 1.581,48.965 1,48.975C1.352,48.088 1.551,47.157 1.551,46.19C1.551,40.571 -4.803,35.998 -12.61,35.998C-20.42,35.998 -26.772,40.571 -26.772,46.19C-26.772,47.157 -26.572,48.088 -26.223,48.975C-26.803,48.965 -27.091,48.567 -27.099,48.555C-27.561,47.059 -27.889,44.582 -26.469,41.792C-26.469,41.792 -27.838,42.884 -28.126,45.289L-28.131,45.274C-29.577,48.307 -31.186,48.073 -31.579,47.96C-29.85,48.624 -28.695,47.516 -28.154,46.78C-28.098,47.584 -27.92,48.495 -27.575,49.514L-29.097,49.514L-27.476,50.795L-27.487,50.805C-27.487,50.805 -25.863,51.919 -26.449,53.287C-26.449,53.287 -25.746,52.928 -25.336,52.893C-25.336,52.893 -25.587,51.758 -26.734,50.805L-25.222,50.805C-24.667,51.586 -23.977,52.307 -23.172,52.956C-26.992,53.339 -29.031,55.399 -29.031,55.399C-25.629,54.461 -24.104,55.399 -24.104,55.399C-24.26,54.618 -25.121,54.461 -25.121,54.461C-25.043,53.367 -22.419,54.084 -22.419,54.084L-22.415,54.078C-21.61,54.277 -20.524,54.711 -19.883,55.678L-14.695,56.272L-14.736,56.254C-14.041,56.33 -13.335,56.382 -12.61,56.382C-11.887,56.382 -11.18,56.33 -10.484,56.254L-10.527,56.272L-5.339,55.678C-4.703,54.72 -3.631,54.285 -2.826,54.084C-2.826,54.084 -0.202,53.367 -0.124,54.461C-0.124,54.461 -0.985,54.618 -1.142,55.399C-1.142,55.399 0.384,54.461 3.785,55.399C3.785,55.399 1.756,53.346 -2.052,52.958C-1.247,52.309 -0.556,51.588 0,50.805M-23.442,50.805C-23.623,50.603 -23.795,50.397 -23.956,50.187C-23.971,50.164 -23.986,50.141 -24.002,50.118C-24.148,49.922 -24.286,49.723 -24.408,49.516C-25.021,48.489 -25.365,47.367 -25.365,46.19C-25.365,41.346 -19.643,37.405 -12.61,37.405C-5.578,37.405 0.144,41.346 0.144,46.19C0.144,47.367 -0.2,48.491 -0.812,49.518C-0.936,49.723 -1.073,49.922 -1.219,50.118C-1.235,50.141 -1.249,50.163 -1.267,50.187C-1.426,50.397 -1.598,50.603 -1.779,50.805C-4.03,53.302 -8.038,54.974 -12.61,54.974C-17.184,54.974 -21.19,53.302 -23.442,50.805M9.816,9.425C9.454,10.963 9.984,12.284 10.704,13.293C9.621,19.384 10.676,41.115 10.813,43.639C11.314,43.001 11.771,41.971 12.018,41.355C11.967,40.039 11.931,38.617 11.913,37.143C12.504,38.112 12.762,39.145 12.667,40.233C12.557,41.491 12.006,42.705 11.29,43.789C11.254,43.844 11.222,43.89 11.189,43.938C11.092,44.08 10.991,44.221 10.89,44.359C10.868,44.388 10.855,44.406 10.855,44.406L10.855,44.407C9.278,46.522 7.232,48.018 7.078,48.129C6.302,48.537 5.533,49.015 4.787,49.514L4.775,49.514L4.609,49.633C4.09,49.989 3.586,50.353 3.101,50.72L2.983,50.805L2.989,50.805C2.989,50.805 2.33,51.284 2.242,52.09C2.242,52.09 2.798,51.179 4.287,50.805L6.277,50.805C3.98,52.186 2.917,54.01 2.917,54.01C3.591,54.304 4.099,55.047 4.099,55.047C3.65,53.579 4.894,52.411 6.185,51.627C6.298,51.576 8.2,50.72 9.808,50.805L12.671,50.805L12.594,50.09C12.59,50.041 12.494,49.122 12.377,47.602C12.561,47.6 12.747,47.604 12.93,47.619L12.931,47.619C13.019,47.627 13.1,47.643 13.182,47.657C13.295,47.701 13.383,47.791 13.271,47.989C13.051,48.38 12.782,48.552 12.782,48.552C12.782,48.552 13.492,48.477 13.907,47.793C14.324,47.108 13.467,46.565 12.488,46.645L12.488,46.647C12.434,46.647 12.368,46.653 12.308,46.656C12.256,45.923 12.202,45.095 12.151,44.186C12.9,43.019 13.479,41.705 13.602,40.319C13.754,38.593 13.177,36.996 11.903,35.564C11.903,35.311 11.906,35.053 11.908,34.797C11.908,34.797 12.815,17.867 13.646,15.162L13.756,14.817L13.445,14.625C13.431,14.617 12.709,14.158 12,13.401C12,13.401 11.254,12.733 10.977,11.928C10.671,11.27 10.517,10.524 10.704,9.718C10.735,9.647 11.083,8.826 11.437,7.77L11.605,9.645C11.43,10.162 11.28,10.715 11.139,11.282C11.336,11.685 11.706,12.322 12.166,12.613C12.363,11.664 12.587,10.75 12.87,9.935L12.916,9.803L12.104,0.75C12.115,2.104 11.193,5.043 11.193,5.043C10.888,6.893 9.851,9.332 9.816,9.425M10.943,45.802C10.966,46.141 10.989,46.47 11.012,46.777C10.624,46.823 10.231,46.894 9.827,47.004C10.191,46.646 10.57,46.24 10.943,45.802M6.529,49.514C8.081,48.582 9.673,47.867 11.082,47.699C11.143,48.459 11.198,49.08 11.24,49.514L6.529,49.514ZM11.814,14.537C12.143,14.839 12.443,15.072 12.654,15.222C12.064,17.36 11.593,22.975 11.239,26.698C11.206,23.754 11.299,18.024 11.814,14.537M-36.265,3.376C-36.906,1.826 -37.21,-1.462 -37.21,-1.462L-37.188,-1.742L-36.774,-1.869C-35.807,-2.17 -33.051,-3.376 -33.051,-4.931L-33.051,-5.577L7.828,-5.577L7.828,-4.931C7.828,-3.376 10.585,-2.17 11.553,-1.869L11.965,-1.742L11.989,-1.462C11.989,-1.462 11.685,1.826 11.043,3.376L10.755,-0.778C9.688,-1.17 7.095,-2.31 6.615,-4.286L-31.837,-4.286C-32.316,-2.31 -34.91,-1.17 -35.977,-0.778L-36.265,3.376ZM-39.13,47.793C-38.713,48.477 -38.004,48.552 -38.004,48.552C-38.004,48.552 -38.272,48.38 -38.493,47.989C-38.604,47.791 -38.518,47.701 -38.403,47.657C-38.32,47.643 -38.24,47.627 -38.152,47.619L-38.15,47.619C-37.969,47.604 -37.782,47.6 -37.6,47.602C-37.717,49.122 -37.811,50.041 -37.816,50.09L-37.893,50.805L-33.063,50.805C-31.613,51.407 -28.691,52.912 -29.344,55.047C-29.344,55.047 -28.836,54.304 -28.162,54.01C-28.162,54.01 -29.226,52.186 -31.523,50.805L-29.533,50.805C-28.043,51.179 -27.487,52.09 -27.487,52.09C-27.575,51.284 -28.236,50.805 -28.236,50.805L-28.205,50.805L-28.322,50.72C-28.807,50.353 -29.311,49.989 -29.832,49.633L-29.996,49.514L-30.008,49.514C-30.754,49.015 -31.523,48.537 -32.301,48.129C-32.455,48.018 -34.5,46.522 -36.076,44.407L-36.076,44.406C-36.076,44.406 -36.09,44.388 -36.111,44.359C-36.213,44.221 -36.313,44.08 -36.41,43.938C-36.443,43.89 -36.477,43.844 -36.511,43.789C-37.227,42.705 -37.778,41.491 -37.889,40.233C-37.984,39.145 -37.725,38.112 -37.135,37.143C-37.152,38.617 -37.189,40.039 -37.239,41.355C-36.992,41.971 -36.536,43.001 -36.033,43.639C-35.896,41.115 -34.842,19.384 -35.926,13.293C-35.205,12.284 -34.676,10.963 -35.039,9.425C-35.072,9.332 -36.109,6.893 -36.415,5.043C-36.415,5.043 -37.337,2.104 -37.326,0.75L-38.138,9.803L-38.092,9.935C-37.808,10.75 -37.584,11.664 -37.389,12.613C-36.928,12.322 -36.559,11.685 -36.359,11.282C-36.501,10.715 -36.651,10.162 -36.828,9.645L-36.659,7.77C-36.306,8.826 -35.957,9.647 -35.926,9.718C-35.738,10.524 -35.893,11.27 -36.199,11.928C-36.477,12.733 -37.222,13.401 -37.222,13.401C-37.931,14.158 -38.653,14.617 -38.668,14.625L-38.977,14.817L-38.869,15.162C-38.037,17.867 -37.13,34.797 -37.13,34.797C-37.128,35.053 -37.125,35.311 -37.125,35.564C-38.397,36.996 -38.976,38.593 -38.824,40.319C-38.701,41.705 -38.123,43.019 -37.373,44.186C-37.424,45.095 -37.478,45.923 -37.529,46.656C-37.59,46.653 -37.654,46.647 -37.711,46.647L-37.71,46.645C-38.688,46.565 -39.545,47.108 -39.13,47.793M-36.166,45.802C-35.792,46.24 -35.412,46.646 -35.049,47.004C-35.453,46.894 -35.846,46.823 -36.234,46.777C-36.211,46.47 -36.188,46.141 -36.166,45.802M-36.304,47.699C-34.895,47.867 -33.303,48.582 -31.75,49.514L-36.461,49.514C-36.421,49.08 -36.365,48.459 -36.304,47.699M-37.875,15.222C-37.665,15.072 -37.364,14.839 -37.035,14.537C-36.521,18.024 -36.428,23.754 -36.461,26.698C-36.814,22.975 -37.285,17.36 -37.875,15.222" style="fill:rgb(35,31,32);fill-rule:nonzero;"/>
        </g>
    </g>
</svg>
