<?xml version="1.0" encoding="UTF-8" standalone="no"?>
<!DOCTYPE svg PUBLIC "-//W3C//DTD SVG 1.1//EN" "http://www.w3.org/Graphics/SVG/1.1/DTD/svg11.dtd">
<svg width="100%" height="100%" viewBox="0 0 747 113" version="1.1" xmlns="http://www.w3.org/2000/svg" xmlns:xlink="http://www.w3.org/1999/xlink" xml:space="preserve" xmlns:serif="http://www.serif.com/" style="fill-rule:evenodd;clip-rule:evenodd;stroke-linejoin:round;stroke-miterlimit:2;">
    <g transform="matrix(1,0,0,1,-112.498,-2441.1)">
        <g transform="matrix(4.16667,0,0,4.16667,142.257,2553.28)">
            <path d="M0,-26.754C-4.472,-23.754 -7.142,-18.753 -7.142,-13.377C-7.142,-8.001 -4.472,-3 0.002,0L0.254,0.17L17.661,0.17L17.913,0C18.853,-0.63 19.708,-1.354 20.479,-2.145L167.623,-2.145L167.823,-2.481C168.397,-3.445 170.208,-6.099 171.671,-6.786L172.066,-6.972L172.064,-19.782L171.67,-19.968C170.207,-20.655 168.396,-23.31 167.821,-24.274L167.621,-24.609L20.481,-24.609C19.708,-25.4 18.854,-26.124 17.914,-26.754L17.662,-26.924L0.253,-26.924L0,-26.754ZM-5.142,-13.377C-5.142,-17.985 -2.901,-22.279 0.867,-24.924L8.943,-24.924C12.659,-23.282 17.69,-22.36 20.158,-21.901C22.003,-19.481 23.057,-16.51 23.057,-13.38L23.057,-13.374C23.057,-10.244 22.002,-7.274 20.157,-4.853C17.689,-4.394 12.658,-3.472 8.943,-1.83L0.868,-1.83C-2.9,-4.475 -5.142,-8.769 -5.142,-13.377M160.516,-23.234C162.917,-22.342 169.218,-19.678 170.689,-15.85L170.691,-10.907C169.22,-7.079 162.916,-4.412 160.516,-3.52L29.691,-3.52C29.067,-4.078 27.716,-4.947 25.202,-5.176C25.927,-6.402 27.53,-9.547 27.53,-13.377C27.53,-17.207 25.927,-20.352 25.202,-21.578C27.716,-21.807 29.067,-22.676 29.691,-23.234L160.516,-23.234ZM24.351,-21.529C24.845,-20.746 26.78,-17.411 26.78,-13.377C26.78,-9.343 24.845,-6.008 24.351,-5.225C23.876,-5.238 23.365,-5.229 22.816,-5.193C24.26,-7.637 25.057,-10.449 25.057,-13.377L25.057,-13.38C25.057,-16.306 24.26,-19.118 22.817,-21.561C23.365,-21.525 23.876,-21.516 24.351,-21.529M17.047,-1.83L12.871,-1.83C15.389,-2.854 17.552,-3.52 19.4,-3.924C18.7,-3.151 17.919,-2.442 17.047,-1.83M22.304,-4.383C25.396,-4.663 27.279,-4.088 28.341,-3.52L21.68,-3.52C21.897,-3.801 22.104,-4.089 22.304,-4.383M166.85,-3.52L162.552,-3.52C165.143,-4.634 168.88,-6.607 170.691,-9.302L170.691,-7.817C169.032,-6.8 167.415,-4.409 166.85,-3.52M170.689,-18.938L170.689,-17.454C168.878,-20.149 165.143,-22.12 162.552,-23.234L166.848,-23.234C167.413,-22.345 169.031,-19.954 170.689,-18.938M28.341,-23.234C27.279,-22.666 25.396,-22.091 22.304,-22.371C22.105,-22.665 21.898,-22.953 21.681,-23.234L28.341,-23.234ZM19.401,-22.83C17.552,-23.234 15.39,-23.9 12.871,-24.924L17.048,-24.924C17.921,-24.312 18.701,-23.603 19.401,-22.83" style="fill:rgb(35,31,32);fill-rule:nonzero;"/>
        </g>
    </g>
</svg>
