<?xml version="1.0" encoding="UTF-8" standalone="no"?>
<!DOCTYPE svg PUBLIC "-//W3C//DTD SVG 1.1//EN" "http://www.w3.org/Graphics/SVG/1.1/DTD/svg11.dtd">
<svg width="100%" height="100%" viewBox="0 0 474 145" version="1.1" xmlns="http://www.w3.org/2000/svg" xmlns:xlink="http://www.w3.org/1999/xlink" xml:space="preserve" xmlns:serif="http://www.serif.com/" style="fill-rule:evenodd;clip-rule:evenodd;stroke-linejoin:round;stroke-miterlimit:2;">
    <g transform="matrix(1,0,0,1,-386.368,-666.883)">
        <g transform="matrix(4.16667,0,0,4.16667,450.618,810.863)">
            <path d="M0,-34.527C-0.192,-34.449 -0.282,-34.228 -0.206,-34.039C-0.187,-33.994 -0.074,-33.728 0.132,-33.331C-2.154,-33.251 -4.32,-32.702 -6.271,-31.763C-4.403,-31.984 -1.48,-31.821 1.312,-31.266C1.36,-31.266 1.396,-31.267 1.434,-31.268C1.581,-31.07 1.74,-30.869 1.909,-30.665C-10.827,-33.64 -14.139,-27.211 -14.139,-27.211C-13.021,-28.359 -11.717,-29.177 -10.337,-29.749C-9.916,-29.863 -9.497,-29.957 -9.079,-30.041C-12.927,-27.097 -15.42,-22.47 -15.42,-17.263C-15.42,-12.056 -12.927,-7.429 -9.079,-4.486C-9.497,-4.57 -9.916,-4.664 -10.337,-4.778C-11.717,-5.349 -13.021,-6.168 -14.139,-7.316C-14.139,-7.316 -10.827,-0.886 1.909,-3.862C1.74,-3.658 1.581,-3.457 1.434,-3.258C1.396,-3.259 1.36,-3.26 1.312,-3.26C-1.48,-2.706 -4.403,-2.543 -6.271,-2.763C-4.32,-1.825 -2.154,-1.276 0.132,-1.196C-0.074,-0.798 -0.187,-0.533 -0.206,-0.488C-0.282,-0.298 -0.192,-0.078 0,0C0.191,0.079 0.41,-0.013 0.488,-0.205C0.494,-0.218 3.501,-5.929 7.417,-7.005C8.58,-7.324 9.74,-7.647 10.988,-7.681C8.954,-5.5 6.246,-3.954 3.19,-3.401C2.364,-2.589 2.005,-1.839 1.88,-1.214C4.141,-1.382 6.272,-2.019 8.18,-3.029L10.325,-4.404C10.592,-4.604 10.851,-4.814 11.104,-5.031L93.785,-5.031L93.985,-5.367C94.56,-6.332 96.37,-8.985 97.833,-9.673L98.229,-9.858L98.229,-24.669L97.833,-24.854C96.37,-25.542 94.56,-28.195 93.985,-29.16L93.785,-29.496L11.104,-29.496C10.851,-29.713 10.592,-29.923 10.325,-30.123L8.18,-31.498C6.272,-32.507 4.141,-33.144 1.88,-33.313C2.005,-32.687 2.364,-31.938 3.19,-31.126C6.246,-30.573 8.954,-29.027 10.988,-26.845C9.74,-26.88 8.58,-27.203 7.417,-27.522C3.501,-28.597 0.494,-34.308 0.488,-34.322C0.41,-34.513 0.191,-34.606 0,-34.527M12.528,-6.406C12.852,-6.757 13.16,-7.123 13.452,-7.502C14.677,-7.3 15.945,-6.945 17.262,-6.406L12.528,-6.406ZM96.854,-10.703C95.194,-9.686 93.577,-7.296 93.012,-6.406L88.713,-6.406C91.304,-7.52 95.042,-9.493 96.854,-12.188L96.854,-10.703ZM93.012,-28.121C93.577,-27.231 95.194,-24.84 96.854,-23.824L96.854,-22.339C95.042,-25.034 91.304,-27.006 88.713,-28.121L93.012,-28.121ZM12.528,-28.121L17.262,-28.121C15.945,-27.582 14.677,-27.226 13.452,-27.025C13.16,-27.404 12.852,-27.769 12.528,-28.121M19.083,-28.119L19.085,-28.121L86.677,-28.121C89.078,-27.227 95.382,-24.56 96.853,-20.734L96.853,-13.793C95.382,-9.966 89.078,-7.299 86.677,-6.406L19.085,-6.406L19.083,-6.408C17.3,-7.287 15.587,-7.869 13.945,-8.181C15.729,-10.766 16.779,-13.891 16.779,-17.263C16.779,-20.635 15.729,-23.76 13.945,-26.345C15.587,-26.658 17.3,-27.24 19.083,-28.119M3.538,-29.004C4.521,-28.152 5.711,-27.368 7.144,-26.824C8.559,-26.287 10.064,-26.054 11.644,-26.094C13.599,-23.677 14.779,-20.609 14.779,-17.263C14.779,-13.918 13.599,-10.849 11.644,-8.432C10.064,-8.472 8.559,-8.24 7.144,-7.703C5.711,-7.159 4.521,-6.375 3.538,-5.523C2.144,-5.035 -0.763,-4.187 -4.275,-4.092C-9.607,-6.103 -13.42,-11.236 -13.42,-17.263C-13.42,-23.291 -9.607,-28.423 -4.275,-30.434C-0.763,-30.34 2.144,-29.492 3.538,-29.004" style="fill:rgb(35,31,32);fill-rule:nonzero;"/>
        </g>
    </g>
</svg>
