<?xml version="1.0" encoding="UTF-8" standalone="no"?>
<!DOCTYPE svg PUBLIC "-//W3C//DTD SVG 1.1//EN" "http://www.w3.org/Graphics/SVG/1.1/DTD/svg11.dtd">
<svg width="100%" height="100%" viewBox="0 0 726 155" version="1.1" xmlns="http://www.w3.org/2000/svg" xmlns:xlink="http://www.w3.org/1999/xlink" xml:space="preserve" xmlns:serif="http://www.serif.com/" style="fill-rule:evenodd;clip-rule:evenodd;stroke-linejoin:round;stroke-miterlimit:2;">
    <g transform="matrix(1,0,0,1,-129.273,-2225.49)">
        <g transform="matrix(4.16667,0,0,4.16667,831.97,2248.36)">
            <path d="M0,26.142L4.83,20.312L4.83,5.83L0,0L-158.189,0L-158.189,26.142L0,26.142Z" style="fill:white;fill-rule:nonzero;"/>
        </g>
        <g transform="matrix(4.16667,0,0,4.16667,141.773,2252.92)">
            <path d="M0,23.952L0,-0.002L2.7,-2.542L12.916,6.319L12.916,17.633L2.7,26.494L0,23.952Z" style="fill:white;fill-rule:nonzero;"/>
        </g>
        <g transform="matrix(4.16667,0,0,4.16667,153.194,2354.89)">
            <path d="M0,-24.995L8.675,-17.47L8.675,-7.525L0,-0.001L-1.241,-1.169L-1.241,-23.827L0,-24.995ZM-0.082,-29.037L-4.241,-25.124L-4.241,0.127L-0.082,4.042L11.675,-6.156L11.675,-18.839L-0.082,-29.037Z" style="fill:rgb(220,221,222);fill-rule:nonzero;"/>
        </g>
        <g transform="matrix(4.16667,0,0,4.16667,854.96,2271.46)">
            <path d="M0,15.052L0,-0L-6.232,-6.232L-164.973,-6.232L-163.387,-4.857L-114.65,-4.857L-107.616,3.715C-107.855,4.507 -108.022,5.391 -108.1,6.372C-108.642,6.489 -109.058,6.948 -109.058,7.526C-109.058,8.103 -108.642,8.563 -108.099,8.678C-108.022,9.657 -107.855,10.54 -107.616,11.331L-114.655,19.909L-163.388,19.909L-164.973,21.284L-6.232,21.284L0,15.052ZM-110.509,19.909L-108.885,17.865L-9.08,17.865C-11.277,19.02 -13.468,19.61 -15.138,19.909L-110.509,19.909ZM-104.607,4.784L-104.607,10.271L-106.489,12.639C-107.003,11.562 -107.379,10.249 -107.502,8.656C-107.015,8.502 -106.654,8.063 -106.654,7.526C-106.654,6.988 -107.016,6.548 -107.503,6.395C-107.38,4.802 -107.004,3.49 -106.49,2.414L-104.607,4.784ZM-108.411,-2.215L-102.85,-2.215C-103.789,-1.704 -105.058,-0.811 -106.126,0.662L-108.411,-2.215ZM-106.124,14.39C-105.057,15.864 -103.788,16.756 -102.85,17.266L-108.409,17.266L-106.124,14.39ZM-107.388,11.998C-107.236,12.403 -107.068,12.781 -106.884,13.136L-112.266,19.909L-113.88,19.909L-107.388,11.998ZM-106.886,1.916C-107.068,2.27 -107.235,2.647 -107.387,3.049L-113.875,-4.857L-112.267,-4.857L-106.886,1.916ZM-15.733,-4.857C-14.055,-4.602 -11.678,-4.042 -9.273,-2.814L-108.888,-2.814L-110.511,-4.857L-15.733,-4.857ZM-1.375,3.969C-4.062,-1.297 -8.647,-3.732 -12.34,-4.857L-6.803,-4.857L-1.375,0.571L-1.375,3.969ZM-1.375,9.326C-2.91,13.199 -5.448,15.698 -8.094,17.305L-8.094,17.266L-101.392,17.266C-101.683,17.18 -104.034,16.408 -105.752,13.922L-103.232,10.751L-103.232,4.304L-105.754,1.13C-104.036,-1.356 -101.683,-2.129 -101.394,-2.215L-8.195,-2.215C-5.513,-0.609 -2.93,1.905 -1.375,5.826L-1.375,9.326ZM-1.375,14.482L-6.803,19.909L-12.026,19.909C-8.392,18.744 -3.986,16.302 -1.375,11.187L-1.375,14.482Z" style="fill:rgb(35,31,32);fill-rule:nonzero;"/>
        </g>
        <g transform="matrix(4.16667,0,0,4.16667,152.852,2371.74)">
            <path d="M0,-33.08L11.757,-22.882L11.757,-10.199L0,-0.001L-4.159,-3.916L-4.159,-29.167L0,-33.08ZM-0.041,-35.101L-1.027,-34.173L-5.187,-30.26L-5.659,-29.815L-5.659,-3.268L-5.187,-2.823L-1.028,1.091L-0.041,2.021L0.982,1.132L12.74,-9.066L13.257,-9.515L13.257,-23.566L12.74,-24.015L0.982,-34.213L-0.041,-35.101Z" style="fill:rgb(35,31,32);fill-rule:nonzero;"/>
        </g>
    </g>
</svg>
