<?xml version="1.0" encoding="UTF-8" standalone="no"?>
<!DOCTYPE svg PUBLIC "-//W3C//DTD SVG 1.1//EN" "http://www.w3.org/Graphics/SVG/1.1/DTD/svg11.dtd">
<svg width="100%" height="100%" viewBox="0 0 726 202" version="1.1" xmlns="http://www.w3.org/2000/svg" xmlns:xlink="http://www.w3.org/1999/xlink" xml:space="preserve" xmlns:serif="http://www.serif.com/" style="fill-rule:evenodd;clip-rule:evenodd;stroke-linejoin:round;stroke-miterlimit:2;">
    <g transform="matrix(1,0,0,1,-129.273,-1226.58)">
        <g transform="matrix(4.16667,0,0,4.16667,831.97,1295.99)">
            <path d="M0,26.142L4.83,20.312L4.83,5.83L0,0L-158.189,0L-158.189,26.142L0,26.142Z" style="fill:white;fill-rule:nonzero;"/>
        </g>
        <g transform="matrix(4.16667,0,0,4.16667,141.773,1300.55)">
            <path d="M0,23.952L0,-0.002L2.7,-2.542L12.916,6.319L12.916,17.633L2.7,26.494L0,23.952Z" style="fill:white;fill-rule:nonzero;"/>
        </g>
        <g transform="matrix(4.16667,0,0,4.16667,153.194,1402.52)">
            <path d="M0,-24.995L8.675,-17.47L8.675,-7.525L0,-0.001L-1.241,-1.169L-1.241,-23.827L0,-24.995ZM-0.082,-29.037L-4.241,-25.124L-4.241,0.127L-0.082,4.042L11.675,-6.156L11.675,-18.839L-0.082,-29.037Z" style="fill:rgb(220,221,222);fill-rule:nonzero;"/>
        </g>
        <g transform="matrix(4.16667,0,0,4.16667,854.96,1319.09)">
            <path d="M0,15.052L0,-0L-6.232,-6.232L-164.973,-6.232L-163.387,-4.857L-114.65,-4.857L-107.616,3.715C-107.855,4.507 -108.022,5.391 -108.1,6.372C-108.642,6.489 -109.058,6.948 -109.058,7.526C-109.058,8.103 -108.642,8.563 -108.099,8.678C-108.022,9.657 -107.855,10.54 -107.616,11.331L-114.655,19.909L-163.388,19.909L-164.973,21.284L-6.232,21.284L0,15.052ZM-110.509,19.909L-108.885,17.865L-9.08,17.865C-11.277,19.02 -13.468,19.61 -15.138,19.909L-110.509,19.909ZM-104.607,4.784L-104.607,10.271L-106.489,12.639C-107.003,11.562 -107.379,10.249 -107.502,8.656C-107.015,8.502 -106.654,8.063 -106.654,7.526C-106.654,6.988 -107.016,6.548 -107.503,6.395C-107.38,4.802 -107.004,3.49 -106.49,2.414L-104.607,4.784ZM-108.411,-2.215L-102.85,-2.215C-103.789,-1.704 -105.058,-0.811 -106.126,0.662L-108.411,-2.215ZM-106.124,14.39C-105.057,15.864 -103.788,16.756 -102.85,17.266L-108.409,17.266L-106.124,14.39ZM-107.388,11.998C-107.236,12.403 -107.068,12.781 -106.884,13.136L-112.266,19.909L-113.88,19.909L-107.388,11.998ZM-106.886,1.916C-107.068,2.27 -107.235,2.647 -107.387,3.049L-113.875,-4.857L-112.267,-4.857L-106.886,1.916ZM-15.733,-4.857C-14.055,-4.602 -11.678,-4.042 -9.273,-2.814L-108.888,-2.814L-110.511,-4.857L-15.733,-4.857ZM-1.375,3.969C-4.062,-1.297 -8.647,-3.732 -12.34,-4.857L-6.803,-4.857L-1.375,0.571L-1.375,3.969ZM-1.375,9.326C-2.91,13.199 -5.448,15.698 -8.094,17.305L-8.094,17.266L-101.392,17.266C-101.683,17.18 -104.034,16.408 -105.752,13.922L-103.232,10.751L-103.232,4.304L-105.754,1.13C-104.036,-1.356 -101.683,-2.129 -101.394,-2.215L-8.195,-2.215C-5.513,-0.609 -2.93,1.905 -1.375,5.826L-1.375,9.326ZM-1.375,14.482L-6.803,19.909L-12.026,19.909C-8.392,18.744 -3.986,16.302 -1.375,11.187L-1.375,14.482Z" style="fill:rgb(35,31,32);fill-rule:nonzero;"/>
        </g>
        <g transform="matrix(4.16667,0,0,4.16667,152.852,1419.37)">
            <path d="M0,-33.08L11.757,-22.882L11.757,-10.199L0,-0.001L-4.159,-3.916L-4.159,-29.167L0,-33.08ZM-0.041,-35.101L-1.027,-34.173L-5.187,-30.26L-5.659,-29.815L-5.659,-3.268L-5.187,-2.823L-1.028,1.091L-0.041,2.021L0.982,1.132L12.74,-9.066L13.257,-9.515L13.257,-23.566L12.74,-24.015L0.982,-34.213L-0.041,-35.101Z" style="fill:rgb(35,31,32);fill-rule:nonzero;"/>
        </g>
        <g transform="matrix(4.16667,0,0,4.16667,0,0)">
            <path d="M32.706,298.742C32.427,298.742 32.071,298.681 31.637,298.559L31.637,297.975C32.105,298.193 32.489,298.301 32.791,298.301C33.023,298.301 33.209,298.24 33.351,298.119C33.492,297.997 33.563,297.837 33.563,297.638C33.563,297.476 33.516,297.337 33.424,297.223C33.331,297.109 33.16,296.982 32.911,296.841L32.625,296.675C32.271,296.473 32.022,296.283 31.877,296.104C31.732,295.925 31.659,295.717 31.659,295.479C31.659,295.159 31.775,294.896 32.007,294.689C32.239,294.482 32.535,294.379 32.894,294.379C33.215,294.379 33.552,294.432 33.908,294.539L33.908,295.078C33.47,294.906 33.143,294.82 32.928,294.82C32.724,294.82 32.556,294.874 32.423,294.982C32.29,295.091 32.223,295.228 32.223,295.392C32.223,295.531 32.272,295.654 32.369,295.76C32.467,295.867 32.645,295.994 32.903,296.142L33.201,296.31C33.56,296.515 33.811,296.707 33.953,296.889C34.095,297.07 34.166,297.288 34.166,297.543C34.166,297.904 34.033,298.194 33.766,298.413C33.5,298.632 33.146,298.742 32.706,298.742Z" style="fill:rgb(147,149,152);fill-rule:nonzero;"/>
            <path d="M34.928,298.638L34.928,294.483L36.059,294.483C36.561,294.483 36.921,294.567 37.14,294.737C37.359,294.906 37.469,295.185 37.469,295.572C37.469,296.014 37.319,296.36 37.02,296.611C36.72,296.862 36.305,296.987 35.773,296.987L35.512,296.987L35.512,298.638L34.928,298.638ZM35.512,296.541L35.75,296.541C36.101,296.541 36.371,296.46 36.562,296.299C36.753,296.138 36.848,295.911 36.848,295.617C36.848,295.368 36.773,295.19 36.624,295.084C36.474,294.977 36.224,294.924 35.874,294.924L35.512,294.924L35.512,296.541Z" style="fill:rgb(147,149,152);fill-rule:nonzero;"/>
            <path d="M38.045,298.638L38.045,294.483L40.367,294.483L40.367,294.924L38.635,294.924L38.635,296.257L40.086,296.257L40.086,296.692L38.635,296.692L38.635,298.197L40.488,298.197L40.488,298.638L38.045,298.638Z" style="fill:rgb(147,149,152);fill-rule:nonzero;"/>
            <path d="M41.1,298.638L41.1,294.483L41.69,294.483L41.69,298.197L43.56,298.197L43.56,298.638L41.1,298.638Z" style="fill:rgb(147,149,152);fill-rule:nonzero;"/>
            <path d="M44.105,298.638L44.105,294.483L44.695,294.483L44.695,298.197L46.565,298.197L46.565,298.638L44.105,298.638Z" style="fill:rgb(147,149,152);fill-rule:nonzero;"/>
            <path d="M31.8,304.141L31.8,299.985L32.39,299.985L32.39,303.7L34.26,303.7L34.26,304.141L31.8,304.141Z" style="fill:rgb(147,149,152);fill-rule:nonzero;"/>
            <path d="M34.701,304.141L34.701,299.985L37.023,299.985L37.023,300.426L35.29,300.426L35.29,301.76L36.742,301.76L36.742,302.195L35.29,302.195L35.29,303.7L37.143,303.7L37.143,304.141L34.701,304.141Z" style="fill:rgb(147,149,152);fill-rule:nonzero;"/>
            <path d="M38.786,304.141L37.217,299.985L37.806,299.985L39.092,303.388L40.333,299.985L40.85,299.985L39.342,304.141L38.786,304.141Z" style="fill:rgb(147,149,152);fill-rule:nonzero;"/>
            <path d="M41.246,304.141L41.246,299.985L43.568,299.985L43.568,300.426L41.836,300.426L41.836,301.76L43.287,301.76L43.287,302.195L41.836,302.195L41.836,303.7L43.689,303.7L43.689,304.141L41.246,304.141Z" style="fill:rgb(147,149,152);fill-rule:nonzero;"/>
            <path d="M44.197,304.141L44.197,299.985L44.787,299.985L44.787,303.7L46.657,303.7L46.657,304.141L44.197,304.141Z" style="fill:rgb(147,149,152);fill-rule:nonzero;"/>
        </g>
        <g transform="matrix(4.16667,0,0,4.16667,0,0)">
            <path d="M129.059,308.931C128.78,308.931 128.424,308.87 127.989,308.748L127.989,308.164C128.457,308.382 128.842,308.49 129.143,308.49C129.375,308.49 129.562,308.429 129.703,308.308C129.845,308.186 129.915,308.026 129.915,307.827C129.915,307.665 129.869,307.526 129.776,307.412C129.684,307.298 129.513,307.171 129.264,307.03L128.978,306.864C128.624,306.662 128.375,306.472 128.229,306.293C128.084,306.114 128.012,305.906 128.012,305.668C128.012,305.348 128.128,305.085 128.36,304.878C128.592,304.671 128.888,304.568 129.247,304.568C129.567,304.568 129.905,304.621 130.261,304.728L130.261,305.267C129.823,305.095 129.496,305.009 129.281,305.009C129.077,305.009 128.908,305.063 128.776,305.171C128.643,305.28 128.576,305.417 128.576,305.581C128.576,305.72 128.625,305.843 128.722,305.949C128.82,306.056 128.997,306.183 129.256,306.331L129.553,306.499C129.913,306.704 130.163,306.896 130.306,307.078C130.448,307.259 130.519,307.477 130.519,307.732C130.519,308.093 130.386,308.383 130.119,308.602C129.852,308.821 129.499,308.931 129.059,308.931Z" style="fill:rgb(147,149,152);fill-rule:nonzero;"/>
            <path d="M131.226,308.827L131.226,304.672L131.815,304.672L131.815,308.386L133.685,308.386L133.685,308.827L131.226,308.827Z" style="fill:rgb(147,149,152);fill-rule:nonzero;"/>
            <path d="M135.849,308.931C135.273,308.931 134.809,308.731 134.458,308.331C134.107,307.932 133.931,307.404 133.931,306.747C133.931,306.086 134.108,305.558 134.461,305.162C134.813,304.766 135.285,304.568 135.874,304.568C136.462,304.568 136.933,304.765 137.287,305.16C137.64,305.555 137.817,306.082 137.817,306.741C137.817,307.413 137.64,307.946 137.287,308.34C136.933,308.734 136.454,308.931 135.849,308.931ZM135.857,308.49C136.282,308.49 136.611,308.337 136.843,308.031C137.075,307.725 137.191,307.293 137.191,306.735C137.191,306.194 137.075,305.771 136.842,305.466C136.608,305.161 136.286,305.009 135.874,305.009C135.461,305.009 135.138,305.162 134.906,305.468C134.674,305.774 134.558,306.199 134.558,306.744C134.558,307.287 134.673,307.713 134.903,308.024C135.133,308.335 135.451,308.49 135.857,308.49Z" style="fill:rgb(147,149,152);fill-rule:nonzero;"/>
            <path d="M139.515,308.827L139.515,305.113L138.041,305.113L138.041,304.672L141.579,304.672L141.579,305.113L140.105,305.113L140.105,308.827L139.515,308.827Z" style="fill:rgb(147,149,152);fill-rule:nonzero;"/>
            <path d="M142.861,308.931C142.582,308.931 142.225,308.87 141.791,308.748L141.791,308.164C142.259,308.382 142.644,308.49 142.945,308.49C143.177,308.49 143.364,308.429 143.505,308.308C143.646,308.186 143.717,308.026 143.717,307.827C143.717,307.665 143.671,307.526 143.578,307.412C143.485,307.298 143.315,307.171 143.066,307.03L142.779,306.864C142.426,306.662 142.176,306.472 142.031,306.293C141.886,306.114 141.814,305.906 141.814,305.668C141.814,305.348 141.93,305.085 142.162,304.878C142.394,304.671 142.689,304.568 143.049,304.568C143.369,304.568 143.707,304.621 144.062,304.728L144.062,305.267C143.624,305.095 143.298,305.009 143.083,305.009C142.879,305.009 142.71,305.063 142.577,305.171C142.444,305.28 142.378,305.417 142.378,305.581C142.378,305.72 142.427,305.843 142.524,305.949C142.621,306.056 142.799,306.183 143.057,306.331L143.355,306.499C143.714,306.704 143.965,306.896 144.107,307.078C144.25,307.259 144.321,307.477 144.321,307.732C144.321,308.093 144.187,308.383 143.921,308.602C143.654,308.821 143.301,308.931 142.861,308.931Z" style="fill:rgb(147,149,152);fill-rule:nonzero;"/>
            <path d="M146.099,308.827L146.099,304.672L148.421,304.672L148.421,305.113L146.688,305.113L146.688,306.446L148.14,306.446L148.14,306.881L146.688,306.881L146.688,308.386L148.541,308.386L148.541,308.827L146.099,308.827Z" style="fill:rgb(147,149,152);fill-rule:nonzero;"/>
            <path d="M148.608,308.827L149.986,306.741L148.675,304.672L149.371,304.672L150.371,306.238L151.421,304.672L151.977,304.672L150.649,306.679L152.011,308.827L151.314,308.827L150.259,307.179L149.167,308.827L148.608,308.827Z" style="fill:rgb(147,149,152);fill-rule:nonzero;"/>
            <path d="M152.583,308.827L152.583,304.672L153.714,304.672C154.216,304.672 154.576,304.756 154.795,304.926C155.014,305.095 155.123,305.374 155.123,305.761C155.123,306.203 154.974,306.549 154.674,306.8C154.375,307.051 153.959,307.176 153.428,307.176L153.167,307.176L153.167,308.827L152.583,308.827ZM153.167,306.73L153.405,306.73C153.755,306.73 154.026,306.649 154.217,306.488C154.407,306.327 154.503,306.1 154.503,305.806C154.503,305.557 154.428,305.379 154.278,305.273C154.129,305.166 153.879,305.113 153.529,305.113L153.167,305.113L153.167,306.73Z" style="fill:rgb(147,149,152);fill-rule:nonzero;"/>
            <path d="M155.645,308.827L155.645,304.672L157.967,304.672L157.967,305.113L156.234,305.113L156.234,306.446L157.686,306.446L157.686,306.881L156.234,306.881L156.234,308.386L158.087,308.386L158.087,308.827L155.645,308.827Z" style="fill:rgb(147,149,152);fill-rule:nonzero;"/>
            <path d="M158.645,308.827L158.645,304.672L159.224,304.672L161.315,307.881L161.315,304.672L161.821,304.672L161.821,308.827L161.245,308.827L159.151,305.618L159.151,308.827L158.645,308.827Z" style="fill:rgb(147,149,152);fill-rule:nonzero;"/>
            <path d="M162.777,308.827L162.777,304.672L164.159,304.672C164.57,304.672 164.903,304.718 165.157,304.809C165.41,304.901 165.63,305.056 165.815,305.275C166.109,305.624 166.256,306.082 166.256,306.651C166.256,307.342 166.073,307.877 165.708,308.257C165.343,308.637 164.83,308.827 164.167,308.827L162.777,308.827ZM163.367,308.386L164.122,308.386C164.661,308.386 165.043,308.241 165.268,307.951C165.509,307.642 165.63,307.228 165.63,306.707C165.63,306.219 165.511,305.835 165.273,305.556C165.129,305.386 164.957,305.269 164.757,305.207C164.556,305.144 164.255,305.113 163.853,305.113L163.367,305.113L163.367,308.386Z" style="fill:rgb(147,149,152);fill-rule:nonzero;"/>
            <path d="M166.968,308.827L166.968,304.672L169.29,304.672L169.29,305.113L167.558,305.113L167.558,306.446L169.009,306.446L169.009,306.881L167.558,306.881L167.558,308.386L169.411,308.386L169.411,308.827L166.968,308.827Z" style="fill:rgb(147,149,152);fill-rule:nonzero;"/>
            <path d="M169.969,308.827L169.969,304.672L171.35,304.672C171.762,304.672 172.095,304.718 172.348,304.809C172.602,304.901 172.821,305.056 173.007,305.275C173.3,305.624 173.447,306.082 173.447,306.651C173.447,307.342 173.265,307.877 172.9,308.257C172.535,308.637 172.021,308.827 171.358,308.827L169.969,308.827ZM170.558,308.386L171.314,308.386C171.853,308.386 172.234,308.241 172.459,307.951C172.7,307.642 172.821,307.228 172.821,306.707C172.821,306.219 172.702,305.835 172.465,305.556C172.321,305.386 172.148,305.269 171.948,305.207C171.748,305.144 171.446,305.113 171.044,305.113L170.558,305.113L170.558,308.386Z" style="fill:rgb(147,149,152);fill-rule:nonzero;"/>
        </g>
        <g transform="matrix(4.16667,0,0,4.16667,0,0)">
            <path d="M52.176,308.931C51.897,308.931 51.54,308.87 51.106,308.748L51.106,308.164C51.574,308.382 51.959,308.49 52.26,308.49C52.492,308.49 52.679,308.429 52.82,308.308C52.962,308.186 53.032,308.026 53.032,307.827C53.032,307.665 52.986,307.526 52.893,307.412C52.801,307.298 52.63,307.171 52.381,307.03L52.094,306.864C51.741,306.662 51.491,306.472 51.346,306.293C51.201,306.114 51.129,305.906 51.129,305.668C51.129,305.348 51.245,305.085 51.477,304.878C51.709,304.671 52.005,304.568 52.364,304.568C52.684,304.568 53.022,304.621 53.378,304.728L53.378,305.267C52.94,305.095 52.613,305.009 52.398,305.009C52.194,305.009 52.025,305.063 51.892,305.171C51.759,305.28 51.693,305.417 51.693,305.581C51.693,305.72 51.742,305.843 51.839,305.949C51.936,306.056 52.114,306.183 52.372,306.331L52.67,306.499C53.029,306.704 53.28,306.896 53.422,307.078C53.565,307.259 53.636,307.477 53.636,307.732C53.636,308.093 53.502,308.383 53.236,308.602C52.969,308.821 52.616,308.931 52.176,308.931Z" style="fill:rgb(147,149,152);fill-rule:nonzero;"/>
            <path d="M54.12,308.827L54.12,304.672L54.709,304.672L54.709,308.386L56.579,308.386L56.579,308.827L54.12,308.827Z" style="fill:rgb(147,149,152);fill-rule:nonzero;"/>
            <path d="M58.521,308.931C57.944,308.931 57.48,308.731 57.129,308.331C56.778,307.932 56.603,307.404 56.603,306.747C56.603,306.086 56.779,305.558 57.132,305.162C57.485,304.766 57.956,304.568 58.546,304.568C59.134,304.568 59.604,304.765 59.958,305.16C60.312,305.555 60.489,306.082 60.489,306.741C60.489,307.413 60.312,307.946 59.958,308.34C59.604,308.734 59.125,308.931 58.521,308.931ZM58.529,308.49C58.954,308.49 59.282,308.337 59.514,308.031C59.747,307.725 59.863,307.293 59.863,306.735C59.863,306.194 59.746,305.771 59.513,305.466C59.28,305.161 58.958,305.009 58.546,305.009C58.132,305.009 57.809,305.162 57.577,305.468C57.345,305.774 57.229,306.199 57.229,306.744C57.229,307.287 57.344,307.713 57.574,308.024C57.805,308.335 58.123,308.49 58.529,308.49Z" style="fill:rgb(147,149,152);fill-rule:nonzero;"/>
            <path d="M61.964,308.827L61.964,305.113L60.49,305.113L60.49,304.672L64.027,304.672L64.027,305.113L62.553,305.113L62.553,308.827L61.964,308.827Z" style="fill:rgb(147,149,152);fill-rule:nonzero;"/>
            <path d="M65.087,308.931C64.808,308.931 64.452,308.87 64.017,308.748L64.017,308.164C64.485,308.382 64.87,308.49 65.171,308.49C65.403,308.49 65.59,308.429 65.731,308.308C65.873,308.186 65.943,308.026 65.943,307.827C65.943,307.665 65.897,307.526 65.804,307.412C65.712,307.298 65.541,307.171 65.292,307.03L65.006,306.864C64.652,306.662 64.402,306.472 64.257,306.293C64.112,306.114 64.04,305.906 64.04,305.668C64.04,305.348 64.156,305.085 64.388,304.878C64.62,304.671 64.916,304.568 65.275,304.568C65.595,304.568 65.933,304.621 66.289,304.728L66.289,305.267C65.851,305.095 65.524,305.009 65.309,305.009C65.105,305.009 64.936,305.063 64.803,305.171C64.671,305.28 64.604,305.417 64.604,305.581C64.604,305.72 64.653,305.843 64.75,305.949C64.847,306.056 65.025,306.183 65.284,306.331L65.581,306.499C65.94,306.704 66.191,306.896 66.334,307.078C66.476,307.259 66.547,307.477 66.547,307.732C66.547,308.093 66.414,308.383 66.147,308.602C65.88,308.821 65.527,308.931 65.087,308.931Z" style="fill:rgb(147,149,152);fill-rule:nonzero;"/>
            <path d="M70.089,308.827L70.089,305.113L68.615,305.113L68.615,304.672L72.152,304.672L72.152,305.113L70.678,305.113L70.678,308.827L70.089,308.827Z" style="fill:rgb(147,149,152);fill-rule:nonzero;"/>
            <path d="M74.071,308.931C73.495,308.931 73.031,308.731 72.68,308.331C72.329,307.932 72.153,307.404 72.153,306.747C72.153,306.086 72.33,305.558 72.683,305.162C73.035,304.766 73.507,304.568 74.096,304.568C74.684,304.568 75.155,304.765 75.509,305.16C75.862,305.555 76.039,306.082 76.039,306.741C76.039,307.413 75.862,307.946 75.509,308.34C75.155,308.734 74.676,308.931 74.071,308.931ZM74.079,308.49C74.504,308.49 74.833,308.337 75.065,308.031C75.297,307.725 75.413,307.293 75.413,306.735C75.413,306.194 75.297,305.771 75.064,305.466C74.83,305.161 74.508,305.009 74.096,305.009C73.683,305.009 73.36,305.162 73.128,305.468C72.896,305.774 72.78,306.199 72.78,306.744C72.78,307.287 72.895,307.713 73.125,308.024C73.355,308.335 73.673,308.49 74.079,308.49Z" style="fill:rgb(147,149,152);fill-rule:nonzero;"/>
            <path d="M77.514,308.827L77.514,305.113L76.04,305.113L76.04,304.672L79.578,304.672L79.578,305.113L78.104,305.113L78.104,308.827L77.514,308.827Z" style="fill:rgb(147,149,152);fill-rule:nonzero;"/>
            <path d="M81.929,307.238L81.221,305.447L80.511,307.238L81.929,307.238ZM82.552,308.827L82.1,307.676L80.34,307.676L79.882,308.827L79.335,308.827L80.983,304.672L81.567,304.672L83.19,308.827L82.552,308.827Z" style="fill:rgb(147,149,152);fill-rule:nonzero;"/>
            <path d="M83.452,308.827L83.452,304.672L84.041,304.672L84.041,308.386L85.911,308.386L85.911,308.827L83.452,308.827Z" style="fill:rgb(147,149,152);fill-rule:nonzero;"/>
        </g>
    </g>
</svg>
