<?xml version="1.0" encoding="UTF-8" standalone="no"?>
<!DOCTYPE svg PUBLIC "-//W3C//DTD SVG 1.1//EN" "http://www.w3.org/Graphics/SVG/1.1/DTD/svg11.dtd">
<svg width="100%" height="100%" viewBox="0 0 2465 416" version="1.1" xmlns="http://www.w3.org/2000/svg" xmlns:xlink="http://www.w3.org/1999/xlink" xml:space="preserve" xmlns:serif="http://www.serif.com/" style="fill-rule:evenodd;clip-rule:evenodd;stroke-miterlimit:10;">
    <g transform="matrix(1,0,0,1,-39.3212,-78.0003)">
        <g transform="matrix(4.16667,0,0,4.16667,390.513,118.742)">
            <path d="M0,32.762L23.255,34.502L0,36.241L-23.252,34.502L0,32.762ZM139.199,39.281L162.453,41.02L185.709,39.281L162.453,37.541L139.199,39.281ZM253.492,22.29L275.778,20.624L248.298,18.569L290.346,15.426L252.899,12.625L304.776,8.748L216.438,2.14L240.174,0.367L196.837,-2.875L158.332,0.005L141.014,-2.25L183.502,-5.424L149.453,-7.971L125.723,-6.198L98.174,-8.258L72.423,-6.331L98.587,-4.373L69.759,-2.217L40.936,-4.373L57.643,-5.623L37.683,-7.116L-26.135,-2.345L-3.521,-0.654L-75.231,4.706L-33,7.864L-55.286,9.53L-27.808,11.585L-69.854,14.727L-32.409,17.529L-84.286,21.406L-12.992,26.739L-45.636,29.181L-11.176,31.756L-2.264,31.09L23.652,33.029L62.158,30.149L79.457,32.401L34.585,35.757L96.183,40.361L109.652,39.355L85.405,37.541L120.03,34.951L144.298,36.766L160.185,35.578L182.807,37.269L246.625,32.499L224.013,30.808L295.722,25.449L253.492,22.29Z" style="fill:rgb(220,221,222);fill-rule:nonzero;"/>
        </g>
        <g transform="matrix(4.16667,0,0,4.16667,801.86,353.789)">
            <path d="M0,26.613L18.891,28.026L0,29.439L-18.888,28.026L0,26.613ZM113.072,31.908L131.962,33.321L150.853,31.908L131.962,30.495L113.072,31.908ZM205.913,18.107L224.016,16.753L201.694,15.084L235.85,12.531L205.431,10.256L247.571,7.106L175.814,1.739L195.095,0.298L159.892,-2.335L128.614,0.004L114.547,-1.827L149.06,-4.406L121.401,-6.475L102.126,-5.034L79.747,-6.708L58.83,-5.143L80.082,-3.552L56.666,-1.801L33.253,-3.552L46.824,-4.567L30.61,-5.78L-21.229,-1.905L-2.86,-0.531L-61.111,3.823L-26.806,6.388L-44.909,7.741L-22.588,9.411L-56.743,11.963L-26.326,14.239L-68.466,17.389L-10.554,21.72L-37.07,23.704L-9.078,25.796L-1.839,25.255L19.213,26.83L50.491,24.49L64.543,26.32L28.094,29.046L78.13,32.786L89.071,31.968L69.375,30.495L97.501,28.391L117.214,29.865L130.119,28.901L148.495,30.274L200.335,26.399L181.967,25.026L240.217,20.672L205.913,18.107Z" style="fill:rgb(220,221,222);fill-rule:nonzero;"/>
        </g>
        <g transform="matrix(4.16667,0,0,4.16667,1636.24,175.328)">
            <path d="M0,21.949L15.58,23.115L0,24.279L-15.578,23.115L0,21.949ZM93.256,26.316L108.835,27.481L124.415,26.316L108.835,25.15L93.256,26.316ZM169.826,14.933L184.756,13.817L166.346,12.441L194.516,10.335L169.429,8.458L204.183,5.861L145.002,1.434L160.904,0.246L131.87,-1.926L106.074,0.003L94.472,-1.507L122.937,-3.634L100.125,-5.34L84.228,-4.152L65.771,-5.532L48.519,-4.241L66.048,-2.929L46.735,-1.485L27.425,-2.929L38.618,-3.767L25.246,-4.767L-17.509,-1.571L-2.359,-0.438L-50.401,3.153L-22.108,5.269L-37.039,6.385L-18.63,7.761L-46.798,9.867L-21.712,11.744L-56.467,14.341L-8.704,17.914L-30.573,19.55L-7.487,21.275L-1.517,20.829L15.846,22.128L41.642,20.198L53.232,21.707L23.17,23.956L64.438,27.04L73.461,26.366L57.216,25.15L80.413,23.415L96.672,24.631L107.315,23.836L122.471,24.969L165.225,21.773L150.077,20.64L198.118,17.049L169.826,14.933Z" style="fill:rgb(220,221,222);fill-rule:nonzero;"/>
        </g>
        <g transform="matrix(4.16667,0,0,4.16667,229.17,104.496)">
            <path d="M0,33.006L0,20.767L7.56,20.767C7.56,20.767 11.36,22.567 17.2,14.286L29.88,14.286L34.92,10.738C34.92,10.738 39.24,4.567 43.2,4.567C47.16,4.567 62.92,-2.634 62.92,-2.634L79.92,-6.358L100.08,-0.473L110.8,3.847C110.8,3.847 127.17,9.935 124.92,19.806C124.92,19.806 126.88,11.586 110.8,6.006C110.8,6.006 119.52,12.367 117.72,16.086C117.72,16.086 127.08,22.537 128.52,27.773C128.52,27.773 149.4,33.964 157.68,19.806C157.68,19.806 154.73,26.497 151.92,27.773C151.92,27.773 171.36,39.364 190.08,19.806C190.08,19.806 176.6,31.567 177.48,36.427L124.2,34.807C124.2,34.807 124.752,11.29 91.536,9.246C58.32,7.202 54.72,23.826 57.42,30.126L0,33.006Z" style="fill:white;fill-rule:nonzero;"/>
        </g>
        <g transform="matrix(4.16667,0,0,4.16667,623.835,144.523)">
            <path d="M0,21.96C0,21.96 6.08,-0.36 26.96,25.2C26.96,25.2 12.391,-3.24 -3.184,21.24L0,21.96Z" style="fill:white;fill-rule:nonzero;"/>
        </g>
        <g transform="matrix(4.16667,0,0,4.16667,786.447,130.167)">
            <path d="M0,32.311C0.793,35.752 1.211,39.488 1.159,43.555C1.159,43.555 1.788,38.754 0,32.311M-98.202,16.794L-98.37,17.111L-98.682,17.288L-98.364,17.456L-98.186,17.767L-98.02,17.45L-97.707,17.274L-98.025,17.105L-98.202,16.794ZM-118.241,30.229L-118.542,30.801L-119.104,31.121L-118.532,31.422L-118.213,31.985L-117.912,31.413L-117.349,31.093L-117.921,30.791L-118.241,30.229ZM-96.277,14.616L-96.695,15.411L-97.475,15.853L-96.681,16.271L-96.237,17.051L-95.82,16.257L-95.041,15.814L-95.834,15.396L-96.277,14.616ZM-99.275,17.816L-99.433,18.119L-99.729,18.286L-99.428,18.445L-99.26,18.74L-99.101,18.439L-98.806,18.27L-99.106,18.112L-99.275,17.816ZM-123.68,30.518L-123.95,31.03L-124.454,31.316L-123.941,31.585L-123.656,32.088L-123.387,31.577L-122.883,31.29L-123.395,31.021L-123.68,30.518ZM-121.815,31.449L-122.015,31.832L-122.392,32.044L-122.009,32.245L-121.796,32.623L-121.595,32.239L-121.219,32.026L-121.602,31.825L-121.815,31.449ZM-122.119,32.913L-122.267,33.195L-122.546,33.354L-122.262,33.503L-122.105,33.783L-121.954,33.499L-121.675,33.34L-121.959,33.19L-122.119,32.913ZM23.62,28.018C23.625,28.32 23.874,28.562 24.177,28.556C24.479,28.552 24.72,28.302 24.715,28C24.71,27.698 24.461,27.456 24.158,27.462C23.856,27.466 23.615,27.716 23.62,28.018M29.295,23.363C29.547,23.359 29.748,23.152 29.744,22.9C29.74,22.648 29.532,22.446 29.28,22.452C29.028,22.455 28.827,22.663 28.831,22.915C28.835,23.167 29.043,23.367 29.295,23.363M25.954,25.608C26.458,25.6 26.86,25.185 26.852,24.681C26.844,24.177 26.429,23.774 25.924,23.783C25.42,23.791 25.019,24.206 25.027,24.71C25.035,25.214 25.45,25.616 25.954,25.608M55.342,8.524C55.593,8.52 55.794,8.312 55.79,8.06C55.786,7.808 55.578,7.608 55.327,7.612C55.074,7.615 54.873,7.823 54.878,8.075C54.881,8.328 55.089,8.528 55.342,8.524M51.751,12.232C52.305,12.223 52.746,11.766 52.737,11.213C52.729,10.658 52.272,10.216 51.718,10.225C51.163,10.234 50.722,10.69 50.731,11.245C50.739,11.799 51.196,12.241 51.751,12.232M48.243,15.483C48.246,15.735 48.455,15.936 48.706,15.932C48.959,15.927 49.16,15.72 49.156,15.469C49.152,15.216 48.944,15.015 48.692,15.02C48.44,15.024 48.239,15.231 48.243,15.483M48.949,14.006L49.23,13.474L49.752,13.177L49.22,12.897L48.923,12.374L48.642,12.906L48.12,13.204L48.652,13.484L48.949,14.006ZM51.532,15.703L51.845,15.108L52.43,14.777L51.835,14.464L51.503,13.879L51.19,14.474L50.606,14.806L51.2,15.119L51.532,15.703ZM73.133,-0.482L72.801,-1.067L72.488,-0.472L71.904,-0.14L72.499,0.173L72.831,0.757L73.143,0.163L73.728,-0.169L73.133,-0.482ZM68.458,1.288L67.927,2.297L66.935,2.861L67.944,3.392L68.508,4.384L69.039,3.375L70.032,2.811L69.022,2.28L68.458,1.288ZM70.694,4.109L70.517,4.446L70.186,4.634L70.523,4.81L70.711,5.142L70.888,4.805L71.219,4.617L70.882,4.441L70.694,4.109ZM68.522,5.238L68.157,5.933L67.474,6.32L68.169,6.685L68.556,7.369L68.922,6.673L69.603,6.287L68.909,5.921L68.522,5.238ZM36.372,27.517C30.034,26.703 21.599,26.09 15.715,27.449C14.285,28.141 11.87,29.643 13.088,31.473C14.24,33.203 29.938,31.367 36.372,27.517M64.757,-1.85C64.757,-1.85 67.07,5.779 65.881,11.274C65.881,11.274 65.981,6.163 63.994,7.472C62.008,8.781 53.909,16.031 60.174,19.58C60.174,19.58 46.125,19.989 45.175,28.949C45.175,28.949 41.991,28.284 37.507,27.669C36.922,28.08 36.205,28.5 35.317,28.925C26.989,32.905 5.795,37.418 11.896,28.844C9.105,30.414 7.84,32.976 9.345,37.009C9.345,37.009 4.462,28.509 17.197,25.931C17.197,25.931 14.257,24.7 15.881,23.58C15.881,23.58 27.731,27.88 38.462,25.792C39.552,24.38 39.337,22.782 37.015,21.049C37.015,21.049 40.619,22.965 39.438,25.584C42.368,24.9 45.184,23.715 47.614,21.791C47.614,21.791 43.799,22.947 41.981,23.341C41.981,23.341 45.382,22.058 49.647,18.998L49.364,18.5L47.976,17.769L49.339,16.995L50.071,15.606L50.845,16.97L51.706,17.423C56.605,13.447 62.063,7.247 64.757,-1.85M-10.33,30.647C-10.34,30.676 -10.349,30.703 -10.36,30.729C-10.348,30.703 -10.34,30.674 -10.33,30.647M-10.323,30.628C-10.326,30.635 -10.327,30.641 -10.33,30.647C-10.327,30.641 -10.325,30.635 -10.323,30.628M-10.36,30.729C-10.441,30.923 -10.535,31.116 -10.644,31.308C-10.644,31.308 -10.498,31.102 -10.36,30.729M-76.384,25.945L-76.703,26.551L-77.299,26.89L-76.692,27.209L-76.354,27.805L-76.035,27.199L-75.44,26.86L-76.045,26.54L-76.384,25.945ZM-79.044,23.048L-79.326,23.584L-79.853,23.882L-79.318,24.164L-79.018,24.691L-78.736,24.154L-78.21,23.856L-78.745,23.574L-79.044,23.048ZM-82.075,24.217L-82.52,25.064L-83.353,25.538L-82.505,25.981L-82.034,26.814L-81.588,25.966L-80.756,25.495L-81.603,25.049L-82.075,24.217ZM-4.831,15.134L-4.478,14.465L-3.821,14.091L-4.49,13.739L-4.864,13.081L-5.216,13.751L-5.873,14.124L-5.204,14.477L-4.831,15.134ZM21.8,18.87L21.588,19.272L21.194,19.496L21.596,19.708L21.82,20.103L22.031,19.7L22.426,19.476L22.024,19.265L21.8,18.87ZM15.243,17.381L15.779,16.362L16.781,15.792L15.762,15.256L15.193,14.254L14.656,15.273L13.655,15.842L14.674,16.38L15.243,17.381ZM9.918,20.314L10.186,19.804L10.687,19.52L10.177,19.252L9.893,18.751L9.624,19.261L9.124,19.546L9.633,19.813L9.918,20.314ZM6.768,19.437L7.108,19.617L7.298,19.953L7.478,19.612L7.813,19.421L7.472,19.241L7.281,18.906L7.102,19.247L6.768,19.437ZM6.108,18.151L6.51,17.388L7.259,16.962L6.496,16.56L6.07,15.81L5.669,16.573L4.918,17L5.682,17.402L6.108,18.151ZM2.944,20.047L3.481,19.028L4.482,18.459L3.463,17.922L2.893,16.92L2.357,17.939L1.356,18.509L2.375,19.045L2.944,20.047ZM-29.764,8.588L-29.305,7.715L-28.448,7.228L-29.321,6.768L-29.808,5.912L-30.267,6.783L-31.125,7.272L-30.252,7.73L-29.764,8.588ZM-31.902,4.712L-32.237,5.347L-32.861,5.703L-32.226,6.037L-31.871,6.661L-31.537,6.025L-30.913,5.67L-31.548,5.335L-31.902,4.712ZM-16.097,8.012C-17.635,3.369 -24.902,-3.877 -54.265,-6.529C-54.265,-6.529 -46.602,-5.813 -36.977,-2.644C-37.048,-2.479 -37.091,-2.298 -37.088,-2.107C-37.077,-1.385 -36.483,-0.81 -35.761,-0.822C-35.162,-0.832 -34.686,-1.25 -34.54,-1.802C-28.517,0.38 -21.944,3.519 -16.097,8.012M-32.686,0.762C-32.688,0.642 -32.787,0.546 -32.907,0.548C-33.028,0.55 -33.124,0.649 -33.122,0.769C-33.12,0.89 -33.02,0.986 -32.9,0.984C-32.78,0.982 -32.684,0.883 -32.686,0.762M-33.789,-0.091C-33.791,-0.271 -33.94,-0.415 -34.12,-0.413C-34.301,-0.41 -34.445,-0.26 -34.442,-0.08C-34.439,0.1 -34.291,0.244 -34.11,0.24C-33.929,0.237 -33.785,0.089 -33.789,-0.091M-38.94,-2.187C-38.945,-2.486 -39.193,-2.727 -39.494,-2.721C-39.795,-2.717 -40.034,-2.469 -40.029,-2.169C-40.024,-1.868 -39.777,-1.628 -39.477,-1.633C-39.175,-1.638 -38.935,-1.885 -38.94,-2.187M-40.119,-0.97C-40.123,-1.27 -40.371,-1.51 -40.672,-1.505C-40.973,-1.501 -41.212,-1.252 -41.207,-0.953C-41.203,-0.651 -40.955,-0.412 -40.655,-0.416C-40.354,-0.421 -40.114,-0.669 -40.119,-0.97M-42.653,-2.78C-42.657,-3.08 -42.905,-3.321 -43.206,-3.316C-43.507,-3.311 -43.747,-3.063 -43.742,-2.762C-43.737,-2.461 -43.489,-2.222 -43.188,-2.227C-42.888,-2.231 -42.647,-2.479 -42.653,-2.78M-45.196,-2.956L-45.67,-3.206L-45.934,-3.671L-46.183,-3.198L-46.648,-2.933L-46.175,-2.683L-45.911,-2.219L-45.662,-2.691L-45.196,-2.956ZM-47.655,-2.337L-48.128,-2.585L-48.392,-3.05L-48.641,-2.576L-49.106,-2.314L-48.633,-2.065L-48.369,-1.6L-48.12,-2.072L-47.655,-2.337ZM-37.351,-4.934C-37.351,-4.934 -48.219,-10.313 -65.509,-8.727C-65.509,-8.727 -69.375,-5.399 -75.031,-4.981C-75.031,-4.981 -86.508,-0.876 -92.187,4.878C-92.187,4.878 -89.611,2.551 -87.094,3.273C-87.094,3.273 -62.783,-15.305 -37.351,-4.934M-90.998,10.379C-89.902,9.283 -83.069,2.54 -83.069,2.54C-83.069,2.54 -90.651,8.213 -95.567,8.893C-97.748,9.196 -101.958,8.917 -107.032,9.552C-110.15,11.115 -114.887,13.366 -115.08,12.728C-115.193,12.356 -114.786,11.724 -114.25,11.093C-118.783,12.509 -123.54,14.954 -127.913,19.227C-127.913,19.227 -130.325,20.76 -129.735,21.098C-129.144,21.435 -128.555,21.773 -128.555,21.773C-128.555,21.773 -131.591,23.795 -130.749,25.06C-129.904,26.324 -122.636,20.898 -122.636,20.898C-122.636,20.898 -125.893,24.455 -128.539,26.292C-131.187,28.129 -131.104,30.995 -130.616,32.715C-130.616,32.715 -129.638,36.749 -124.698,35.635L-124.997,35.11L-125.952,34.607L-125.014,34.074L-124.51,33.12L-123.977,34.057L-123.022,34.559L-123.961,35.093L-124.177,35.504C-123.898,35.424 -123.618,35.342 -123.316,35.231C-117.159,32.956 -109.538,34.747 -106.3,35.439C-103.064,36.132 -98.998,31.378 -96.99,26.607C-96.99,26.607 -96.012,26.758 -94.713,25.091C-94.713,25.091 -95.759,27.687 -95.086,28.699C-94.411,29.711 -92.86,28.97 -92.539,28.245L-93.263,26.828C-93.263,26.828 -90.818,25.563 -89.282,22.495C-87.747,19.426 -89.238,16.256 -90.427,14.966C-90.427,14.966 -89.263,16.054 -88.842,16.687C-88.842,16.687 -88.156,11.189 -85.238,8.77C-85.238,8.77 -90.577,12.108 -91.42,12.486C-92.264,12.866 -92.095,11.475 -90.998,10.379M-96.687,32.694C-102.471,39.085 -107.851,36.569 -107.851,36.569C-102.434,41.412 -96.687,32.694 -96.687,32.694M-98.816,5.749C-98.812,5.989 -98.614,6.179 -98.373,6.176C-98.133,6.172 -97.941,5.975 -97.945,5.734C-97.949,5.494 -98.146,5.301 -98.387,5.305C-98.628,5.309 -98.82,5.507 -98.816,5.749M-95.808,3.194C-95.802,3.555 -95.504,3.843 -95.144,3.837C-94.783,3.832 -94.496,3.534 -94.502,3.174C-94.508,2.813 -94.804,2.525 -95.165,2.531C-95.526,2.537 -95.813,2.834 -95.808,3.194M-94.481,4.48C-94.477,4.721 -94.278,4.913 -94.038,4.907C-93.797,4.904 -93.606,4.707 -93.609,4.466C-93.613,4.225 -93.811,4.033 -94.052,4.038C-94.292,4.041 -94.485,4.239 -94.481,4.48M-92.443,2.487C-92.804,2.494 -93.092,2.789 -93.086,3.15C-93.08,3.511 -92.783,3.8 -92.422,3.793C-92.061,3.788 -91.773,3.49 -91.78,3.129C-91.785,2.769 -92.083,2.481 -92.443,2.487M-93.663,0.727L-92.981,1.087L-92.6,1.758L-92.242,1.075L-91.57,0.694L-92.253,0.335L-92.634,-0.337L-92.993,0.346L-93.663,0.727ZM0.435,25.79C0.162,25.538 -1.05,24.983 -2.823,24.14C-1.642,26.658 -0.678,29.371 0,32.311C-0.736,29.659 -1.893,26.728 -3.663,23.74C-6.873,22.198 -11.486,19.857 -15.848,16.759C-10.91,20.605 -3.23,27.079 -3.971,29.615C-3.971,29.615 -4.348,28.611 -5.07,28.937C-5.712,29.226 -7.801,31.784 -10.254,30.428C-10.277,30.495 -10.297,30.562 -10.323,30.628C-10.302,30.564 -10.28,30.496 -10.261,30.424C-10.559,30.258 -10.862,30.046 -11.169,29.752C-11.169,29.752 -10.76,29.977 -10.197,30.148C-9.834,28.341 -10.383,24.628 -18.484,20.482C-18.484,20.482 -21.228,20.162 -21.376,22.354C-21.376,22.354 -30.026,17.93 -30.52,21.223C-31.015,24.517 -26.25,25.718 -26.25,25.718L-35.371,26.048C-35.371,26.048 -36.174,21.497 -33.134,17.615C-33.134,17.615 -33.284,19.625 -31.468,19.049C-29.652,18.472 -25.701,14.392 -26.838,11.855C-26.838,11.855 -22.8,13.249 -20.578,15.222C-18.489,17.075 -8.423,24.119 -10.16,30.158C-9.02,30.495 -7.269,30.589 -6.864,28.19C-6.368,25.241 -14.086,18.3 -17.939,15.196C-18.048,15.109 -18.157,15.022 -18.266,14.934C-18.445,14.792 -18.614,14.658 -18.771,14.538C-18.701,14.589 -18.623,14.647 -18.547,14.704C-20.998,12.702 -23.244,10.444 -24.946,7.932C-24.946,7.932 -17.073,15.651 -6.667,19.417C-8.927,16.619 -11.814,13.859 -15.516,11.32C-15.652,11.619 -15.823,11.894 -16.045,12.135C-16.045,12.135 -15.884,11.765 -15.791,11.128C-24.031,5.564 -36.209,1.091 -54.182,-0.374C-54.182,-0.374 -70.118,-0.718 -69.261,7.259C-69.261,7.259 -69.531,9.484 -66.126,10.431C-66.126,10.431 -69.701,10.328 -71.825,9.771C-71.825,9.771 -71.403,8.758 -72.364,8.742C-73.325,8.725 -86.38,17.2 -85.758,23.288C-85.758,23.288 -82.471,23.289 -79.398,17.153C-79.398,17.153 -80.902,21.586 -81.745,23.61C-81.745,23.61 -85.946,25.092 -86.873,28.633C-87.802,32.174 -88.713,33.658 -88.713,33.658C-88.713,33.658 -104.055,46.495 -117.372,48.103C-117.372,48.103 -123.315,48.844 -127.475,46.144L-125.073,46.044C-125.073,46.044 -134.309,44.58 -138.244,38.835C-142.179,33.088 -146.335,20.731 -144.896,12.905C-144.896,12.905 -144.006,20.038 -141.309,23.925C-141.309,23.925 -138.726,1.072 -119.43,-11.997C-119.43,-11.997 -124.683,-5.71 -124.56,-3.107C-124.56,-3.107 -126.64,-3.653 -129.067,1.075C-131.496,5.803 -131.276,14.024 -124.738,13.21C-118.201,12.395 -116.639,5.561 -117.702,1.87C-117.702,1.87 -116.56,4.797 -113.89,3.95C-111.222,3.103 -108.731,0.841 -108.731,0.841C-108.731,0.841 -110.263,6.683 -100.093,4.182L-103.014,3.828C-103.014,3.828 -88.277,-7.361 -79.764,-10.784C-79.764,-10.784 -86.962,-6.702 -91.617,-2.833C-91.617,-2.833 -68.527,-16.533 -45.275,-11.348C-44.614,-11.201 -43.988,-11.03 -43.348,-10.869L-43.432,-10.912C-43.432,-10.912 -43.241,-10.854 -42.898,-10.756C-42.284,-10.598 -41.678,-10.436 -41.084,-10.265C-37.162,-9.243 -29.312,-7.457 -25.311,-8.357C-25.311,-8.357 -28.745,-7.117 -28.298,-5.93C-27.85,-4.743 -20.71,-2.218 -20.71,-2.218C-20.71,-2.218 -22.779,-1.604 -20.858,0.335L-20.897,0.315C-17.65,3.305 -15.765,6.277 -15.309,8.635C-11.417,11.745 -7.886,15.477 -5.098,19.948C3.406,22.621 13.358,22.402 22.039,13.334C22.039,13.334 17.683,19.19 18.018,20.419C18.354,21.649 21.37,21.818 21.37,21.818L22.231,23.617C22.231,23.617 14.956,19.893 8.148,24.282C8.148,24.282 8.673,25.579 12.484,24.833C12.484,24.833 11.903,25.268 9.499,25.658C7.097,26.049 5.051,26.395 7.956,29.301C7.956,29.301 4.793,28.697 -0.515,26.906C-0.515,26.906 1.564,26.828 0.435,25.79M-19.836,13.758C-19.619,13.898 -19.249,14.167 -18.771,14.538C-19.437,14.044 -19.836,13.758 -19.836,13.758" style="fill:rgb(35,31,32);fill-rule:nonzero;"/>
        </g>
        <g transform="matrix(4.16667,0,0,4.16667,278.154,230.054)">
            <path d="M0,-9.853C0,-9.853 -6.538,-5.21 -4.737,-3.6C-2.937,-1.99 -0.095,-5.021 -0.095,-5.021C-0.095,-5.021 -0.947,-2.842 -0.095,-2.558C0.758,-2.274 3.884,-5.684 9.095,-4.168C9.095,-4.168 4.358,-3.979 5.4,-1.042L-11.369,0L-11.179,-4.358C-11.179,-4.358 -4.642,-9.663 0,-9.853" style="fill:rgb(35,31,32);fill-rule:nonzero;"/>
        </g>
        <g transform="matrix(4.16667,0,0,4.16667,376.183,199.523)">
            <path d="M0,5.395C0,5.395 3.655,5.481 5.047,2.785C5.047,2.785 5.394,3.915 6.526,3.567C7.657,3.22 9.049,1.479 8.353,-0.261C8.353,-0.261 9.658,1.741 8.614,3.742C8.614,3.742 6.96,4.612 7.048,5.656L0,5.395Z" style="fill:rgb(35,31,32);fill-rule:nonzero;"/>
        </g>
        <g transform="matrix(4.16667,0,0,4.16667,257.309,192.36)">
            <path d="M0,5.035C0,5.035 -0.97,3.062 0.78,0C0.78,0 -0.268,2.912 1.155,3.562L0,5.035Z" style="fill:white;fill-rule:nonzero;"/>
        </g>
        <g transform="matrix(4.16667,0,0,4.16667,340.481,159.284)">
            <path d="M0,2.564L4.693,-0.437L0.631,3.001L0,2.564Z" style="fill:white;fill-rule:nonzero;"/>
        </g>
        <g transform="matrix(-5.68766e-05,4.16667,4.16667,5.68766e-05,1237.89,310.499)">
            <path d="M-35.58,-37.678L37.678,-37.678C35.162,-36.63 34.112,-35.58 34.112,-35.58L-32.017,-35.58C-32.017,-35.58 -33.062,-36.63 -35.58,-37.678Z" style="fill:white;fill-rule:nonzero;stroke:rgb(35,31,32);stroke-width:1.25px;"/>
        </g>
        <g transform="matrix(0,4.16667,4.16667,0,272.781,265.343)">
            <path d="M1.32,-34.18L38.82,-34.18L34.181,1.32L-3.32,1.32L1.32,-34.18Z" style="fill:white;fill-rule:nonzero;"/>
        </g>
        <g transform="matrix(0,4.16667,4.16667,0,272.783,265.345)">
            <path d="M1.32,-34.18L38.82,-34.18L34.18,1.32L-3.319,1.32L1.32,-34.18Z" style="fill:none;fill-rule:nonzero;stroke:rgb(35,31,32);stroke-width:1.38px;"/>
        </g>
        <g transform="matrix(4.16667,0,0,4.16667,133.599,262.889)">
            <path d="M0,36.625L34.724,31.7M0,4.418L34.724,0" style="fill:none;fill-rule:nonzero;stroke:rgb(35,31,32);stroke-width:0.75px;"/>
        </g>
        <g transform="matrix(-4.1218,-0.609787,-0.609787,4.1218,167.571,384.692)">
            <path d="M-21.607,-35.507L2.876,-35.507L-2.612,1.59L-27.095,1.59L-21.607,-35.507Z" style="fill:rgb(191,193,196);fill-rule:nonzero;stroke:rgb(35,31,32);stroke-width:1.38px;"/>
        </g>
        <g transform="matrix(0.703113,-4.10691,-4.10691,-0.703113,787.711,-121.892)">
            <path d="M-109.519,-92.363C-131.029,-33.394 -124.972,64.566 -146.482,123.535L-109.519,129.863C-88.01,70.894 -94.067,-27.066 -72.557,-86.035L-109.519,-92.363Z" style="fill:white;fill-rule:nonzero;"/>
        </g>
        <g transform="matrix(4.16667,0,0,4.16667,1093.69,259.115)">
            <path d="M0,28.47C0,28.47 -20.5,37.136 -114.666,28.803C-181.176,22.917 -214.384,28.076 -219.522,28.976M-0.878,-2.485C-0.878,-2.485 -20.75,5.553 -114.916,-2.78C-181.426,-8.666 -214.634,-3.506 -219.772,-2.607" style="fill:none;fill-rule:nonzero;stroke:rgb(35,31,32);stroke-width:0.75px;"/>
        </g>
        <g transform="matrix(0.703113,-4.10691,-4.10691,-0.703113,787.711,-121.892)">
            <path d="M-109.519,-92.363C-131.029,-33.394 -124.972,64.566 -146.482,123.535L-109.519,129.863C-88.01,70.894 -94.067,-27.066 -72.557,-86.035L-109.519,-92.363Z" style="fill:none;fill-rule:nonzero;stroke:rgb(35,31,32);stroke-width:1.37px;"/>
        </g>
        <g transform="matrix(0,4.16667,4.16667,0,2509.91,277.476)">
            <path d="M-8.305,-27.251L29.837,-27.251C29.752,-12.684 29.837,-10.789 26.609,-8.305L-10.891,-8.305C-8.417,-12.964 -8.342,-17.778 -8.305,-27.251Z" style="fill:none;fill-rule:nonzero;stroke:rgb(35,31,32);stroke-width:1.38px;"/>
        </g>
        <g transform="matrix(4.16667,0,0,4.16667,2393.84,388.522)">
            <path d="M0,-32.121C16.235,-32.175 17.687,-33.297 19.157,-34.424M0.603,0.072C20.205,2.303 18.535,-3.507 19.407,-3.682" style="fill:none;fill-rule:nonzero;stroke:rgb(35,31,32);stroke-width:0.75px;"/>
        </g>
        <g transform="matrix(-4.16667,0,0,4.16667,3487.18,-2670.27)">
            <rect x="261.514" y="686.111" width="313.894" height="60.642" style="fill:rgb(222,223,224);stroke:rgb(35,31,32);stroke-width:1.25px;"/>
        </g>
        <g transform="matrix(4.16667,0,0,4.16667,1089.64,408.338)">
            <path d="M0,-44.866C0,-44.866 1.067,-55.199 8.401,-55.199L30.401,-55.199C30.401,-55.199 37.567,-52.754 50.901,-52.754M-0.001,0C-0.001,0 1.066,10.333 8.4,10.333L30.4,10.333C30.4,10.333 37.566,7.888 50.9,7.888" style="fill:none;fill-rule:nonzero;stroke:rgb(35,31,32);stroke-width:1.25px;"/>
        </g>
        <g transform="matrix(4.16667,0,0,4.16667,2397.53,408.338)">
            <path d="M0,-44.866C0,-44.866 -1.067,-55.199 -8.401,-55.199L-30.401,-55.199C-30.401,-55.199 -37.567,-52.754 -50.901,-52.754M0.001,0C0.001,0 -1.066,10.333 -8.4,10.333L-30.4,10.333C-30.4,10.333 -37.566,7.888 -50.9,7.888" style="fill:none;fill-rule:nonzero;stroke:rgb(35,31,32);stroke-width:1.25px;"/>
        </g>
        <g transform="matrix(4.16667,0,0,4.16667,2306.29,441.205)">
            <path d="M0,-60.641C-5.202,-59.734 -11.465,-58.718 -17.206,-58.718L-252.891,-58.718C-258.632,-58.718 -264.895,-59.734 -270.097,-60.641M-270.097,0C-264.895,-0.908 -258.632,-1.923 -252.891,-1.923L-17.206,-1.923C-11.465,-1.923 -5.202,-0.908 0,0" style="fill:none;fill-rule:nonzero;stroke:rgb(35,31,32);stroke-width:0.75px;"/>
        </g>
        <g transform="matrix(5.68766e-05,4.16667,4.16667,-5.68766e-05,2554.52,319.232)">
            <path d="M-37.677,-35.58L35.581,-35.58C33.065,-36.628 32.015,-37.678 32.015,-37.678L-34.114,-37.678C-34.114,-37.678 -35.159,-36.628 -37.677,-35.58Z" style="fill:white;fill-rule:nonzero;stroke:rgb(35,31,32);stroke-width:1.25px;"/>
        </g>
        <g transform="matrix(4.16667,0,0,4.16667,1445.73,352.177)">
            <path d="M0,-32.549L-61.537,-32.549L-67.874,-24.572L-67.874,-7.976L-61.539,0L0.002,0L6.338,-7.976L6.338,-24.572L0,-32.549Z" style="fill:white;fill-rule:nonzero;stroke:rgb(35,31,32);stroke-width:1.38px;"/>
        </g>
        <g transform="matrix(4.16667,0,0,4.16667,1170.87,328.965)">
            <path d="M0,-21.407L0,0.317M0,-2.743L6.716,5.571M6.715,-26.978L-0.001,-18.665" style="fill:none;fill-rule:nonzero;stroke:rgb(35,31,32);stroke-width:0.6px;"/>
        </g>
        <g transform="matrix(0,4.16667,4.16667,0,1170.88,280.408)">
            <path d="M0.949,-0.951C1.474,-0.951 1.9,-0.525 1.9,-0.001C1.9,0.524 1.474,0.949 0.949,0.949C0.426,0.949 -0,0.524 -0,-0.001C-0,-0.525 0.426,-0.951 0.949,-0.951" style="fill:rgb(35,31,32);fill-rule:nonzero;"/>
        </g>
        <g transform="matrix(0,-4.16667,-4.16667,0,1464.17,280.408)">
            <path d="M-0.949,-0.951C-1.474,-0.951 -1.9,-0.525 -1.9,-0.001C-1.9,0.524 -1.474,0.949 -0.949,0.949C-0.426,0.949 0,0.524 0,-0.001C0,-0.525 -0.426,-0.951 -0.949,-0.951" style="fill:rgb(35,31,32);fill-rule:nonzero;"/>
        </g>
        <g transform="matrix(4.16667,0,0,4.16667,1464.17,328.965)">
            <path d="M0,-21.407L0,0.317M0,-2.743L-6.716,5.571M-6.715,-26.978L0.001,-18.665" style="fill:none;fill-rule:nonzero;stroke:rgb(35,31,32);stroke-width:0.6px;"/>
        </g>
        <g transform="matrix(4.16667,0,0,4.16667,1865.36,352.177)">
            <path d="M0,-32.549L-61.537,-32.549L-67.874,-24.572L-67.874,-7.976L-61.539,0L0.002,0L6.338,-7.976L6.338,-24.572L0,-32.549Z" style="fill:white;fill-rule:nonzero;stroke:rgb(35,31,32);stroke-width:1.38px;"/>
        </g>
        <g transform="matrix(4.16667,0,0,4.16667,1590.5,328.965)">
            <path d="M0,-21.407L0,0.317M0,-2.743L6.716,5.571M6.715,-26.978L-0.001,-18.665" style="fill:none;fill-rule:nonzero;stroke:rgb(35,31,32);stroke-width:0.6px;"/>
        </g>
        <g transform="matrix(0,4.16667,4.16667,0,1590.51,280.408)">
            <path d="M0.949,-0.951C1.474,-0.951 1.9,-0.525 1.9,-0.001C1.9,0.524 1.474,0.949 0.949,0.949C0.426,0.949 -0,0.524 -0,-0.001C-0,-0.525 0.426,-0.951 0.949,-0.951" style="fill:rgb(35,31,32);fill-rule:nonzero;"/>
        </g>
        <g transform="matrix(0,-4.16667,-4.16667,0,1883.8,280.408)">
            <path d="M-0.949,-0.951C-1.474,-0.951 -1.9,-0.525 -1.9,-0.001C-1.9,0.524 -1.474,0.949 -0.949,0.949C-0.426,0.949 0,0.524 0,-0.001C0,-0.525 -0.426,-0.951 -0.949,-0.951" style="fill:rgb(35,31,32);fill-rule:nonzero;"/>
        </g>
        <g transform="matrix(4.16667,0,0,4.16667,1883.8,328.965)">
            <path d="M0,-21.407L0,0.317M0,-2.743L-6.716,5.571M-6.715,-26.978L0.001,-18.665" style="fill:none;fill-rule:nonzero;stroke:rgb(35,31,32);stroke-width:0.6px;"/>
        </g>
        <g transform="matrix(4.16667,0,0,4.16667,2297.85,352.177)">
            <path d="M0,-32.549L-61.537,-32.549L-67.874,-24.572L-67.874,-7.976L-61.539,0L0.002,0L6.338,-7.976L6.338,-24.572L0,-32.549Z" style="fill:white;fill-rule:nonzero;stroke:rgb(35,31,32);stroke-width:1.38px;"/>
        </g>
        <g transform="matrix(4.16667,0,0,4.16667,2023,328.965)">
            <path d="M0,-21.407L0,0.317M0,-2.743L6.716,5.571M6.715,-26.978L-0.001,-18.665" style="fill:none;fill-rule:nonzero;stroke:rgb(35,31,32);stroke-width:0.6px;"/>
        </g>
        <g transform="matrix(0,4.16667,4.16667,0,2023,280.408)">
            <path d="M0.949,-0.951C1.474,-0.951 1.9,-0.525 1.9,-0.001C1.9,0.524 1.474,0.949 0.949,0.949C0.426,0.949 -0,0.524 -0,-0.001C-0,-0.525 0.426,-0.951 0.949,-0.951" style="fill:rgb(35,31,32);fill-rule:nonzero;"/>
        </g>
        <g transform="matrix(0,-4.16667,-4.16667,0,2316.29,280.408)">
            <path d="M-0.949,-0.951C-1.474,-0.951 -1.9,-0.525 -1.9,-0.001C-1.9,0.524 -1.474,0.949 -0.949,0.949C-0.426,0.949 0,0.524 0,-0.001C0,-0.525 -0.426,-0.951 -0.949,-0.951" style="fill:rgb(35,31,32);fill-rule:nonzero;"/>
        </g>
        <g transform="matrix(4.16667,0,0,4.16667,2316.3,328.965)">
            <path d="M0,-21.407L0,0.317M0,-2.743L-6.716,5.571M-6.715,-26.978L0.001,-18.665" style="fill:none;fill-rule:nonzero;stroke:rgb(35,31,32);stroke-width:0.6px;"/>
        </g>
        <g transform="matrix(4.16667,0,0,4.16667,0,0)">
            <text x="70.12px" y="99.138px" style="font-family:'LucidaGrande', 'Lucida Grande', sans-serif;font-weight:500;font-size:7px;fill:rgb(35,31,32);">S<tspan x="73.681px 77.341px 80.926px 84.45px 87.973px 92.608px 97.228px 100.789px 105.007px 106.815px 111.777px " y="99.138px 99.138px 99.138px 99.138px 99.138px 99.138px 99.138px 99.138px 99.138px 99.138px 99.138px ">PELLCASTING</tspan></text>
            <text x="70.12px" y="106.138px" style="font-family:'LucidaGrande', 'Lucida Grande', sans-serif;font-weight:500;font-size:7px;fill:rgb(35,31,32);">C<tspan x="74.57px 77.91px 82.346px 85.723px " y="106.138px 106.138px 106.138px 106.138px ">LASS</tspan></text>
        </g>
        <g transform="matrix(4.16667,0,0,4.16667,0,0)">
            <text x="292.9px" y="92.89px" style="font-family:'LucidaGrande', 'Lucida Grande', sans-serif;font-weight:500;font-size:7px;fill:rgb(35,31,32);">S<tspan x="296.461px 300.121px 303.706px 307.229px 310.753px 315.387px 320.008px 323.569px 327.786px 329.594px 334.557px " y="92.89px 92.89px 92.89px 92.89px 92.89px 92.89px 92.89px 92.89px 92.89px 92.89px 92.89px ">PELLCASTING</tspan></text>
            <text x="304.408px" y="99.288px" style="font-family:'LucidaGrande', 'Lucida Grande', sans-serif;font-weight:500;font-size:7px;fill:rgb(35,31,32);">A<tspan x="309.019px 312.828px 314.626px 318.141px 319.939px 324.148px " y="99.288px 99.288px 99.288px 99.288px 99.288px 99.288px ">BILITY</tspan></text>
        </g>
        <g transform="matrix(4.16667,0,0,4.16667,0,0)">
            <text x="395.163px" y="92.89px" style="font-family:'LucidaGrande', 'Lucida Grande', sans-serif;font-weight:500;font-size:7px;fill:rgb(35,31,32);">S<tspan x="398.707px 402.351px 405.919px 409.426px 412.933px 414.923px 418.467px 423.072px 427.423px 430.991px 432.981px 437.998px " y="92.89px 92.89px 92.89px 92.89px 92.89px 92.89px 92.89px 92.89px 92.89px 92.89px 92.89px 92.89px ">PELL SAVE DC</tspan></text>
        </g>
        <g transform="matrix(4.16667,0,0,4.16667,0,0)">
            <text x="499.057px" y="92.89px" style="font-family:'LucidaGrande', 'Lucida Grande', sans-serif;font-weight:500;font-size:7px;fill:rgb(35,31,32);">S<tspan x="502.372px 505.787px 509.127px 512.405px " y="92.89px 92.89px 92.89px 92.89px ">PELL</tspan></text>
            <text x="519px" y="92.89px" style="font-family:'LucidaGrande', 'Lucida Grande', sans-serif;font-weight:500;font-size:7px;fill:rgb(35,31,32);">A<tspan x="523.375px 527.347px 531.319px 535.694px 540.083px " y="92.89px 92.89px 92.89px 92.89px 92.89px ">TTACK</tspan></text>
            <text x="509.004px" y="99.288px" style="font-family:'LucidaGrande', 'Lucida Grande', sans-serif;font-weight:500;font-size:7px;fill:rgb(35,31,32);">BO<tspan x="518.571px 523.793px 528.695px " y="99.288px 99.288px 99.288px ">NUS</tspan></text>
        </g>
        <g transform="matrix(4.16667,0,0,4.16667,964.191,166.463)">
            <path d="M0,-0.953C0.28,-0.953 0.28,-0.541 0,-0.541L-0.384,-0.541L-0.384,-0.953L0,-0.953ZM0.276,-0.23C0.93,-0.378 0.796,-1.38 0,-1.38L-0.86,-1.38L-0.86,0.424L-0.384,0.424L-0.384,-0.137L-0.217,-0.137L0.212,0.424L0.723,0.424L0.723,0.32L0.276,-0.23ZM-0.153,0.932C0.696,0.932 1.176,0.31 1.176,-0.477C1.176,-1.262 0.696,-1.883 -0.153,-1.883C-0.997,-1.883 -1.477,-1.262 -1.481,-0.477C-1.477,0.31 -0.997,0.932 -0.153,0.932M1.603,-0.477C1.603,0.484 0.973,1.293 -0.152,1.293C-1.273,1.293 -1.903,0.484 -1.903,-0.477C-1.903,-1.435 -1.273,-2.246 -0.152,-2.246C0.973,-2.246 1.603,-1.435 1.603,-0.477" style="fill:rgb(35,31,32);fill-rule:nonzero;"/>
        </g>
        <g transform="matrix(4.16667,0,0,4.16667,943.266,162.953)">
            <path d="M0,-14.287C-1.261,-14.949 -2.546,-15.269 -4.298,-15.339L-4.298,-15.353L-7.812,-15.353C-10.593,-15.353 -11.911,-15.39 -12.876,-15.611C-13.709,-15.803 -14.455,-16.287 -14.463,-16.29L-14.676,-16.43L-14.653,-16.178C-14.648,-16.097 -14.456,-14.212 -12.202,-12.568C-11.768,-12.254 -11.463,-11.946 -11.463,-10.84L-11.463,-10.109C-10.981,-10.407 -10.449,-10.67 -9.86,-10.893C-10.058,-10.721 -10.3,-10.463 -10.504,-10.184C-10.113,-10.441 -9.624,-10.658 -8.825,-10.8C-7.768,-10.987 -6.996,-10.905 -6.588,-10.827L-6.588,-11.104L-4.623,-11.104C-2.05,-11.104 -0.572,-9.46 -0.572,-6.591C-0.572,-3.742 -2.05,-2.11 -4.623,-2.11L-5.392,-2.11C-4.713,-1.491 -4.287,-0.639 -4.287,0.303C-4.287,0.981 -4.513,1.607 -4.886,2.138C-2.444,2.116 -0.88,1.68 0.809,0.554C1.546,0.057 2.177,-0.52 2.686,-1.162C3.844,-2.607 4.508,-4.605 4.508,-6.639C4.508,-9.949 2.822,-12.808 0,-14.287M-10.569,-2.047C-10.458,-2.206 -10.436,-2.409 -10.507,-2.605L-11.07,-4.155L-9.651,-3.313C-9.517,-3.233 -9.394,-3.135 -9.278,-3.029L-8.414,-3.093C-7.764,-3.154 -7.144,-3.056 -6.588,-2.844L-6.588,-7.261C-6.903,-7.152 -7.149,-7.031 -7.262,-6.929L-7.625,-6.6L-8.015,-6.897C-8.267,-7.089 -8.643,-7.199 -9.045,-7.199C-9.705,-7.199 -10.348,-6.914 -10.764,-6.438C-11.02,-6.144 -11.251,-5.84 -11.463,-5.539L-11.463,-2.034C-11.117,-1.77 -10.756,-1.779 -10.569,-2.047M-28.068,-2.289L-28.615,-1.526L-28.42,-3.681C-28.261,-5.434 -27.183,-6.7 -26.429,-7.388C-26.581,-7.373 -26.744,-7.35 -26.926,-7.313L-28.857,-6.914L-27.464,-8.309C-26.986,-8.786 -26.32,-9.14 -25.733,-9.453C-25.668,-9.488 -25.596,-9.526 -25.525,-9.565C-26.21,-11.59 -27.605,-13.268 -29.548,-14.287C-30.81,-14.949 -32.095,-15.269 -33.846,-15.339L-33.846,-15.353L-37.36,-15.353C-40.141,-15.353 -41.46,-15.39 -42.425,-15.611C-43.256,-15.803 -44.004,-16.287 -44.011,-16.29L-44.224,-16.43L-44.202,-16.178C-44.195,-16.097 -44.006,-14.212 -41.751,-12.568C-41.317,-12.254 -41.011,-11.946 -41.011,-10.84L-41.011,-0.751C-41.011,0.329 -41.222,0.63 -41.726,0.934C-42.253,1.25 -43.383,1.913 -43.383,1.914L-43.775,2.143L-34.633,2.143C-32.072,2.143 -30.474,1.712 -28.741,0.554C-28.496,0.391 -28.275,0.208 -28.054,0.026C-28.181,-0.758 -28.173,-1.546 -28.068,-2.289M-6.588,-10.16L-6.588,-10.643C-6.898,-10.542 -7.341,-10.388 -7.537,-10.273C-7.212,-10.273 -6.896,-10.227 -6.588,-10.16M-34.174,-2.11L-36.137,-2.11L-36.137,-11.104L-34.174,-11.104C-31.599,-11.104 -30.122,-9.46 -30.122,-6.591C-30.122,-3.742 -31.599,-2.11 -34.174,-2.11" style="fill:rgb(35,31,32);fill-rule:nonzero;"/>
        </g>
        <g transform="matrix(4.16667,0,0,4.16667,908.024,116.562)">
            <path d="M0,9.21C0.272,9.256 0.779,9.598 0.779,10.086C0.779,10.378 0.644,10.605 0.366,10.78C0.245,10.857 0.101,10.919 -0.055,10.966C0.028,10.689 0.068,10.387 0.057,10.07C0.037,9.513 0,9.21 0,9.21M-0.434,2.579C-3.036,2.704 -5.276,4.92 -6.423,6.477C-6.218,6.546 -6.008,6.64 -5.803,6.805C-5.562,6.999 -5.206,7.29 -4.826,7.604C-4.524,6.935 -3.828,5.544 -2.75,4.308C-1.781,3.196 -0.088,3.091 0.8,3.767C1.373,3.25 3.344,2.765 4.382,3.06C3.749,2.372 2.406,1.451 0.92,1.451C-0.303,1.451 -0.995,2.051 -1.171,1.782C-1.397,1.435 -0.342,0.924 -0.342,0.924C-1.788,0.983 -2.84,2.684 -3.278,2.472C-3.538,2.347 -2.887,1.525 -2.887,1.525C-4.209,2.293 -5.317,3.92 -5.548,4.911C-4.331,3.421 -1.97,2.354 -0.434,2.579M-6.447,11.002C-6.962,10.549 -7.732,9.909 -8.315,9.445C-8.974,10.575 -10.381,12.048 -11.807,12.048C-14.432,12.048 -15.747,8.333 -12.804,5.296C-12.975,5.24 -13.144,5.233 -13.201,5.233C-13.452,5.233 -13.699,5.3 -13.861,5.412L-15.018,6.211L-14.756,4.738C-14.73,4.659 -14.699,4.582 -14.664,4.506C-15.332,4.838 -15.989,5.311 -16.237,5.582L-17.375,6.83L-17.253,5.078C-17.228,4.942 -17.2,4.809 -17.174,4.683C-17.114,4.399 -17.041,4.047 -17.086,3.929C-17.101,3.893 -17.132,3.862 -17.168,3.836C-17.711,4.254 -19.2,5.571 -19.374,7.506C-19.374,7.506 -19.086,7.1 -18.836,7.005C-18.671,6.941 -18.526,7.023 -18.684,7.506C-18.746,7.695 -20.18,11.579 -17.359,14.265C-17.359,14.265 -17.668,13.475 -17.481,13.235C-17.391,13.119 -17.272,13.109 -17.109,13.318C-16.988,13.478 -16.86,13.633 -16.725,13.787L-16.724,13.789C-16.49,14.053 -16.233,14.303 -15.954,14.518C-15.109,15.11 -13.963,15.585 -12.659,15.585C-9.168,15.585 -7.319,13.178 -6.293,11.157C-6.338,11.104 -6.389,11.053 -6.447,11.002M3.582,11.437C3.582,9.757 1.953,8.455 0.099,8.628C0.628,8.719 1.369,9.282 1.369,10.086C1.369,11.397 -0.267,11.801 -1.172,11.597C-0.212,10.931 -0.339,9.014 -1.494,8.328C-1.104,9.402 -2.276,10.47 -3.417,9.534C-4.051,9.013 -5.518,7.79 -6.173,7.264C-6.826,6.738 -7.593,7.044 -7.896,6.815C-8.24,6.553 -8.02,5.817 -8.49,5.544C-8.884,5.316 -9.271,5.443 -9.73,5.291C-10.145,5.153 -10.456,4.83 -10.402,4.394C-10.579,4.705 -10.59,5.247 -10.275,5.613C-9.962,5.976 -9.44,6.199 -9.224,6.597C-8.945,7.113 -9.415,7.829 -8.173,8.803C-7.579,9.268 -6.659,10.031 -6.058,10.558C-5.047,11.445 -5.586,12.553 -5.454,13.519C-5.301,14.647 -4.392,15.272 -3.789,15.431C-4.309,14.956 -4.507,13.765 -3.775,13.034C-3.737,13.976 -3.057,15.452 -1.506,15.866C0.144,16.305 1.897,15.37 2.262,14.712C1.626,15 0.427,14.69 -0.067,14.227C1.869,14.501 3.582,13.158 3.582,11.437M-9.187,3.357C-9.187,3.357 -9.433,2.557 -10.274,2.247C-10.109,2.827 -9.887,3.357 -9.187,3.357M-18.587,3.243C-17.756,2.411 -16.054,1.895 -15.938,1.442C-15.827,0.996 -16.709,0.236 -17.038,0.093C-15.827,0.045 -15.223,0.273 -15.223,0.273C-15.54,-0.193 -15.642,-0.905 -15.462,-1.471C-14.803,0.113 -12.442,0.368 -11.857,1.68C-11.941,1.115 -12.477,0.477 -13.098,0.106C-13.432,-0.756 -13.182,-2.345 -12.774,-2.783C-12.917,-0.499 -9.657,0.808 -8.981,2.468C-9.378,1.047 -10.897,0.145 -11.618,-0.706C-11.856,-1.271 -11.673,-2.229 -11.415,-2.556C-11.491,-1.026 -9.84,0.168 -8.957,1.024C-7.917,2.03 -7.622,2.921 -7.763,3.649C-7.535,3.709 -7.222,3.931 -7.274,4.306C-6.942,4.229 -6.604,3.848 -6.522,3.614C-6.359,4.749 -7.027,5.952 -7.776,6.31C-7.776,6.31 -7.575,5.768 -7.916,5.353C-8.252,4.944 -9.208,4.939 -9.53,4.962C-9.53,4.962 -9.134,4.377 -9.291,4.078C-9.487,3.71 -11.355,3.873 -12.19,4.174C-11.906,4.144 -11.233,4.22 -10.998,4.317C-11.128,4.512 -11.471,5.335 -11.225,5.582C-10.998,5.809 -10.7,5.416 -10.7,5.416C-10.7,5.416 -10.992,6.316 -10.782,6.525C-10.574,6.734 -10.127,6.585 -10.127,6.585C-10.405,7.292 -11.491,7.778 -12.251,7.778C-11.979,7.692 -11.532,7.21 -11.464,6.919C-11.663,7.019 -12.182,7.076 -12.382,7.039C-12.137,6.939 -11.643,6.306 -11.796,5.594C-12.022,4.556 -13.469,4.424 -14.197,4.926C-13.961,4.229 -13.256,3.577 -12.706,3.364C-13.028,3.25 -13.405,3.155 -13.811,3.082C-13.348,2.702 -12.186,2.393 -11.592,2.425C-12.497,2.193 -14.152,2.483 -14.91,3.378C-14.669,3.378 -14.044,3.496 -13.804,3.573C-14.842,3.761 -16.256,4.728 -16.673,5.184C-16.563,4.583 -16.395,4.075 -16.537,3.713C-16.737,3.203 -17.356,2.989 -18.587,3.243M-16.671,-2.097C-16.85,-4.061 -15.915,-5.147 -15.493,-5.577C-14.565,-6.523 -13.315,-7.095 -11.469,-6.996C-8.554,-6.84 -7.155,-4.839 -7.155,-2.683C-7.155,-1.643 -7.684,-0.252 -8.417,0.735C-8.461,0.69 -8.499,0.646 -8.546,0.601C-8.691,0.461 -8.856,0.311 -9.031,0.152C-9.51,-0.281 -10.051,-0.778 -10.414,-1.315C-9.616,-2.768 -10.072,-4.827 -11.759,-4.827C-12.746,-4.827 -13.57,-3.922 -13.5,-2.721C-13.757,-2.153 -13.883,-1.33 -13.834,-0.599C-14.317,-0.903 -14.726,-1.236 -14.917,-1.698L-15.537,-3.184L-16.025,-1.65C-16.141,-1.285 -16.167,-0.876 -16.113,-0.481C-16.116,-0.481 -16.12,-0.481 -16.123,-0.482C-16.344,-0.815 -16.603,-1.346 -16.671,-2.097" style="fill:rgb(35,31,32);fill-rule:nonzero;"/>
        </g>
    </g>
</svg>
